<?xml version="1.0" encoding="UTF-8"?>
<svg xmlns="http://www.w3.org/2000/svg" xmlns:xlink="http://www.w3.org/1999/xlink" version="1.1" viewBox="0 0 48.6 58.1">
  <defs>
    <style>
      .cls-1 {
        fill: #b28d8d;
      }

      .cls-1, .cls-2, .cls-3, .cls-4, .cls-5, .cls-6, .cls-7, .cls-8, .cls-9, .cls-10, .cls-11, .cls-12, .cls-13, .cls-14, .cls-15, .cls-16, .cls-17, .cls-18, .cls-19, .cls-20, .cls-21, .cls-22 {
        stroke-width: 0px;
      }

      .cls-1, .cls-16 {
        opacity: .5;
      }

      .cls-1, .cls-16, .cls-17 {
        mix-blend-mode: multiply;
      }

      .cls-2 {
        fill: #de3e35;
      }

      .cls-23 {
        clip-path: url(#clippath);
      }

      .cls-3 {
        fill: none;
      }

      .cls-4 {
        fill: #473343;
      }

      .cls-5 {
        fill: url(#linear-gradient);
      }

      .cls-6 {
        fill: #f4f3e7;
      }

      .cls-7 {
        fill: #f9ab8a;
      }

      .cls-8 {
        fill: #843b37;
      }

      .cls-9 {
        fill: #fbc29f;
      }

      .cls-10 {
        fill: #f04c33;
      }

      .cls-11 {
        fill: #f8a284;
      }

      .cls-12 {
        fill: #c72a34;
      }

      .cls-13 {
        fill: #9c9aa6;
      }

      .cls-14 {
        fill: url(#_ÂÁ_Ï_ÌÌ_È_ËÂÌÚ_382);
      }

      .cls-15 {
        fill: #5d4655;
      }

      .cls-16 {
        fill: #cfc69c;
      }

      .cls-17 {
        fill: #fdcc98;
        opacity: .2;
      }

      .cls-18 {
        fill: url(#linear-gradient-2);
      }

      .cls-24 {
        isolation: isolate;
      }

      .cls-19 {
        fill: #df725f;
      }

      .cls-20 {
        fill: #a53f3b;
      }

      .cls-21 {
        fill: #873138;
      }

      .cls-22 {
        fill: #ca705b;
      }
    </style>
    <clipPath id="clippath">
      <polygon id="SVGID" class="cls-3" points="5.5 50.9 45.7 49.6 45.8 4.2 5.6 5.5 5.5 50.9"/>
    </clipPath>
    <linearGradient id="linear-gradient" x1="-175.7" y1="77.6" x2="-175.7" y2="55.5" gradientTransform="translate(217.3 5.9) rotate(15.2) skewX(-3)" gradientUnits="userSpaceOnUse">
      <stop offset="0" stop-color="#fcc6a4"/>
      <stop offset=".5" stop-color="#fbc3a1"/>
      <stop offset=".8" stop-color="#fabc9a"/>
      <stop offset="1" stop-color="#f9af8e"/>
      <stop offset="1" stop-color="#f9ab8a"/>
    </linearGradient>
    <linearGradient id="linear-gradient-2" x1="26.3" y1="28.6" x2="32.2" y2="28.6" gradientTransform="matrix(1,0,0,1,0,0)" xlink:href="#linear-gradient"/>
    <linearGradient id="_ÂÁ_Ï_ÌÌ_È_ËÂÌÚ_382" data-name="¡ÂÁ˚ÏˇÌÌ˚È „‡‰ËÂÌÚ 382" x1="-403.3" y1="-428.7" x2="-403.3" y2="-434.1" gradientTransform="translate(-562.7 -63.3) rotate(-126.6) scale(1 -1)" gradientUnits="userSpaceOnUse">
      <stop offset="0" stop-color="#c72a34"/>
      <stop offset="1" stop-color="#f04c33"/>
    </linearGradient>
  </defs>
  <g class="cls-24">
    <g id="Layer_1" data-name="Layer 1">
      <g>
        <polygon class="cls-16" points="43.9 3.7 45.7 58.1 0 55.8 3.9 5 43.9 3.7"/>
        <polygon class="cls-6" points="47.5 1.5 48.6 54 2.9 54.1 3.2 3.4 47.5 1.5"/>
        <g class="cls-23">
          <polygon class="cls-13" points="3.2 53.6 48 52.1 48.1 1.5 3.3 2.9 3.2 53.6"/>
          <g>
            <polygon class="cls-7" points="19.5 27.8 20 36.5 26.1 37.7 32.1 36.8 32.6 29.9 19.5 27.8"/>
            <path class="cls-15" d="M20.6,35.1c-.6-.5-1.5-2.4-1.6-.8,0,1.7-4.5,2.5-6.1,3.4-1.6.9-7.6,4.5-8.5,7.1-.9,2.6.6,5.8.6,5.8,0,0,13.7,2.1,24.7.3,11-1.8,16.6,2.6,17,.6.4-1.9-.9-10.6-5.3-11.1-3.9-.4-9.1-5.7-9.1-5.7,0,0,0,2-4.3,2.2-4.3.2-6.6-1.1-7.3-1.8Z"/>
            <path class="cls-4" d="M34.2,36.2s-2.7,2.5-3.1,7.1c-.3,4.6-.3,7.2-.3,7.2l15.9-.6s-1-6.5-2-8c-1-1.5-5.9-2.7-5.9-2.7l-4.6-2.9Z"/>
            <path class="cls-4" d="M18,35.5s3.5.6,6.3,6.7c2.8,6.1,2.1,9.9,2.1,9.9l-22.4.4,1-9.5s6.2-6,13.1-7.4Z"/>
            <path class="cls-11" d="M34.5,20.4c.6-.7,2.5-.5,2.9,1,.3,1.1-.2,3.5-1.5,5.3-.5.8-1.4-.1-1.7-.5-.9-1.5-1.6-3.4.3-5.8Z"/>
            <path class="cls-5" d="M30.2,34.5c6.7-.8,4.9-4.3,5.3-8.6.3-3.2,1.2-11.5,1.2-11.5l-17.5.5s-1.5,11.4.8,15.5c2.3,4.1,7,4.6,10.1,4.2Z"/>
            <path class="cls-17" d="M30.2,34.5c-.9-.2-1.6-.4-2-.6-3.8-1.6-4.6-4.7-5-8.2-.2-2.1.6-7.5,2-8.7,10,1.9,11.6-2.6,11.6-2.6l-17.5.5s-1.5,11.4.8,15.5c2.3,4.1,7,4.6,10.1,4.2Z"/>
            <path class="cls-11" d="M31.1,29.6c-.2-.9-2.2-.4-2.1.1,0,.3.5,0,1.1,0,.6,0,1.1.2,1.1-.1Z"/>
            <path class="cls-7" d="M19.2,20.2c-.9-.5-3.5.7-2.9,2.5.6,1.9,1.2,3.8,2,4.4,1,.7,1.9,0,2.2-.4.9-1.4.8-5.5-1.2-6.5Z"/>
            <g>
              <polygon class="cls-7" points="28.7 25.7 30.1 26.2 31.7 25.1 30.9 21.8 29.3 20.3 28.7 25.7"/>
              <path class="cls-22" d="M28.7,25.7c.5.1,1,.2,1.5.3h-.1c.5-.4,1-.8,1.5-1.2v.2c-.2-.5-.4-1.1-.5-1.6-.1-.6-.3-1.1-.4-1.7h0c-.5-.5-.9-1-1.4-1.6.6.4,1.1.9,1.6,1.4.2.6.4,1.2.5,1.7.2.5.3,1.1.4,1.6v.2s0,0,0,0c-.5.4-1.1.7-1.6,1h0c-.5-.2-1-.4-1.5-.6Z"/>
            </g>
            <polygon class="cls-22" points="28.7 25.6 29.6 26 29.6 25.3 28.9 25.2 28.7 25.6"/>
            <path class="cls-8" d="M22.9,20.4s.3-.3.8-.5c.1,0,.3-.1.4-.2.2,0,.3-.1.5-.2.3,0,.7-.1,1.1-.1.4,0,.7,0,1.1.1.3,0,.6.2.9.3.5.3.7.4.7.4l-.2.9h-5s-.2-.8-.2-.8Z"/>
            <path class="cls-8" d="M30.8,20.1s0,0,.2-.1c.1,0,.3-.2.5-.3.2,0,.5-.2.7-.3.1,0,.3,0,.4-.1h.2c0,0,.3-.1.3-.1.3,0,.6,0,.9,0,.3,0,.6,0,.8,0,.4.1.7.3.7.3l-.2,1.3-4.4.3-.2-1Z"/>
            <path class="cls-22" d="M17,22c.2-.3.4-.6.7-.9.2-.1.4-.2.6-.1.1,0,.2,0,.3.1,0,0,.2.1.2.2.1.1.3.3.3.5,0,.2.1.4.2.6,0,.4,0,.8,0,1.2,0,0,0,0,0,.1-.3.3-.5.5-.3.8.2.3.5.6.8.9-.4,0-.9-.3-1.2-.6-.1-.2-.2-.5-.2-.8,0-.3.3-.5.5-.6h0c.1-.2.2-.5.2-.8,0-.3-.1-.7-.3-.9,0,0-.1-.1-.2-.2,0,0-.1,0-.2-.1-.1,0-.3,0-.5,0-.3.2-.6.4-.8.7Z"/>
            <path class="cls-19" d="M27.6,28.4s.4,0,.8-.2c.2,0,.4-.1.7-.2.3,0,.6,0,.9-.1.3,0,.6,0,.9,0,.3,0,.6.1.8.2.4.2.7.3.7.3,0,0-.3,0-.7-.1-.2,0-.4,0-.7,0-.3,0-.6,0-.9,0-.3,0-.6,0-.9,0-.3,0-.6,0-.8,0-.2,0-.4,0-.5,0-.1,0-.2,0-.2,0Z"/>
            <g>
              <path class="cls-4" d="M26.5,22.7c0,.5-.3.8-.7.8-.5,0-.7-.5-.7-.9,0-.5.4-.8.8-.8.4,0,.7.5.6.9Z"/>
              <path class="cls-4" d="M24.8,21.9c0,0-.1,0-.1,0,0,0,0-.2,0-.2,0,0,1.4-1,2.1,0,0,0,0,.2,0,.2,0,0-.2,0-.2,0-.4-.6-1.6.1-1.6.1,0,0,0,0-.1,0Z"/>
            </g>
            <polygon class="cls-9" points="26.6 22.1 26.1 22.7 26.8 23 26.6 22.1"/>
            <g>
              <path class="cls-4" d="M33.7,22.6c0,.5-.3.8-.7.8-.6,0-.7-.5-.7-.9,0-.5.4-.8.8-.8.4,0,.7.5.6.9Z"/>
              <path class="cls-4" d="M32,21.8c0,0,0,0-.1,0,0,0,0-.2,0-.2,0,0,1.3-.9,2.1,0,0,0,0,.2,0,.2,0,0-.2,0-.2,0-.6-.6-1.6.1-1.6.1,0,0,0,0-.1,0Z"/>
            </g>
            <polygon class="cls-9" points="33.8 21.9 33.2 22.6 34 22.8 33.8 21.9"/>
          </g>
          <path class="cls-20" d="M21.2,20.1s-.4,5.9,1.1,6.5c1.4.6,5.4-.1,7.2,0,1.8,0,4.8-.3,5.2-.2.3,0,1.5-5.7,1.5-5.7,0,0-.8,5.9-.6,8.3.2,2.5.4,4.9-2.2,5.8-2.6.9-8.8,2-12-1.2s-3-6.4-3-6.4c0,0,2.2-.6,2.2-2.3s-.6-4-.6-4l1.3-.7Z"/>
          <path class="cls-18" d="M26.3,28.5c.2-.8,5.3-1.1,5.8-.4s-1,1.3-2.6,1.4-3.4-.2-3.2-1Z"/>
          <path class="cls-19" d="M27,28.7s.4-.1.8-.3c.2,0,.4-.2.7-.2.3,0,.6-.1.9-.2.3,0,.6,0,.9-.1.3,0,.6,0,.8.1.4.1.7.3.7.3,0,0-.3,0-.7,0-.2,0-.4,0-.7,0-.3,0-.6.1-.8.1-.3,0-.6,0-.9.1-.3,0-.6,0-.8,0-.2,0-.4,0-.5,0-.1,0-.2,0-.2,0Z"/>
          <path class="cls-20" d="M16.9,20.6s-1.3-4.6-.5-6.7c.7-2,6.8-4.3,10.1-4.4,3.3,0,9.4,2,10.2,2.4.7.3-.4,9.1-.4,9.1,0,0,.3-5.2-3-5.4-3.3-.2-10.9-.1-11.3.7-.4.9-.8,5-.8,5l-1,.3s-.6-2.4-3.2-1.1Z"/>
          <path class="cls-21" d="M26.1,34c-3.6-1.1-5.8-3.9-6.8-7.4-.5.4-1.1.5-1.1.5,0,0-.1,3.1,3,6.4,3.2,3.2,9.4,2.1,12,1.2.9-.3,1.5-.8,1.8-1.4-3,.8-6.1,1.2-9,.8Z"/>
          <path class="cls-21" d="M16.3,13.9c-.7,2,.5,6.7.5,6.7.8-.4,1.4-.4,1.9-.3.3-3.6,1.5-7.2,3.5-9.9-2.7.9-5.5,2.3-5.9,3.6Z"/>
        </g>
        <g>
          <path class="cls-1" d="M19.2,6.1c.2,1.7,1.7,3,3.5,2.8,1.8-.2,3.1-1.7,2.9-3.4-.2-1.7-1.7-3-3.5-2.8-1.8.2-3.1,1.7-2.9,3.4Z"/>
          <path class="cls-12" d="M21.1,4.9c.1,1.3,1.6,2.2,3.3,2,1.7-.2,3-1.3,2.9-2.6-.1-1.3-1.6-2.2-3.3-2-1.7.2-3,1.3-2.9,2.6Z"/>
          <path class="cls-2" d="M21,4.4c.1,1.3,1.6,2.2,3.3,2,1.7-.2,3-1.3,2.9-2.6-.1-1.3-1.6-2.2-3.3-2-1.7.2-3,1.3-2.9,2.6Z"/>
          <path class="cls-14" d="M26.2,1.5l.5,2s0,2.1-2.5,2.2c-2.4.1-2.8-1.7-2.8-1.7V1.9c.1,0,4.7-.4,4.7-.4Z"/>
          <path class="cls-10" d="M21.6,1.9c0,.9,1.2,1.6,2.5,1.5,1.3-.1,2.2-1,2.2-1.9,0-.9-1.2-1.6-2.5-1.5-1.3.1-2.2,1-2.2,1.9Z"/>
        </g>
      </g>
    </g>
  </g>
</svg>