<?xml version="1.0" encoding="UTF-8"?>
<svg xmlns="http://www.w3.org/2000/svg" xmlns:xlink="http://www.w3.org/1999/xlink" version="1.1" viewBox="0 0 43.9 40.8">
  <defs>
    <style>
      .cls-1 {
        fill: #b28d8d;
      }

      .cls-1, .cls-2, .cls-3, .cls-4, .cls-5, .cls-6, .cls-7, .cls-8, .cls-9 {
        stroke-width: 0px;
      }

      .cls-1, .cls-8 {
        mix-blend-mode: multiply;
        opacity: .5;
      }

      .cls-2 {
        fill: #de3e35;
      }

      .cls-3 {
        fill: #c3c2bf;
      }

      .cls-4 {
        fill: #e3dfe5;
      }

      .cls-5 {
        fill: #f04c33;
      }

      .cls-6 {
        fill: #c72a34;
      }

      .cls-7 {
        fill: url(#_ÂÁ_Ï_ÌÌ_È_ËÂÌÚ_382);
      }

      .cls-8 {
        fill: #baa596;
      }

      .cls-10 {
        isolation: isolate;
      }

      .cls-9 {
        fill: url(#_ÂÁ_Ï_ÌÌ_È_ËÂÌÚ_89);
      }
    </style>
    <linearGradient id="_ÂÁ_Ï_ÌÌ_È_ËÂÌÚ_89" data-name="¡ÂÁ˚ÏˇÌÌ˚È „‡‰ËÂÌÚ 89" x1="-126.4" y1="16.9" x2="-88.4" y2="16.9" gradientTransform="translate(124.9 -12.3) rotate(-7.5)" gradientUnits="userSpaceOnUse">
      <stop offset="0" stop-color="#fff"/>
      <stop offset="1" stop-color="#e0dbe2"/>
    </linearGradient>
    <linearGradient id="_ÂÁ_Ï_ÌÌ_È_ËÂÌÚ_382" data-name="¡ÂÁ˚ÏˇÌÌ˚È „‡‰ËÂÌÚ 382" x1="66.5" y1="-479.2" x2="66.5" y2="-484.1" gradientTransform="translate(423.1 152.2) rotate(-62.8) scale(.8 .9) skewX(16.1)" gradientUnits="userSpaceOnUse">
      <stop offset="0" stop-color="#c72a34"/>
      <stop offset="1" stop-color="#f04c33"/>
    </linearGradient>
  </defs>
  <g class="cls-10">
    <g id="Layer_1" data-name="Layer 1">
      <g>
        <g>
          <polygon class="cls-8" points="3.9 21.1 7.5 40.8 43.9 36.7 35.8 18.5 33.6 6.2 3.9 21.1"/>
          <g>
            <polygon class="cls-9" points="33.9 0 34.8 18.4 42 35.7 7.4 39.3 1.9 21.6 0 1.2 33.9 0"/>
            <polygon class="cls-4" points="42 35.7 34.8 18.4 1.8 21.1 1.9 21.6 7.4 39.3 42 35.7"/>
            <g>
              <rect class="cls-3" x="10.1" y="13.9" width="3.9" height="1.2" transform="translate(-1 .9) rotate(-4)"/>
              <rect class="cls-3" x="26.1" y="10.3" width="3.9" height="1.2" transform="translate(-.7 2) rotate(-4)"/>
              <polygon class="cls-3" points="19.5 20.9 12.6 21.4 12.9 22.6 19.8 22.1 19.5 20.9"/>
              <rect class="cls-3" x="11" y="6" width="7.5" height="1.2" transform="translate(-.4 1) rotate(-4)"/>
              <rect class="cls-3" x="14.9" y="8.2" width="9.2" height="1.2" transform="translate(-.6 1.4) rotate(-4)"/>
              <rect class="cls-3" x="9.8" y="8.8" width="2.8" height="1.2" transform="translate(-.6 .8) rotate(-4)"/>
              <rect class="cls-3" x="27.4" y="12.9" width="2.8" height="1.2" transform="translate(-.9 2) rotate(-4)"/>
              <polygon class="cls-3" points="18.6 26.4 13.3 26.9 13.6 28 18.9 27.6 18.6 26.4"/>
              <rect class="cls-3" x="18.8" y="10.6" width="5.6" height="1.2" transform="translate(-.7 1.5) rotate(-4)"/>
              <polygon class="cls-3" points="21.4 27.4 29.1 26.8 28.7 25.6 21 26.2 21.4 27.4"/>
              <polygon class="cls-3" points="28.6 33.3 36.3 32.7 36 31.5 28.3 32.2 28.6 33.3"/>
              <polygon class="cls-3" points="18.9 24.9 27.9 24.2 27.6 23 18.6 23.7 18.9 24.9"/>
              <polygon class="cls-3" points="24.1 29.9 23.7 28.7 17.8 29.2 18.1 30.4 24.1 29.9"/>
              <polygon class="cls-3" points="10.8 27 8.4 27.2 8.7 28.4 11.2 28.2 10.8 27"/>
              <rect class="cls-3" x="5.1" y="14.3" width="2.7" height="1.2" transform="translate(-1 .5) rotate(-4)"/>
              <polygon class="cls-3" points="10.2 21.6 6.2 22 6.6 23.1 10.5 22.8 10.2 21.6"/>
              <polygon class="cls-3" points="16.4 23.9 7.4 24.6 7.7 25.8 16.7 25 16.4 23.9"/>
              <polygon class="cls-3" points="15.3 29.4 9.6 29.9 9.9 31.1 15.7 30.6 15.3 29.4"/>
              <rect class="cls-3" x="4.8" y="11.4" width="11.7" height="1.2" transform="translate(-.8 .8) rotate(-4)"/>
              <rect class="cls-3" x="25.8" y="15.8" width="3.9" height="1.2" transform="translate(-1.1 2) rotate(-4)"/>
              <rect class="cls-3" x="18.3" y="16.2" width="5.6" height="1.2" transform="translate(-1.1 1.5) rotate(-4)"/>
              <rect class="cls-3" x="5.1" y="16.9" width="11.7" height="1.2" transform="translate(-1.2 .8) rotate(-4)"/>
              <polygon class="cls-3" points="21.9 20.7 22.3 21.9 26.9 21.5 26.6 20.3 21.9 20.7"/>
              <rect class="cls-3" x="16.4" y="13.3" width="8.4" height="1.2" transform="translate(-.9 1.5) rotate(-4)"/>
              <rect class="cls-3" x="22.4" y="5.5" width="2.9" height="1.2" transform="translate(-.4 1.7) rotate(-4)"/>
              <rect class="cls-3" x="25.8" y="7.7" width="2.9" height="1.2" transform="translate(-.5 1.9) rotate(-4)"/>
              <rect class="cls-3" x="4.5" y="9.1" width="3" height="1.2" transform="translate(-.7 .4) rotate(-4)"/>
            </g>
          </g>
        </g>
        <g>
          <path class="cls-1" d="M10.6,7.4c-.4,1.5-2,2.3-3.5,1.8-1.5-.4-2.4-2-1.9-3.4.4-1.5,2-2.3,3.5-1.8,1.5.4,2.4,2,1.9,3.4Z"/>
          <path class="cls-6" d="M9.8,5.1c.3,1.3-.7,2.7-2.2,3-1.5.3-2.9-.5-3.2-1.9-.3-1.3.7-2.7,2.2-3,1.5-.3,2.9.5,3.2,1.9Z"/>
          <path class="cls-2" d="M9.7,4.9c.3,1.3-.7,2.7-2.2,3-1.5.3-2.9-.5-3.2-1.9-.3-1.3.7-2.7,2.2-3,1.5-.3,2.9.5,3.2,1.9Z"/>
          <path class="cls-7" d="M4.8,4.8v1.4s.6,1.7,2.6,1.2c2-.5,1.9-2.1,1.9-2.1l-.6-1.3-3.9.8Z"/>
          <path class="cls-5" d="M8.7,4c.2,1-.5,1.9-1.6,2.2-1.1.2-2.1-.4-2.3-1.3-.2-1,.5-1.9,1.6-2.2,1.1-.2,2.1.4,2.3,1.3Z"/>
        </g>
      </g>
    </g>
  </g>
</svg>