<?xml version="1.0" encoding="UTF-8"?>
<svg xmlns="http://www.w3.org/2000/svg" xmlns:xlink="http://www.w3.org/1999/xlink" version="1.1" viewBox="0 0 48.6 55.2">
  <defs>
    <style>
      .cls-1 {
        fill: #b28d8d;
      }

      .cls-1, .cls-2, .cls-3, .cls-4, .cls-5, .cls-6, .cls-7, .cls-8, .cls-9, .cls-10, .cls-11, .cls-12, .cls-13, .cls-14, .cls-15, .cls-16, .cls-17, .cls-18, .cls-19, .cls-20, .cls-21, .cls-22, .cls-23, .cls-24, .cls-25, .cls-26, .cls-27, .cls-28, .cls-29, .cls-30 {
        stroke-width: 0px;
      }

      .cls-1, .cls-24, .cls-25, .cls-26 {
        mix-blend-mode: multiply;
      }

      .cls-1, .cls-25 {
        opacity: .5;
      }

      .cls-2 {
        fill: #de3e35;
      }

      .cls-3 {
        fill: url(#_ÂÁ_Ï_ÌÌ_È_ËÂÌÚ_5);
      }

      .cls-4 {
        fill: url(#_ÂÁ_Ï_ÌÌ_È_ËÂÌÚ_3);
      }

      .cls-31 {
        clip-path: url(#clippath);
      }

      .cls-5 {
        fill: none;
      }

      .cls-6 {
        fill: #473343;
      }

      .cls-7 {
        fill: url(#linear-gradient);
      }

      .cls-8 {
        fill: #f4f3e7;
      }

      .cls-9, .cls-24 {
        fill: #f9ab8a;
      }

      .cls-10 {
        fill: #fbc29f;
      }

      .cls-11 {
        fill: #f37877;
      }

      .cls-12 {
        fill: #f04c33;
      }

      .cls-13 {
        fill: #874a48;
      }

      .cls-14 {
        fill: #703935;
      }

      .cls-15 {
        fill: #f8a284;
      }

      .cls-16 {
        fill: #c72a34;
      }

      .cls-17 {
        fill: #9c9aa6;
      }

      .cls-18 {
        fill: #fab494;
      }

      .cls-19 {
        fill: url(#_ÂÁ_Ï_ÌÌ_È_ËÂÌÚ_382);
      }

      .cls-20 {
        fill: url(#_ÂÁ_Ï_ÌÌ_È_ËÂÌÚ_3-3);
      }

      .cls-21 {
        fill: url(#_ÂÁ_Ï_ÌÌ_È_ËÂÌÚ_3-2);
      }

      .cls-22 {
        fill: #5a3533;
      }

      .cls-23 {
        fill: #f4f4e7;
      }

      .cls-24 {
        opacity: .2;
      }

      .cls-25 {
        fill: #cfc69c;
      }

      .cls-26 {
        fill: #fdcc98;
        opacity: .2;
      }

      .cls-27 {
        fill: #b5c2b6;
      }

      .cls-32 {
        isolation: isolate;
      }

      .cls-28 {
        fill: #fbbd9a;
      }

      .cls-29 {
        fill: #b25459;
      }

      .cls-30 {
        fill: #ca705b;
      }
    </style>
    <clipPath id="clippath">
      <polygon id="SVGID" class="cls-5" points="5.5 50 45.7 48.7 45.8 3.3 5.6 4.6 5.5 50"/>
    </clipPath>
    <linearGradient id="_ÂÁ_Ï_ÌÌ_È_ËÂÌÚ_5" data-name="¡ÂÁ˚ÏˇÌÌ˚È „‡‰ËÂÌÚ 5" x1="-211.7" y1="-69.4" x2="-211.7" y2="-80.5" gradientTransform="translate(-185.9 117.2) rotate(178.2) scale(1 -1) skewX(2)" gradientUnits="userSpaceOnUse">
      <stop offset=".2" stop-color="#fbbd9a"/>
      <stop offset=".4" stop-color="#f9ab8a"/>
    </linearGradient>
    <linearGradient id="linear-gradient" x1="1772.1" y1="-694.5" x2="1772.1" y2="-716.4" gradientTransform="translate(-1784.3 690.7) rotate(1.3) skewX(-2)" gradientUnits="userSpaceOnUse">
      <stop offset="0" stop-color="#fcc6a4"/>
      <stop offset=".5" stop-color="#fbc3a1"/>
      <stop offset=".8" stop-color="#fabc9a"/>
      <stop offset="1" stop-color="#f9af8e"/>
      <stop offset="1" stop-color="#f9ab8a"/>
    </linearGradient>
    <linearGradient id="_ÂÁ_Ï_ÌÌ_È_ËÂÌÚ_3" data-name="¡ÂÁ˚ÏˇÌÌ˚È „‡‰ËÂÌÚ 3" x1="1817.7" y1="585.3" x2="1817.7" y2="576.2" gradientTransform="translate(-1768.1 705.4) rotate(-38) scale(1 1) skewX(-.6)" gradientUnits="userSpaceOnUse">
      <stop offset="0" stop-color="#a85b4b"/>
      <stop offset="1" stop-color="#703935"/>
    </linearGradient>
    <linearGradient id="_ÂÁ_Ï_ÌÌ_È_ËÂÌÚ_3-2" data-name="¡ÂÁ˚ÏˇÌÌ˚È „‡‰ËÂÌÚ 3" x1="-1759.4" y1="581.4" x2="-1765" y2="574.3" gradientTransform="translate(-1733.9 682.3) rotate(141.8) scale(1 -1) skewX(.6)" xlink:href="#_ÂÁ_Ï_ÌÌ_È_ËÂÌÚ_3"/>
    <linearGradient id="_ÂÁ_Ï_ÌÌ_È_ËÂÌÚ_3-3" data-name="¡ÂÁ˚ÏˇÌÌ˚È „‡‰ËÂÌÚ 3" x1="-213.6" y1="-98.2" x2="-209.3" y2="-89.6" gradientTransform="translate(-185.9 117.2) rotate(178.2) scale(1 -1) skewX(2)" xlink:href="#_ÂÁ_Ï_ÌÌ_È_ËÂÌÚ_3"/>
    <linearGradient id="_ÂÁ_Ï_ÌÌ_È_ËÂÌÚ_382" data-name="¡ÂÁ˚ÏˇÌÌ˚È „‡‰ËÂÌÚ 382" x1="-583" y1="5.7" x2="-583" y2=".2" gradientTransform="translate(-558.5) rotate(-180) scale(1 -1)" gradientUnits="userSpaceOnUse">
      <stop offset="0" stop-color="#c72a34"/>
      <stop offset="1" stop-color="#f04c33"/>
    </linearGradient>
  </defs>
  <g class="cls-32">
    <g id="Layer_1" data-name="Layer 1">
      <g>
        <polygon class="cls-25" points="43.9 2.8 45.6 55.2 0 54.9 3.9 4.1 43.9 2.8"/>
        <polygon class="cls-8" points="47.5 .6 48.6 53.1 2.9 53.2 3.2 2.5 47.5 .6"/>
        <g class="cls-31">
          <polygon class="cls-17" points="3.2 52.7 48 51.2 48.1 .6 3.3 2 3.2 52.7"/>
          <g>
            <path class="cls-22" d="M31.1,34.2s5.9,8.1,3.4,9.3c-2.5,1.2-8.6.3-8.6.3l1.1-8.9,4.1-.7Z"/>
            <polygon class="cls-3" points="21.5 30 22.2 39.2 26 41 30.3 39.3 30.3 31.9 21.5 30"/>
            <path class="cls-24" d="M28.7,36.9c.6,0,1.1-.2,1.6-.4v-2.8c.1,0-8.6-1.8-8.6-1.8l.4,2.7c2.2,2,4.5,2.5,6.7,2.3Z"/>
            <path class="cls-7" d="M29.6,35.8c3.6-.8,4.3-6.4,4.5-9.7.2-3.6-1.9-12-1.9-12l-17.1,4.8s2.5,10.2,5.8,13.6c3.3,3.5,7.3,3.5,8.7,3.2Z"/>
            <g>
              <path class="cls-26" d="M20.9,32.6c3.3,3.5,7.3,3.5,8.7,3.2.3,0,.6-.2.8-.3-.6,0-1.1,0-1.5,0-4.2-.6-5.8-3.4-7.1-6.7-.8-2-.7-6.1.3-7.6,1.1-.5,4.5-2.3,5.3-2.9.5.4,5.5,1.4,5.2,2.1-.3.7-1,4-.2,5,.3.3,1,.5,1.7.6,0-.4,0-.8,0-1.3-.3-.2-.6-.4-.6-.7,0-.3.2-.6.4-.9-.3-2.5-.9-5.5-1.3-7.3-.3-1.1-.4-1.8-.4-1.8l-17.1,4.8s2.5,10.2,5.8,13.6Z"/>
              <path class="cls-26" d="M33.9,28.9c0,0,0-.1,0-.2-.2.1-.4.2-.4.2,0,0,.2,0,.4,0Z"/>
            </g>
            <path class="cls-22" d="M22,33.6c1.1,6.1-.4,11.3-1.8,11-1-.2-8.5-.9-2.2-8.3-3.7-.5-5.8-4.5-5.5-10.3.3-4.5,1.2-6.3,2.7-6.5s3.7-.2,3.7-.2l-.4,3.9,1.3,3.4s-1.8,4.1,2.1,7Z"/>
            <g>
              <path class="cls-9" d="M17.5,23.3c-.8-.1-2.4,1.3-1.1,3,1,1.3,1.4,1.5,2.1,2,.8.6,1.6,0,1.7-.3.3-1.3-.8-4.4-2.7-4.7Z"/>
              <path class="cls-30" d="M16.3,25.3c.1-.2.3-.5.5-.7.2-.2.5-.2.8-.1.3,0,.6.2.7.5.1.3.2.6.2.8,0,0,0,0,0,.1-.2.3-.2.5,0,.7.2.2.5.3.9.4-.4,0-.7,0-1.1-.2-.2-.1-.3-.3-.3-.6,0-.2,0-.4.2-.6h0c0-.1,0-.4,0-.6,0-.2-.3-.4-.5-.5-.2,0-.5,0-.7,0-.2.1-.4.3-.5.6,0,0,0,0,0,0Z"/>
            </g>
            <path class="cls-14" d="M27.7,16.1s0,1.5,3.1,2.2c3.1.6,2.8,1.6,2.5,2.3-.3.7-.9,2.9-.1,3.9.6.7,3.3.5,2.9,1.7-.3,1.2-1.9,1.8-1.9,1.8,0,0,2.7.2,3.1-2,.3-2.1-3-1.7-3-2.8,0-1.2,3-2.3,1.9-5.5s-3.8-2.6-3.8-2.6l-4.7,1.1Z"/>
            <path class="cls-4" d="M35.2,17.1c-.7-.2-1.9.3-2.2.8-.2.3,1.4,1.1,1.3,1.9-.1.8-1.5,3.1-.6,4.2.6.7,2.8.4,3.3,2.1.2-.7,0-1.1-.4-1.5-.9-.6-2.4-.7-2.3-1.4,0-.9,1.7-1.7,2.1-3.4.1-1.4-.6-2.4-1.1-2.7Z"/>
            <g>
              <path class="cls-15" d="M27.6,31.9c.3.8,2.6.2,2.6-.3,0-.2-.7,0-1.3.1-.7,0-1.4,0-1.3.2Z"/>
              <path class="cls-26" d="M30.5,23.2l-.5-1.2s-.2-.3,1.7-.7c.4,0,1.8.6,1.8.6l-.9,1.1h-1c0-.1-1.1.2-1.1.2Z"/>
              <path class="cls-26" d="M24.3,23.3l-.9-1.7s1-.3,2.1-.2c1.6.3,1.8.1,2.6.8-.2.6-1.5,1.2-1.5,1.2,0,0-.8-.6-1.1-.5-.5,0-1.3.4-1.3.4Z"/>
              <path class="cls-18" d="M28.8,24.6c0,0,0-.1,0-.2v-1.3c-.1,0-.9,4.4-.9,4.4,0,.2,0,.4.2.5l.4.3c.2.2.5.1.6,0l1.2-1.1c.2-.2.2-.6,0-.8l-.5-.4c-.3-.3-.8-1-1.1-1.4Z"/>
              <polygon class="cls-30" points="27.8 27.8 28.3 28.2 28.8 27.6 28.3 27.4 27.8 27.8"/>
              <path class="cls-13" d="M23.4,21.6c.4-.3.8-.4,1.2-.5.4,0,.9,0,1.3,0,.9,0,1.8.4,2.3,1.2-.4-.2-.8-.2-1.2-.3-.4,0-.8-.1-1.2-.2-.4,0-.8,0-1.2-.1-.4,0-.8,0-1.2,0Z"/>
              <path class="cls-13" d="M29.9,22.2c.3-.7,1.1-1.1,1.8-1.1.4,0,.7,0,1.1.2.3.1.7.4.8.7-.3-.1-.7-.1-1-.2-.3,0-.6,0-.9,0-.6,0-1.2,0-1.8.4Z"/>
              <g>
                <path class="cls-6" d="M26.3,24.2c0,.5-.2.9-.7,1-.6,0-.9-.4-.9-.9,0-.5.3-1,.7-1,.4,0,.8.4.8.9Z"/>
                <path class="cls-6" d="M26.8,23.6c0,0-.1,0-.1,0-.7-.9-2.1-.2-2.1-.2h-.1c0,0-.7-.5-.7-.5,0,0,0-.2,0-.3,0,0,.2,0,.3,0l.5.4c.4-.2,1.7-.6,2.5.4,0,0,0,.2,0,.3,0,0,0,0-.1,0Z"/>
                <polygon class="cls-10" points="26.4 23.5 25.9 24.2 26.7 24.5 26.4 23.5"/>
              </g>
              <g>
                <path class="cls-6" d="M32.4,24.2c0,.5-.2.9-.7.9-.6,0-.8-.3-.8-.9,0-.5.3-.9.7-1,.4,0,.8.4.8.9Z"/>
                <polygon class="cls-10" points="32.4 23.4 31.9 24.3 32.7 24.4 32.4 23.4"/>
                <path class="cls-6" d="M30.5,23.5c0,0-.1,0-.2,0,0,0,0-.2,0-.2,0,0,1.1-.7,2-.2l.5-.4c0,0,.2,0,.3,0,0,0,0,.2,0,.3l-.7.6h-.1c-.8-.5-1.8,0-1.8,0,0,0,0,0,0,0Z"/>
              </g>
              <path class="cls-11" d="M26.4,30.4s1.4-.9,1.8-.8c1.1.4,1.3.1,2,0,.5,0,1.1.7,1.1.7,0,0-.3-.2-1.2,0-.2,0-.7.4-1,.4-.3,0-.6-.2-.9-.2-1,0-1.8-.2-1.8-.2Z"/>
              <path class="cls-29" d="M29,31c-.2,0-.4,0-.5-.1-.1,0-.2-.1-.3-.1-1,0-1.9-.2-1.9-.2,0,0-.1,0-.1-.1,0,0,0-.1.1-.1,0,0,.8.1,1.8.2.1,0,.3,0,.4.1.2,0,.3.1.4.1.1,0,.3-.1.5-.2.2-.1.4-.2.5-.2.6,0,1.2-.1,1.2-.1,0,0,.1,0,.1.1s0,.1-.1.1c0,0-.6.1-1.2.1,0,0-.2,0-.4.2-.2.1-.4.2-.6.2,0,0,0,0,0,0Z"/>
              <path class="cls-30" d="M28.7,28.6c.4-.4.8-.8,1.2-1.2.2-.2.4-.3.3-.5,0,0,0-.2-.1-.2l-.3-.3c-.4-.4-.8-.9-1.1-1.4,0-.1-.1-.3-.2-.5v-.4c0-.3,0-.6,0-.9,0,.3.1.6.2.8v.4c.1.1.1.2.3.3.3.4.7.9,1.1,1.2l.3.3c.1.1.2.3.3.5,0,.2,0,.4-.2.5-.1.2-.2.2-.4.3-.5.3-.9.7-1.4,1Z"/>
            </g>
            <path class="cls-28" d="M37.9,42.8c-4.3-4-9.6-3.7-11.6-3.8-5.6-.4-12.7,2.4-15.3,8.5-2.6,6.1,10.4,5,10.4,5,0,0,28.2,1.5,16.4-9.7Z"/>
            <path class="cls-23" d="M31.9,39.2s.3,2.2-2.4,4.8c-3.9-1.4-9.2-4.8-9.2-4.8l-2,1.5,12.5,7.2s3.4-6.4,3.5-7.3-2.3-1.3-2.3-1.3Z"/>
            <path class="cls-27" d="M8.3,48.6c1.7-3.8,7-7.2,10.7-8.7,0,0,5,2.2,10.8,5.8,4.3-3,2.7-6.4,2.6-6.5,1.5.6,6.3,2.8,7.7,4.1,14,12.8-19.4,11.1-19.4,11.1,0,0-15.4,1.3-12.4-5.7Z"/>
            <path class="cls-14" d="M35.5,16.3c-1.4-2.1,0-7.9-9.8-5.8-6.5-1.2-9,.2-10.5,2.3-1.6,2.3-2.4,8.1-1.7,9.6,2.9-2,14-6,14-6h8.1Z"/>
            <path class="cls-22" d="M19.6,10.1c-1.2.8-3.6,2.7-2.9,5.4.5,2.2.9,3.7,1,4.7-1.8.8-3.4,1.6-4.2,2.2-.7-1.5.1-7.3,1.7-9.6.9-1.3,2.2-2.3,4.4-2.6Z"/>
            <path class="cls-14" d="M25.7,15.4s4.9-.7,3.1.8c-1.8,1.6-1.8,2.1-5,4-1.8,1.1-4.1,1.9-2.6,3.2,1.4,1.3,1.8,1.7,1.2,3.3s-2.4,2-1.5,3.6c.8,1.5,2.5,1.5,2.5,1.5,0,0-3.1,1.4-4.3-1.2-1.1-2.6,1.4-2.9,1.3-4.3-.1-1.4-2.6-2.1-3.4-4.1-.8-1.9.3-5.7.3-5.7l8.4-1.2h0Z"/>
            <path class="cls-21" d="M21.6,26.6c.3-.8-.5-2.2-1.3-2.7-.8-.6-1.4-2-1.1-2.9.4-.9,1.4-1.3,2.2-1.6.8-.2,2.5.5,1.6,1.2-1.6.9-3,1.6-1.8,2.7,1.4,1.3,1.8,1.7,1.2,3.3-.3.9-1.1,1.5-1.5,2.1,0,0,0,0,0,0,0,0,.4-1.1.8-2.2Z"/>
            <path class="cls-20" d="M26.4,11.7s2.8,3.3.4,5.5c-2.4,2.2-4.7,3.2-4.7,3.2,0,0,2.5-2.9,3.3-4.4.9-1.6,1-4.3,1-4.3Z"/>
          </g>
        </g>
        <g>
          <path class="cls-1" d="M22.7,7.3c1.5.9,3.4.4,4.4-1.1.9-1.5.5-3.5-1-4.4-1.5-.9-3.4-.4-4.4,1.1-.9,1.5-.5,3.5,1,4.4Z"/>
          <path class="cls-16" d="M24,6.3c1.1.7,2.7,0,3.6-1.5.9-1.5.8-3.2-.3-3.9-1.1-.7-2.7,0-3.6,1.5-.9,1.5-.8,3.2.3,3.9Z"/>
          <path class="cls-2" d="M23.6,6.1c1.1.7,2.7,0,3.6-1.5.9-1.5.8-3.2-.3-3.9-1.1-.7-2.7,0-3.6,1.5-.9,1.5-.8,3.2.3,3.9Z"/>
          <path class="cls-19" d="M24.4.2l1.9.8s1.6,1.3.3,3.3c-1.3,2-3,1.2-3,1.2l-1.6-1.4L24.4.2Z"/>
          <path class="cls-12" d="M21.9,4.1c.8.5,2,0,2.7-1.1.7-1.1.6-2.4-.3-2.9-.8-.5-2,0-2.7,1.1-.7,1.1-.6,2.4.3,2.9Z"/>
        </g>
      </g>
    </g>
  </g>
</svg>