<?xml version="1.0" encoding="UTF-8"?>
<svg xmlns="http://www.w3.org/2000/svg" xmlns:xlink="http://www.w3.org/1999/xlink" version="1.1" viewBox="0 0 48.9 58.8">
  <defs>
    <style>
      .cls-1, .cls-2 {
        fill: #9c9aa6;
      }

      .cls-3 {
        fill: #b28d8d;
      }

      .cls-3, .cls-4, .cls-5, .cls-6, .cls-7, .cls-8, .cls-9, .cls-10, .cls-11, .cls-12, .cls-13, .cls-14, .cls-2, .cls-15, .cls-16, .cls-17, .cls-18, .cls-19, .cls-20, .cls-21 {
        stroke-width: 0px;
      }

      .cls-3, .cls-17, .cls-18, .cls-19 {
        mix-blend-mode: multiply;
      }

      .cls-3, .cls-18 {
        opacity: .5;
      }

      .cls-4 {
        fill: #de3e35;
      }

      .cls-22 {
        clip-path: url(#clippath);
      }

      .cls-5 {
        fill: #473343;
      }

      .cls-6 {
        fill: url(#linear-gradient);
      }

      .cls-7 {
        fill: #f4f3e7;
      }

      .cls-8, .cls-17 {
        fill: #f9ab8a;
      }

      .cls-9 {
        fill: #555556;
      }

      .cls-10 {
        fill: #f04c33;
      }

      .cls-11 {
        fill: #874a48;
      }

      .cls-12 {
        fill: #703935;
      }

      .cls-13 {
        fill: #f8a284;
      }

      .cls-14 {
        fill: #c72a34;
      }

      .cls-15 {
        fill: url(#_ÂÁ_Ï_ÌÌ_È_ËÂÌÚ_382);
      }

      .cls-16 {
        fill: #5d4655;
      }

      .cls-17 {
        opacity: .2;
      }

      .cls-18 {
        fill: #cfc69c;
      }

      .cls-19 {
        fill: #fdcc98;
        opacity: .2;
      }

      .cls-23 {
        isolation: isolate;
      }

      .cls-20 {
        fill: #df725f;
      }

      .cls-21 {
        fill: #ca705b;
      }
    </style>
    <clipPath id="clippath">
      <polygon id="SVGID-2" data-name="SVGID" class="cls-2" points="4.6 5.9 44 5.9 46.1 52.5 5.5 53.2 4.6 5.9"/>
    </clipPath>
    <linearGradient id="linear-gradient" x1="-44.9" y1="54.4" x2="-44.9" y2="32.2" gradientTransform="translate(74.3 -14.6) rotate(1.8) skewX(-3)" gradientUnits="userSpaceOnUse">
      <stop offset="0" stop-color="#fcc6a4"/>
      <stop offset=".5" stop-color="#fbc3a1"/>
      <stop offset=".8" stop-color="#fabc9a"/>
      <stop offset="1" stop-color="#f9af8e"/>
      <stop offset="1" stop-color="#f9ab8a"/>
    </linearGradient>
    <linearGradient id="_ÂÁ_Ï_ÌÌ_È_ËÂÌÚ_382" data-name="¡ÂÁ˚ÏˇÌÌ˚È „‡‰ËÂÌÚ 382" x1="-656.4" y1="-22.9" x2="-656.4" y2="-28.4" gradientTransform="translate(-595.6 -225.9) rotate(-157.4) scale(1 -1)" gradientUnits="userSpaceOnUse">
      <stop offset="0" stop-color="#c72a34"/>
      <stop offset="1" stop-color="#f04c33"/>
    </linearGradient>
  </defs>
  <g class="cls-23">
    <g id="Layer_1" data-name="Layer 1">
      <g>
        <g>
          <polygon class="cls-18" points="1 3.6 0 58.4 41.5 58.8 46.5 4.7 1 3.6"/>
          <polygon class="cls-7" points="1 2.8 2.5 56.1 48.9 54.8 46 3.3 1 2.8"/>
          <g>
            <polygon id="SVGID" class="cls-1" points="4.6 5.9 44 5.9 46.1 52.5 5.5 53.2 4.6 5.9"/>
            <g class="cls-22">
              <g>
                <g>
                  <path class="cls-13" d="M32.2,22.9c.4-.9,2.3-1.1,3.1.3.5,1,.6,3.5-.2,5.5-.4.9-1.4.2-1.8-.1-1.2-1.2-2.4-2.9-1.1-5.7Z"/>
                  <polygon class="cls-8" points="20.5 35.5 22.3 41.9 28 44.8 33.4 42 33.8 36.4 20.5 35.5"/>
                  <path class="cls-17" d="M31.3,39.8c.8-.1,1.6-.3,2.3-.6l.2-2.8-13.2-.9.7,2.7c3.4,1.8,6.9,2,10,1.6Z"/>
                  <path class="cls-6" d="M31.4,37.6c6.3-2.3,3.8-5.3,3.2-9.6-.4-3.2-1.5-11.5-1.5-11.5l-16.9,4.6s1.2,11.4,4.4,14.8c3.2,3.4,7.9,2.8,10.8,1.7Z"/>
                  <path class="cls-19" d="M31.4,37.6c-.9,0-1.6,0-2.1-.2-4.1-.6-5.6-3.5-6.8-6.8-.7-2-1.1-7.5-.1-8.9,10.1-.5,10.6-5.2,10.6-5.2l-16.9,4.6s1.2,11.4,4.4,14.8c3.2,3.4,7.9,2.8,10.8,1.7Z"/>
                  <path class="cls-13" d="M31.1,32.6c-.4-.8-2.2.1-2.1.6,0,.3.5-.1,1-.3.6-.2,1.1,0,1-.4Z"/>
                  <path class="cls-12" d="M19.1,24.7s1.2,3.1,0,5.3c-.2.5-.2,0-.2,0l-4-2.1-2.3-6.3,6.4,3Z"/>
                  <path class="cls-12" d="M19.1,24.7c-.3-1-1.9-4.1-.2-4.5,1.6-.4,5.3-.2,7.3-.3,2,0,7.6-1.2,6.8-4.1-.3-1-.9-5.3-6.6-4.7s-11,4.2-12.9,6.6c-2.6,3.3,1.5,9.6,1.5,9.6l4.1-2.6Z"/>
                  <path class="cls-8" d="M17.3,26.2c-1-.2-3.2,1.5-2.3,3.1,1,1.7,2,3.4,3,3.8,1.2.5,1.8-.4,2-.9.6-1.6-.4-5.5-2.7-6Z"/>
                  <g>
                    <polygon class="cls-8" points="28.2 29.3 29.7 29.6 31.1 28.3 29.9 25.1 28.2 23.8 28.2 29.3"/>
                    <path class="cls-21" d="M28.2,29.3c.5,0,1,.1,1.5.2h-.1c.4-.4.9-.9,1.4-1.3v.2c-.3-.5-.5-1.1-.7-1.6-.2-.5-.4-1.1-.6-1.6h0c-.5-.4-1.1-.9-1.6-1.4.6.4,1.2.8,1.8,1.2.3.6.5,1.1.7,1.6.2.5.4,1.1.6,1.6h0c0,.1-.1.2-.1.2-.5.4-1,.8-1.5,1.2h0c-.5,0-1-.2-1.5-.4Z"/>
                  </g>
                  <polygon class="cls-21" points="28.2 29.1 29.1 29.4 29.1 28.7 28.3 28.7 28.2 29.1"/>
                  <path class="cls-11" d="M22,24.4s.2-.3.6-.7c.1,0,.2-.2.4-.3.1,0,.3-.2.4-.3.3-.1.7-.3,1-.4.4,0,.7-.1,1.1-.1.3,0,.7,0,.9.1.5.1.8.3.8.3v.4c-.1,0-.5,0-.9,0-.2,0-.5,0-.8,0-.3,0-.6,0-.9.1-.3,0-.6.2-.9.3-.1,0-.3.1-.4.2-.1,0-.2.1-.3.2-.2.1-.4.2-.5.3-.1,0-.2.1-.2.1l-.3-.3Z"/>
                  <path class="cls-11" d="M28.8,22.6s0,0,.1-.1c0,0,.2-.2.4-.4.2-.1.4-.3.7-.4.1,0,.3-.2.4-.2h.2c0-.1.2-.2.2-.2.3,0,.5-.2.8-.3.3,0,.6,0,.8,0,.5,0,.8,0,.8,0v.4s-.3,0-.7.1c-.2,0-.4.1-.6.2-.1,0-.3,0-.4.1l-.4.2c0,0-.2,0-.2,0h-.2c-.1.2-.2.2-.4.3-.2.1-.5.2-.7.3-.4.2-.7.3-.7.3l-.2-.3Z"/>
                  <path class="cls-21" d="M15.6,28.5c0-.4.2-.7.5-1,.1-.1.3-.3.6-.3.1,0,.2,0,.3,0,.1,0,.2,0,.3.1.2,0,.3.2.4.4.1.2.2.3.3.5.2.4.2.8.2,1.2,0,0,0,0,0,.1-.2.3-.3.6,0,.9.2.3.6.5,1,.6-.4,0-.9,0-1.3-.3-.2-.1-.3-.4-.3-.7,0-.3.2-.5.3-.7h0c0-.2,0-.5,0-.8,0-.3-.3-.6-.5-.8,0,0-.1,0-.2-.1,0,0-.1,0-.2,0-.2,0-.3,0-.4.2-.3.2-.5.6-.6.9Z"/>
                  <path class="cls-20" d="M27.4,32.3s.4-.2.7-.4c.2-.1.4-.2.7-.3.3,0,.5-.2.8-.3.3,0,.6-.2.9-.2.3,0,.6,0,.8,0,.5,0,.7.2.7.2,0,0-.3,0-.7,0-.2,0-.4,0-.7.1-.2,0-.5.2-.8.3-.3,0-.6.2-.8.3-.3,0-.5.1-.8.2-.2,0-.4,0-.5.1-.1,0-.2,0-.2,0Z"/>
                </g>
                <polygon class="cls-5" points="19.1 27.7 18.8 27.2 21.6 25.8 21.7 26.2 19.1 27.7"/>
                <path class="cls-5" d="M35.1,22.3c.2.8-.3,2.7-2.2,3.2-1.9.5-3.8-.8-3.9-1.7-.2-.8,1.4-1.2,3.3-1.7,1.9-.5,2.7-.7,2.9.1Z"/>
                <path class="cls-5" d="M28,24.2c.2.8-1,2.9-2.9,3.3-1.9.5-3.7-.8-3.9-1.7-.2-.8,1.3-1,3.1-1.5,1.9-.5,3.4-1,3.6-.2Z"/>
                <g>
                  <path class="cls-9" d="M33.4,21.9l-1,3.7c.2,0,.4,0,.5,0,0,0,.1,0,.2,0l.9-3.6c-.2,0-.4,0-.7.1Z"/>
                  <path class="cls-9" d="M32.2,22.2c-.3,0-.5.1-.8.2l-.8,2.9c.4.2.8.3,1.3.3l.8-3.5c-.2,0-.4,0-.6.1Z"/>
                </g>
                <g>
                  <path class="cls-9" d="M24.8,27.6l.8-3.6c-.4.1-.8.2-1.3.3,0,0,0,0,0,0l-.9,3.1c.4.1.9.1,1.4,0Z"/>
                  <path class="cls-9" d="M26.9,23.8c-.2,0-.4,0-.7.1l-1,3.6c.3,0,.5-.2.8-.3l.9-3.4Z"/>
                </g>
                <path class="cls-5" d="M27.6,24.6l-.4-.2c.3-.8.7-1.2,1.2-1.3.7,0,1.3.7,1.3.7l-.4.3c-.1-.2-.5-.6-.9-.6-.3,0-.6.4-.8,1Z"/>
                <path class="cls-16" d="M21.1,37.8c-.6-.5-.5,1.3-.6,3,0,1.7-1.1,2-2.7,2.9-1.6.9-10.7,2.5-11.6,5.1-.9,2.6.3,9.1.3,9.1,0,0,13.7,2.1,24.7.3,11-1.8,14.6-3,15-5,.4-1.9,0-9-3.9-9.9-3.8-.8-7.4-2.1-7.4-2.1,0,0-.5-3-1-3.3-.5-.3-.9,2.3-5.2,2.6-4.3.2-6.9-1.9-7.5-2.6Z"/>
                <path class="cls-5" d="M24.7,39.8c-1.9-.6-3.1-1.6-3.5-2-.6-.5-.5,1.3-.6,3,0,1.2-.6,1.7-1.4,2.2,2.5-.2,5-.9,5.6-3.1Z"/>
                <path class="cls-5" d="M10.1,47c-.7-.4-1.5-.4-2.3-.2-.8.6-1.4,1.2-1.6,1.9-.9,2.6-2.5,8.7-2.5,8.7,0,0,6.2.9,13.5,1-.7-4.7-2.8-9-7.2-11.4Z"/>
              </g>
            </g>
          </g>
        </g>
        <g>
          <path class="cls-3" d="M16.5,7.1c1,1.4,3,1.7,4.5.6,1.5-1.1,1.8-3,.8-4.5-1-1.4-3-1.7-4.5-.6-1.5,1.1-1.8,3-.8,4.5Z"/>
          <path class="cls-14" d="M18.2,6.1c.8,1,2.5,1.1,3.9,0,1.4-1,1.9-2.7,1.2-3.7-.8-1-2.5-1.1-3.9,0-1.4,1-1.9,2.7-1.2,3.7Z"/>
          <path class="cls-4" d="M17.9,5.7c.8,1,2.5,1.1,3.9,0,1.4-1,1.9-2.7,1.2-3.7-.8-1-2.5-1.1-3.9,0-1.4,1-1.9,2.7-1.2,3.7Z"/>
          <path class="cls-15" d="M20.9.6l1.5,1.5s1,1.9-1,3.2c-2,1.3-3.3,0-3.3,0l-1-1.9,3.7-2.7Z"/>
          <path class="cls-10" d="M17.2,3.3c.6.8,1.8.8,2.9,0,1-.7,1.4-2,.9-2.7-.6-.8-1.8-.8-2.9,0-1,.8-1.4,2-.9,2.7Z"/>
        </g>
      </g>
    </g>
  </g>
</svg>