<?xml version="1.0" encoding="UTF-8"?>
<svg xmlns="http://www.w3.org/2000/svg" xmlns:xlink="http://www.w3.org/1999/xlink" version="1.1" viewBox="0 0 45.9 56.2">
  <defs>
    <style>
      .cls-1 {
        fill: #b28d8d;
      }

      .cls-1, .cls-2, .cls-3, .cls-4, .cls-5, .cls-6, .cls-7, .cls-8, .cls-9, .cls-10, .cls-11, .cls-12, .cls-13, .cls-14, .cls-15, .cls-16, .cls-17, .cls-18, .cls-19, .cls-20, .cls-21 {
        stroke-width: 0px;
      }

      .cls-1, .cls-16, .cls-17, .cls-18 {
        mix-blend-mode: multiply;
      }

      .cls-1, .cls-17 {
        opacity: .5;
      }

      .cls-2 {
        fill: #de3e35;
      }

      .cls-22 {
        clip-path: url(#clippath);
      }

      .cls-3 {
        fill: none;
      }

      .cls-4 {
        fill: #473343;
      }

      .cls-5 {
        fill: url(#linear-gradient);
      }

      .cls-6 {
        fill: #f4f3e7;
      }

      .cls-7, .cls-16 {
        fill: #f9ab8a;
      }

      .cls-8 {
        fill: #fbc29f;
      }

      .cls-9 {
        fill: #f04c33;
      }

      .cls-10 {
        fill: #874a48;
      }

      .cls-11 {
        fill: #703935;
      }

      .cls-12 {
        fill: #f8a284;
      }

      .cls-13 {
        fill: #c72a34;
      }

      .cls-14 {
        fill: #9c9aa6;
      }

      .cls-15 {
        fill: url(#_ÂÁ_Ï_ÌÌ_È_ËÂÌÚ_382);
      }

      .cls-16 {
        opacity: .2;
      }

      .cls-17 {
        fill: #cfc69c;
      }

      .cls-18 {
        fill: #fdcc98;
        opacity: .2;
      }

      .cls-19 {
        fill: #53362c;
      }

      .cls-23 {
        isolation: isolate;
      }

      .cls-20 {
        fill: #df725f;
      }

      .cls-21 {
        fill: #ca705b;
      }
    </style>
    <clipPath id="clippath">
      <rect id="SVGID" class="cls-3" x="5.3" y="5.2" width="37.9" height="45.4" transform="translate(48.4 55.8) rotate(180)"/>
    </clipPath>
    <linearGradient id="linear-gradient" x1="289.2" y1="524.4" x2="289.2" y2="500.2" gradientTransform="translate(-169.5 -531.2) rotate(10.3)" gradientUnits="userSpaceOnUse">
      <stop offset="0" stop-color="#fcc6a4"/>
      <stop offset=".5" stop-color="#fbc3a1"/>
      <stop offset=".8" stop-color="#fabc9a"/>
      <stop offset="1" stop-color="#f9af8e"/>
      <stop offset="1" stop-color="#f9ab8a"/>
    </linearGradient>
    <linearGradient id="_ÂÁ_Ï_ÌÌ_È_ËÂÌÚ_382" data-name="¡ÂÁ˚ÏˇÌÌ˚È „‡‰ËÂÌÚ 382" x1="-403.1" y1="-427.1" x2="-403.1" y2="-432.6" gradientTransform="translate(-564.1 -64) rotate(-126.6) scale(1 -1)" gradientUnits="userSpaceOnUse">
      <stop offset="0" stop-color="#c72a34"/>
      <stop offset="1" stop-color="#f04c33"/>
    </linearGradient>
  </defs>
  <g class="cls-23">
    <g id="Layer_1" data-name="Layer 1">
      <g>
        <polygon class="cls-17" points="42.1 3.8 43.1 56.2 0 56 3 3.2 42.1 3.8"/>
        <g>
          <rect class="cls-6" x="2.5" y="1.9" width="43.4" height="52" transform="translate(48.4 55.8) rotate(180)"/>
          <g class="cls-22">
            <rect class="cls-14" x="1.2" y="3.5" width="46" height="50.5" transform="translate(48.4 57.5) rotate(180)"/>
            <g>
              <path class="cls-11" d="M43.6,51.5c0,5.7-10.2,4.7-20,4.7s-19.6,1.1-19.6-4.7,9.7-16.1,19.6-16.1,20,10.3,20,16.1Z"/>
              <path class="cls-19" d="M19.7,33.7s-4.2.7-4.2,3.9,2.6,8.9,2.7,9.1c2.2,3.7,6.6,2.7,6.6,2.7l.5,7.8s.7-7.2,1-7.6c.2-.4,4.7-1.2,5.3-3.5.6-2.3.6-7.7,0-8.9-.6-1.2-7.1-5-11.9-3.5Z"/>
              <path class="cls-12" d="M31,22.4c.5-.8,2.3-.7,2.9.7.4,1-.4,2.6-.7,4.6-.1.9-1.5.7-1.7.4-1.1-1.4-2-3.2-.5-5.7Z"/>
              <polygon class="cls-7" points="19 32.1 19.7 38.3 25.6 43 27.8 39.5 28.7 34.1 19 32.1"/>
              <path class="cls-16" d="M26.5,37.2c.6,0,1.2-.2,1.7-.4l.4-2.7-9.7-2.1.3,2.6c2.3,2,4.9,2.6,7.2,2.5Z"/>
              <path class="cls-5" d="M28.5,37.2c4-.4,4.4-5,4.2-9-.1-2.9.4-6.8-.2-9.4-2.5-10.7-17.5-6.6-17.9.8-.2,3.7,1.9,9.5,4.6,13,2.7,3.5,6.3,4.8,9.3,4.5Z"/>
              <path class="cls-7" d="M24.3,32.7s.2-4.9,3.4-5.3,4,4.8,4,4.8c0,0-1.5-4.8-4-4.3s-3.4,4.8-3.4,4.8Z"/>
              <path class="cls-7" d="M22.7,23.5l-2.5-.2,1.8.4s-1.8.8-1.7.7c.2,0,1.6-.3,1.6-.3l-1.1,1.1,2.3-1.2-.4-.6Z"/>
              <path class="cls-7" d="M31,22.9l1.4-.7-.9.8s1.1.2,1,.2c-.1,0-.8.2-.8.2l.7.6-1.5-.5v-.6Z"/>
              <path class="cls-18" d="M26.8,36.1c-3.8-1.1-5-3.9-5.8-7-.5-1.8-1.8-13.7-.9-15.7-2.9,1.2-5.3,3.6-5.4,6.4-.2,3.7,1.9,9.5,4.6,13,2.7,3.5,6.3,4.8,9.3,4.5.8,0,1.4-.3,1.9-.7-1.7,0-2.9-.2-3.6-.5Z"/>
              <path class="cls-12" d="M28.7,32c-.3-.9-2.1-.2-2,.3,0,.3.5,0,1-.1.5,0,1.1,0,1-.2Z"/>
              <path class="cls-11" d="M31.7,16.6s.5,1.4.5,2.4.6,5.7.6,5.7c0,0,1-2,1-3.4,0-3-2.2-4.7-2.2-4.7Z"/>
              <path class="cls-11" d="M20,27.3c-.3.4-2.3.2-2.3.2l-3.6-2.6s-1.2-5.4-.2-6.7c1.8-2.3,6.5.2,6.2,9.1Z"/>
              <path class="cls-7" d="M16.4,23.5c-.9-.4-3.2,1-2.5,2.6.8,1.8,2.1,2.3,2.4,3.4.3,1.2,1.9.6,2.1.1.7-1.4,0-5.4-2-6.2Z"/>
              <g>
                <polygon class="cls-7" points="26.5 28 27.8 28.9 29.4 27.5 28.1 25.6 27.1 22.7 26.5 28"/>
                <path class="cls-21" d="M26.5,28c.5.2.9.5,1.4.7h-.2c.5-.5,1-1,1.5-1.4v.3c-.5-.6-.9-1.2-1.3-1.9-.3-1-.6-2-.9-3,.4,1,.8,1.9,1.2,2.9.5.5.9,1.2,1.3,1.8v.2c.1,0,0,.1,0,.1-.5.5-1.1.9-1.6,1.3h0c0,0,0,0,0,0-.4-.3-.8-.6-1.2-1Z"/>
              </g>
              <polygon class="cls-21" points="26.5 28 27.3 28.4 27.4 27.8 26.7 27.7 26.5 28"/>
              <path class="cls-10" d="M21.1,22.3c.2-.4.6-.8,1-1.1.4-.3,1-.4,1.5-.3.5.1.9.3,1.4.5l.5.3c.2,0,.3.1.5.1.1,0,.2,0,.2.2,0,0,0,.2-.1.2-.2.1-.6.1-.8,0-.3,0-.5-.2-.7-.3-.4-.2-.8-.3-1.2-.4-.4,0-.7,0-1,.2-.4.2-.7.4-1,.7-.1,0-.2,0-.3,0,0,0,0-.2,0-.2Z"/>
              <path class="cls-10" d="M27.4,22.1c.2-.4.5-.8.9-1.1.4-.3.9-.5,1.3-.5.5,0,1.1,0,1.5.3.4.3.7.6,1,1,0,.1,0,.2,0,.3,0,0-.2,0-.2,0-.3-.3-.7-.5-1-.7-.3-.2-.7-.2-1-.2-.4,0-.7.2-1.1.4-.3.2-.7.4-1,.7-.1,0-.2,0-.3,0,0,0,0-.2,0-.2Z"/>
              <path class="cls-21" d="M14.6,25.5c.1-.3.3-.7.6-.9.1-.1.4-.2.6-.2.2,0,.4.1.5.2.3.2.5.6.6,1,.1.4.2.8,0,1.1,0,0,0,0,0,.1-.3.3-.4.5-.2.8.2.3.6.5.9.8-.2,0-.4,0-.6-.1-.2,0-.4-.2-.6-.4-.2-.2-.3-.4-.3-.7,0-.3.2-.5.4-.7h0c0-.2,0-.5,0-.8,0-.3-.2-.6-.4-.8-.2-.2-.6-.3-.8-.1-.3.2-.5.5-.6.8,0,0,0,0,0,0Z"/>
              <g>
                <path class="cls-4" d="M24.7,23.6c0,.5-.2.8-.6.9-.5,0-.8-.4-.8-.8,0-.5.3-.9.7-.9.4,0,.7.4.7.9Z"/>
                <path class="cls-4" d="M22.9,23c0,0-.1,0-.1,0,0,0,0-.2,0-.2,0,0,1.3-1.1,2-.3,0,0,0,.2,0,.2,0,0-.2,0-.2,0-.5-.6-1.6.3-1.6.3,0,0,0,0,0,0Z"/>
              </g>
              <polygon class="cls-8" points="24.8 22.9 24.3 23.6 25 23.9 24.8 22.9"/>
              <g>
                <path class="cls-4" d="M30.4,23.2c0,.5-.2.8-.6.9-.5,0-.8-.4-.8-.8,0-.5.3-.9.7-.9.4,0,.7.4.7.9Z"/>
                <path class="cls-4" d="M28.7,22.6s-.1,0-.1,0c0,0,0-.2,0-.2,0,0,1.2-1,2-.3,0,0,0,.2,0,.2,0,0-.2,0-.2,0-.6-.5-1.6.3-1.6.3,0,0,0,0,0,0Z"/>
              </g>
              <polygon class="cls-8" points="30.5 22.5 30 23.3 30.7 23.4 30.5 22.5"/>
              <path class="cls-20" d="M25.7,31.1c.6-.4,1.2-.7,2-.9.2,0,.4,0,.5-.1,0,0,.2,0,.3,0,.1,0,.2,0,.3,0,.4.3.5.7.5,1-.2-.3-.4-.6-.6-.7,0,0-.1,0-.2,0h-.3c-.2,0-.3.1-.5.2-.7.2-1.3.4-2.1.5Z"/>
              <path class="cls-11" d="M23.8,17.2c-1-.4-7-1-6.7-2.3.2-1.4,2.9-4.2,6.7-3.8,3.9.3,5.8,1.7,5.6,2.5-.2.8-.3,3-.3,3h-2.2s-.7,1.1-.7,1.1l-2.5-.4Z"/>
            </g>
          </g>
        </g>
        <g>
          <path class="cls-1" d="M16.5,5.1c.2,1.7,1.7,3,3.5,2.8,1.8-.2,3.1-1.7,2.9-3.4-.2-1.7-1.7-3-3.5-2.8-1.8.2-3.1,1.7-2.9,3.4Z"/>
          <path class="cls-13" d="M18.2,4.9c.1,1.3,1.6,2.2,3.3,2,1.7-.2,3-1.3,2.9-2.6-.1-1.3-1.6-2.2-3.3-2-1.7.2-3,1.3-2.9,2.6Z"/>
          <path class="cls-2" d="M18.1,4.4c.1,1.3,1.6,2.2,3.3,2,1.7-.2,3-1.3,2.9-2.6-.1-1.3-1.6-2.2-3.3-2-1.7.2-3,1.3-2.9,2.6Z"/>
          <path class="cls-15" d="M23.3,1.5l.5,2s0,2.1-2.5,2.2c-2.4.1-2.8-1.7-2.8-1.7V1.9c.1,0,4.7-.4,4.7-.4Z"/>
          <path class="cls-9" d="M18.7,1.9c0,.9,1.2,1.6,2.5,1.5,1.3-.1,2.2-1,2.2-1.9,0-.9-1.2-1.6-2.5-1.5-1.3.1-2.2,1-2.2,1.9Z"/>
        </g>
      </g>
    </g>
  </g>
</svg>