<?xml version="1.0" encoding="UTF-8"?>
<svg xmlns="http://www.w3.org/2000/svg" xmlns:xlink="http://www.w3.org/1999/xlink" viewBox="0 0 59.14 21.83">
  <defs>
    <linearGradient id="b" data-name="¡ÂÁ˚ÏˇÌÌ˚È „‡‰ËÂÌÚ 382" x1="-354.59" y1="71.79" x2="-354.59" y2="66.32" gradientTransform="translate(28.48 -357.95) rotate(-78.88)" gradientUnits="userSpaceOnUse">
      <stop offset="0" stop-color="#c72a34"/>
      <stop offset="1" stop-color="#f04c33"/>
    </linearGradient>
  </defs>
  <g style="isolation: isolate;">
    <g id="a" data-name="Layer 1">
      <polygon points=".7 21.83 59.14 21.83 58.21 5.08 .7 5.08 .7 21.83" style="fill: #baa596; mix-blend-mode: multiply; opacity: .5; stroke-width: 0px;"/>
      <rect y="3.29" width="58.44" height="16.76" transform="translate(58.44 23.34) rotate(180)" style="fill: #6bae5b; stroke-width: 0px;"/>
      <rect x="33.75" y="7.71" width="20.48" height="1.96" transform="translate(87.98 17.38) rotate(180)" style="fill: #55475a; stroke-width: 0px;"/>
      <rect x="33.75" y="11.5" width="20.48" height="1.96" transform="translate(87.98 24.95) rotate(180)" style="fill: #55475a; stroke-width: 0px;"/>
      <rect x="33.75" y="15.28" width="20.48" height="1.96" transform="translate(87.98 32.52) rotate(180)" style="fill: #55475a; stroke-width: 0px;"/>
      <rect x="5.76" y="7.52" width="20.48" height="1.96" transform="translate(31.99 17) rotate(180)" style="fill: #55475a; stroke-width: 0px;"/>
      <rect x="5.76" y="11.31" width="20.48" height="1.96" transform="translate(31.99 24.57) rotate(180)" style="fill: #55475a; stroke-width: 0px;"/>
      <rect x="5.76" y="15.09" width="20.48" height="1.96" transform="translate(31.99 32.14) rotate(180)" style="fill: #55475a; stroke-width: 0px;"/>
      <g>
        <path d="M32.32,6.25c-.16,1.74-1.73,3.01-3.52,2.84-1.78-.16-3.1-1.7-2.94-3.43.16-1.73,1.73-3.01,3.51-2.84,1.79.16,3.11,1.7,2.95,3.43Z" style="fill: #b28d8d; mix-blend-mode: multiply; opacity: .5; stroke-width: 0px;"/>
        <path d="M31.26,3.43c.44,1.2-.52,2.67-2.15,3.27-1.63.6-3.31.11-3.76-1.09-.45-1.2.52-2.67,2.15-3.27,1.63-.6,3.31-.12,3.76,1.09Z" style="fill: #c72a34; stroke-width: 0px;"/>
        <path d="M31.16,2.97c.44,1.2-.52,2.67-2.15,3.27-1.63.6-3.31.11-3.76-1.09-.45-1.2.52-2.67,2.15-3.27,1.63-.6,3.31-.12,3.76,1.09Z" style="fill: #de3e35; stroke-width: 0px;"/>
        <path d="M25.19,2.6l.41,2.06s.99,1.86,3.17.94c2.18-.92,1.81-2.73,1.81-2.73l-1.05-1.88-4.34,1.61Z" style="fill: url(#b); stroke-width: 0px;"/>
        <path d="M29.54.99c.33.88-.38,1.96-1.58,2.41-1.2.44-2.44.08-2.76-.8-.33-.89.38-1.96,1.58-2.41,1.2-.44,2.44-.09,2.76.8Z" style="fill: #f04c33; stroke-width: 0px;"/>
      </g>
    </g>
  </g>
</svg>