<?xml version="1.0" encoding="UTF-8"?>
<svg xmlns="http://www.w3.org/2000/svg" xmlns:xlink="http://www.w3.org/1999/xlink" version="1.1" viewBox="0 0 72.6 64.8">
  <defs>
    <style>
      .cls-1 {
        fill: #b28d8d;
      }

      .cls-1, .cls-2, .cls-3, .cls-4, .cls-5, .cls-6, .cls-7, .cls-8, .cls-9 {
        stroke-width: 0px;
      }

      .cls-1, .cls-9 {
        mix-blend-mode: multiply;
        opacity: .5;
      }

      .cls-2 {
        fill: #de3e35;
      }

      .cls-3 {
        fill: #c3bdc4;
      }

      .cls-4 {
        fill: #f04c33;
      }

      .cls-5 {
        fill: #c72a34;
      }

      .cls-6 {
        fill: url(#_ÂÁ_Ï_ÌÌ_È_ËÂÌÚ_382);
      }

      .cls-7 {
        fill: url(#_ÂÁ_Ï_ÌÌ_È_ËÂÌÚ_189);
      }

      .cls-8 {
        fill: url(#_ÂÁ_Ï_ÌÌ_È_ËÂÌÚ_382-2);
      }

      .cls-9 {
        fill: #baa596;
      }

      .cls-10 {
        isolation: isolate;
      }
    </style>
    <linearGradient id="_ÂÁ_Ï_ÌÌ_È_ËÂÌÚ_189" data-name="¡ÂÁ˚ÏˇÌÌ˚È „‡‰ËÂÌÚ 189" x1="-561.2" y1="31.4" x2="-492.7" y2="31.4" gradientTransform="translate(-490.5) rotate(-180) scale(1 -1)" gradientUnits="userSpaceOnUse">
      <stop offset="0" stop-color="#f7f5f7"/>
      <stop offset="1" stop-color="#e0dbe2"/>
    </linearGradient>
    <linearGradient id="_ÂÁ_Ï_ÌÌ_È_ËÂÌÚ_382" data-name="¡ÂÁ˚ÏˇÌÌ˚È „‡‰ËÂÌÚ 382" x1="-622.3" y1="-11.8" x2="-622.3" y2="-17.3" gradientTransform="translate(-571.9 -221.2) rotate(-157.4) scale(1 -1)" gradientUnits="userSpaceOnUse">
      <stop offset="0" stop-color="#c72a34"/>
      <stop offset="1" stop-color="#f04c33"/>
    </linearGradient>
    <linearGradient id="_ÂÁ_Ï_ÌÌ_È_ËÂÌÚ_382-2" data-name="¡ÂÁ˚ÏˇÌÌ˚È „‡‰ËÂÌÚ 382" x1="-493.4" y1="-333.5" x2="-493.4" y2="-339.2" gradientTransform="translate(-509.5 -21) rotate(-145.4) scale(.8 -.9) skewX(16.1)" xlink:href="#_ÂÁ_Ï_ÌÌ_È_ËÂÌÚ_382"/>
  </defs>
  <g class="cls-10">
    <g id="Layer_1" data-name="Layer 1">
      <g>
        <g>
          <g>
            <path class="cls-9" d="M70.3,1.4l2.3,63.4s-3.1-2.2-8.2-2.3c-5.1,0-18.4,0-18.4,0v-3.8s-2.8,4.1-5.7,2.8c-3-1.3-6.5-8-7.7-7.2-1.2.8-2.7,6.1-4.9,4.6-2.1-1.6-7.2-9.8-7.2-9.8,0,0-8.9-1.8-10.4-2.4-1.5-.7-7.6-6.4-10.1-6.6C.2,39.9,2.3,0,2.3,0l68,1.4Z"/>
            <path class="cls-7" d="M70.7,0v62.8s-1.9-1.7-6.8-1.7c-4.9,0-17.8,0-17.8,0v-3.8s-2.7,4.1-5.6,2.8c-2.9-1.3-6.3-8-7.5-7.2-1.2.8,0,5.4-2.1,3.9-.8-.6-4.1.8-4.4,0-.6-1.3-1.2-2.7-1.8-4.1-.6-1.5-1.3-3-2.1-4.4-.9-1.7-2.3-2.8-3.7-4.1-.3-.2-.5-.5-.9-.5-.6-.1-1.1.4-1.5.9s-.7,1.1-1.3,1.3c0-.8-.7-1.5-1.4-1.9-.3-.2-.5-.4-.7-.7,0-.2,0-.5,0-.7,0-.8,0-1.6.1-2.3,0-.3,0-.6-.1-.8-.2-.3-.5-.5-.9-.4s-.7.2-.9.4c-.6.5-1,1.3-1.6,1.9-.1.1-.3.2-.5.3-.4,0-.7-.3-1-.7-.2-.3-.5-.6-.8-.9-.7-.6-1.5-1.1-2.3-1.5-.5-.2-1.9-.3-2.1-.8,0-.2,0-.7,0-.9,0-1.3,0-2.7,0-4,0-4.4-.2-8.7-.3-13.1-.1-4.5-.2-9-.4-13.5,0-2.1-.1-4.1-.2-6.2h68.5Z"/>
            <path class="cls-3" d="M16,34.4v11.1c-.2.2-.4.3-.6.4,0-.8-.7-1.5-1.4-1.9-.3-.2-.5-.4-.7-.7,0-.2,0-.5,0-.7,0-.8,0-1.6.1-2.3,0-.3,0-.6-.1-.8-.2-.3-.5-.5-.9-.4s-.7.2-.9.4c-.6.5-1,1.3-1.6,1.9-.1.1-.3.2-.5.3-.4,0-.7-.3-1-.7-.2-.3-.5-.6-.8-.9-.7-.6-1.5-1.1-2.3-1.5-.5-.2-1.9-.3-2.1-.8,0-.2,0-.7,0-.9,0-.8,0-1.6,0-2.4h12.8Z"/>
            <g>
              <rect class="cls-3" x="37.9" y="10.6" width="27.8" height="26.6" transform="translate(103.7 47.7) rotate(180)"/>
              <rect class="cls-3" x="11.9" y="13.1" width="20" height="3.3" transform="translate(43.7 29.5) rotate(180)"/>
              <rect class="cls-3" x="16.6" y="4.5" width="37" height="3" transform="translate(70.2 12.1) rotate(180)"/>
              <rect class="cls-3" x="8" y="18.2" width="23.8" height="2" transform="translate(39.8 38.5) rotate(180)"/>
              <rect class="cls-3" x="21.3" y="22.1" width="14.3" height="2" transform="translate(57 46.1) rotate(180)"/>
              <rect class="cls-3" x="7.7" y="22.1" width="10.1" height="2" transform="translate(25.5 46.1) rotate(180)"/>
              <rect class="cls-3" x="11.9" y="25.9" width="23.8" height="2" transform="translate(47.5 53.8) rotate(180)"/>
              <rect class="cls-3" x="28.9" y="29.7" width="6.7" height="2" transform="translate(64.6 61.5) rotate(180)"/>
              <rect class="cls-3" x="8.6" y="29.7" width="18.3" height="2" transform="translate(35.5 61.5) rotate(180)"/>
              <rect class="cls-3" x="19.6" y="33.6" width="16.1" height="2" transform="translate(55.2 69.2) rotate(180)"/>
              <rect class="cls-3" x="38.1" y="39.9" width="23.8" height="2" transform="translate(100.1 81.9) rotate(180)"/>
              <rect class="cls-3" x="19.9" y="39.9" width="15.6" height="2" transform="translate(55.5 81.9) rotate(180)"/>
              <rect class="cls-3" x="51.4" y="43.8" width="14.3" height="2" transform="translate(117.2 89.5) rotate(180)"/>
              <rect class="cls-3" x="23.2" y="43.8" width="24.7" height="2" transform="translate(71.1 89.5) rotate(180)"/>
              <rect class="cls-3" x="42" y="47.6" width="23.8" height="2" transform="translate(107.7 97.2) rotate(180)"/>
              <rect class="cls-3" x="59.1" y="51.4" width="6.7" height="2" transform="translate(124.8 104.9) rotate(180)"/>
              <rect class="cls-3" x="33.1" y="47.6" width="6.7" height="2" transform="translate(73 97.2) rotate(180)"/>
              <rect class="cls-3" x="24.8" y="47.6" width="6.7" height="2" transform="translate(56.3 97.2) rotate(180)"/>
              <rect class="cls-3" x="38.7" y="51.4" width="18.3" height="2" transform="translate(95.7 104.9) rotate(180)"/>
              <rect class="cls-3" x="49.7" y="55.3" width="16.1" height="2" transform="translate(115.4 112.6) rotate(180)"/>
            </g>
          </g>
          <path class="cls-4" d="M19.2,18.7c1.7-.4,3.4.6,4.6,1.5,0,0,.2.1.2.2,2-.7,4.1.5,5.6,1.9,1.8,1.5,3.3,3.5,4.5,5.6,1.2,2.1,1.9,5,.6,7.3-1.3,2.3-4.2,2.6-6.4,1.7-3.2-1.2-5.7-3.8-7.8-6.5-1.6-2-3.3-4.3-3.9-6.9-.4-1.9.3-4.3,2.4-4.8ZM19.1,24.1c.5,1,1.1,2,1.8,2.9,1.5,2.1,3.3,4.2,5.4,5.8,1.1.8,2.3,1.6,3.6,1.9.5.1.9.2,1.3.2.4,0,.7-.1,1-.3.2-.1.4-.3.6-.5.3-.4.3-.6.4-1.1.2-.8,0-1.9-.2-2.7-.6-2.1-2.2-4.1-3.6-5.7-1-1.1-2.4-2.5-3.9-3,1.2,1.1,2.3,2.3,3.3,3.6,1.1,1.3,1.9,2.8,2.8,4.2.4.6-.6,1.2-1,.6,0,.1,0,0-.1-.1,0,0-.1-.2-.2-.3-.2-.2-.4-.4-.5-.7-.5-.6-1-1.1-1.5-1.7-1.2-1.3-2.4-2.7-3.6-3.9-.6-.6-1.2-1.1-1.9-1.6-.5-.4-1.3-.9-1.8-1-.1,0-.3-.1-.5-.1,0,0-.3,0-.3,0-.1,0-.2,0-.4,0-.1,0-.2,0-.3,0,0,0-.3.2-.4.2-.3.2-.4.4-.6.8-.3.8.1,1.8.5,2.6Z"/>
        </g>
        <g>
          <path class="cls-1" d="M4.3,8.2c1,1.4,3,1.7,4.5.6,1.5-1,1.8-3,.8-4.5-1-1.4-3-1.7-4.5-.6-1.5,1.1-1.8,3-.8,4.5Z"/>
          <path class="cls-5" d="M6.2,8c.8,1,2.5,1.1,3.9,0,1.4-1,1.9-2.7,1.2-3.7-.8-1-2.5-1.1-3.9,0-1.4,1-1.9,2.7-1.2,3.7Z"/>
          <path class="cls-2" d="M5.9,7.6c.8,1,2.5,1.1,3.9,0,1.4-1,1.9-2.7,1.2-3.7-.8-1-2.5-1.1-3.9,0-1.4,1-1.9,2.7-1.2,3.7Z"/>
          <path class="cls-6" d="M8.9,2.4l1.5,1.5s1,1.9-1,3.2c-2,1.3-3.3,0-3.3,0l-1-1.9,3.7-2.7Z"/>
          <path class="cls-4" d="M5.1,5.2c.6.8,1.8.8,2.9,0,1-.7,1.4-2,.9-2.7-.6-.8-1.8-.8-2.9,0-1,.8-1.4,2-.9,2.7Z"/>
        </g>
        <g>
          <path class="cls-1" d="M60.1,5.8c.5,1.7,2.3,2.6,4,2.1,1.7-.5,2.7-2.3,2.2-3.9-.5-1.7-2.3-2.6-4-2.1-1.7.5-2.7,2.3-2.2,3.9Z"/>
          <path class="cls-5" d="M61.2,4.7c.4,1.5,2.2,2.4,3.8,1.9,1.7-.5,2.7-2.1,2.2-3.6-.4-1.5-2.2-2.4-3.8-1.9-1.7.5-2.7,2.1-2.2,3.6Z"/>
          <path class="cls-2" d="M61.2,4.5c.4,1.5,2.2,2.4,3.8,1.9,1.7-.5,2.7-2.1,2.2-3.6-.4-1.5-2.2-2.4-3.8-1.9-1.7.5-2.7,2.1-2.2,3.6Z"/>
          <path class="cls-8" d="M66.1,1.7l.8,1.4s.3,2.1-2,2.7c-2.3.6-3.1-1.2-3.1-1.2v-1.6c-.1,0,4.3-1.3,4.3-1.3Z"/>
          <path class="cls-4" d="M61.7,3c.3,1.1,1.6,1.7,2.8,1.3,1.2-.4,2-1.5,1.6-2.6-.3-1.1-1.6-1.7-2.8-1.3-1.2.4-2,1.5-1.6,2.6Z"/>
        </g>
      </g>
    </g>
  </g>
</svg>