<?xml version="1.0" encoding="UTF-8"?>
<svg xmlns="http://www.w3.org/2000/svg" xmlns:xlink="http://www.w3.org/1999/xlink" version="1.1" viewBox="0 0 612 792">
  <defs>
    <style>
      .cls-1 {
        fill: #b28d8d;
      }

      .cls-1, .cls-2, .cls-3, .cls-4, .cls-5, .cls-6, .cls-7, .cls-8 {
        stroke-width: 0px;
      }

      .cls-1, .cls-7 {
        mix-blend-mode: multiply;
        opacity: .5;
      }

      .cls-2 {
        fill: #de3e35;
      }

      .cls-3 {
        fill: #b385b5;
      }

      .cls-4 {
        fill: #f04c33;
      }

      .cls-5 {
        fill: #c72a34;
      }

      .cls-6 {
        fill: url(#_ÂÁ_Ï_ÌÌ_È_ËÂÌÚ_382);
      }

      .cls-7 {
        fill: #baa596;
      }

      .cls-9 {
        isolation: isolate;
      }

      .cls-8 {
        fill: #5d4354;
      }
    </style>
    <linearGradient id="_ÂÁ_Ï_ÌÌ_È_ËÂÌÚ_382" data-name="¡ÂÁ˚ÏˇÌÌ˚È „‡‰ËÂÌÚ 382" x1="272.4" y1="441.3" x2="272.4" y2="435.6" gradientTransform="translate(-202.2 245.9) rotate(-34.6) scale(.8 .9) skewX(16.1)" gradientUnits="userSpaceOnUse">
      <stop offset="0" stop-color="#c72a34"/>
      <stop offset="1" stop-color="#f04c33"/>
    </linearGradient>
  </defs>
  <g class="cls-9">
    <g id="Layer_1" data-name="Layer 1">
      <g>
        <g>
          <polygon class="cls-7" points="322.7 409.8 290.6 409.8 290.6 383.3 321.4 382.4 322.7 409.8"/>
          <rect class="cls-3" x="289.3" y="382.4" width="32.1" height="26.5"/>
          <path class="cls-8" d="M294.4,392c0,0-.1-.1-.2-.1,0,0-.1,0-.2,0-.1,0-.3,0-.4,0,0,0,0,0-.1,0-.2,0-.4.2-.6.3-.2.2-.3.4-.4.6,0,.1,0,.2,0,.4,0,.1.1.3.2.3.3.3.8.4,1.2.3.4-.1.7-.5.7-1,0-.3-.1-.5-.3-.7ZM294.1,392.9s0,0,0,0c0,0,0,0,0,0,0,0,0,0,0,0,0,0,0,0,0,0,0,0-.1,0-.2,0,0,0,0,0,0,0,0,0,0,0,0,0,0,0-.1,0-.2,0,0,0,0,0,0,0,0,0,0,0,0,0,0,0,0,0,0,0,0,0,0,0,0,0,0,0,0,0,0,0,0,0,0,0,0,0,0,0,0,0,0,0,0,0,0,0,0,0,0,0,0-.2,0-.2,0,0,0,0,0,0,0,0,0,0,0,0,0,0,0,0,0,0,0,0,0,0,0-.1,0,0,0,0,0,0,0,0,0,0,0,0,0,0,0,0,0,0,0,0,0,0,0,0,0,0,0,0,0,0,0,0,0,0,0,0,0,0,0,0,.1,0,0,0,0,0,0,.1,0,0,0,0,0,0,0,0,0,0,0,.1,0,0,0,0,0,.1,0,0,0,0,0,0,0,0,0,.1,0,.2,0,0,0,0,0,0Z"/>
          <path class="cls-8" d="M307.7,391.5c-.7.4-1.3,1.5-2.3,1.2-.4-.1-.3-.5-.2-.8.1-.5.2-.9.1-1.4,0-.4-.7-.5-.9-.1-.5,1-1.1,1.9-1.8,2.8-.1.2-.3.4-.5.5,0,0,0,0,0,0,0,0,0-.2,0-.2,0-.6,0-1.2-.1-1.8,0-.4-.5-.6-.8-.3-.6.5-1.1,1.1-1.7,1.7,0,0,0,0,0,.1,0-.1,0-.2,0-.3,0-.2-.2-.4-.4-.5-.1,0-.3,0-.4,0-.2.4-.4.8-.3,1.2,0,.1.2.1.2,0,0-.2.1-.4.2-.6,0,.2,0,.3,0,.5.1.3.4.5.7.4.4,0,.8-.5,1.1-.8.2-.1.3-.3.5-.4,0,0,0,.2,0,.3,0,.3,0,.7,0,1.1.2.7.9.8,1.5.5.6-.4,1-1.1,1.4-1.6,0,0,.1-.2.2-.3,0,.5.4.9.9,1,1.3.3,2-1.1,2.7-1.8.1-.1,0-.3-.2-.3Z"/>
          <path class="cls-8" d="M317.7,390.7c-.7.4-1.5.9-2.2,1.3-.3.2-.7.4-1,.6-.1,0-.7.2-.6-.1.1-.4-.4-.8-.7-.5-.4.3-1,.3-1.5.2-.2,0-.5,0-.7-.2-.2-.1,0-.5,0-.7,0-.3-.3-.5-.5-.3-.2.2-.5.3-.7.5,0,0-.6.4-.6.4,0-.2-.2-.2-.3,0-.2.3.1.7.5.6.2,0,.5-.2.7-.3,0,0,.1,0,.2-.1,0,.1,0,.2,0,.3.2.4.5.5.9.6.6.2,1.3.3,1.9,0,0,.2.2.3.4.4.5.3,1,.2,1.5,0,.6-.3,1.1-.6,1.6-.9l.5-.3c-.1.4-.3.8-.4,1.2,0,.1.1.2.2.1.3-.3.5-.7.8-1.1.3-.4.5-.7.8-1.1.2-.4-.2-.9-.6-.6Z"/>
          <g>
            <path class="cls-8" d="M294.6,398.7c0,0,0,0,0,0h0Z"/>
            <path class="cls-8" d="M294.7,399c0,0,0-.2-.1-.3,0,0,0,0,0,0,0,0,0,0,0,0,0,0,0,0,0,0,0,0,0,0,0,0-.2-.1-.4-.2-.6-.2-.4,0-.7.3-.8.7,0,.2,0,.4,0,.6,0,0,.1.2.2.2,0,0,0,0,0,0,0,0,.1,0,0,0,0,0,0,0,0,0,0,0,0,0,.1,0,0,0,0,0,.1,0,.2,0,.4,0,.5,0,.2,0,.4-.2.5-.4.1-.2.1-.4,0-.6ZM293.9,399.4s0,0-.1,0c0,0,0,0,0,0,0,0,0,0-.1,0,0,0,0,0,0,0,0,0,0,0,0-.1,0,0,0,0,0,0,0,0,0,0,0,0,0,0,0,0,0,0,0,0,0,0,0,0,0,0,0,0,0,0,0,0,0,0,0,0,0,0,0,0,0,0,0,0,0,0,0,0,0,0,0,0,.1,0,0,0,0,0,0,0,0,0,0,0,0,0,0,0,0,0,0,0,0,0,0,0,0,0,0,0,0,0,0,0,0,0,0,0,0,0,0,0,0,0-.1,0,0,0,0,0,0,0,0,0,0,0,0,0Z"/>
          </g>
          <path class="cls-8" d="M301.3,399.1c-.2.4-.6.7-.9,1,0-.1,0-.2,0-.3,0-.3-.1-.6-.2-1,0-.3-.5-.4-.6-.2-.2.2-.4.5-.6.7,0,0-.1.1-.2.2,0-.2,0-.3,0-.5,0-.4-.5-.6-.9-.4-.4.2-.7.7-.7,1.1,0,0,0,0,0,0,.2-.2.3-.3.5-.5,0,0,.2-.1.3-.2,0,0,0,.2,0,.2,0,.2,0,.3,0,.4,0,.4.5.7.9.5.2-.1.4-.4.6-.5,0,0,0,0,0,0,0,.2,0,.3,0,.5,0,.5.4.9.9.8.8-.2,1-1.2,1.1-1.9,0-.1-.2-.2-.3,0Z"/>
          <path class="cls-8" d="M305.8,399.9c0,0-.1,0-.2,0,0,0,0,0,0,0,0,0,0,0,0,0,0,0,0,0,0-.1,0,0,0,0,0,0,0,0,0,0,0-.1,0-.2.1-.4.1-.6,0-.3-.1-.5-.4-.7-.2-.1-.4,0-.6.1,0,0-.1.2-.2.3,0,0,0,0,0,0,0,0,0,0,0,.1,0,0,0,0-.1,0,0,0,0,0,0,0,0,0,0,0,0,0,0,0,0,0,0,0,0,0,0,0,0,0,0,0,0,0,0,0,0,0,0,0,0,0,0,0,0,0,0,0,0,0,0,0,0,0,0,0,0,0,0,0,0,0,0,0,0,0,0-.1,0-.3,0-.4-.1-.1-.3-.1-.4,0-.3.2-.3.6-.1.8,0,.2.1.4.2.6,0,.1.2,0,.2-.1,0,0,0,0,0,0,0,0,.2,0,.2.1.3,0,.5,0,.7-.1,0,.2,0,.3,0,.5,0,.1.1.3.3.4.1,0,.2,0,.3.1.1,0,.2,0,.3-.2,0,0,.1-.1.2-.2,0,0,0-.2,0-.3Z"/>
          <path class="cls-8" d="M317.3,398c-.4-.2-.8-.2-1.2,0-.4.2-.7.5-1.1.6-.1,0-.3.1-.5,0,0,0-.1,0-.1-.1,0-.5-.5-1-.9-.5-.4.4-.8.8-1.3,1.1,0,0,0-.2,0-.3,0-.4-.5-.4-.6-.1-.2.4-.4.9-.4,1.4,0,.4.5.6.8.5.6-.3,1.1-.7,1.6-1.2,0,0,.1.1.2.2.4.3,1,.3,1.4.1.4-.2.8-.5,1.2-.7.1,0,.2,0,.3,0,0,0,.2.2.3.3.2.1.6,0,.7-.2.3-.4,0-.9-.5-1.1Z"/>
          <path class="cls-8" d="M295.5,404.6c-.1-.3-.4-.6-.8-.6,0,0-.1,0-.2,0-.1,0-.2-.1-.3-.1-.3,0-.6,0-.8,0-.5.3-.7,1-.4,1.5.3.6,1.1.7,1.7.5.3,0,.6-.3.7-.6.1-.3.2-.6.1-.9ZM294.9,405.1c0,0,0,0,0,.1,0,0,0,0,0,0,0,0,0,0,0,0,0,0,0,0,0,0,0,0-.1,0-.2,0,0,0,0,0,0,0,0,0,0,0,0,0,0,0-.1,0-.2,0,0,0,0,0,0,0,0,0,0,0,0,0,0,0,0,0,0,0,0,0-.1,0-.2,0,0,0,0,0,0,0,0,0,0,0,0,0,0,0,0,0,0,0,0,0,0,0,0,0,0,0,0,0,0,0,0,0,0,0,0,0,0,0,0-.1,0-.1,0,0,0,0,0,0,0,0,0,0,0,0,0,0,0-.1,0-.1,0,0,0,0,0,0,0,0,0,0,0,0,0,0,0,0,0,0,0,0,0,0,.1,0,0,0,0,0,0,0,0,0,0,0,0,0,0,0,0,0,0,0,0,0,0,0,0,0,0,0,0,0,0,.1,0,0,0,0,.1,0,0,0,0,0,0,0,0,0,.1,0,.2,0,0,0,0,0,0,0,0,0,0,0,0,0,0,0,0,0,0,0,0,0,0,0,0,0,0,0,0,0,0,0,0,0,0,0,0,0,0,0,0,0,0,0,0,0,0,0,0,0,0,0,0,0,0,0,0,0,0,0,0,0Z"/>
          <path class="cls-8" d="M310.8,403c-.5.3-1,.6-1.6.8-.3,0-.6.2-.8.3-.2,0-.5.2-.7.1-.3-.1-.4-.3-.7-.3-.3,0-.6,0-.8.2-.4.2-.8.4-1.1.5-.2-.3-.5-.4-.9-.4-.3,0-.6.2-.9.4-.2.1-.5.5-.7.5-.2-.4-.2-.9-.2-1.4,0-.3-.4-.5-.7-.3-.4.5-.9,1-1,1.6,0,.3.2.4.4.2.2-.1.3-.3.4-.4,0,0,0,0,0,0,0,0,0,0,0,0,0,0,0,0,0,0,0,0,0,.2,0,.3.1.4.2.9.8,1,.4,0,.8-.2,1.2-.5.2-.1.3-.3.5-.4,0,0,.1,0,.2,0,0,0,0,0,0,0,0,0,0,0,0,0,0,.4.4.7.7.5.6-.2,1.1-.5,1.7-.8.2,0,.2,0,.3,0,0,0,.2.1.3.2.3.2.6.1.9,0,.5-.2,1-.5,1.5-.8.5-.3,1-.7,1.4-1.1,0-.1,0-.3-.2-.2Z"/>
          <path class="cls-8" d="M319.3,402.7c-.3.2-.6.5-.9.7-.3.2-.6.4-.9.5-.4.2-1.1.1-1.3-.3-.1-.3-.6-.3-.7,0-.3.3-.6.6-.9.9,0,0,0-.1,0-.2,0-.1-.1-.2-.2-.2-.2,0-.4.3-.5.5,0,.2,0,.5,0,.8,0,.3.3.5.6.3.4-.3.8-.7,1.2-1,.1.1.3.3.5.3.5.2.9.2,1.4,0,.2-.1.4-.2.6-.4.2-.1.3-.3.5-.5.3-.3.8-.7,1-1.1,0-.1,0-.3-.2-.2Z"/>
        </g>
        <g>
          <path class="cls-1" d="M298.6,389.4c-.5,1.7-2.3,2.6-4,2.1-1.7-.5-2.7-2.3-2.3-4,.5-1.7,2.3-2.6,4-2.1,1.7.5,2.7,2.3,2.3,4Z"/>
          <path class="cls-5" d="M297.4,388.3c-.4,1.5-2.2,2.4-3.9,1.9-1.7-.5-2.7-2.1-2.2-3.7.4-1.5,2.2-2.4,3.9-1.9,1.7.5,2.7,2.1,2.2,3.7Z"/>
          <path class="cls-2" d="M297.4,388.1c-.4,1.5-2.2,2.4-3.9,1.9-1.7-.5-2.7-2.1-2.2-3.7.4-1.5,2.2-2.4,3.9-1.9,1.7.5,2.7,2.1,2.2,3.7Z"/>
          <path class="cls-6" d="M292.5,385.3l-.8,1.4s-.3,2.1,2,2.7c2.3.6,3.1-1.2,3.1-1.2v-1.6c.1,0-4.4-1.3-4.4-1.3Z"/>
          <path class="cls-4" d="M297,386.6c-.3,1.1-1.6,1.7-2.8,1.4-1.2-.4-2-1.5-1.7-2.7.3-1.1,1.6-1.7,2.8-1.4,1.2.4,2,1.5,1.7,2.7Z"/>
        </g>
      </g>
    </g>
  </g>
</svg>