<?xml version="1.0" encoding="UTF-8"?>
<svg xmlns="http://www.w3.org/2000/svg" xmlns:xlink="http://www.w3.org/1999/xlink" version="1.1" viewBox="0 0 67.9 60">
  <defs>
    <style>
      .cls-1 {
        fill: #b28d8d;
      }

      .cls-1, .cls-2, .cls-3, .cls-4, .cls-5, .cls-6, .cls-7, .cls-8, .cls-9, .cls-10 {
        stroke-width: 0px;
      }

      .cls-1, .cls-9 {
        mix-blend-mode: multiply;
        opacity: .5;
      }

      .cls-2 {
        fill: #de3e35;
      }

      .cls-3 {
        fill: #55475a;
      }

      .cls-4 {
        fill: #f4f3e5;
      }

      .cls-5 {
        fill: #473243;
      }

      .cls-6 {
        fill: #f04c33;
      }

      .cls-7 {
        fill: #c72a34;
      }

      .cls-8 {
        fill: url(#_ÂÁ_Ï_ÌÌ_È_ËÂÌÚ_382);
      }

      .cls-9 {
        fill: #baa596;
      }

      .cls-11 {
        isolation: isolate;
      }

      .cls-10 {
        fill: #fee858;
      }
    </style>
    <linearGradient id="_ÂÁ_Ï_ÌÌ_È_ËÂÌÚ_382" data-name="¡ÂÁ˚ÏˇÌÌ˚È „‡‰ËÂÌÚ 382" x1="-477.9" y1="-281.3" x2="-477.9" y2="-286.9" gradientTransform="translate(-489.4 -149.6) rotate(-133.8) scale(.8 -.9) skewX(16.1)" gradientUnits="userSpaceOnUse">
      <stop offset="0" stop-color="#c72a34"/>
      <stop offset="1" stop-color="#f04c33"/>
    </linearGradient>
  </defs>
  <g class="cls-11">
    <g id="Layer_1" data-name="Layer 1">
      <g>
        <g>
          <polygon class="cls-9" points="12.3 0 0 49.5 55.1 60 67.3 14.2 12.3 0"/>
          <rect class="cls-4" x="6.9" y="5.2" width="56.7" height="47.5" transform="translate(6.5 -6.5) rotate(11.6)"/>
          <rect class="cls-3" x="10.1" y="7.8" width="50.5" height="42.3" transform="translate(6.5 -6.5) rotate(11.6)"/>
          <path class="cls-5" d="M47.3,43.6c-3.3-1.4-6.2-3.2-6.2-3.2,0,0,5.5-5.6,5-6-.2-.2-1.6-.8-3.4-1.4,0-.8,0-1.7-.2-2.7l1.5-.7-1.5-3.4c0-.3,0-.7,0-1,.2,0,.3-.2.5-.5,1.7-3.5,2.7-12.5-5.4-12.3-5.2.1-10,1.9-12,3.7-.9.8-1.2,4.3-1.2,4.3,0,1.2.4,2.3.6,3.1l.3,1.7c-.2.4-.3.8-.1,1.3.2.5.4,1,.6,1.4-.5-.3-4.7,1-4.8.8-.4-.6,2.2,7.2,1.9,8.7-.3,1.5-2.7,2.6-5.6,3.3-.2,0-.5,0-.8,0-.8.4-1.4.8-1.7,1.4-.5,1-1.3,2.5-1.9,4l36.1,7.4c0,0,.1-.2.2-.3.6-1.7,1.2-8-2.1-9.4Z"/>
        </g>
        <g>
          <path class="cls-1" d="M11.5,5.8c.1,1.7,1.7,3,3.5,2.9,1.8-.1,3.1-1.7,3-3.4-.1-1.7-1.7-3-3.5-2.9-1.8.1-3.1,1.7-3,3.4Z"/>
          <path class="cls-7" d="M12.9,5c.1,1.6,1.6,2.7,3.4,2.6,1.7-.1,3-1.5,2.9-3.1-.1-1.6-1.6-2.7-3.4-2.6-1.7.1-3,1.5-2.9,3.1Z"/>
          <path class="cls-2" d="M12.9,4.8c.1,1.6,1.6,2.7,3.4,2.6,1.7-.1,3-1.5,2.9-3.1-.1-1.6-1.6-2.7-3.4-2.6-1.7.1-3,1.5-2.9,3.1Z"/>
          <path class="cls-8" d="M18.3,3l.5,1.5s-.1,2.1-2.5,2.2c-2.4.1-2.8-1.8-2.8-1.8l.2-1.6,4.6-.4Z"/>
          <path class="cls-6" d="M13.6,3.4c0,1.1,1.2,2,2.5,1.9,1.3-.1,2.2-1.1,2.1-2.2,0-1.1-1.2-2-2.5-1.9-1.3.1-2.2,1.1-2.1,2.2Z"/>
        </g>
      </g>
      <g>
        <polygon class="cls-9" points="57.5 55 35.5 52.1 37.5 32.8 58.8 34.9 57.5 55"/>
        <rect class="cls-10" x="35.8" y="33.8" width="22.1" height="18.6" transform="translate(4.6 -4.5) rotate(5.8)"/>
        <path class="cls-6" d="M42.6,43.7c.1-1.4.3-2.9.4-4.3,0-.2-.4-.3-.4,0-.2,1.2-.3,2.5-.4,3.8,0,.6-.1,1.2-.2,1.9,0,.4,0,.9-.3,1.1-.6-1-1-2.1-1.3-3.2,0-.2-.3-.2-.4,0-.4.9,0,2.1-.5,3-.3-.6-.5-1.2-.7-1.8,0-.3-.2-.7-.2-1,0-.2,0-.4,0-.6,0,0,0-.2,0-.3,0,0,0,0,0-.1,0-.1,0-.2,0-.3,0,.1.2.1.2,0,0-.3-.3-.3-.4,0,0,.2,0,.5,0,.7,0,.3,0,.5,0,.8.1,1.1.5,2.1,1,3.1,0,.1.2.2.3,0,.6-.8.4-1.7.6-2.6.3,1,.7,1.9,1.2,2.8,0,.1.2.1.3.1.4-.1.6-.5.7-.9.1-.6.1-1.3.2-2Z"/>
        <path class="cls-6" d="M47.7,43.7c-.1-.5-.4-1.4-1-1.4-.3,0-.4.3-.6.5-.2.3-.4.6-.5.9,0,.2-.2.4-.2.6,0-.6,0-1.2,0-1.8,0-.6,0-1.2,0-1.7,0-.3,0-.6,0-.8,0-.2,0-.6,0-.7,0,0,0,0,0,0,0,0,0-.2,0-.2-.2,0-.3.1-.3.2-.1.3,0,.7,0,1.1,0,.4,0,.8,0,1.2,0,1.5,0,3,.2,4.5,0,.3.5.3.5,0,0-.5.2-1.1.5-1.6.1-.3.2-.5.3-.7,0-.1.1-.2.2-.3,0,0,.1-.3.2-.3.2-.1.6,1.1.6,1.3.1.5.1,1.1.3,1.6,0,.2.4.2.4,0,.1-.7,0-1.5-.3-2.2Z"/>
        <path class="cls-6" d="M52.6,44.4c0-.5-.2-1-.5-1.4-.2-.3-.5-.5-.8-.4-.2-.1-.4-.2-.6,0-.4.1-.7.5-.9.9-.2.4-.4.8-.4,1.2,0,.4,0,.9.2,1.2.4.7,1.3.9,1.9.6.8-.3,1.1-1.2,1.1-2ZM51.5,45.8c-.4.2-1,.2-1.3-.2-.4-.4-.2-1.2,0-1.7.1-.3.3-.6.5-.9.1-.1.3-.3.5-.3,0,0,0,0,0,0,0,.1,0,.3.2.2,0,0,.2,0,.3,0,.1,0,.2.2.3.3.2.3.3.6.3.9,0,.5-.2,1.1-.7,1.4Z"/>
        <path class="cls-6" d="M54.1,46.2s0,0,0,0c0,0,0,0,0,0,0,0,0,0,0,0,0,0,0,0,0,0,0,0,0,0,0,0,0,0,0,0-.1,0,0,0,0,0,0,0,0,0,0,0,0,0,0,0,0,0,0,0,0,0,0,0,0,.1,0,0,0,0,0,.1,0,0,0,0,0,0,0,0,0,0,0,0,0,0,0,0,0,0,0,0,0,0,.1,0,0,0,0,0,.1,0,0,0,0,0,0,0,0,0,0,0,0-.1,0,0,0,0,0,0,0,0,0,0,0-.1Z"/>
        <path class="cls-6" d="M55.3,40.1c-.5-.2-1.1,0-1.4.4-.2.2-.4.5-.3.8,0,.2.3.4.5.3,0,0,0,0,0-.1-.2-.3,0-.5.2-.6.2-.2.5-.4.7-.3.5.1.1,1.2,0,1.4-.1.3-.3.6-.5.8-.2.3-.4.5-.6.8-.2.5,0,1.2.5,1.3.4.1.6-.5.1-.6-.2,0-.2-.3-.1-.4.1-.3.4-.5.5-.8.4-.5.6-1.1.7-1.7,0-.5,0-1.1-.4-1.4Z"/>
      </g>
    </g>
  </g>
</svg>