<?xml version="1.0" encoding="UTF-8"?>
<svg xmlns="http://www.w3.org/2000/svg" xmlns:xlink="http://www.w3.org/1999/xlink" version="1.1" viewBox="0 0 612 792">
  <defs>
    <style>
      .cls-1 {
        fill: #b28d8d;
      }

      .cls-1, .cls-2, .cls-3, .cls-4, .cls-5, .cls-6, .cls-7, .cls-8 {
        stroke-width: 0px;
      }

      .cls-1, .cls-7 {
        mix-blend-mode: multiply;
        opacity: .5;
      }

      .cls-2 {
        fill: #de3e35;
      }

      .cls-3 {
        fill: #f04c33;
      }

      .cls-4 {
        fill: #f5f4dd;
      }

      .cls-5 {
        fill: #c72a34;
      }

      .cls-6 {
        fill: url(#_ÂÁ_Ï_ÌÌ_È_ËÂÌÚ_382);
      }

      .cls-7 {
        fill: #baa596;
      }

      .cls-8 {
        fill: #cfbcad;
      }

      .cls-9 {
        isolation: isolate;
      }
    </style>
    <linearGradient id="_ÂÁ_Ï_ÌÌ_È_ËÂÌÚ_382" data-name="¡ÂÁ˚ÏˇÌÌ˚È „‡‰ËÂÌÚ 382" x1="175.1" y1="594.6" x2="175.1" y2="586.2" gradientTransform="translate(-87.3 -89.2) rotate(-22.6)" gradientUnits="userSpaceOnUse">
      <stop offset="0" stop-color="#c72a34"/>
      <stop offset="1" stop-color="#f04c33"/>
    </linearGradient>
  </defs>
  <g class="cls-9">
    <g id="Layer_1" data-name="Layer 1">
      <g>
        <g>
          <polygon class="cls-7" points="256.4 385.8 257.3 409.1 354.6 409.1 353.5 385.8 256.4 385.8"/>
          <polygon class="cls-4" points="256.4 385.3 255.5 407.4 356.5 407.4 354.1 384.6 256.4 385.3"/>
          <path class="cls-8" d="M355.1,406.1h-98.2l.8-19.5,95.3-.7,2.1,20.2ZM257.8,405.3h96.4l-2-18.5-93.7.7-.7,17.8Z"/>
          <g>
            <g>
              <path class="cls-8" d="M262.2,396.8c-.1,0-.3,0-.4,0,0,.8,0,1.6.3,2.4.1,0,.3-.1.4,0-.2-.7-.3-1.5-.3-2.3Z"/>
              <path class="cls-8" d="M268,388.8c-1.5-.6-3.1,0-4.1,1.3-1.2,1.5-1.7,3.5-2,5.4.1,0,.3,0,.4.1.2-1.8.7-3.7,1.8-5.1.9-1.2,2.5-1.9,3.9-1.1-.1-.1-.2-.3,0-.5Z"/>
              <path class="cls-8" d="M269.8,390.4c-.2.1-.4,0-.6,0,.8,1,1.2,2.2,1.6,3.4.1-.1.3-.1.4-.1-.3-1.1-.7-2.3-1.4-3.3Z"/>
              <path class="cls-8" d="M271.7,396.3c-.1,0-.3,0-.4,0,.2,2,.3,4.8-1.5,6.1-1.8,1.4-4.6.3-6-1.2,0,.2.2.3.2.5,0,0,0,.2,0,.3.2.1.3.3.5.4.6.4,1.2.7,1.8.9,1.1.3,2.4.3,3.5-.3,2.2-1.3,2.2-4.4,2-6.6Z"/>
            </g>
            <path class="cls-8" d="M270.9,395.7c-.3-1.9-.8-4.3-2.5-5.5-1.4-1-3.1-.5-4.1.8-1.4,1.7-1.9,4.4-1.7,6.5.3,2.1,1.7,4,3.8,4.5,0-.1,0-.3,0-.4-3.2-.9-3.8-4.3-3.2-7.2.4-1.8,1.6-4.8,4-4.3,2.3.4,3,3.8,3.3,5.7.3,2.3.2,6.1-3,6,0,.1,0,.3-.1.4,3.6.2,3.9-3.8,3.6-6.5Z"/>
            <g>
              <path class="cls-8" d="M269.3,399.8c.2,0,.3.1.3.3,1.1-1.7.7-4.3,0-6.2-.1.1-.2.2-.4.1.6,1.7,1,4.2,0,5.8Z"/>
              <path class="cls-8" d="M263.7,396.9c0-1.6.3-3.5,1.4-4.7,1-1.1,2.5-1,3.4.3,0-.1.2-.2.3-.2-1-1.4-2.7-1.7-3.9-.5-1.3,1.3-1.7,3.5-1.6,5.2.1-.1.3-.1.4-.1Z"/>
              <path class="cls-8" d="M268.5,400.6s0,0,0,0c-.9.5-2.1.3-2.9-.2,0,.1-.1.3-.3.3,1,.6,2.4.9,3.5.3-.1,0-.2-.1-.2-.3Z"/>
            </g>
            <path class="cls-8" d="M269.5,396.2c-.1-1.3-.6-3-1.8-3.7-1.4-.8-2.6.5-3.1,1.7.1,0,.3,0,.4.1.5-1.2,1.9-2.2,3-1,1,1.2,1.3,3.2,1,4.7-.3,1.5-1.5,2.3-3,1.5-1.5-.9-1.7-2.7-1.4-4.3-.1,0-.3,0-.4,0-.4,1.9,0,4.2,2.1,4.9,1,.3,2.1,0,2.6-.9.6-.9.6-2.1.5-3.1Z"/>
            <path class="cls-8" d="M267.1,399.2c-1.5,0-2.2-1.6-2.1-2.9,0-1,.6-2.6,1.8-2.7,1.3-.1,1.8,1.4,2,2.4.2,1.2,0,3.3-1.7,3.3ZM266.9,394c-1,0-1.4,1.4-1.5,2.2-.1,1.1.3,2.5,1.6,2.7,1.3.1,1.5-1.5,1.4-2.4,0-.8-.4-2.4-1.5-2.4Z"/>
            <path class="cls-8" d="M266.9,394.6c-.9,0-1.2,1.1-1.2,1.8.1,0,.3-.1.4,0,0-.4.1-1.1.5-1.3.5-.2.8.3.9.7.1.5,0,1.2-.3,1.6-.2.2-.4.3-.6.2-.1-.1-.2-.2-.2,0,0,0-.2.1-.3.1.7.8,1.7,0,1.9-.8.2-.8,0-2.2-1.1-2.2Z"/>
          </g>
          <g>
            <g>
              <path class="cls-8" d="M282.5,396.8c-.1,0-.3,0-.4,0-.1.7,0,1.4,0,2.1.1,0,.3,0,.4,0-.2-.7-.2-1.3-.1-2Z"/>
              <path class="cls-8" d="M287.7,389.4c-1.5-.2-2.7.3-3.5,1.5-1,1.5-1.3,3-1.8,4.7.1,0,.3,0,.4.1.5-1.6.8-3.1,1.7-4.5.8-1.2,1.9-1.7,3.4-1.4-.2,0-.3-.2-.2-.4Z"/>
              <path class="cls-8" d="M290.3,390.7c-.2.1-.4,0-.6,0,1,.9,1.2,2.2,1.4,3.5.1,0,.2-.1.4-.1-.2-1.2-.4-2.4-1.2-3.3Z"/>
              <path class="cls-8" d="M291.7,396.7c-.1,0-.3,0-.4,0-.1,2,0,4.3-1.9,5.5-1.9,1.2-4.1,0-5.6-1.3,0,.1.1.3.2.4,0,.1,0,.2,0,.3s.2.2.4.3c.5.3,1,.7,1.7.9,1.1.3,2.3.6,3.3,0,2.2-1.3,2.3-3.6,2.4-5.9Z"/>
            </g>
            <path class="cls-8" d="M291,396.1c0-2.1-.4-4.6-2.4-5.5-1.6-.7-3.1-.2-3.9,1.1-1.2,1.7-1.8,3.7-1.8,5.7s1.6,3.4,3.3,4.2c0-.1,0-.3,0-.4-2.7-1.4-3.4-3.6-2.4-6.4.7-1.8,1.1-4.1,3.6-4,2.5,0,3.3,3.1,3.3,5.4,0,2.8-.4,5.1-3.4,5.3,0,.1,0,.3-.1.4,3.3,0,4-2.8,3.9-5.7Z"/>
            <g>
              <path class="cls-8" d="M289.2,399.8c.1,0,.2,0,.3.2,1.1-1.8,1.1-3.7.6-5.7-.1.1-.2.2-.4.2.4,1.9.5,3.6-.6,5.3Z"/>
              <path class="cls-8" d="M283.9,396.9c.3-1.4.7-2.9,1.7-4,1-1.1,2.4-1,3.4,0,0-.1.2-.2.3-.3-1.1-1.2-2.8-1.4-3.9-.1-1.2,1.3-1.6,2.9-1.9,4.5.1,0,.2-.1.4-.1Z"/>
              <path class="cls-8" d="M288.4,400.5c0,0,0-.1,0,0-1,.3-1.9.1-2.9-.4,0,.1-.1.2-.3.3,1.1.6,2.1.9,3.4.5-.1,0-.2-.2-.2-.2Z"/>
            </g>
            <path class="cls-8" d="M289.8,396.5c0-1.1-.2-2.9-1.6-3.5-1.3-.6-2.4.5-3,1.6.1,0,.3,0,.4.1.7-1.1,1.9-2.1,3-.9,1.1,1.2,1.1,2.9.6,4.3-.5,1.4-1.7,1.9-3.1,1.1-1.4-.8-1.6-2.3-.9-3.7-.2,0-.3,0-.4,0-.7,1.9-.3,3.5,1.6,4.4.9.4,2,.2,2.6-.6s.8-1.6.8-2.8Z"/>
            <path class="cls-8" d="M287,399.1c-1.4,0-2.3-1.5-1.9-2.7.4-1.1,1-2.1,2.2-2.2,1.2-.1,1.8,1.1,1.8,2.3,0,1.2-.6,2.7-2.1,2.7ZM287.5,394.6c-1,0-1.4.8-1.9,1.7-.5.9.1,2.2,1.3,2.4,1.2.2,1.7-.9,1.8-1.9.1-1-.2-2.2-1.2-2.2Z"/>
            <path class="cls-8" d="M287.5,395.3c-.9,0-1.3.6-1.7,1.3.2,0,.3,0,.5,0,.2-.4.5-.8.9-.9.4,0,.8.2.9.7s-.2.9-.7,1.2c-.2.1-.5.2-.7,0s-.1-.1-.3,0c-.1,0-.3,0-.4,0,.8.7,1.7.4,2.2-.4.5-.8.1-1.8-.8-1.9Z"/>
          </g>
          <g>
            <g>
              <path class="cls-8" d="M301.8,396.7c-.1,0-.3,0-.4,0,0,.7,0,1.4.3,2.1.1,0,.3,0,.4,0-.2-.7-.3-1.4-.3-2.1Z"/>
              <path class="cls-8" d="M307.1,389.4c-1.4-.6-2.8,0-3.7,1.2-1.1,1.4-1.6,3.2-1.8,4.9.1,0,.3,0,.4.1.2-1.6.6-3.4,1.7-4.7.8-1.1,2.2-1.7,3.5-1-.1-.1-.1-.3,0-.4Z"/>
              <path class="cls-8" d="M308.7,390.8c-.2.1-.4,0-.5,0,.7.9,1.1,2,1.4,3.1,0,0,.2-.1.4,0-.3-1-.7-2.1-1.3-3Z"/>
              <path class="cls-8" d="M310.5,396.3c-.1,0-.3,0-.4,0,.2,1.8.3,4.3-1.3,5.6-1.7,1.3-4.2.3-5.5-1.1,0,.2.1.3.2.4,0,0,0,.2,0,.3.1.1.3.2.4.3.5.3,1.1.6,1.6.8,1,.3,2.2.3,3.1-.2,2-1.2,2-4,1.8-6Z"/>
            </g>
            <path class="cls-8" d="M309.7,395.7c-.2-1.7-.7-3.9-2.3-5-1.3-.9-2.8-.4-3.8.7-1.2,1.5-1.8,4-1.5,5.9.2,1.9,1.5,3.6,3.4,4.1,0-.1,0-.3,0-.4-2.9-.9-3.4-3.9-2.9-6.5.4-1.7,1.4-4.4,3.6-3.9,2.1.4,2.7,3.4,3,5.2.3,2.1.2,5.5-2.8,5.4,0,.1,0,.3-.1.4,3.2.2,3.6-3.5,3.2-5.9Z"/>
            <g>
              <path class="cls-8" d="M308.3,399.4c.1,0,.3,0,.3.2,1-1.6.6-3.9,0-5.6,0,.1-.2.1-.4.1.5,1.5.9,3.8,0,5.3Z"/>
              <path class="cls-8" d="M303.2,396.8c0-1.4.3-3.2,1.3-4.3.9-1,2.3-.9,3.1.3,0-.1.2-.2.3-.2-.9-1.2-2.4-1.5-3.6-.4-1.2,1.2-1.6,3.1-1.5,4.7,0,0,.2-.1.4-.1Z"/>
              <path class="cls-8" d="M307.6,400.2s0,0,0,0c-.8.5-1.9.3-2.7-.2,0,.1-.1.3-.2.3.9.6,2.2.8,3.1.2-.1,0-.2-.1-.2-.2Z"/>
            </g>
            <path class="cls-8" d="M308.5,396.1c-.1-1.2-.5-2.7-1.6-3.3-1.2-.7-2.4.4-2.8,1.5.1,0,.3,0,.4,0,.5-1.1,1.7-2,2.7-.9.9,1.1,1.2,2.9.9,4.3-.2,1.3-1.4,2.1-2.7,1.4-1.4-.8-1.5-2.5-1.2-3.9-.1,0-.3,0-.4,0-.4,1.7,0,3.8,1.9,4.5.9.3,1.9,0,2.4-.8.5-.8.5-1.9.4-2.8Z"/>
            <path class="cls-8" d="M306.3,398.9c-1.4,0-2-1.5-1.9-2.7,0-1,.5-2.4,1.6-2.5,1.1-.1,1.7,1.3,1.8,2.2.2,1.1,0,3-1.5,3ZM306.1,394.1c-.9,0-1.3,1.2-1.4,2-.1,1,.3,2.3,1.4,2.4,1.2.1,1.4-1.4,1.3-2.2,0-.7-.4-2.2-1.4-2.2Z"/>
            <path class="cls-8" d="M306.1,394.7c-.8,0-1.1,1-1.1,1.7.1,0,.2-.1.4,0,0-.4,0-1,.5-1.2.4-.2.7.3.8.6.1.5,0,1.1-.3,1.5-.1.1-.3.2-.5.2,0-.1-.2-.1-.2,0,0,0-.2.1-.3.1.7.8,1.5,0,1.7-.7.2-.7,0-2-1-2Z"/>
          </g>
          <g>
            <g>
              <path class="cls-8" d="M328.8,396.4c.1,0,.3,0,.4,0,0,.7,0,1.4,0,2.1-.1,0-.2,0-.4,0,0-.7,0-1.3,0-2Z"/>
              <path class="cls-8" d="M323.6,389.2c1.4-.4,2.7,0,3.6,1.1,1.1,1.4,1.5,3,1.9,4.7-.1,0-.3,0-.4,0-.4-1.6-.7-3.1-1.8-4.5-.9-1.1-2-1.5-3.4-1,.1-.1.1-.3,0-.4Z"/>
              <path class="cls-8" d="M322,390.7c.2,0,.3,0,.5,0-.7,1-1.2,2.1-1.5,3.4-.1,0-.2-.1-.4,0,.3-1.2.7-2.2,1.3-3.2Z"/>
              <path class="cls-8" d="M320.4,396.6c.1,0,.3,0,.4,0,.1,2,.4,4.4,2.4,5.4,1.9,1,4.2,0,5.3-1.7,0,.1,0,.3,0,.4,0,.1.1.2,0,.3,0,.1-.2.2-.3.4-.4.4-.9.8-1.5,1-1.1.4-2.3.8-3.4.2-2.3-1.1-2.7-3.5-2.9-5.8Z"/>
            </g>
            <path class="cls-8" d="M321,396c0-2.1.6-4.2,2.2-5.4,1.3-1,2.7-.5,3.6.7,1.3,1.6,1.7,3.8,1.7,5.8,0,2-.4,3.2-2.1,4.2,0-.2,0-.3,0-.4,2.2-1.4,2.2-4.1,1.5-6.6-.5-1.6-1.4-4.1-3.5-3.6-2.2.5-2.9,3.4-2.9,5.5,0,2.6.9,5.2,3.9,5,0,.2,0,.3.2.4-3.3.2-4.4-2.6-4.4-5.4Z"/>
            <g>
              <path class="cls-8" d="M323.1,399.5c-.1,0-.2.1-.3.3-1.3-1.7-1.4-3.6-.9-5.7,0,.1.2.1.3.1-.5,1.9-.4,3.6.8,5.3Z"/>
              <path class="cls-8" d="M327.6,396.2c-.2-1.4-.6-2.7-1.6-3.8-1-1-2.2-.7-3,.4,0-.1-.1-.2-.3-.2,1-1.2,2.3-1.7,3.5-.5,1.2,1.2,1.6,2.7,1.8,4.4,0-.1-.2-.2-.3-.2Z"/>
              <path class="cls-8" d="M324,400.2c0,0,0-.1,0,0,1,.2,2,0,2.8-.7,0,.1.2.2.3.3-.9.8-2.1,1.1-3.3.8.1,0,.2-.2.2-.3Z"/>
            </g>
            <path class="cls-8" d="M322.2,396.3c0-1.2.3-2.8,1.5-3.5,1.2-.7,2.1.3,2.8,1.2-.1,0-.3,0-.4.1-.8-.9-1.8-1.7-2.8-.6-1,1.2-1,3-.4,4.3.6,1.4,2,1.8,3.1.8,1.1-1,1.1-2.6.5-3.8.1,0,.3,0,.4,0,.5,1.6.5,3.5-1.1,4.5-.7.5-2,.4-2.6-.3-.7-.8-1-1.6-1-2.7Z"/>
            <path class="cls-8" d="M325,398.6c1.3-.3,1.8-2,1.5-3-.4-1-1-1.8-2.1-1.8-1.1,0-1.6,1.2-1.6,2.4s.9,2.7,2.2,2.4ZM324.3,394.2c.9-.1,1.3.6,1.8,1.3.4.8,0,2.3-1,2.6-1,.3-1.7-.8-1.8-1.7s.2-2.1,1.1-2.3Z"/>
            <path class="cls-8" d="M324.8,397.4c-.8.1-1.2-.4-1.5-1.1.2,0,.3,0,.5,0,.1.4.4.7.8.7.4,0,.8-.2.8-.7,0-.5-.2-.9-.6-1.1-.2-.1-.5-.1-.6,0-.1.1-.1.2-.2,0-.1,0-.2,0-.4,0,.6-.8,1.5-.6,1.9.2.5.8,0,1.8-.8,1.9Z"/>
          </g>
          <g>
            <g>
              <path class="cls-8" d="M340.3,396c-.1,0-.2,0-.3,0,0,.6,0,1.2.1,1.9,0,0,.2,0,.3,0,0-.6,0-1.2,0-1.8Z"/>
              <path class="cls-8" d="M345.9,390c-1.2-.6-2.4-.3-3.4.6-1.3,1.1-1.9,2.6-2.3,4.2.1,0,.2,0,.3.1.3-1.5,1.1-3.1,2.1-4,1-.9,2.2-1.2,3.2-.5,0-.1,0-.2,0-.4Z"/>
              <path class="cls-8" d="M346.4,391.4c-.1,0-.2,0-.3-.1.2,1,.5,1.8.7,2.8.1,0,.2,0,.3,0-.1-.9-.4-1.8-.7-2.7Z"/>
              <path class="cls-8" d="M347.2,396.2c-.1,0-.2,0-.3-.1-.2,1.6-.4,3.5-1.9,4.3-1.6.8-3.1-.1-4.2-1.3,0,0,0,.2,0,.3s0,.1,0,.2c0,0,.2.2.3.3.4.3.7.6,1.2.8.8.3,1.7.6,2.6.1,1.8-.9,2.2-2.8,2.3-4.6Z"/>
            </g>
            <path class="cls-8" d="M346.6,395.7c0-1.6-.2-3.3-1-4.5-.7-1.2-2.1-.6-3.1.2-1.3,1.1-2.1,3.4-2,5.2,0,1.7.5,2.5,1.9,3.3,0-.1,0-.2,0-.3-2-1.3-1.9-3.4-1.2-5.5.4-1.4,2-3.7,3.6-2.9s1.4,3.1,1.4,4.7c0,1.9-.8,4.1-3.1,4,0,.1,0,.2-.1.3,2.6.2,3.4-2.2,3.5-4.3Z"/>
            <g>
              <path class="cls-8" d="M344.9,398.5c.1,0,.2.1.2.2,1.1-1.4,1.1-2.9.9-4.6,0,0-.2,0-.3,0,.2,1.6.2,3-.8,4.3Z"/>
              <path class="cls-8" d="M341.4,396c.1-1.3.6-2.8,1.6-3.6,1-.8,1.7-.5,2.3.5,0,0,.1-.1.3-.2-.6-1.1-1.4-1.5-2.6-.7-1.2.9-1.8,2.5-1.9,4,0,0,.2-.1.3-.1Z"/>
              <path class="cls-8" d="M344.2,399s0,0,0,0c-.8.2-1.4,0-2.1-.4,0,.1-.1.2-.2.2.7.6,1.5.7,2.4.5,0,0-.1-.2-.1-.2Z"/>
            </g>
            <path class="cls-8" d="M345.6,395.8c0-.9,0-2.2-.9-3-.8-.7-1.9.2-2.4,1,.1,0,.2,0,.3.1.5-.8,1.6-1.6,2.2-.5.6,1.1.6,2.6.2,3.6-.5,1-1.4,1.5-2.4.8-.9-.7-.7-2.2-.3-3.2-.1,0-.2,0-.3,0-.3,1.3-.6,2.9.8,3.7.7.4,1.5.2,2-.3.5-.6.8-1.3.8-2.2Z"/>
            <path class="cls-8" d="M343.4,397.7c-1.1-.1-1.2-1.3-1-2.2.2-.9.7-2,1.6-1.9,1,0,1.1,1.1,1.1,2,0,.9-.6,2.3-1.7,2.1ZM344,393.9c-.8-.1-1.2.8-1.4,1.5-.2.7-.2,1.8.7,2s1.3-.8,1.4-1.5c0-.7,0-1.8-.8-2Z"/>
            <path class="cls-8" d="M343.9,394.5c-.7-.1-1,.7-1.1,1.2,0-.1.3,0,.3,0,.1-.3.2-.8.6-.9.4,0,.5.3.6.6,0,.4-.2.9-.4,1.1-.2.2-.3.2-.5,0s0-.1-.2,0c0,0-.2,0-.3,0,.5.6,1.2.2,1.5-.4.3-.6.2-1.6-.5-1.7Z"/>
          </g>
          <rect class="cls-8" x="266.9" y="395.9" width="18.8" height=".9" transform="translate(-128.7 659.7) rotate(-88.2)"/>
          <rect class="cls-8" x="286.5" y="395.8" width="19" height=".9" transform="translate(-112.7 674.7) rotate(-87.5)"/>
          <rect class="cls-8" x="315.7" y="386.6" width=".9" height="19.1" transform="translate(-4.2 3.4) rotate(-.6)"/>
          <rect class="cls-8" x="335.2" y="386.3" width=".9" height="19.5" transform="translate(-35.3 32.9) rotate(-5.3)"/>
        </g>
        <g>
          <path class="cls-1" d="M307.3,393.1c-1.6,2.2-4.6,2.6-6.8,1-2.2-1.6-2.8-4.7-1.2-6.8,1.6-2.2,4.6-2.6,6.8-1,2.2,1.6,2.8,4.7,1.2,6.8Z"/>
          <path class="cls-5" d="M304.4,392.7c-1.2,1.6-3.8,1.6-6,0-2.2-1.6-3-4.1-1.8-5.7,1.2-1.6,3.8-1.6,6,0,2.2,1.6,3,4.1,1.8,5.7Z"/>
          <path class="cls-2" d="M304.9,392.2c-1.2,1.6-3.8,1.6-6,0-2.2-1.6-3-4.1-1.8-5.7,1.2-1.6,3.8-1.6,6,0,2.2,1.6,3,4.1,1.8,5.7Z"/>
          <path class="cls-6" d="M300.3,384.3l-2.3,2.3s-1.5,2.8,1.5,4.8c3,2,5,0,5,0l1.5-2.9-5.7-4.2Z"/>
          <path class="cls-3" d="M306,388.4c-.8,1.2-2.8,1.2-4.4,0-1.6-1.1-2.2-3-1.3-4.2.8-1.2,2.8-1.2,4.4,0,1.6,1.1,2.2,3,1.3,4.2Z"/>
        </g>
      </g>
    </g>
  </g>
</svg>