<?xml version="1.0" encoding="UTF-8"?>
<svg xmlns="http://www.w3.org/2000/svg" xmlns:xlink="http://www.w3.org/1999/xlink" version="1.1" viewBox="0 0 101 25.7">
  <defs>
    <style>
      .cls-1 {
        fill: #b28d8d;
      }

      .cls-1, .cls-2, .cls-3, .cls-4, .cls-5, .cls-6, .cls-7, .cls-8 {
        stroke-width: 0px;
      }

      .cls-1, .cls-7 {
        mix-blend-mode: multiply;
        opacity: .5;
      }

      .cls-2 {
        fill: #de3e35;
      }

      .cls-3 {
        fill: #f04c33;
      }

      .cls-4 {
        fill: #f5f4dd;
      }

      .cls-5 {
        fill: #c72a34;
      }

      .cls-6 {
        fill: url(#_ÂÁ_Ï_ÌÌ_È_ËÂÌÚ_382);
      }

      .cls-7 {
        fill: #baa596;
      }

      .cls-8 {
        fill: #cfbcad;
      }

      .cls-9 {
        isolation: isolate;
      }
    </style>
    <linearGradient id="_ÂÁ_Ï_ÌÌ_È_ËÂÌÚ_382" data-name="¡ÂÁ˚ÏˇÌÌ˚È „‡‰ËÂÌÚ 382" x1="-80.4" y1="211.2" x2="-80.4" y2="202.9" gradientTransform="translate(40.6 -217.2) rotate(-22.6)" gradientUnits="userSpaceOnUse">
      <stop offset="0" stop-color="#c72a34"/>
      <stop offset="1" stop-color="#f04c33"/>
    </linearGradient>
  </defs>
  <g class="cls-9">
    <g id="Layer_1" data-name="Layer 1">
      <g>
        <g>
          <polygon class="cls-7" points=".9 2.4 1.8 25.7 99.1 25.7 97.9 2.4 .9 2.4"/>
          <polygon class="cls-4" points=".9 2 0 24 101 24 98.6 1.2 .9 2"/>
          <path class="cls-8" d="M99.5,22.7H1.3L2.1,3.2l95.3-.7,2.1,20.2ZM2.2,21.9h96.4l-2-18.5L3,4.1l-.7,17.8Z"/>
          <g>
            <g>
              <path class="cls-8" d="M6.7,13.4c-.1,0-.3,0-.4,0,0,.8,0,1.6.3,2.4.1,0,.3-.1.4,0-.2-.7-.3-1.5-.3-2.3Z"/>
              <path class="cls-8" d="M12.4,5.4c-1.5-.6-3.1,0-4.1,1.3-1.2,1.5-1.7,3.5-2,5.4.1,0,.3,0,.4.1.2-1.8.7-3.7,1.8-5.1.9-1.2,2.5-1.9,3.9-1.1-.1-.1-.2-.3,0-.5Z"/>
              <path class="cls-8" d="M14.3,7c-.2.1-.4,0-.6,0,.8,1,1.2,2.2,1.6,3.4.1-.1.3-.1.4-.1-.3-1.1-.7-2.3-1.4-3.3Z"/>
              <path class="cls-8" d="M16.2,13c-.1,0-.3,0-.4,0,.2,2,.3,4.8-1.5,6.1-1.8,1.4-4.6.3-6-1.2,0,.2.2.3.2.5,0,0,0,.2,0,.3.2.1.3.3.5.4.6.4,1.2.7,1.8.9,1.1.3,2.4.3,3.5-.3,2.2-1.3,2.2-4.4,2-6.6Z"/>
            </g>
            <path class="cls-8" d="M15.4,12.4c-.3-1.9-.8-4.3-2.5-5.5-1.4-1-3.1-.5-4.1.8-1.4,1.7-1.9,4.4-1.7,6.5.3,2.1,1.7,4,3.8,4.5,0-.1,0-.3,0-.4-3.2-.9-3.8-4.3-3.2-7.2.4-1.8,1.6-4.8,4-4.3,2.3.4,3,3.8,3.3,5.7.3,2.3.2,6.1-3,6,0,.1,0,.3-.1.4,3.6.2,3.9-3.8,3.6-6.5Z"/>
            <g>
              <path class="cls-8" d="M13.8,16.4c.2,0,.3.1.3.3,1.1-1.7.7-4.3,0-6.2-.1.1-.2.2-.4.1.6,1.7,1,4.2,0,5.8Z"/>
              <path class="cls-8" d="M8.2,13.5c0-1.6.3-3.5,1.4-4.7,1-1.1,2.5-1,3.4.3,0-.1.2-.2.3-.2-1-1.4-2.7-1.7-3.9-.5-1.3,1.3-1.7,3.5-1.6,5.2.1-.1.3-.1.4-.1Z"/>
              <path class="cls-8" d="M13,17.3s0,0,0,0c-.9.5-2.1.3-2.9-.2,0,.1-.1.3-.3.3,1,.6,2.4.9,3.5.3-.1,0-.2-.1-.2-.3Z"/>
            </g>
            <path class="cls-8" d="M14,12.8c-.1-1.3-.6-3-1.8-3.7-1.4-.8-2.6.5-3.1,1.7.1,0,.3,0,.4.1.5-1.2,1.9-2.2,3-1,1,1.2,1.3,3.2,1,4.7-.3,1.5-1.5,2.3-3,1.5-1.5-.9-1.7-2.7-1.4-4.3-.1,0-.3,0-.4,0-.4,1.9,0,4.2,2.1,4.9,1,.3,2.1,0,2.6-.9.6-.9.6-2.1.5-3.1Z"/>
            <path class="cls-8" d="M11.5,15.8c-1.5,0-2.2-1.6-2.1-2.9,0-1,.6-2.6,1.8-2.7,1.3-.1,1.8,1.4,2,2.4.2,1.2,0,3.3-1.7,3.3ZM11.3,10.6c-1,0-1.4,1.4-1.5,2.2-.1,1.1.3,2.5,1.6,2.7,1.3.1,1.5-1.5,1.4-2.4,0-.8-.4-2.4-1.5-2.4Z"/>
            <path class="cls-8" d="M11.3,11.3c-.9,0-1.2,1.1-1.2,1.8.1,0,.3-.1.4,0,0-.4.1-1.1.5-1.3.5-.2.8.3.9.7.1.5,0,1.2-.3,1.6-.2.2-.4.3-.6.2-.1-.1-.2-.2-.2,0,0,0-.2.1-.3.1.7.8,1.7,0,1.9-.8.2-.8,0-2.2-1.1-2.2Z"/>
          </g>
          <g>
            <g>
              <path class="cls-8" d="M27,13.5c-.1,0-.3,0-.4,0-.1.7,0,1.4,0,2.1.1,0,.3,0,.4,0-.2-.7-.2-1.3-.1-2Z"/>
              <path class="cls-8" d="M32.2,6.1c-1.5-.2-2.7.3-3.5,1.5-1,1.5-1.3,3-1.8,4.7.1,0,.3,0,.4.1.5-1.6.8-3.1,1.7-4.5.8-1.2,1.9-1.7,3.4-1.4-.2,0-.3-.2-.2-.4Z"/>
              <path class="cls-8" d="M34.8,7.3c-.2.1-.4,0-.6,0,1,.9,1.2,2.2,1.4,3.5.1,0,.2-.1.4-.1-.2-1.2-.4-2.4-1.2-3.3Z"/>
              <path class="cls-8" d="M36.2,13.3c-.1,0-.3,0-.4,0-.1,2,0,4.3-1.9,5.5-1.9,1.2-4.1,0-5.6-1.3,0,.1.1.3.2.4,0,.1,0,.2,0,.3s.2.2.4.3c.5.3,1,.7,1.7.9,1.1.3,2.3.6,3.3,0,2.2-1.3,2.3-3.6,2.4-5.9Z"/>
            </g>
            <path class="cls-8" d="M35.5,12.8c0-2.1-.4-4.6-2.4-5.5-1.6-.7-3.1-.2-3.9,1.1-1.2,1.7-1.8,3.7-1.8,5.7s1.6,3.4,3.3,4.2c0-.1,0-.3,0-.4-2.7-1.4-3.4-3.6-2.4-6.4.7-1.8,1.1-4.1,3.6-4,2.5,0,3.3,3.1,3.3,5.4,0,2.8-.4,5.1-3.4,5.3,0,.1,0,.3-.1.4,3.3,0,4-2.8,3.9-5.7Z"/>
            <g>
              <path class="cls-8" d="M33.7,16.4c.1,0,.2,0,.3.2,1.1-1.8,1.1-3.7.6-5.7-.1.1-.2.2-.4.2.4,1.9.5,3.6-.6,5.3Z"/>
              <path class="cls-8" d="M28.4,13.5c.3-1.4.7-2.9,1.7-4,1-1.1,2.4-1,3.4,0,0-.1.2-.2.3-.3-1.1-1.2-2.8-1.4-3.9-.1-1.2,1.3-1.6,2.9-1.9,4.5.1,0,.2-.1.4-.1Z"/>
              <path class="cls-8" d="M32.9,17.2c0,0,0-.1,0,0-1,.3-1.9.1-2.9-.4,0,.1-.1.2-.3.3,1.1.6,2.1.9,3.4.5-.1,0-.2-.2-.2-.2Z"/>
            </g>
            <path class="cls-8" d="M34.2,13.2c0-1.1-.2-2.9-1.6-3.5-1.3-.6-2.4.5-3,1.6.1,0,.3,0,.4.1.7-1.1,1.9-2.1,3-.9,1.1,1.2,1.1,2.9.6,4.3-.5,1.4-1.7,1.9-3.1,1.1-1.4-.8-1.6-2.3-.9-3.7-.2,0-.3,0-.4,0-.7,1.9-.3,3.5,1.6,4.4.9.4,2,.2,2.6-.6s.8-1.6.8-2.8Z"/>
            <path class="cls-8" d="M31.5,15.8c-1.4,0-2.3-1.5-1.9-2.7.4-1.1,1-2.1,2.2-2.2,1.2-.1,1.8,1.1,1.8,2.3,0,1.2-.6,2.7-2.1,2.7ZM32,11.3c-1,0-1.4.8-1.9,1.7-.5.9.1,2.2,1.3,2.4,1.2.2,1.7-.9,1.8-1.9.1-1-.2-2.2-1.2-2.2Z"/>
            <path class="cls-8" d="M32,12c-.9,0-1.3.6-1.7,1.3.2,0,.3,0,.5,0,.2-.4.5-.8.9-.9.4,0,.8.2.9.7s-.2.9-.7,1.2c-.2.1-.5.2-.7,0s-.1-.1-.3,0c-.1,0-.3,0-.4,0,.8.7,1.7.4,2.2-.4.5-.8.1-1.8-.8-1.9Z"/>
          </g>
          <g>
            <g>
              <path class="cls-8" d="M46.3,13.3c-.1,0-.3,0-.4,0,0,.7,0,1.4.3,2.1.1,0,.3,0,.4,0-.2-.7-.3-1.4-.3-2.1Z"/>
              <path class="cls-8" d="M51.5,6c-1.4-.6-2.8,0-3.7,1.2-1.1,1.4-1.6,3.2-1.8,4.9.1,0,.3,0,.4.1.2-1.6.6-3.4,1.7-4.7.8-1.1,2.2-1.7,3.5-1-.1-.1-.1-.3,0-.4Z"/>
              <path class="cls-8" d="M53.2,7.5c-.2.1-.4,0-.5,0,.7.9,1.1,2,1.4,3.1,0,0,.2-.1.4,0-.3-1-.7-2.1-1.3-3Z"/>
              <path class="cls-8" d="M54.9,12.9c-.1,0-.3,0-.4,0,.2,1.8.3,4.3-1.3,5.6-1.7,1.3-4.2.3-5.5-1.1,0,.2.1.3.2.4,0,0,0,.2,0,.3.1.1.3.2.4.3.5.3,1.1.6,1.6.8,1,.3,2.2.3,3.1-.2,2-1.2,2-4,1.8-6Z"/>
            </g>
            <path class="cls-8" d="M54.2,12.4c-.2-1.7-.7-3.9-2.3-5-1.3-.9-2.8-.4-3.8.7-1.2,1.5-1.8,4-1.5,5.9.2,1.9,1.5,3.6,3.4,4.1,0-.1,0-.3,0-.4-2.9-.9-3.4-3.9-2.9-6.5.4-1.7,1.4-4.4,3.6-3.9,2.1.4,2.7,3.4,3,5.2.3,2.1.2,5.5-2.8,5.4,0,.1,0,.3-.1.4,3.2.2,3.6-3.5,3.2-5.9Z"/>
            <g>
              <path class="cls-8" d="M52.8,16c.1,0,.3,0,.3.2,1-1.6.6-3.9,0-5.6,0,.1-.2.1-.4.1.5,1.5.9,3.8,0,5.3Z"/>
              <path class="cls-8" d="M47.7,13.4c0-1.4.3-3.2,1.3-4.3.9-1,2.3-.9,3.1.3,0-.1.2-.2.3-.2-.9-1.2-2.4-1.5-3.6-.4-1.2,1.2-1.6,3.1-1.5,4.7,0,0,.2-.1.4-.1Z"/>
              <path class="cls-8" d="M52.1,16.8s0,0,0,0c-.8.5-1.9.3-2.7-.2,0,.1-.1.3-.2.3.9.6,2.2.8,3.1.2-.1,0-.2-.1-.2-.2Z"/>
            </g>
            <path class="cls-8" d="M53,12.7c-.1-1.2-.5-2.7-1.6-3.3-1.2-.7-2.4.4-2.8,1.5.1,0,.3,0,.4,0,.5-1.1,1.7-2,2.7-.9.9,1.1,1.2,2.9.9,4.3-.2,1.3-1.4,2.1-2.7,1.4-1.4-.8-1.5-2.5-1.2-3.9-.1,0-.3,0-.4,0-.4,1.7,0,3.8,1.9,4.5.9.3,1.9,0,2.4-.8.5-.8.5-1.9.4-2.8Z"/>
            <path class="cls-8" d="M50.7,15.5c-1.4,0-2-1.5-1.9-2.7,0-1,.5-2.4,1.6-2.5,1.1-.1,1.7,1.3,1.8,2.2.2,1.1,0,3-1.5,3ZM50.5,10.7c-.9,0-1.3,1.2-1.4,2-.1,1,.3,2.3,1.4,2.4,1.2.1,1.4-1.4,1.3-2.2,0-.7-.4-2.2-1.4-2.2Z"/>
            <path class="cls-8" d="M50.5,11.4c-.8,0-1.1,1-1.1,1.7.1,0,.2-.1.4,0,0-.4,0-1,.5-1.2.4-.2.7.3.8.6.1.5,0,1.1-.3,1.5-.1.1-.3.2-.5.2,0-.1-.2-.1-.2,0,0,0-.2.1-.3.1.7.8,1.5,0,1.7-.7.2-.7,0-2-1-2Z"/>
          </g>
          <g>
            <g>
              <path class="cls-8" d="M73.3,13c.1,0,.3,0,.4,0,0,.7,0,1.4,0,2.1-.1,0-.2,0-.4,0,0-.7,0-1.3,0-2Z"/>
              <path class="cls-8" d="M68.1,5.9c1.4-.4,2.7,0,3.6,1.1,1.1,1.4,1.5,3,1.9,4.7-.1,0-.3,0-.4,0-.4-1.6-.7-3.1-1.8-4.5-.9-1.1-2-1.5-3.4-1,.1-.1.1-.3,0-.4Z"/>
              <path class="cls-8" d="M66.4,7.3c.2,0,.3,0,.5,0-.7,1-1.2,2.1-1.5,3.4-.1,0-.2-.1-.4,0,.3-1.2.7-2.2,1.3-3.2Z"/>
              <path class="cls-8" d="M64.8,13.2c.1,0,.3,0,.4,0,.1,2,.4,4.4,2.4,5.4,1.9,1,4.2,0,5.3-1.7,0,.1,0,.3,0,.4,0,.1.1.2,0,.3,0,.1-.2.2-.3.4-.4.4-.9.8-1.5,1-1.1.4-2.3.8-3.4.2-2.3-1.1-2.7-3.5-2.9-5.8Z"/>
            </g>
            <path class="cls-8" d="M65.5,12.6c0-2.1.6-4.2,2.2-5.4,1.3-1,2.7-.5,3.6.7,1.3,1.6,1.7,3.8,1.7,5.8,0,2-.4,3.2-2.1,4.2,0-.2,0-.3,0-.4,2.2-1.4,2.2-4.1,1.5-6.6-.5-1.6-1.4-4.1-3.5-3.6-2.2.5-2.9,3.4-2.9,5.5,0,2.6.9,5.2,3.9,5,0,.2,0,.3.2.4-3.3.2-4.4-2.6-4.4-5.4Z"/>
            <g>
              <path class="cls-8" d="M67.6,16.2c-.1,0-.2.1-.3.3-1.3-1.7-1.4-3.6-.9-5.7,0,.1.2.1.3.1-.5,1.9-.4,3.6.8,5.3Z"/>
              <path class="cls-8" d="M72.1,12.8c-.2-1.4-.6-2.7-1.6-3.8-1-1-2.2-.7-3,.4,0-.1-.1-.2-.3-.2,1-1.2,2.3-1.7,3.5-.5,1.2,1.2,1.6,2.7,1.8,4.4,0-.1-.2-.2-.3-.2Z"/>
              <path class="cls-8" d="M68.4,16.8c0,0,0-.1,0,0,1,.2,2,0,2.8-.7,0,.1.2.2.3.3-.9.8-2.1,1.1-3.3.8.1,0,.2-.2.2-.3Z"/>
            </g>
            <path class="cls-8" d="M66.7,12.9c0-1.2.3-2.8,1.5-3.5,1.2-.7,2.1.3,2.8,1.2-.1,0-.3,0-.4.1-.8-.9-1.8-1.7-2.8-.6-1,1.2-1,3-.4,4.3.6,1.4,2,1.8,3.1.8,1.1-1,1.1-2.6.5-3.8.1,0,.3,0,.4,0,.5,1.6.5,3.5-1.1,4.5-.7.5-2,.4-2.6-.3-.7-.8-1-1.6-1-2.7Z"/>
            <path class="cls-8" d="M69.5,15.2c1.3-.3,1.8-2,1.5-3-.4-1-1-1.8-2.1-1.8-1.1,0-1.6,1.2-1.6,2.4s.9,2.7,2.2,2.4ZM68.8,10.8c.9-.1,1.3.6,1.8,1.3.4.8,0,2.3-1,2.6-1,.3-1.7-.8-1.8-1.7s.2-2.1,1.1-2.3Z"/>
            <path class="cls-8" d="M69.3,14.1c-.8.1-1.2-.4-1.5-1.1.2,0,.3,0,.5,0,.1.4.4.7.8.7.4,0,.8-.2.8-.7,0-.5-.2-.9-.6-1.1-.2-.1-.5-.1-.6,0-.1.1-.1.2-.2,0-.1,0-.2,0-.4,0,.6-.8,1.5-.6,1.9.2.5.8,0,1.8-.8,1.9Z"/>
          </g>
          <g>
            <g>
              <path class="cls-8" d="M84.8,12.6c-.1,0-.2,0-.3,0,0,.6,0,1.2.1,1.9,0,0,.2,0,.3,0,0-.6,0-1.2,0-1.8Z"/>
              <path class="cls-8" d="M90.3,6.7c-1.2-.6-2.4-.3-3.4.6-1.3,1.1-1.9,2.6-2.3,4.2.1,0,.2,0,.3.1.3-1.5,1.1-3.1,2.1-4,1-.9,2.2-1.2,3.2-.5,0-.1,0-.2,0-.4Z"/>
              <path class="cls-8" d="M90.9,8c-.1,0-.2,0-.3-.1.2,1,.5,1.8.7,2.8.1,0,.2,0,.3,0-.1-.9-.4-1.8-.7-2.7Z"/>
              <path class="cls-8" d="M91.7,12.8c-.1,0-.2,0-.3-.1-.2,1.6-.4,3.5-1.9,4.3-1.6.8-3.1-.1-4.2-1.3,0,0,0,.2,0,.3s0,.1,0,.2c0,0,.2.2.3.3.4.3.7.6,1.2.8.8.3,1.7.6,2.6.1,1.8-.9,2.2-2.8,2.3-4.6Z"/>
            </g>
            <path class="cls-8" d="M91.1,12.3c0-1.6-.2-3.3-1-4.5-.7-1.2-2.1-.6-3.1.2-1.3,1.1-2.1,3.4-2,5.2,0,1.7.5,2.5,1.9,3.3,0-.1,0-.2,0-.3-2-1.3-1.9-3.4-1.2-5.5.4-1.4,2-3.7,3.6-2.9s1.4,3.1,1.4,4.7c0,1.9-.8,4.1-3.1,4,0,.1,0,.2-.1.3,2.6.2,3.4-2.2,3.5-4.3Z"/>
            <g>
              <path class="cls-8" d="M89.4,15.1c.1,0,.2.1.2.2,1.1-1.4,1.1-2.9.9-4.6,0,0-.2,0-.3,0,.2,1.6.2,3-.8,4.3Z"/>
              <path class="cls-8" d="M85.9,12.6c.1-1.3.6-2.8,1.6-3.6,1-.8,1.7-.5,2.3.5,0,0,.1-.1.3-.2-.6-1.1-1.4-1.5-2.6-.7-1.2.9-1.8,2.5-1.9,4,0,0,.2-.1.3-.1Z"/>
              <path class="cls-8" d="M88.7,15.6s0,0,0,0c-.8.2-1.4,0-2.1-.4,0,.1-.1.2-.2.2.7.6,1.5.7,2.4.5,0,0-.1-.2-.1-.2Z"/>
            </g>
            <path class="cls-8" d="M90.1,12.4c0-.9,0-2.2-.9-3-.8-.7-1.9.2-2.4,1,.1,0,.2,0,.3.1.5-.8,1.6-1.6,2.2-.5.6,1.1.6,2.6.2,3.6-.5,1-1.4,1.5-2.4.8-.9-.7-.7-2.2-.3-3.2-.1,0-.2,0-.3,0-.3,1.3-.6,2.9.8,3.7.7.4,1.5.2,2-.3.5-.6.8-1.3.8-2.2Z"/>
            <path class="cls-8" d="M87.8,14.4c-1.1-.1-1.2-1.3-1-2.2.2-.9.7-2,1.6-1.9,1,0,1.1,1.1,1.1,2,0,.9-.6,2.3-1.7,2.1ZM88.5,10.6c-.8-.1-1.2.8-1.4,1.5-.2.7-.2,1.8.7,2s1.3-.8,1.4-1.5c0-.7,0-1.8-.8-2Z"/>
            <path class="cls-8" d="M88.4,11.1c-.7-.1-1,.7-1.1,1.2,0-.1.3,0,.3,0,.1-.3.2-.8.6-.9.4,0,.5.3.6.6,0,.4-.2.9-.4,1.1-.2.2-.3.2-.5,0s0-.1-.2,0c0,0-.2,0-.3,0,.5.6,1.2.2,1.5-.4.3-.6.2-1.6-.5-1.7Z"/>
          </g>
          <rect class="cls-8" x="11.3" y="12.5" width="18.8" height=".9" transform="translate(7.2 33.2) rotate(-88.2)"/>
          <rect class="cls-8" x="30.9" y="12.4" width="19" height=".9" transform="translate(25.9 52.7) rotate(-87.5)"/>
          <rect class="cls-8" x="60.2" y="3.2" width=".9" height="19.1" transform="translate(-.1 .6) rotate(-.6)"/>
          <rect class="cls-8" x="79.7" y="2.9" width=".9" height="19.5" transform="translate(-.8 7.5) rotate(-5.3)"/>
        </g>
        <g>
          <path class="cls-1" d="M51.8,9.7c-1.6,2.2-4.6,2.6-6.8,1-2.2-1.6-2.8-4.7-1.2-6.8,1.6-2.2,4.6-2.6,6.8-1,2.2,1.6,2.8,4.7,1.2,6.8Z"/>
          <path class="cls-5" d="M48.9,9.3c-1.2,1.6-3.8,1.6-6,0-2.2-1.6-3-4.1-1.8-5.7,1.2-1.6,3.8-1.6,6,0,2.2,1.6,3,4.1,1.8,5.7Z"/>
          <path class="cls-2" d="M49.4,8.8c-1.2,1.6-3.8,1.6-6,0-2.2-1.6-3-4.1-1.8-5.7,1.2-1.6,3.8-1.6,6,0,2.2,1.6,3,4.1,1.8,5.7Z"/>
          <path class="cls-6" d="M44.8.9l-2.3,2.3s-1.5,2.8,1.5,4.8c3,2,5,0,5,0l1.5-2.9-5.7-4.2Z"/>
          <path class="cls-3" d="M50.5,5c-.8,1.2-2.8,1.2-4.4,0-1.6-1.1-2.2-3-1.3-4.2.8-1.2,2.8-1.2,4.4,0,1.6,1.1,2.2,3,1.3,4.2Z"/>
        </g>
      </g>
    </g>
  </g>
</svg>