<?xml version="1.0" encoding="UTF-8"?>
<svg xmlns="http://www.w3.org/2000/svg" xmlns:xlink="http://www.w3.org/1999/xlink" version="1.1" viewBox="0 0 612 792">
  <defs>
    <style>
      .cls-1 {
        fill: #b28d8d;
      }

      .cls-1, .cls-2, .cls-3, .cls-4, .cls-5, .cls-6, .cls-7, .cls-8, .cls-9, .cls-10, .cls-11, .cls-12, .cls-13, .cls-14, .cls-15, .cls-16, .cls-17, .cls-18, .cls-19, .cls-20, .cls-21, .cls-22, .cls-23, .cls-24, .cls-25, .cls-26, .cls-27, .cls-28, .cls-29, .cls-30, .cls-31 {
        stroke-width: 0px;
      }

      .cls-1, .cls-3, .cls-5, .cls-9, .cls-23, .cls-24, .cls-27 {
        mix-blend-mode: multiply;
      }

      .cls-1, .cls-23, .cls-24 {
        opacity: .5;
      }

      .cls-2, .cls-27 {
        fill: #f8a17c;
      }

      .cls-3 {
        fill: #c7b39f;
      }

      .cls-3, .cls-27 {
        opacity: .2;
      }

      .cls-4 {
        fill: #de3e35;
      }

      .cls-5 {
        opacity: .6;
      }

      .cls-5, .cls-25 {
        fill: #d38d78;
      }

      .cls-6 {
        fill: #f79776;
      }

      .cls-32 {
        clip-path: url(#clippath);
      }

      .cls-7 {
        fill: none;
      }

      .cls-8 {
        fill: #d5c2b4;
      }

      .cls-9 {
        fill: #fdc58b;
        opacity: .2;
      }

      .cls-10 {
        fill: url(#linear-gradient);
      }

      .cls-11 {
        fill: #f4f3e5;
      }

      .cls-12 {
        fill: #cb654d;
      }

      .cls-13 {
        fill: #aca2b0;
      }

      .cls-14 {
        fill: #473243;
      }

      .cls-15 {
        fill: #555556;
      }

      .cls-16 {
        fill: #562f2b;
      }

      .cls-17 {
        fill: #f04c33;
      }

      .cls-18 {
        fill: #f3f3e5;
      }

      .cls-19 {
        fill: #c72a34;
      }

      .cls-20 {
        fill: url(#_ÂÁ_Ï_ÌÌ_È_ËÂÌÚ_382);
      }

      .cls-21, .cls-24 {
        fill: #843d2e;
      }

      .cls-22 {
        fill: #9c5644;
      }

      .cls-23 {
        fill: #baa596;
      }

      .cls-26 {
        fill: url(#linear-gradient-2);
      }

      .cls-33 {
        isolation: isolate;
      }

      .cls-28 {
        fill: #e2d2c2;
      }

      .cls-29 {
        fill: #5d4354;
      }

      .cls-30 {
        fill: #a34648;
      }

      .cls-31 {
        fill: #b96e55;
      }
    </style>
    <clipPath id="clippath">
      <rect id="SVGID" class="cls-7" x="273.4" y="361.1" width="62.3" height="40.9"/>
    </clipPath>
    <linearGradient id="linear-gradient" x1="1075.2" y1="331.6" x2="1075.2" y2="310.1" gradientTransform="translate(-629.2 -244.1) rotate(17.2)" gradientUnits="userSpaceOnUse">
      <stop offset="0" stop-color="#fbbf98"/>
      <stop offset=".5" stop-color="#fabc96"/>
      <stop offset=".7" stop-color="#fab58f"/>
      <stop offset=".9" stop-color="#f8a883"/>
      <stop offset="1" stop-color="#f8a17c"/>
    </linearGradient>
    <linearGradient id="linear-gradient-2" x1="1337.6" y1="1147.2" x2="1335.1" y2="1144" gradientTransform="translate(-453.5 -1222) rotate(23.9)" gradientUnits="userSpaceOnUse">
      <stop offset="0" stop-color="#9c5644"/>
      <stop offset="1" stop-color="#b96e55"/>
    </linearGradient>
    <linearGradient id="_ÂÁ_Ï_ÌÌ_È_ËÂÌÚ_382" data-name="¡ÂÁ˚ÏˇÌÌ˚È „‡‰ËÂÌÚ 382" x1="306.2" y1="362.8" x2="306.2" y2="357" gradientUnits="userSpaceOnUse">
      <stop offset="0" stop-color="#c72a34"/>
      <stop offset="1" stop-color="#f04c33"/>
    </linearGradient>
  </defs>
  <g class="cls-33">
    <g id="Layer_1" data-name="Layer 1">
      <g>
        <g>
          <polygon class="cls-23" points="338.2 406.7 275.6 406.7 275.6 362 336.2 359.7 338.2 406.7"/>
          <rect class="cls-11" x="273.6" y="359.7" width="62.6" height="44.6"/>
          <g>
            <rect class="cls-13" x="275.6" y="362.2" width="57.8" height="39.7" transform="translate(609 764.1) rotate(180)"/>
            <g class="cls-32">
              <g>
                <path class="cls-29" d="M317.1,392.8s5.5.6,7,5.3c1.7,5.5,14.3,17.5,15.5,19.1,3.7,5.2-2.2,13.7-9.1,8.7-5.8-4.2-17.2-20.4-17.2-20.4l3.8-12.8Z"/>
                <path class="cls-29" d="M295.8,391.2c-4.3.8-10.3,4.5-10.4,6.1-.1,1.6.3,16,.6,18.9.3,3,.3,11.3.6,12.8.3,1.5,2.1,5.6,2.1,5.6l32-1.4s3.9-6.5,3.3-8.3c-.5-1.8-3.9-19.8-4-21.8-.1-2,.1-8-1-9.3-1.1-1.4-7.2-5.6-23.2-2.7Z"/>
                <path class="cls-29" d="M289.9,393.5s-7.7,2.5-8.1,5.4c-.7,5.3-12,16-12.8,28.4-.4,6.4,5.9,8.5,12.3,2.9,6.6-5.7,6.6-11.9,8.3-17.2,1.4-4.3.3-19.5.3-19.5Z"/>
                <g>
                  <path class="cls-3" d="M293.3,391.9c-2,.7-4.1,1.8-5.6,2.9l5.1,3.5.4,5.2,15.7,15.9c-1-4.3-11.8-21.4-15.7-27.4Z"/>
                  <path class="cls-14" d="M314.9,395.7c2.9-4,6.3-8.2,9.1-10.5-6-.6-10.8-4-23.2-3-11.6,1-12.8,5-18.6,7l12.1,8.2-1.9,4.3,17.7,17.5-.7-5.2,8.2-14.9-2.8-3.6Z"/>
                  <polygon class="cls-28" points="296.2 390.7 297.4 389.3 308.1 389.3 309.2 389.8 306.9 392.7 299.1 392.7 296.2 390.7"/>
                  <g>
                    <path class="cls-6" d="M311.8,379.8c.5-.4,2.2-.5,2.4.7.1.9-.4,2.4-1.2,3.1-.3.3-1.1,0-1.4-.3-1-1.4-1.3-2.3.2-3.5Z"/>
                    <path class="cls-2" d="M294.3,387.8c.3,1.4.6,2.8.8,4.2,3.2.9,6.2,1.8,9.4,2.7,1.5-.7,3.2-1.6,4.7-2.2.2-.7.4-1.4.7-2.1-5.2-1.1-10.4-1.8-15.6-2.6Z"/>
                    <path class="cls-27" d="M306.3,393.1c1.1.1,1.8,0,2.9,0,.2-.9.5-1.7.8-2.6-5.2-1.1-10.4-1.8-15.6-2.6.1.8.3,1.7.4,2.5,3.8,1.7,7.5,2.3,11.6,2.8Z"/>
                    <path class="cls-10" d="M306.4,391.3c9.1-.9,7.2-10.4,5.5-16.6-1.8-6.6-14-.8-19.2-.2-.7,4.6-.9,10.1,1.8,13.8,2.6,3.8,8.8,3.3,12,3Z"/>
                    <path class="cls-16" d="M304.4,385.3c-.2,1.1-1.1,1.4-2.1,1.6-1,.2-2.2.1-3.1-.4.6,1.1,1.6,1.5,2.8,1.5,1.2,0,2.3-.3,3.4-1,.8.5,1.6.7,2.6.7,1.2,0,2.1-.4,2.9-1.3-.9.3-1.9.5-2.8.3s-1.7-.6-2.1-1.5c-.5,0-1,0-1.5,0Z"/>
                    <path class="cls-9" d="M312.6,377.2c-.2-.9-.4-1.8-.7-2.6-.3-1-.8-1.7-1.4-2.2-3.1.1-6.6.1-10.1,0-2.9.7-5.8,1.7-7.7,1.9-.7,4.6-.9,10.1,1.8,13.8,2.3,3.3,7.2,3.4,10.6,3.1-.2-.2-7.6-.6-9.2-5.1-.8-2.4,0-6.3,1.2-8.4,2.2-.2,10.8.3,15.5-.7Z"/>
                    <path class="cls-16" d="M291.3,376.6c.4,1.8.8,3.5,1.3,5.3,1.2-.9,2.3-.7,2.4-2.7.2-1.9.1-2.5-.8-4.3-.6,1.3-2.3.4-2.9,1.7Z"/>
                    <path class="cls-6" d="M306.5,388.2c-.4-.7-2.1-.6-2.4.2-.1.4,1,0,1.2,0,.1,0,1.4.1,1.2-.1Z"/>
                    <path class="cls-2" d="M292.4,380.4c-.8-.4-2.7.6-2.4,1.7.3,1.1,1.1,2.4,1.8,2.9.7.5,2.1.9,2.3.4.9-1.8,0-4-1.8-5Z"/>
                    <path class="cls-2" d="M303.3,384.8c.8.4,1.4.5,2.1.9.9-.4,2.3-1.4,1.1-2.6-.7-.8-1-1.8-1.7-2.8-.3,1.6-1.1,2.9-1.5,4.5Z"/>
                    <path class="cls-12" d="M305.5,385.7c.5-.3,1-.7,1.2-1.1.1-.2.2-.5,0-.7,0-.2-.2-.4-.4-.6-.4-.5-.6-1-.9-1.5-.2-.5-.4-1-.7-1.5.8.8,1.2,1.8,1.9,2.6.2.2.4.5.5.8,0,.3,0,.7-.2,1-.2.3-.4.5-.7.6-.3.1-.5.3-.8.3Z"/>
                    <path class="cls-12" d="M303.3,384.8c.4.2.8.4,1.1.6,0-.3,0-.6,0-.9-.3,0-.7-.1-.9,0-.1,0-.1.3-.3.4Z"/>
                    <path class="cls-12" d="M292.5,383.3c-.2-.3.2-.5.3-.7.4-1.4-1.4-2.3-2.1-.9.9-1.1,2.1-.6,1.7.8-.8.6.2,1.4.9,1.3-.3-.1-.6-.3-.8-.5Z"/>
                    <g>
                      <path class="cls-31" d="M295.4,369.6c3.9-2.6,9.9,1,14.2,2.2,2,1.2,6.2-.4,7.7,1.3,2.6,3.1-6.6,3.7-10.2,3.2-2.7-.3-10.6-1.3-14.2-2.8,1.9-.7.6-2.7,2.5-4Z"/>
                      <path class="cls-22" d="M300.2,365.7c2.1-.9,2.5-3.2,4.9-1.6,2.5,1.5,3.8,5.4,5.4,7.9-2.9.7-5.9.7-8.9.7-3,0-6,.3-9,0-.3-2.8,0-5.3,2.6-6.8,1.4-.8,3.6.3,4.9-.3Z"/>
                      <path class="cls-26" d="M299.4,369.9c-.2-.8-.6-1.8,0-2.4,1.2-1.1,2.6-.5,3.7-1.9.3-.4.7-1.6,1.4-1.2,1.9,1.2,2.4,3.6,3.2,5.6-2.8,0-5.6,0-8.4-.2Z"/>
                      <path class="cls-24" d="M296.6,366.4c-.3-.7-1-.7-1.3-.5-2.5,1.7-2.9,3.9-2.6,6.9.9,0,1.5.1,2.4,0,.5,0,1.5,0,2.1,0,.1,0,.3,0,.5,0,.3-2.2-.1-4.5-1.1-6.4Z"/>
                      <path class="cls-25" d="M311.7,373.2c-.5-.6-1-1.1-1.4-1.8-2.8-.1-3.7-.3-7-.2-2.6,0-7.7.4-10.6,1.4,0,.8.2,1.5.4,2.2,3.4-.8,7.4-1.6,10.7-1.8,3-.2,5.1,0,7.9.2Z"/>
                      <path class="cls-5" d="M292.6,372.6c.2.7.3,1.5.5,2.3,1.7-.4,3.3-.7,5-1.2-.1-.7-.1-1.5-.2-2.2-1.8.2-3.5.6-5.2,1.1Z"/>
                      <path class="cls-21" d="M291.4,378.9c-1.2-.5-3.6,0-4.1-1.6-.7-2.7,1-4,3.9-3.9,3.4,0,8,1.7,11.6,2.7-3.9.8-8.4-.7-11.4,2.8Z"/>
                      <path class="cls-22" d="M288.1,374.2c.5-.5,1.2-.7,1.8-.8.7-.1,1.3-.2,2-.1,1.3,0,2.7.2,3.9.5.6.1,1.3.3,1.9.5.6.2,1.2.4,1.9.5,1.3.3,2.5.5,3.8.7,1.3.2,2.6.3,3.9.5,1.3.1,2.6.2,3.9.2,1.3,0,2.6-.1,3.9-.4.6-.1,1.3-.3,1.8-.6.3-.2.5-.4.6-.7.1-.3.1-.6,0-.9.1.3.2.7,0,1-.1.3-.3.6-.6.8-.5.4-1.2.7-1.8.8-1.3.4-2.6.5-3.9.7-2.7.2-5.3,0-7.9-.4-1.3-.2-2.6-.4-3.9-.8-.6-.2-1.3-.4-1.9-.6-.6-.2-1.2-.4-1.8-.6-1.2-.3-2.5-.6-3.8-.8-.6,0-1.3-.1-1.9,0-.6,0-1.3.2-1.8.5Z"/>
                    </g>
                    <path class="cls-14" d="M303.9,381.1c0,1.1-1.4,2.2-3.2,2.3-1.8,0-3.3-.8-3.4-1.9s1.4-2.2,3.2-2.3c1.8,0,3.3.8,3.4,1.9Z"/>
                    <path class="cls-14" d="M312,381.2c0,1-1.4,1.8-3,1.7-1.6-.1-2.9-1-2.8-2,0-1,1.4-1.8,3-1.7,1.6.1,2.9,1,2.8,2Z"/>
                    <path class="cls-14" d="M303.4,381.2l-.5-.5s1-1,2.3-1c.7,0,1.3.4,1.9,1l-.5.5c-.4-.5-.9-.7-1.4-.7-1,0-1.8.8-1.8.8Z"/>
                    <rect class="cls-14" x="293.2" y="380.9" width="4.7" height=".7"/>
                    <rect class="cls-14" x="311.7" y="380.6" width="1.8" height=".7"/>
                    <path class="cls-16" d="M297.6,379.2s.7-1.1,2.5-1.3c1.8-.2,2.7.7,3.6.4,1-.3-.2,1.2-.1,1.2-.9,0-1-.7-3.3-1-.8,0-2.8.7-2.8.7Z"/>
                    <path class="cls-16" d="M311.5,379.2s-.6-1.1-2.1-1.3c-1.5-.2-2.3.7-3,.4-.8-.3.1,1.2,0,1.2.7,0,.8-.7,2.8-1,.7,0,2.3.7,2.3.7Z"/>
                    <g>
                      <path class="cls-15" d="M300.6,383.3c0,0,.1,0,.2,0,.3,0,.6,0,.9-.1l1.5-3.4c-.2-.2-.5-.3-.7-.4l-1.8,3.9Z"/>
                      <path class="cls-15" d="M301.7,379.2c-.4,0-.8-.1-1.2,0-.2,0-.4,0-.6,0l-1.6,3.5c.5.3,1,.5,1.7.5l1.7-4.1Z"/>
                    </g>
                    <g>
                      <path class="cls-15" d="M310.6,379.4l-1.6,3.4c.4,0,.7,0,1,0l1.3-2.9c-.2-.2-.4-.3-.7-.4Z"/>
                      <path class="cls-15" d="M308.4,382.7l1.5-3.5c-.2,0-.5,0-.7-.1-.4,0-.7,0-1.1,0l-1.3,2.8c.4.3,1,.6,1.6.7Z"/>
                    </g>
                  </g>
                  <polygon class="cls-8" points="294.7 393.4 308 409.9 311.1 392.4 304.5 394.5 294.7 393.4"/>
                  <polygon class="cls-30" points="302.6 395 303.1 398 307.1 397.6 307.1 393.9 302.6 395"/>
                  <polygon class="cls-18" points="294.7 390.7 304.5 394.5 300.1 398.7 294.7 393.4 294.7 390.7"/>
                  <polygon class="cls-18" points="310.2 390.7 304.5 394.5 309.4 397.5 311.1 392.4 310.2 390.7"/>
                  <polygon class="cls-30" points="303.9 397.3 303.1 403.7 308.1 410.2 309.2 402.9 306.1 397 303.9 397.3"/>
                </g>
              </g>
            </g>
          </g>
        </g>
        <g>
          <path class="cls-1" d="M308.5,364.5c-1.6,1-3.7.4-4.7-1.2-1-1.6-.5-3.7,1.1-4.7,1.6-1,3.7-.4,4.7,1.2,1,1.6.5,3.7-1.1,4.7Z"/>
          <path class="cls-19" d="M306.8,363.5c-1.2.7-2.9,0-3.9-1.6-1-1.6-.8-3.4.4-4.1,1.2-.7,2.9,0,3.9,1.6,1,1.6.8,3.4-.4,4.1Z"/>
          <path class="cls-4" d="M307.2,363.3c-1.2.7-2.9,0-3.9-1.6-1-1.6-.8-3.4.4-4.1,1.2-.7,2.9,0,3.9,1.6,1,1.6.8,3.4-.4,4.1Z"/>
          <path class="cls-20" d="M306.4,357l-2.1.9s-1.7,1.4-.3,3.5c1.4,2.1,3.2,1.3,3.2,1.3l1.7-1.5-2.6-4.2Z"/>
          <path class="cls-17" d="M309,361.2c-.9.5-2.1,0-2.8-1.2-.7-1.2-.6-2.5.3-3,.9-.5,2.1,0,2.8,1.2.7,1.2.6,2.5-.3,3Z"/>
        </g>
      </g>
    </g>
  </g>
</svg>