<?xml version="1.0" encoding="UTF-8"?>
<svg xmlns="http://www.w3.org/2000/svg" xmlns:xlink="http://www.w3.org/1999/xlink" version="1.1" viewBox="0 0 73.9 74.2">
  <defs>
    <style>
      .cls-1 {
        fill: #b28d8d;
      }

      .cls-1, .cls-2, .cls-3, .cls-4, .cls-5, .cls-6, .cls-7, .cls-8, .cls-9, .cls-10, .cls-11 {
        stroke-width: 0px;
      }

      .cls-1, .cls-11 {
        mix-blend-mode: multiply;
        opacity: .5;
      }

      .cls-2 {
        fill: #de3e35;
      }

      .cls-3 {
        fill: #70322e;
      }

      .cls-4 {
        fill: #c3bdc4;
      }

      .cls-5 {
        fill: #f04c33;
      }

      .cls-6 {
        fill: #c72a34;
      }

      .cls-7 {
        fill: #9c9aa6;
      }

      .cls-8 {
        fill: url(#_ÂÁ_Ï_ÌÌ_È_ËÂÌÚ_382);
      }

      .cls-9 {
        fill: url(#_ÂÁ_Ï_ÌÌ_È_ËÂÌÚ_189);
      }

      .cls-10 {
        fill: #8a502d;
      }

      .cls-11 {
        fill: #baa596;
      }

      .cls-12 {
        isolation: isolate;
      }
    </style>
    <linearGradient id="_ÂÁ_Ï_ÌÌ_È_ËÂÌÚ_189" data-name="¡ÂÁ˚ÏˇÌÌ˚È „‡‰ËÂÌÚ 189" x1="19.7" y1="15.6" x2="73.8" y2="15.6" gradientUnits="userSpaceOnUse">
      <stop offset="0" stop-color="#f7f5f7"/>
      <stop offset="1" stop-color="#e0dbe2"/>
    </linearGradient>
    <linearGradient id="_ÂÁ_Ï_ÌÌ_È_ËÂÌÚ_382" data-name="¡ÂÁ˚ÏˇÌÌ˚È „‡‰ËÂÌÚ 382" x1="-353.4" y1="-72.3" x2="-353.4" y2="-77.8" gradientTransform="translate(-114.6 -328.6) rotate(-101.1) scale(1 -1)" gradientUnits="userSpaceOnUse">
      <stop offset="0" stop-color="#c72a34"/>
      <stop offset="1" stop-color="#f04c33"/>
    </linearGradient>
  </defs>
  <g class="cls-12">
    <g id="Layer_1" data-name="Layer 1">
      <g>
        <path class="cls-11" d="M72.5,27.9L24.8,5.3S3.5,40,1.2,49.5c-1.6,6.8,51.1,29,56.2,23.9,7.7-7.8,15.1-45.5,15.1-45.5Z"/>
        <path class="cls-7" d="M72.5,25.2L23.6,2.1S2.3,36.9,0,46.3c-1.6,6.8,51.1,29,56.2,23.9,7.7-7.8,16.3-45,16.3-45Z"/>
        <path class="cls-5" d="M11.4,49.2c2.7,2.1,6.3,4.9,13,1.9-3.8,0-9.2-7.1-9.9-10.2s-5.2,2.4-6,3.1c-.2,2.1,2.9,5.2,2.9,5.2Z"/>
        <path class="cls-3" d="M21.3,47.8c1.3,0,2.5-.8,3.6-1.3,1.1-.5,2.2-1.1,3.3-1.7,1.1-.6,2.2-1.3,3.1-2.2.5-.5,1-1,1.1-1.8.1-.9-.6-1.6-1.1-1.9-1.2-.7-2.5-.9-3.6-1.2-1.1-.3-1.9-1-1.6-2.2.5-2.2,2.3-4.2,4-5.9-1,.8-1.9,1.6-2.7,2.5-.8.9-1.6,1.9-2,3.2-.2.6-.2,1.5.3,2.1.5.6,1.1.9,1.8,1.1,1.2.3,2.4.6,3.3,1.1.5.3.8.7.7,1,0,.4-.4.9-.8,1.2-.8.8-1.9,1.4-2.9,2-1.1.6-2.2,1.1-3.3,1.6-1.2.5-2.1,1.1-3.3,1.2-.3,0-.4.3-.4.5,0,.2.2.4.5.4Z"/>
        <g>
          <path class="cls-3" d="M38.4,49.4c-3,3-2.9,7.8,0,10.8,3,3,7.8,2.9,10.8,0,3-3,2.9-7.8,0-10.8-3-3-7.8-2.9-10.8,0ZM43.5,57.8c.4-.4,1-.4,1.4,0,.4.4.4,1,0,1.4-.4.4-1,.4-1.4,0-.4-.4-.4-1,0-1.4ZM46.9,54.4c.4-.4,1-.4,1.4,0,.4.4.4,1,0,1.4-.4.4-1,.4-1.4,0-.4-.4-.4-1,0-1.4ZM39.4,53.7c.4-.4,1-.4,1.4,0,.4.4.4,1,0,1.4-.4.4-1,.4-1.4,0-.4-.4-.4-1,0-1.4ZM42.7,50.3c.4-.4,1-.4,1.4,0,.4.4.4,1,0,1.4-.4.4-1,.4-1.4,0-.4-.4-.4-1,0-1.4Z"/>
          <path class="cls-10" d="M39.3,50.2c-2.5,2.5-2.5,6.6,0,9.1,2.5,2.5,6.6,2.5,9.1,0,2.5-2.5,2.5-6.6,0-9.1-2.5-2.5-6.6-2.5-9.1,0ZM43.5,57.8c.4-.4,1-.4,1.4,0,.4.4.4,1,0,1.4-.4.4-1,.4-1.4,0-.4-.4-.4-1,0-1.4ZM46.9,54.4c.4-.4,1-.4,1.4,0,.4.4.4,1,0,1.4-.4.4-1,.4-1.4,0-.4-.4-.4-1,0-1.4ZM39.4,53.7c.4-.4,1-.4,1.4,0,.4.4.4,1,0,1.4-.4.4-1,.4-1.4,0-.4-.4-.4-1,0-1.4ZM42.7,50.3c.4-.4,1-.4,1.4,0,.4.4.4,1,0,1.4-.4.4-1,.4-1.4,0-.4-.4-.4-1,0-1.4Z"/>
        </g>
        <path class="cls-1" d="M72.5,25.2s-8.5,37.2-16.3,45c-2.9,2.9-21.9-3.3-36.9-10.3,10.2,0,21.1-2,29.1-6.2,11.7-6.2,19.2-22.5,21.9-29.4l2.2,1Z"/>
        <path class="cls-9" d="M69.8,31L20.7,8.7c-.9-.4-1.3-1.5-.9-2.4l2.6-5.3c.4-.9,1.5-1.2,2.4-.8l48,24.4c.8.4,1.2,1.4.8,2.3l-1.5,3.3c-.4.9-1.4,1.3-2.3.9Z"/>
        <rect class="cls-4" x="47.3" y="-14.4" width="1.1" height="57.4" transform="translate(14.1 51.1) rotate(-64.1)"/>
        <rect class="cls-4" x="45.8" y="-11.4" width="1.1" height="57.4" transform="translate(11.5 52.4) rotate(-65.6)"/>
        <g>
          <path class="cls-1" d="M23.4,6.8c.2,1.7,1.7,3,3.5,2.8,1.8-.2,3.1-1.7,2.9-3.4-.2-1.7-1.7-3-3.5-2.8-1.8.2-3.1,1.7-2.9,3.4Z"/>
          <path class="cls-6" d="M23.8,3.8c-.4,1.2.5,2.7,2.1,3.3,1.6.6,3.3.1,3.8-1.1.4-1.2-.5-2.7-2.1-3.3-1.6-.6-3.3-.1-3.8,1.1Z"/>
          <path class="cls-2" d="M23.9,3.4c-.4,1.2.5,2.7,2.1,3.3,1.6.6,3.3.1,3.8-1.1.4-1.2-.5-2.7-2.1-3.3-1.6-.6-3.3-.1-3.8,1.1Z"/>
          <path class="cls-8" d="M29.8,3l-.4,2.1s-1,1.9-3.2.9c-2.2-.9-1.8-2.7-1.8-2.7l1-1.9,4.3,1.6Z"/>
          <path class="cls-5" d="M25.5,1.4c-.3.9.4,2,1.6,2.4,1.2.4,2.4,0,2.8-.8.3-.9-.4-2-1.6-2.4s-2.4,0-2.8.8Z"/>
        </g>
      </g>
    </g>
  </g>
</svg>