<?xml version="1.0" encoding="UTF-8"?>
<svg xmlns="http://www.w3.org/2000/svg" xmlns:xlink="http://www.w3.org/1999/xlink" viewBox="0 0 294.37 180.82">
  <defs>
    <linearGradient id="b" data-name="¡ÂÁ˚ÏˇÌÌ˚È „‡‰ËÂÌÚ 398" x1="146.64" y1="172.04" x2="146.64" y2="3.73" gradientUnits="userSpaceOnUse">
      <stop offset="0" stop-color="#edb473"/>
      <stop offset="1" stop-color="#e0b595"/>
    </linearGradient>
    <linearGradient id="c" data-name="¡ÂÁ˚ÏˇÌÌ˚È „‡‰ËÂÌÚ 365" x1="154.69" y1="172.64" x2="154.69" y2="-.9" gradientTransform="translate(-5.24 .9) skewX(-2.36)" gradientUnits="userSpaceOnUse">
      <stop offset="0" stop-color="#c77c50"/>
      <stop offset="1" stop-color="#bf8761"/>
    </linearGradient>
    <linearGradient id="d" data-name="¡ÂÁ˚ÏˇÌÌ˚È „‡‰ËÂÌÚ 382" x1="-269.24" y1="-231.08" x2="-269.24" y2="-236.73" gradientTransform="translate(-293.35 49.57) rotate(-145.43) scale(.82 -.91) skewX(16.07)" gradientUnits="userSpaceOnUse">
      <stop offset="0" stop-color="#c72a34"/>
      <stop offset="1" stop-color="#f04c33"/>
    </linearGradient>
    <linearGradient id="e" data-name="¡ÂÁ˚ÏˇÌÌ˚È „‡‰ËÂÌÚ 385" x1="-320.04" y1="84.01" x2="-280.45" y2="44.42" gradientTransform="translate(550.76 134.32) scale(1 -1)" gradientUnits="userSpaceOnUse">
      <stop offset="0" stop-color="#846d7b"/>
      <stop offset="1" stop-color="#937c87"/>
    </linearGradient>
    <linearGradient id="f" data-name="¡ÂÁ˚ÏˇÌÌ˚È „‡‰ËÂÌÚ 382" x1="-155.06" y1="429.55" x2="-155.06" y2="424.08" gradientTransform="translate(-114.27 -186.08) rotate(-78.88)" xlink:href="#d"/>
    <linearGradient id="g" data-name="¡ÂÁ˚ÏˇÌÌ˚È „‡‰ËÂÌÚ 382" x1="-164.43" y1="376.23" x2="-164.43" y2="370.76" gradientTransform="translate(-114.27 -186.08) rotate(-78.88)" xlink:href="#d"/>
    <linearGradient id="h" x1="-402.34" y1="1131.56" x2="-382.33" y2="1131.56" gradientTransform="translate(1233.53 -540.4) rotate(36.7)" gradientUnits="userSpaceOnUse">
      <stop offset="0" stop-color="#c5c7cd"/>
      <stop offset=".05" stop-color="#babdc1"/>
      <stop offset=".12" stop-color="#afb3b3"/>
      <stop offset=".19" stop-color="#abb0af"/>
      <stop offset=".62" stop-color="#c5c7cd"/>
      <stop offset=".76" stop-color="#c0c3c8"/>
      <stop offset=".92" stop-color="#b4b8b9"/>
      <stop offset="1" stop-color="#abb0af"/>
    </linearGradient>
    <linearGradient id="i" x1="-384.47" y1="1131.27" x2="-370.45" y2="1131.27" gradientTransform="translate(1233.53 -540.4) rotate(36.7)" gradientUnits="userSpaceOnUse">
      <stop offset="0" stop-color="#9f6a3f"/>
      <stop offset="1" stop-color="#ab7a3d"/>
    </linearGradient>
    <linearGradient id="j" data-name="¡ÂÁ˚ÏˇÌÌ˚È „‡‰ËÂÌÚ 382" x1="-522.79" y1="-278.01" x2="-522.79" y2="-281.34" xlink:href="#d"/>
    <clipPath id="k">
      <polygon id="l" data-name="SVGID" points="104.07 66.49 144.31 65.2 144.44 19.76 104.2 21.05 104.07 66.49" style="fill: none; stroke-width: 0px;"/>
    </clipPath>
    <linearGradient id="m" x1="-89.53" y1="99.73" x2="-89.53" y2="77.58" gradientTransform="translate(239.88 -22.21) rotate(15.22) skewX(-3)" gradientUnits="userSpaceOnUse">
      <stop offset="0" stop-color="#fcc6a4"/>
      <stop offset=".53" stop-color="#fbc3a1"/>
      <stop offset=".77" stop-color="#fabc9a"/>
      <stop offset=".95" stop-color="#f9af8e"/>
      <stop offset="1" stop-color="#f9ab8a"/>
    </linearGradient>
    <linearGradient id="n" x1="124.94" y1="44.17" x2="130.85" y2="44.17" gradientTransform="matrix(1,0,0,1,0,0)" xlink:href="#m"/>
    <linearGradient id="o" data-name="¡ÂÁ˚ÏˇÌÌ˚È „‡‰ËÂÌÚ 382" x1="-240.22" y1="-380.65" x2="-240.22" y2="-386.11" gradientTransform="translate(-328.28 54.59) rotate(-126.6) scale(1 -1)" xlink:href="#d"/>
    <linearGradient id="p" data-name="¡ÂÁ˚ÏˇÌÌ˚È „‡‰ËÂÌÚ 89" x1="12.67" y1="124.51" x2="50.6" y2="124.51" gradientTransform="translate(117.16 3.96) rotate(-7.5)" gradientUnits="userSpaceOnUse">
      <stop offset="0" stop-color="#fff"/>
      <stop offset="1" stop-color="#e0dbe2"/>
    </linearGradient>
    <linearGradient id="q" data-name="¡ÂÁ˚ÏˇÌÌ˚È „‡‰ËÂÌÚ 382" x1="146.56" y1="-369.47" x2="146.56" y2="-374.37" gradientTransform="translate(436.65 293.4) rotate(-62.83) scale(.82 .91) skewX(16.07)" xlink:href="#d"/>
  </defs>
  <g style="isolation: isolate;">
    <g id="a" data-name="Layer 1">
      <g>
        <polygon points="294.37 180.82 8.03 179.82 3.17 82.01 292.65 .96 294.37 180.82" style="fill: #5d4354; mix-blend-mode: multiply; opacity: .22; stroke-width: 0px;"/>
        <g>
          <path d="M287.4,171.89c-93.45.48-186.92-.35-280.37,0,0,0-3.39-111.25-3.27-167.09,94.22.85,191.51,1.22,285.75-1.07-2.28,56.17-1.39,112.02-2.11,168.16Z" style="fill: url(#b); stroke-width: 0px;"/>
          <path d="M5.72,169.01L9.46,13.21l278.06,3.99c-.96-7.45,1.48-6.04,1.99-13.47C195.28,6.02,98.02,5.65,3.77,4.8c.7,6.59-.76,157.6,1.95,164.21Z" style="fill: #c9af88; mix-blend-mode: multiply; opacity: .5; stroke-width: 0px;"/>
          <path d="M288.32,172.39c-94.02,1.36-190.43.96-284.46,2.21-.77-.76-.26-.26-1.03-1.02C3.76,116.86,1.24,58.8,0,2.13.57,1.21.77.91,1.34,0c95.71,2.23,195.51,1.68,291.31.96-2.07,56.18-3.82,115.28-4.33,171.43ZM7.27,168.63c90.64-.43,187.49.81,278.12.44l1.88-161.11c-92.15,2.24-190.52-.9-282.67-1.96.58,52.84,2.67,162.64,2.67,162.64Z" style="fill: #b0603f; stroke-width: 0px;"/>
          <path d="M3.86,174.6h.3L5.29.05c-.81-.02-3.14-.04-3.95-.05C.77.91.57,1.21,0,2.13c1.24,56.67,3.76,114.73,2.83,171.45.73.73.41.41,1.03,1.02Z" style="fill: #da8d79; stroke-width: 0px;"/>
          <path d="M290.49,174.61c-95.54.29-191.08-.36-286.62,0C4.5,116.18,2.49,58.35,1.34,0c97.45,1.35,193.8,2.63,291.31.96-2.36,58.01-1.41,115.67-2.16,173.65ZM7.84,170.99c93.87-.36,185.63.47,279.5-.01.72-55.52,2.12-166.29,2.12-166.29-94.66,2.29-189.07.71-283.73-.4l2.12,166.7Z" style="fill: url(#c); stroke-width: 0px;"/>
        </g>
      </g>
      <g>
        <polygon points="76.91 57.3 48.98 60.62 44.99 25.59 71.52 22.37 76.91 57.3" style="fill: #cfc596; mix-blend-mode: multiply; opacity: .5; stroke-width: 0px;"/>
        <rect x="45.47" y="23.85" width="28.03" height="33.46" transform="translate(-4.21 6.99) rotate(-6.5)" style="fill: #b385b5; stroke-width: 0px;"/>
        <polygon points="61.86 67.16 23.75 66.69 23.75 32 60.26 31.6 61.86 67.16" style="fill: #baa596; mix-blend-mode: multiply; opacity: .5; stroke-width: 0px;"/>
        <rect x="22.15" y="31.6" width="38.11" height="33" style="fill: #fee858; stroke-width: 0px;"/>
        <g>
          <path d="M51.66,34.93c.49,1.67,2.27,2.62,3.99,2.12,1.72-.5,2.72-2.26,2.23-3.93-.48-1.67-2.27-2.62-3.99-2.12-1.72.5-2.72,2.26-2.24,3.93Z" style="fill: #b28d8d; mix-blend-mode: multiply; opacity: .5; stroke-width: 0px;"/>
          <path d="M52.47,33.25c.44,1.52,2.15,2.36,3.82,1.87,1.67-.49,2.66-2.11,2.22-3.63-.44-1.52-2.15-2.36-3.82-1.87-1.67.48-2.66,2.11-2.22,3.63Z" style="fill: #c72a34; stroke-width: 0px;"/>
          <path d="M52.47,33.04c.44,1.52,2.15,2.36,3.82,1.87,1.67-.49,2.66-2.11,2.22-3.63-.44-1.52-2.15-2.36-3.82-1.87-1.67.48-2.66,2.11-2.22,3.63Z" style="fill: #de3e35; stroke-width: 0px;"/>
          <path d="M57.34,30.23l.75,1.4s.28,2.09-2.01,2.67c-2.29.58-3.06-1.16-3.06-1.16l-.13-1.62,4.45-1.29Z" style="fill: url(#d); stroke-width: 0px;"/>
          <path d="M52.89,31.52c.32,1.1,1.57,1.7,2.8,1.34,1.23-.36,1.96-1.54,1.64-2.63-.32-1.1-1.57-1.7-2.8-1.34-1.23.36-1.96,1.54-1.65,2.63Z" style="fill: #f04c33; stroke-width: 0px;"/>
        </g>
        <text transform="translate(27.5 47.88) rotate(-7.34)" style="fill: #724866; font-family: MarkerFelt-Thin, &apos;Marker Felt&apos;; font-size: 8.06px; font-weight: 200;"><tspan x="0" y="0">M</tspan><tspan x="7.5" y="0" style="letter-spacing: .05em;">e</tspan><tspan x="10.98" y="0" style="letter-spacing: .08em;">e</tspan><tspan x="14.72" y="0" style="letter-spacing: .07em;">t</tspan><tspan x="18.17" y="0" style="letter-spacing: .05em;">i</tspan><tspan x="20.17" y="0" style="letter-spacing: .03em;">n</tspan><tspan x="24.36" y="0">g</tspan><tspan x="0" y="9.67" style="letter-spacing: -.16em;">7</tspan><tspan x="3.34" y="9.67" style="letter-spacing: -.02em;">:</tspan><tspan x="5.02" y="9.67" style="letter-spacing: 0em;">00 pm</tspan></text>
      </g>
      <g>
        <polygon points="280.91 46.69 283.7 89.38 217.83 89.38 214.12 46.69 280.91 46.69" style="fill: #baa596; mix-blend-mode: multiply; opacity: .5; stroke-width: 0px;"/>
        <rect x="214.12" y="46.69" width="66.88" height="40.94" transform="translate(495.13 134.32) rotate(180)" style="fill: #f4f3e5; stroke-width: 0px;"/>
        <rect x="216.15" y="47.93" width="62.82" height="38.45" transform="translate(495.13 134.32) rotate(180)" style="fill: url(#e); stroke-width: 0px;"/>
        <path d="M269.18,83.6l-2.93-.67c-.06-.01-.11-.05-.15-.09l-2.19-2.71s-.05-.07-.05-.11l-.31-1.46-.65-.42-3.04,3.9c-.05.06-.12.1-.19.1l-11.07.83c-.09,0-.18-.03-.23-.1l-3.94-5.02-2.16-2.92c-.05-.06-.06-.14-.05-.21.01-.07.06-.14.13-.18l2.41-1.46c.07-.04.15-.05.23-.02l1.78.63c.09.03.16.11.17.2l.49,2.44,2.93,2.22,5.61-.98-8.02-4.01-4.13-1.88h-11.37s-9.2,2.15-9.2,2.15c-.08.02-.16,0-.22-.05l-2.92-2.16c-.08-.06-.12-.16-.11-.26l.51-2.92c.02-.14.16-.24.3-.22l3.76.44,8.93-1.9,8.78-.93,2.88-.66-7.08-4.72-9.63-.38c-.07,0-.14-.03-.18-.08l-3.87-4.06c-.08-.08-.1-.2-.05-.3l1.21-2.54c.03-.07.1-.12.17-.15.08-.02.16,0,.22.04l4.67,3.3,8.9-1.25c.06,0,.12,0,.17.03l12.11,6.83,9.16,6.63-4.31-5.78-6.51-5.5-2.28-1.52c-.07-.05-.11-.12-.12-.21,0-.08.03-.17.1-.22l2.35-1.97c.09-.08.23-.08.33-.02l4.59,3.12,6.31,5.1,7.68,7.87c.08.09.1.22.04.32l-3.09,5.32.45.78h2.22c.06,0,.13.02.17.06l3.47,2.95c.07.06.1.15.09.24l-.33,2.67c-.01.08-.05.15-.12.19l-2.59,1.67s-.09.04-.15.04c-.02,0-.04,0-.06,0ZM271.88,79.12l-3.29-2.79h-2.28c-.1,0-.19-.05-.23-.14l-.6-1.05c-.05-.08-.05-.19,0-.27l3.07-5.28-7.51-7.7-6.26-5.06-4.4-2.99-1.92,1.61,2.01,1.34,6.58,5.57,5.41,7.24c.08.11.07.26-.02.35-.09.1-.24.11-.35.03l-10.56-7.64-12-6.77-8.92,1.26c-.07.01-.14,0-.19-.05l-4.5-3.18-.99,2.08,3.67,3.85,9.6.38s.1.02.14.05l7.67,5.11c.09.06.14.17.12.27-.02.11-.1.19-.2.21l-3.52.81-8.78.93-8.95,1.9s-.06,0-.09,0l-3.55-.41-.44,2.5,2.68,1.98,9.14-2.14h11.49s.08,0,.11.02l4.2,1.91,8.76,4.38c.1.05.16.17.15.28-.02.12-.11.21-.22.23l-6.54,1.14c-.07.01-.15,0-.21-.05l-3.11-2.35c-.05-.04-.09-.1-.1-.16l-.48-2.39-1.51-.54-2.05,1.24,1.98,2.68,3.85,4.9,10.81-.81,3.11-4c.09-.11.24-.14.36-.06l.95.62c.06.04.1.1.12.17l.32,1.51,2.09,2.59,2.73.62,2.39-1.54.3-2.4Z" style="fill: #fff; stroke-width: 0px;"/>
        <g>
          <path d="M278.44,51.51c-.16,1.74-1.73,3.01-3.52,2.84-1.78-.16-3.1-1.7-2.94-3.43.16-1.73,1.73-3.01,3.51-2.84,1.79.16,3.11,1.7,2.95,3.43Z" style="fill: #b28d8d; mix-blend-mode: multiply; opacity: .5; stroke-width: 0px;"/>
          <path d="M278.03,48.53c.44,1.2-.52,2.67-2.15,3.27-1.63.6-3.31.11-3.76-1.09-.45-1.2.52-2.67,2.15-3.27,1.63-.6,3.31-.12,3.76,1.09Z" style="fill: #c72a34; stroke-width: 0px;"/>
          <path d="M277.93,48.07c.44,1.2-.52,2.67-2.15,3.27-1.63.6-3.31.11-3.76-1.09-.45-1.2.52-2.67,2.15-3.27,1.63-.6,3.31-.12,3.76,1.09Z" style="fill: #de3e35; stroke-width: 0px;"/>
          <path d="M271.96,47.69l.41,2.07s.99,1.86,3.17.94c2.18-.92,1.81-2.73,1.81-2.73l-1.05-1.88-4.34,1.61Z" style="fill: url(#f); stroke-width: 0px;"/>
          <path d="M276.31,46.09c.33.88-.38,1.96-1.58,2.41-1.2.44-2.44.08-2.76-.8-.33-.89.38-1.96,1.58-2.41s2.44-.09,2.76.8Z" style="fill: #f04c33; stroke-width: 0px;"/>
        </g>
        <g>
          <path d="M224.32,50.41c-.16,1.74-1.73,3.01-3.52,2.84-1.78-.16-3.1-1.7-2.94-3.43.16-1.73,1.73-3.01,3.51-2.84,1.79.16,3.11,1.7,2.95,3.43Z" style="fill: #b28d8d; mix-blend-mode: multiply; opacity: .5; stroke-width: 0px;"/>
          <path d="M223.9,47.43c.44,1.2-.52,2.67-2.15,3.27-1.63.6-3.31.11-3.76-1.09-.45-1.2.52-2.67,2.15-3.27,1.63-.6,3.31-.12,3.76,1.09Z" style="fill: #c72a34; stroke-width: 0px;"/>
          <path d="M223.8,46.97c.44,1.2-.52,2.67-2.15,3.27-1.63.6-3.31.11-3.76-1.09-.45-1.2.52-2.67,2.15-3.27,1.63-.6,3.31-.12,3.76,1.09Z" style="fill: #de3e35; stroke-width: 0px;"/>
          <path d="M217.84,46.59l.41,2.07s.99,1.86,3.17.94c2.18-.92,1.81-2.73,1.81-2.73l-1.05-1.88-4.34,1.61Z" style="fill: url(#g); stroke-width: 0px;"/>
          <path d="M222.18,44.99c.33.88-.38,1.96-1.58,2.41-1.2.44-2.44.08-2.76-.8-.33-.89.38-1.96,1.58-2.41,1.2-.44,2.44-.09,2.76.8Z" style="fill: #f04c33; stroke-width: 0px;"/>
        </g>
      </g>
      <g>
        <g>
          <polygon points="264.71 122.03 266.51 151.66 232.45 149.84 231.84 123.35 264.71 122.03" style="fill: #baa596; mix-blend-mode: multiply; opacity: .5; stroke-width: 0px;"/>
          <polygon points="231.28 121.46 231.07 149.49 265.05 148.96 265.23 120.59 231.28 121.46" style="fill: #f4f3e5; stroke-width: 0px;"/>
          <polygon points="232.92 122.79 232.77 147.69 263.8 147.58 263.49 122.03 232.92 122.79" style="fill: #5d4354; stroke-width: 0px;"/>
          <g>
            <path d="M259.56,146.15c-.53.08-1.1.09-1.6-.15-2.09-1.01-2.66-2.45-4.35-4.15-1.26-1.26-1.66-.07-4.62-3.04-1.1-1.11,1.62-2.38,1.62-2.38,0,0,7.19,5.16,9.93,7.2,1.34,1-.37,2.44-.98,2.53Z" style="fill: #92453f; stroke-width: 0px;"/>
            <path d="M235.2,124.42l16.7,12.45-3.62,3.02s-7.96-5.77-10.06-7.97c-3.75-3.92-3.02-7.5-3.02-7.5Z" style="fill: #9d9da3; stroke-width: 0px;"/>
            <path d="M238.94,131.49c1.95,2.05,8.99,7.18,9.95,7.89l3.01-2.51-16.04-11.96c.03,1.31.48,3.87,3.08,6.59Z" style="fill: url(#h); stroke-width: 0px;"/>
            <path d="M245.89,132.38c-.23,1.44-.38,2.91-.52,4.39.31.23.61.46.9.68.19-1.47.38-2.94.51-4.4l-.89-.67Z" style="fill: #c1c3c7; mix-blend-mode: color-dodge; opacity: .3; stroke-width: 0px;"/>
            <path d="M245.15,131.83l-1.48-1.1c.04,1.53-.08,3.04-.24,4.55.44.34.89.69,1.33,1.02.15-1.49.27-2.98.39-4.47Z" style="fill: #c1c3c7; mix-blend-mode: color-dodge; opacity: .3; stroke-width: 0px;"/>
            <path d="M259.62,145.67c-.53.08-1.09.09-1.6-.15-2.09-1.01-2.66-2.45-4.35-4.15-1.26-1.26-1.66-.07-4.62-3.04-1.1-1.11,1.62-2.38,1.62-2.38,0,0,7.19,5.16,9.93,7.2,1.34,1-.37,2.44-.98,2.53Z" style="fill: url(#i); stroke-width: 0px;"/>
            <path d="M258.02,145.52c.51.25,1.07.23,1.6.15.45-.06,1.51-.87,1.48-1.69-.96,1.79-4.18.58-5.24-.75-1.19-1.48-2.28-2.69-4.03-3.41-1.43-.58-2.34-1.6-2.83-2.61-.24.35-.3.74.07,1.11,2.95,2.98,3.36,1.78,4.62,3.04,1.69,1.7,2.26,3.14,4.35,4.15Z" style="fill: #92453f; mix-blend-mode: multiply; opacity: .2; stroke-width: 0px;"/>
            <path d="M251.39,137.97c-.14.19-.42.23-.61.09-.19-.14-.23-.42-.09-.61.14-.19.42-.23.61-.09.19.14.23.42.09.61Z" style="fill: #c1c3c7; stroke-width: 0px;"/>
            <path d="M254.67,140.28c-.14.19-.42.23-.61.09-.19-.14-.23-.42-.09-.61.14-.19.42-.23.61-.09.19.14.23.42.09.61Z" style="fill: #c1c3c7; stroke-width: 0px;"/>
            <path d="M258.11,142.85c-.14.19-.42.23-.61.09-.19-.14-.23-.42-.09-.61.14-.19.42-.23.61-.09.19.14.23.42.09.61Z" style="fill: #c1c3c7; stroke-width: 0px;"/>
            <g>
              <path d="M241.13,132.35c.33-.29-.72-1.12-.98-.73-.19.28.66,1.02.98.73Z" style="fill: #d14a45; stroke-width: 0px;"/>
              <path d="M241.85,131.4c-.18.54.94.93,1.21.6.27-.33-1.08-1-1.21-.6Z" style="fill: #d14a45; stroke-width: 0px;"/>
              <path d="M235.2,124.42s-.56,2.77,1.86,6.11c.17-.2.38-.36.64-.35.67.03.85,1.85,1.51,1.48.65-.37-1.55-1.96-1.23-2.3.32-.35,1.44,1.46,1.77,1.13.33-.33-2.18-2.22-1.75-2.64.42-.42.63,1.27,1.13.98.5-.29,2.45,2.33,2.69,1.87.24-.46-.12-.81-1.38-1.44-.92-.46-1.25-1.32-.92-1.62l-4.32-3.22Z" style="fill: #d14a45; stroke-width: 0px;"/>
            </g>
          </g>
        </g>
        <g>
          <path d="M257.68,123.97c.29.99,1.34,1.54,2.36,1.25,1.01-.29,1.6-1.33,1.32-2.32-.29-.99-1.34-1.54-2.35-1.25-1.01.3-1.61,1.33-1.32,2.32Z" style="fill: #b28d8d; mix-blend-mode: multiply; opacity: .5; stroke-width: 0px;"/>
          <path d="M258.37,123.35c.26.9,1.27,1.39,2.25,1.1.98-.29,1.57-1.25,1.31-2.14-.26-.9-1.27-1.39-2.25-1.1-.98.29-1.57,1.24-1.31,2.14Z" style="fill: #c72a34; stroke-width: 0px;"/>
          <path d="M258.37,123.22c.26.9,1.27,1.39,2.25,1.1.98-.29,1.57-1.25,1.31-2.14-.26-.9-1.27-1.39-2.25-1.1-.98.29-1.57,1.24-1.31,2.14Z" style="fill: #de3e35; stroke-width: 0px;"/>
          <path d="M261.24,121.56l.44.83s.16,1.23-1.19,1.58c-1.35.34-1.8-.68-1.8-.68l-.08-.96,2.62-.76Z" style="fill: url(#j); stroke-width: 0px;"/>
          <path d="M258.62,122.33c.19.65.93,1,1.65.79.72-.21,1.16-.91.97-1.55-.19-.65-.93-1-1.65-.79-.72.21-1.16.91-.97,1.55Z" style="fill: #f04c33; stroke-width: 0px;"/>
        </g>
      </g>
      <g>
        <polygon points="142.55 19.25 144.28 73.68 98.62 71.44 102.48 20.59 142.55 19.25" style="fill: #cfc69c; mix-blend-mode: multiply; opacity: .5; stroke-width: 0px;"/>
        <polygon points="146.15 17.07 147.22 69.57 101.49 69.7 101.81 18.97 146.15 17.07" style="fill: #f4f3e7; stroke-width: 0px;"/>
        <g style="clip-path: url(#k);">
          <polygon points="101.77 69.16 146.6 67.72 146.74 17.09 101.91 18.53 101.77 69.16" style="fill: #9c9aa6; stroke-width: 0px;"/>
          <g>
            <polygon points="118.12 43.42 118.64 52.13 124.75 53.27 130.73 52.43 131.21 45.46 118.12 43.42" style="fill: #f9ab8a; stroke-width: 0px;"/>
            <path d="M119.24,50.71c-.57-.54-1.5-2.43-1.6-.77-.1,1.66-4.54,2.51-6.15,3.4-1.61.89-7.6,4.48-8.5,7.07-.9,2.59.61,5.8.61,5.8,0,0,13.68,2.09,24.71.29,11.03-1.81,16.59,2.56,16.98.62.39-1.95-.85-10.61-5.31-11.08-3.91-.42-9.1-5.73-9.1-5.73,0,0-.07,1.98-4.32,2.19-4.25.21-6.63-1.14-7.31-1.79Z" style="fill: #5d4655; stroke-width: 0px;"/>
            <path d="M132.82,51.75s-2.72,2.54-3.05,7.12c-.33,4.58-.29,7.16-.29,7.16l15.86-.62s-1.04-6.49-2-7.99c-.96-1.5-5.87-2.75-5.87-2.75l-4.65-2.91Z" style="fill: #473343; stroke-width: 0px;"/>
            <path d="M116.57,51.09s3.48.61,6.28,6.66c2.81,6.05,2.06,9.92,2.06,9.92l-22.41.36,1-9.54s6.17-5.99,13.07-7.41Z" style="fill: #473343; stroke-width: 0px;"/>
            <path d="M133.07,36c.58-.74,2.53-.51,2.93,1.02.28,1.07-.21,3.52-1.52,5.32-.55.76-1.44-.13-1.68-.51-.92-1.48-1.61-3.42.27-5.84Z" style="fill: #f8a284; stroke-width: 0px;"/>
            <path d="M128.85,50.07c6.7-.76,4.89-4.31,5.31-8.65.3-3.18,1.18-11.54,1.18-11.54l-17.45.54s-1.47,11.4.84,15.46c2.3,4.06,6.99,4.56,10.13,4.2Z" style="fill: url(#m); stroke-width: 0px;"/>
            <path d="M128.85,50.07c-.88-.18-1.55-.45-2.02-.64-3.82-1.57-4.6-4.74-5-8.22-.23-2.06.62-7.53,1.95-8.7,9.96,1.87,11.55-2.63,11.55-2.63l-17.45.54s-1.47,11.4.84,15.46c2.3,4.06,6.99,4.56,10.13,4.2Z" style="fill: #fdcc98; mix-blend-mode: multiply; opacity: .25; stroke-width: 0px;"/>
            <path d="M129.76,45.23c-.2-.91-2.18-.41-2.15.14.02.26.55,0,1.07-.03.57-.02,1.14.19,1.07-.11Z" style="fill: #f8a284; stroke-width: 0px;"/>
            <path d="M117.81,35.81c-.93-.46-3.46.74-2.93,2.45.58,1.86,1.16,3.82,1.99,4.4,1.03.71,1.87.07,2.16-.37.92-1.38.84-5.45-1.22-6.48Z" style="fill: #f9ab8a; stroke-width: 0px;"/>
            <g>
              <polygon points="127.3 41.31 128.76 41.79 130.32 40.67 129.47 37.39 127.96 35.85 127.3 41.31" style="fill: #f9ab8a; stroke-width: 0px;"/>
              <path d="M127.3,41.31c.51.1,1.01.22,1.5.35l-.12.02c.49-.42,1-.81,1.51-1.18l-.09.24c-.16-.54-.29-1.09-.42-1.64-.13-.55-.27-1.1-.38-1.66l.04.07c-.48-.54-.95-1.08-1.39-1.66.57.45,1.11.93,1.64,1.42.22.61.36,1.16.51,1.7.16.54.3,1.09.43,1.64l.03.15-.13.09c-.52.37-1.06.72-1.61,1.04l-.07.04c-.53-.21-1-.41-1.46-.62Z" style="fill: #ca705b; stroke-width: 0px;"/>
            </g>
            <polygon points="127.33 41.19 128.18 41.56 128.24 40.88 127.48 40.81 127.33 41.19" style="fill: #ca705b; stroke-width: 0px;"/>
            <path d="M121.54,35.99s.28-.26.78-.51c.12-.07.27-.11.42-.17.15-.05.31-.13.48-.15.34-.05.71-.14,1.08-.12.37,0,.74.04,1.06.14.33.08.63.17.86.31.46.26.75.45.75.45l-.23.87-4.97.02-.23-.85Z" style="fill: #843b37; stroke-width: 0px;"/>
            <path d="M129.46,35.65s.07-.04.18-.11c.11-.06.27-.18.49-.25.22-.08.46-.19.74-.28.14-.05.28-.09.43-.14l.22-.07.26-.04c.3-.02.57-.08.88-.07.31.02.6.06.83.1.45.12.73.25.73.25l-.23,1.32-4.35.27-.18-1Z" style="fill: #843b37; stroke-width: 0px;"/>
            <path d="M115.64,37.63c.18-.33.4-.65.75-.86.17-.11.4-.17.61-.13.1.02.21.05.29.11.09.05.18.12.24.18.14.13.25.31.34.48.08.18.14.36.18.55.07.38.06.79-.06,1.18-.01.05-.04.09-.08.11-.31.25-.47.49-.29.81.17.31.49.6.82.85-.44-.07-.86-.25-1.16-.63-.15-.19-.25-.48-.17-.77.07-.3.29-.47.47-.64l-.09.12c.1-.31.18-.64.16-.97-.02-.32-.14-.66-.33-.9-.07-.08-.11-.12-.18-.16-.06-.05-.13-.08-.21-.1-.15-.05-.31-.03-.47.05-.31.15-.58.44-.82.72Z" style="fill: #ca705b; stroke-width: 0px;"/>
            <path d="M126.17,44.03s.38-.07.79-.21c.19-.06.41-.12.71-.16.28-.03.58-.09.89-.11.31-.02.6-.02.9-.02.27,0,.57.11.77.17.43.16.67.34.67.34,0,0-.29-.04-.74-.1-.23-.03-.44-.04-.73-.04-.26.02-.57.05-.86.07-.29,0-.59.04-.87.05-.26.01-.57.02-.82.02-.25,0-.42-.03-.53-.01-.11,0-.17,0-.17,0Z" style="fill: #df725f; stroke-width: 0px;"/>
            <g>
              <path d="M125.12,38.26c-.05.48-.34.81-.73.79-.55-.02-.73-.46-.68-.94.05-.48.41-.84.79-.8.39.04.67.46.62.94Z" style="fill: #473343; stroke-width: 0px;"/>
              <path d="M123.41,37.44c-.05,0-.1-.03-.13-.07-.05-.08-.03-.18.05-.23.06-.04,1.43-.95,2.06-.07.05.07.04.18-.04.23-.07.05-.18.04-.23-.04-.45-.62-1.59.14-1.6.15-.03.02-.07.03-.1.03Z" style="fill: #473343; stroke-width: 0px;"/>
            </g>
            <polygon points="125.23 37.64 124.7 38.27 125.38 38.6 125.23 37.64" style="fill: #fbc29f; stroke-width: 0px;"/>
            <g>
              <path d="M132.28,38.17c-.05.48-.34.81-.73.79-.55-.02-.73-.46-.68-.94.05-.48.41-.84.79-.8.39.04.67.46.62.94Z" style="fill: #473343; stroke-width: 0px;"/>
              <path d="M130.63,37.35c-.05,0-.1-.03-.13-.07-.05-.08-.04-.18.04-.23.05-.04,1.28-.89,2.05-.09.06.07.06.17,0,.24-.07.06-.17.06-.24,0-.57-.6-1.61.12-1.62.13-.03.02-.07.03-.1.03Z" style="fill: #473343; stroke-width: 0px;"/>
            </g>
            <polygon points="132.42 37.44 131.83 38.17 132.57 38.4 132.42 37.44" style="fill: #fbc29f; stroke-width: 0px;"/>
          </g>
          <path d="M119.79,35.65s-.37,5.93,1.06,6.49c1.44.56,5.39-.12,7.2-.06,1.81.06,4.85-.31,5.16-.25.31.06,1.47-5.73,1.47-5.73,0,0-.79,5.85-.6,8.32.19,2.47.35,4.93-2.21,5.8-2.56.87-8.83,2.04-11.99-1.21s-3.03-6.35-3.03-6.35c0,0,2.24-.64,2.24-2.33s-.59-3.98-.59-3.98l1.28-.7Z" style="fill: #a53f3b; stroke-width: 0px;"/>
          <path d="M124.94,44.04c.16-.76,5.31-1.06,5.81-.41s-.97,1.28-2.59,1.4-3.37-.25-3.22-1Z" style="fill: url(#n); stroke-width: 0px;"/>
          <path d="M125.64,44.33s.37-.11.77-.29c.18-.08.4-.16.69-.23.28-.06.57-.14.87-.19.31-.04.59-.07.9-.11.27-.02.58.05.78.1.44.12.69.28.69.28,0,0-.3-.01-.74-.03-.23,0-.44,0-.73.03-.25.04-.56.11-.85.15-.29.03-.59.09-.86.13-.26.04-.56.07-.82.1-.25.02-.42.01-.53.04-.11.01-.17.02-.17.02Z" style="fill: #df725f; stroke-width: 0px;"/>
          <path d="M115.49,36.15s-1.29-4.62-.54-6.66c.75-2.04,6.83-4.33,10.11-4.37,3.29-.04,9.41,2.04,10.16,2.35.75.31-.37,9.11-.37,9.11,0,0,.31-5.18-3-5.37-3.31-.19-10.86-.12-11.3.75-.44.87-.79,4.99-.79,4.99l-1.03.33s-.58-2.43-3.24-1.14Z" style="fill: #a53f3b; stroke-width: 0px;"/>
          <path d="M124.73,49.55c-3.59-1.11-5.78-3.94-6.77-7.4-.55.35-1.08.51-1.08.51,0,0-.13,3.1,3.03,6.35,3.15,3.25,9.43,2.08,11.99,1.21.9-.31,1.46-.81,1.8-1.44-3.02.78-6.15,1.24-8.96.77Z" style="fill: #873138; stroke-width: 0px;"/>
          <path d="M114.95,29.49c-.75,2.04.54,6.66.54,6.66.81-.39,1.42-.44,1.88-.32.27-3.61,1.5-7.23,3.51-9.93-2.74.85-5.45,2.27-5.94,3.59Z" style="fill: #873138; stroke-width: 0px;"/>
        </g>
        <g>
          <path d="M117.83,21.64c.16,1.74,1.73,3.01,3.52,2.84,1.78-.16,3.1-1.7,2.94-3.43-.16-1.73-1.73-3.01-3.51-2.84-1.79.16-3.11,1.7-2.95,3.43Z" style="fill: #b28d8d; mix-blend-mode: multiply; opacity: .5; stroke-width: 0px;"/>
          <path d="M119.69,20.45c.12,1.28,1.61,2.19,3.35,2.03,1.73-.16,3.04-1.32,2.92-2.6-.12-1.28-1.61-2.19-3.35-2.03-1.73.16-3.04,1.32-2.92,2.6Z" style="fill: #c72a34; stroke-width: 0px;"/>
          <path d="M119.59,20c.12,1.28,1.61,2.19,3.35,2.03,1.73-.16,3.04-1.32,2.92-2.6-.12-1.28-1.61-2.19-3.35-2.03-1.73.16-3.04,1.32-2.92,2.6Z" style="fill: #de3e35; stroke-width: 0px;"/>
          <path d="M124.81,17.09l.52,2.04s-.1,2.11-2.46,2.21c-2.36.11-2.81-1.69-2.81-1.69l.14-2.15,4.61-.42Z" style="fill: url(#o); stroke-width: 0px;"/>
          <path d="M120.2,17.51c.08.94,1.19,1.61,2.46,1.49,1.27-.11,2.23-.97,2.15-1.91-.09-.94-1.19-1.61-2.46-1.49-1.27.12-2.24.97-2.15,1.91Z" style="fill: #f04c33; stroke-width: 0px;"/>
        </g>
      </g>
      <g>
        <g>
          <polygon points="148.05 125.88 151.67 145.57 188.12 141.48 179.98 123.28 177.77 110.97 148.05 125.88" style="fill: #baa596; mix-blend-mode: multiply; opacity: .5; stroke-width: 0px;"/>
          <g>
            <polygon points="178.13 104.79 179.02 123.14 186.17 140.46 151.55 144.05 146.06 126.4 144.19 105.98 178.13 104.79" style="fill: url(#p); stroke-width: 0px;"/>
            <polygon points="186.17 140.46 179.02 123.14 146.01 125.87 146.06 126.4 151.55 144.05 186.17 140.46" style="fill: #e3dfe5; stroke-width: 0px;"/>
            <g>
              <rect x="154.34" y="118.64" width="3.93" height="1.18" transform="translate(-7.94 11.2) rotate(-4)" style="fill: #c3c2bf; stroke-width: 0px;"/>
              <rect x="170.34" y="115.11" width="3.93" height="1.18" transform="translate(-7.65 12.31) rotate(-4)" style="fill: #c3c2bf; stroke-width: 0px;"/>
              <polygon points="163.7 125.67 156.8 126.23 157.14 127.41 164.03 126.85 163.7 125.67" style="fill: #c3c2bf; stroke-width: 0px;"/>
              <rect x="155.23" y="110.75" width="7.48" height="1.18" transform="translate(-7.39 11.38) rotate(-4.01)" style="fill: #c3c2bf; stroke-width: 0px;"/>
              <rect x="159.11" y="112.99" width="9.21" height="1.18" transform="translate(-7.53 11.71) rotate(-4)" style="fill: #c3c2bf; stroke-width: 0px;"/>
              <rect x="153.98" y="113.57" width="2.79" height="1.18" transform="translate(-7.59 11.12) rotate(-4)" style="fill: #c3c2bf; stroke-width: 0px;"/>
              <rect x="171.6" y="117.65" width="2.79" height="1.18" transform="translate(-7.84 12.38) rotate(-4.01)" style="fill: #c3c2bf; stroke-width: 0px;"/>
              <polygon points="162.77 131.21 157.46 131.64 157.79 132.82 163.11 132.39 162.77 131.21" style="fill: #c3c2bf; stroke-width: 0px;"/>
              <rect x="163.03" y="115.41" width="5.63" height="1.18" transform="translate(-7.69 11.85) rotate(-4)" style="fill: #c3c2bf; stroke-width: 0px;"/>
              <polygon points="165.55 132.2 173.25 131.58 172.94 130.4 165.22 131.02 165.55 132.2" style="fill: #c3c2bf; stroke-width: 0px;"/>
              <polygon points="172.81 138.14 180.5 137.52 180.2 136.33 172.47 136.96 172.81 138.14" style="fill: #c3c2bf; stroke-width: 0px;"/>
              <polygon points="163.13 129.66 172.06 128.94 171.75 127.76 162.79 128.48 163.13 129.66" style="fill: #c3c2bf; stroke-width: 0px;"/>
              <polygon points="168.28 134.71 167.94 133.53 161.96 134.01 162.3 135.19 168.28 134.71" style="fill: #c3c2bf; stroke-width: 0px;"/>
              <polygon points="155.01 131.84 152.61 132.03 152.92 133.21 155.35 133.02 155.01 131.84" style="fill: #c3c2bf; stroke-width: 0px;"/>
              <rect x="149.33" y="119.04" width="2.66" height="1.18" transform="translate(-7.99 10.81) rotate(-4)" style="fill: #c3c2bf; stroke-width: 0px;"/>
              <polygon points="154.36 126.42 150.44 126.74 150.74 127.92 154.69 127.6 154.36 126.42" style="fill: #c3c2bf; stroke-width: 0px;"/>
              <polygon points="160.55 128.65 151.62 129.37 151.93 130.55 160.89 129.83 160.55 128.65" style="fill: #c3c2bf; stroke-width: 0px;"/>
              <polygon points="159.52 134.2 153.8 134.66 154.1 135.85 159.85 135.38 159.52 134.2" style="fill: #c3c2bf; stroke-width: 0px;"/>
              <rect x="148.99" y="116.18" width="11.7" height="1.18" transform="translate(-7.77 11.1) rotate(-4)" style="fill: #c3c2bf; stroke-width: 0px;"/>
              <rect x="169.99" y="120.56" width="3.93" height="1.18" transform="translate(-8.03 12.29) rotate(-4)" style="fill: #c3c2bf; stroke-width: 0px;"/>
              <rect x="162.49" y="121.03" width="5.63" height="1.18" transform="translate(-8.08 11.83) rotate(-4)" style="fill: #c3c2bf; stroke-width: 0px;"/>
              <rect x="149.32" y="121.69" width="11.7" height="1.18" transform="translate(-8.16 11.13) rotate(-4)" style="fill: #c3c2bf; stroke-width: 0px;"/>
              <polygon points="166.14 125.48 166.48 126.66 171.07 126.29 170.76 125.1 166.14 125.48" style="fill: #c3c2bf; stroke-width: 0px;"/>
              <rect x="160.61" y="118.05" width="8.38" height="1.18" transform="translate(-7.88 11.79) rotate(-4)" style="fill: #c3c2bf; stroke-width: 0px;"/>
              <rect x="166.57" y="110.24" width="2.92" height="1.18" transform="translate(-7.33 12) rotate(-4)" style="fill: #c3c2bf; stroke-width: 0px;"/>
              <rect x="169.99" y="112.5" width="2.92" height="1.18" transform="translate(-7.48 12.25) rotate(-4)" style="fill: #c3c2bf; stroke-width: 0px;"/>
              <rect x="148.66" y="113.94" width="2.97" height="1.18" transform="translate(-7.63 10.76) rotate(-4)" style="fill: #c3c2bf; stroke-width: 0px;"/>
            </g>
          </g>
        </g>
        <g>
          <path d="M154.76,112.15c-.42,1.45-1.97,2.27-3.47,1.84-1.49-.43-2.36-1.96-1.94-3.41.42-1.45,1.97-2.27,3.46-1.84,1.49.43,2.36,1.96,1.94,3.41Z" style="fill: #b28d8d; mix-blend-mode: multiply; opacity: .5; stroke-width: 0px;"/>
          <path d="M153.94,109.89c.29,1.34-.68,2.69-2.15,3-1.47.31-2.9-.52-3.19-1.86-.29-1.34.68-2.69,2.15-3,1.47-.32,2.9.52,3.19,1.86Z" style="fill: #c72a34; stroke-width: 0px;"/>
          <path d="M153.86,109.73c.29,1.34-.68,2.69-2.15,3-1.47.31-2.9-.52-3.19-1.86-.29-1.34.68-2.69,2.15-3,1.47-.32,2.9.52,3.19,1.86Z" style="fill: #de3e35; stroke-width: 0px;"/>
          <path d="M148.98,109.58v1.38s.65,1.71,2.63,1.22c1.99-.5,1.86-2.14,1.86-2.14l-.57-1.29-3.93.84Z" style="fill: url(#q); stroke-width: 0px;"/>
          <path d="M152.91,108.74c.21.97-.5,1.94-1.59,2.18-1.08.23-2.13-.37-2.34-1.34-.21-.97.5-1.94,1.59-2.17,1.09-.23,2.13.37,2.34,1.34Z" style="fill: #f04c33; stroke-width: 0px;"/>
        </g>
      </g>
    </g>
  </g>
</svg>