<?xml version="1.0" encoding="UTF-8"?>
<svg xmlns="http://www.w3.org/2000/svg" xmlns:xlink="http://www.w3.org/1999/xlink" viewBox="0 0 294.37 180.82">
  <defs>
    <linearGradient id="b" data-name="¡ÂÁ˚ÏˇÌÌ˚È „‡‰ËÂÌÚ 398" x1="146.64" y1="172.04" x2="146.64" y2="3.73" gradientUnits="userSpaceOnUse">
      <stop offset="0" stop-color="#edb473"/>
      <stop offset="1" stop-color="#e0b595"/>
    </linearGradient>
    <linearGradient id="c" data-name="¡ÂÁ˚ÏˇÌÌ˚È „‡‰ËÂÌÚ 365" x1="154.69" y1="172.64" x2="154.69" y2="-.9" gradientTransform="translate(-5.24 .9) skewX(-2.36)" gradientUnits="userSpaceOnUse">
      <stop offset="0" stop-color="#c77c50"/>
      <stop offset="1" stop-color="#bf8761"/>
    </linearGradient>
    <linearGradient id="d" data-name="¡ÂÁ˚ÏˇÌÌ˚È „‡‰ËÂÌÚ 382" x1="-269.24" y1="-231.08" x2="-269.24" y2="-236.73" gradientTransform="translate(-293.35 49.57) rotate(-145.43) scale(.82 -.91) skewX(16.07)" gradientUnits="userSpaceOnUse">
      <stop offset="0" stop-color="#c72a34"/>
      <stop offset="1" stop-color="#f04c33"/>
    </linearGradient>
    <linearGradient id="e" data-name="¡ÂÁ˚ÏˇÌÌ˚È „‡‰ËÂÌÚ 385" x1="-314.42" y1="79.41" x2="-274.82" y2="39.82" gradientTransform="translate(539.51 125.12) scale(1 -1)" gradientUnits="userSpaceOnUse">
      <stop offset="0" stop-color="#846d7b"/>
      <stop offset="1" stop-color="#937c87"/>
    </linearGradient>
    <linearGradient id="f" data-name="¡ÂÁ˚ÏˇÌÌ˚È „‡‰ËÂÌÚ 382" x1="-151.63" y1="423.15" x2="-151.63" y2="417.68" gradientTransform="translate(-114.27 -186.08) rotate(-78.88)" xlink:href="#d"/>
    <linearGradient id="g" data-name="¡ÂÁ˚ÏˇÌÌ˚È „‡‰ËÂÌÚ 382" x1="-161" y1="369.82" x2="-161" y2="364.36" gradientTransform="translate(-114.27 -186.08) rotate(-78.88)" xlink:href="#d"/>
  </defs>
  <g style="isolation: isolate;">
    <g id="a" data-name="Layer 1">
      <g>
        <polygon points="294.37 180.82 8.03 179.82 3.17 82.01 292.65 .96 294.37 180.82" style="fill: #5d4354; mix-blend-mode: multiply; opacity: .22; stroke-width: 0px;"/>
        <g>
          <path d="M287.4,171.89c-93.45.48-186.92-.35-280.37,0,0,0-3.39-111.25-3.27-167.09,94.22.85,191.51,1.22,285.75-1.07-2.28,56.17-1.39,112.02-2.11,168.16Z" style="fill: url(#b); stroke-width: 0px;"/>
          <path d="M5.72,169.01L9.46,13.21l278.06,3.99c-.96-7.45,1.48-6.04,1.99-13.47C195.28,6.02,98.02,5.65,3.77,4.8c.7,6.59-.76,157.6,1.95,164.21Z" style="fill: #c9af88; mix-blend-mode: multiply; opacity: .5; stroke-width: 0px;"/>
          <path d="M288.32,172.39c-94.02,1.36-190.43.96-284.46,2.21-.77-.76-.26-.26-1.03-1.02C3.76,116.86,1.24,58.8,0,2.13.57,1.21.77.91,1.34,0c95.71,2.23,195.51,1.68,291.31.96-2.07,56.18-3.82,115.28-4.33,171.43ZM7.27,168.63c90.64-.43,187.49.81,278.12.44l1.88-161.11c-92.15,2.24-190.52-.9-282.67-1.96.58,52.84,2.67,162.64,2.67,162.64Z" style="fill: #b0603f; stroke-width: 0px;"/>
          <path d="M3.86,174.6h.3L5.29.05c-.81-.02-3.14-.04-3.95-.05C.77.91.57,1.21,0,2.13c1.24,56.67,3.76,114.73,2.83,171.45.73.73.41.41,1.03,1.02Z" style="fill: #da8d79; stroke-width: 0px;"/>
          <path d="M290.49,174.61c-95.54.29-191.08-.36-286.62,0C4.5,116.18,2.49,58.35,1.34,0c97.45,1.35,193.8,2.63,291.31.96-2.36,58.01-1.41,115.67-2.16,173.65ZM7.84,170.99c93.87-.36,185.63.47,279.5-.01.72-55.52,2.12-166.29,2.12-166.29-94.66,2.29-189.07.71-283.73-.4l2.12,166.7Z" style="fill: url(#c); stroke-width: 0px;"/>
        </g>
      </g>
      <g>
        <polygon points="76.91 57.3 48.98 60.62 44.99 25.59 71.52 22.37 76.91 57.3" style="fill: #cfc596; mix-blend-mode: multiply; opacity: .5; stroke-width: 0px;"/>
        <rect x="45.47" y="23.85" width="28.03" height="33.46" transform="translate(-4.21 6.99) rotate(-6.5)" style="fill: #b385b5; stroke-width: 0px;"/>
        <polygon points="61.86 67.16 23.75 66.69 23.75 32 60.26 31.6 61.86 67.16" style="fill: #baa596; mix-blend-mode: multiply; opacity: .5; stroke-width: 0px;"/>
        <rect x="22.15" y="31.6" width="38.11" height="33" style="fill: #fee858; stroke-width: 0px;"/>
        <g>
          <path d="M51.66,34.93c.49,1.67,2.27,2.62,3.99,2.12,1.72-.5,2.72-2.26,2.23-3.93-.48-1.67-2.27-2.62-3.99-2.12-1.72.5-2.72,2.26-2.24,3.93Z" style="fill: #b28d8d; mix-blend-mode: multiply; opacity: .5; stroke-width: 0px;"/>
          <path d="M52.47,33.25c.44,1.52,2.15,2.36,3.82,1.87,1.67-.49,2.66-2.11,2.22-3.63-.44-1.52-2.15-2.36-3.82-1.87-1.67.48-2.66,2.11-2.22,3.63Z" style="fill: #c72a34; stroke-width: 0px;"/>
          <path d="M52.47,33.04c.44,1.52,2.15,2.36,3.82,1.87,1.67-.49,2.66-2.11,2.22-3.63-.44-1.52-2.15-2.36-3.82-1.87-1.67.48-2.66,2.11-2.22,3.63Z" style="fill: #de3e35; stroke-width: 0px;"/>
          <path d="M57.34,30.23l.75,1.4s.28,2.09-2.01,2.67c-2.29.58-3.06-1.16-3.06-1.16l-.13-1.62,4.45-1.29Z" style="fill: url(#d); stroke-width: 0px;"/>
          <path d="M52.89,31.52c.32,1.1,1.57,1.7,2.8,1.34,1.23-.36,1.96-1.54,1.64-2.63-.32-1.1-1.57-1.7-2.8-1.34-1.23.36-1.96,1.54-1.65,2.63Z" style="fill: #f04c33; stroke-width: 0px;"/>
        </g>
        <text transform="translate(27.5 47.88) rotate(-7.34)" style="fill: #724866; font-family: MarkerFelt-Thin, &apos;Marker Felt&apos;; font-size: 8.06px; font-weight: 200;"><tspan x="0" y="0">M</tspan><tspan x="7.5" y="0" style="letter-spacing: .05em;">e</tspan><tspan x="10.98" y="0" style="letter-spacing: .08em;">e</tspan><tspan x="14.72" y="0" style="letter-spacing: .07em;">t</tspan><tspan x="18.17" y="0" style="letter-spacing: .05em;">i</tspan><tspan x="20.17" y="0" style="letter-spacing: .03em;">n</tspan><tspan x="24.36" y="0">g</tspan><tspan x="0" y="9.67" style="letter-spacing: -.16em;">7</tspan><tspan x="3.34" y="9.67" style="letter-spacing: -.02em;">:</tspan><tspan x="5.02" y="9.67" style="letter-spacing: 0em;">00 pm</tspan></text>
      </g>
      <g>
        <polygon points="275.29 42.09 278.07 84.77 212.21 84.77 208.5 42.09 275.29 42.09" style="fill: #baa596; mix-blend-mode: multiply; opacity: .5; stroke-width: 0px;"/>
        <rect x="208.5" y="42.09" width="66.88" height="40.94" transform="translate(483.89 125.12) rotate(180)" style="fill: #f4f3e5; stroke-width: 0px;"/>
        <rect x="210.53" y="43.33" width="62.82" height="38.45" transform="translate(483.89 125.12) rotate(180)" style="fill: url(#e); stroke-width: 0px;"/>
        <path d="M263.56,79l-2.93-.67c-.06-.01-.11-.05-.15-.09l-2.19-2.71s-.05-.07-.05-.11l-.31-1.46-.65-.42-3.04,3.9c-.05.06-.12.1-.19.1l-11.07.83c-.09,0-.18-.03-.23-.1l-3.94-5.02-2.16-2.92c-.05-.06-.06-.14-.05-.21.01-.07.06-.14.13-.18l2.41-1.46c.07-.04.15-.05.23-.02l1.78.63c.09.03.16.11.17.2l.49,2.44,2.93,2.22,5.61-.98-8.02-4.01-4.13-1.88h-11.37s-9.2,2.15-9.2,2.15c-.08.02-.16,0-.22-.05l-2.92-2.16c-.08-.06-.12-.16-.11-.26l.51-2.92c.02-.14.16-.24.3-.22l3.76.44,8.93-1.9,8.78-.93,2.88-.66-7.08-4.72-9.63-.38c-.07,0-.14-.03-.18-.08l-3.87-4.06c-.08-.08-.1-.2-.05-.3l1.21-2.54c.03-.07.1-.12.17-.15.08-.02.16,0,.22.04l4.67,3.3,8.9-1.25c.06,0,.12,0,.17.03l12.11,6.83,9.16,6.63-4.31-5.78-6.51-5.5-2.28-1.52c-.07-.05-.11-.12-.12-.21,0-.08.03-.17.1-.22l2.35-1.97c.09-.08.23-.08.33-.02l4.59,3.12,6.31,5.1,7.68,7.87c.08.09.1.22.04.32l-3.09,5.32.45.78h2.22c.06,0,.13.02.17.06l3.47,2.95c.07.06.1.15.09.24l-.33,2.67c-.01.08-.05.15-.12.19l-2.59,1.67s-.09.04-.15.04c-.02,0-.04,0-.06,0ZM266.26,74.52l-3.29-2.79h-2.28c-.1,0-.19-.05-.23-.14l-.6-1.05c-.05-.08-.05-.19,0-.27l3.07-5.28-7.51-7.7-6.26-5.06-4.4-2.99-1.92,1.61,2.01,1.34,6.58,5.57,5.41,7.24c.08.11.07.26-.02.35-.09.1-.24.11-.35.03l-10.56-7.64-12-6.77-8.92,1.26c-.07.01-.14,0-.19-.05l-4.5-3.18-.99,2.08,3.67,3.85,9.6.38s.1.02.14.05l7.67,5.11c.09.06.14.17.12.27-.02.11-.1.19-.2.21l-3.52.81-8.78.93-8.95,1.9s-.06,0-.09,0l-3.55-.41-.44,2.5,2.68,1.98,9.14-2.14h11.49s.08,0,.11.02l4.2,1.91,8.76,4.38c.1.05.16.17.15.28-.02.12-.11.21-.22.23l-6.54,1.14c-.07.01-.15,0-.21-.05l-3.11-2.35c-.05-.04-.09-.1-.1-.16l-.48-2.39-1.51-.54-2.05,1.24,1.98,2.68,3.85,4.9,10.81-.81,3.11-4c.09-.11.24-.14.36-.06l.95.62c.06.04.1.1.12.17l.32,1.51,2.09,2.59,2.73.62,2.39-1.54.3-2.4Z" style="fill: #fff; stroke-width: 0px;"/>
        <g>
          <path d="M272.82,46.91c-.16,1.74-1.73,3.01-3.52,2.84-1.78-.16-3.1-1.7-2.94-3.43.16-1.73,1.73-3.01,3.51-2.84,1.79.16,3.11,1.7,2.95,3.43Z" style="fill: #b28d8d; mix-blend-mode: multiply; opacity: .5; stroke-width: 0px;"/>
          <path d="M272.41,43.93c.44,1.2-.52,2.67-2.15,3.27-1.63.6-3.31.11-3.76-1.09-.45-1.2.52-2.67,2.15-3.27,1.63-.6,3.31-.12,3.76,1.09Z" style="fill: #c72a34; stroke-width: 0px;"/>
          <path d="M272.31,43.47c.44,1.2-.52,2.67-2.15,3.27-1.63.6-3.31.11-3.76-1.09-.45-1.2.52-2.67,2.15-3.27,1.63-.6,3.31-.12,3.76,1.09Z" style="fill: #de3e35; stroke-width: 0px;"/>
          <path d="M266.34,43.09l.41,2.07s.99,1.86,3.17.94c2.18-.92,1.81-2.73,1.81-2.73l-1.05-1.88-4.34,1.61Z" style="fill: url(#f); stroke-width: 0px;"/>
          <path d="M270.68,41.49c.33.88-.38,1.96-1.58,2.41-1.2.44-2.44.08-2.76-.8-.33-.89.38-1.96,1.58-2.41s2.44-.09,2.76.8Z" style="fill: #f04c33; stroke-width: 0px;"/>
        </g>
        <g>
          <path d="M218.69,45.81c-.16,1.74-1.73,3.01-3.52,2.84-1.78-.16-3.1-1.7-2.94-3.43.16-1.73,1.73-3.01,3.51-2.84,1.79.16,3.11,1.7,2.95,3.43Z" style="fill: #b28d8d; mix-blend-mode: multiply; opacity: .5; stroke-width: 0px;"/>
          <path d="M218.28,42.83c.44,1.2-.52,2.67-2.15,3.27-1.63.6-3.31.11-3.76-1.09-.45-1.2.52-2.67,2.15-3.27,1.63-.6,3.31-.12,3.76,1.09Z" style="fill: #c72a34; stroke-width: 0px;"/>
          <path d="M218.18,42.37c.44,1.2-.52,2.67-2.15,3.27-1.63.6-3.31.11-3.76-1.09-.45-1.2.52-2.67,2.15-3.27,1.63-.6,3.31-.12,3.76,1.09Z" style="fill: #de3e35; stroke-width: 0px;"/>
          <path d="M212.22,41.99l.41,2.07s.99,1.86,3.17.94c2.18-.92,1.81-2.73,1.81-2.73l-1.05-1.88-4.34,1.61Z" style="fill: url(#g); stroke-width: 0px;"/>
          <path d="M216.56,40.39c.33.88-.38,1.96-1.58,2.41-1.2.44-2.44.08-2.76-.8-.33-.89.38-1.96,1.58-2.41,1.2-.44,2.44-.09,2.76.8Z" style="fill: #f04c33; stroke-width: 0px;"/>
        </g>
      </g>
    </g>
  </g>
</svg>