<?xml version="1.0" encoding="UTF-8"?>
<svg xmlns="http://www.w3.org/2000/svg" xmlns:xlink="http://www.w3.org/1999/xlink" version="1.1" viewBox="0 0 294.4 180.8">
  <defs>
    <style>
      .cls-1 {
        opacity: .2;
      }

      .cls-1, .cls-2, .cls-3, .cls-4, .cls-5, .cls-6, .cls-7, .cls-8, .cls-9, .cls-10, .cls-11, .cls-12, .cls-13, .cls-14, .cls-15, .cls-16, .cls-17, .cls-18, .cls-19, .cls-20, .cls-21, .cls-22, .cls-23, .cls-24, .cls-25, .cls-26, .cls-27, .cls-28, .cls-29, .cls-30, .cls-31, .cls-32, .cls-33, .cls-34, .cls-35, .cls-36, .cls-37, .cls-38, .cls-39, .cls-40, .cls-41, .cls-42, .cls-43, .cls-44, .cls-45, .cls-46, .cls-47, .cls-48 {
        stroke-width: 0px;
      }

      .cls-1, .cls-2, .cls-3, .cls-30, .cls-34, .cls-36, .cls-37, .cls-42 {
        mix-blend-mode: multiply;
      }

      .cls-1, .cls-44 {
        fill: #5d4354;
      }

      .cls-2 {
        fill: #b28d8d;
      }

      .cls-2, .cls-3, .cls-30, .cls-34, .cls-36 {
        opacity: .5;
      }

      .cls-3 {
        fill: #cfc596;
      }

      .cls-4 {
        fill: #de3e35;
      }

      .cls-5 {
        fill: #da8d79;
      }

      .cls-6 {
        fill: #9d9da3;
      }

      .cls-49 {
        clip-path: url(#clippath);
      }

      .cls-7 {
        fill: #b385b5;
      }

      .cls-8 {
        fill: none;
      }

      .cls-9 {
        fill: #473343;
      }

      .cls-10 {
        mix-blend-mode: color-dodge;
        opacity: .3;
      }

      .cls-10, .cls-33 {
        fill: #c1c3c7;
      }

      .cls-11 {
        fill: url(#linear-gradient);
      }

      .cls-12 {
        fill: #f4f3e5;
      }

      .cls-13 {
        fill: #f4f3e7;
      }

      .cls-14 {
        fill: #f9ab8a;
      }

      .cls-15, .cls-42 {
        fill: #92453f;
      }

      .cls-16 {
        fill: #843b37;
      }

      .cls-17 {
        fill: #fbc29f;
      }

      .cls-50 {
        fill: #724866;
        font-family: MarkerFelt-Thin, 'Marker Felt';
        font-size: 8.1px;
        font-weight: 200;
      }

      .cls-18 {
        fill: #f04c33;
      }

      .cls-19 {
        fill: #f8a284;
      }

      .cls-20 {
        fill: #c72a34;
      }

      .cls-21 {
        fill: #9c9aa6;
      }

      .cls-22 {
        fill: url(#_ÂÁ_Ï_ÌÌ_È_ËÂÌÚ_382);
      }

      .cls-23 {
        fill: url(#_ÂÁ_Ï_ÌÌ_È_ËÂÌÚ_398);
      }

      .cls-24 {
        fill: url(#_ÂÁ_Ï_ÌÌ_È_ËÂÌÚ_365);
      }

      .cls-25 {
        fill: url(#_ÂÁ_Ï_ÌÌ_È_ËÂÌÚ_385);
      }

      .cls-26 {
        fill: url(#_ÂÁ_Ï_ÌÌ_È_ËÂÌÚ_382-4);
      }

      .cls-27 {
        fill: url(#_ÂÁ_Ï_ÌÌ_È_ËÂÌÚ_382-5);
      }

      .cls-28 {
        fill: url(#_ÂÁ_Ï_ÌÌ_È_ËÂÌÚ_382-3);
      }

      .cls-29 {
        fill: url(#_ÂÁ_Ï_ÌÌ_È_ËÂÌÚ_382-2);
      }

      .cls-30 {
        fill: #baa596;
      }

      .cls-31 {
        fill: #d14a45;
      }

      .cls-32 {
        fill: #5d4655;
      }

      .cls-34 {
        fill: #c9af88;
      }

      .cls-35 {
        fill: #b0603f;
      }

      .cls-36 {
        fill: #cfc69c;
      }

      .cls-37 {
        fill: #fdcc98;
        opacity: .2;
      }

      .cls-38 {
        fill: url(#linear-gradient-4);
      }

      .cls-39 {
        fill: url(#linear-gradient-2);
      }

      .cls-40 {
        fill: url(#linear-gradient-3);
      }

      .cls-51 {
        isolation: isolate;
      }

      .cls-41 {
        fill: #fee858;
      }

      .cls-42 {
        opacity: .2;
      }

      .cls-43 {
        fill: #df725f;
      }

      .cls-45 {
        fill: #fff;
      }

      .cls-46 {
        fill: #a53f3b;
      }

      .cls-47 {
        fill: #873138;
      }

      .cls-48 {
        fill: #ca705b;
      }
    </style>
    <linearGradient id="_ÂÁ_Ï_ÌÌ_È_ËÂÌÚ_398" data-name="¡ÂÁ˚ÏˇÌÌ˚È „‡‰ËÂÌÚ 398" x1="146.6" y1="172" x2="146.6" y2="3.7" gradientUnits="userSpaceOnUse">
      <stop offset="0" stop-color="#edb473"/>
      <stop offset="1" stop-color="#e0b595"/>
    </linearGradient>
    <linearGradient id="_ÂÁ_Ï_ÌÌ_È_ËÂÌÚ_365" data-name="¡ÂÁ˚ÏˇÌÌ˚È „‡‰ËÂÌÚ 365" x1="154.7" y1="172.6" x2="154.7" y2="-.9" gradientTransform="translate(-5.2 .9) skewX(-2.4)" gradientUnits="userSpaceOnUse">
      <stop offset="0" stop-color="#c77c50"/>
      <stop offset="1" stop-color="#bf8761"/>
    </linearGradient>
    <linearGradient id="_ÂÁ_Ï_ÌÌ_È_ËÂÌÚ_382" data-name="¡ÂÁ˚ÏˇÌÌ˚È „‡‰ËÂÌÚ 382" x1="-269.2" y1="-231.1" x2="-269.2" y2="-236.7" gradientTransform="translate(-293.4 49.6) rotate(-145.4) scale(.8 -.9) skewX(16.1)" gradientUnits="userSpaceOnUse">
      <stop offset="0" stop-color="#c72a34"/>
      <stop offset="1" stop-color="#f04c33"/>
    </linearGradient>
    <linearGradient id="_ÂÁ_Ï_ÌÌ_È_ËÂÌÚ_385" data-name="¡ÂÁ˚ÏˇÌÌ˚È „‡‰ËÂÌÚ 385" x1="-320" y1="84" x2="-280.4" y2="44.4" gradientTransform="translate(550.8 134.3) scale(1 -1)" gradientUnits="userSpaceOnUse">
      <stop offset="0" stop-color="#846d7b"/>
      <stop offset="1" stop-color="#937c87"/>
    </linearGradient>
    <linearGradient id="_ÂÁ_Ï_ÌÌ_È_ËÂÌÚ_382-2" data-name="¡ÂÁ˚ÏˇÌÌ˚È „‡‰ËÂÌÚ 382" x1="-155.1" y1="429.5" x2="-155.1" y2="424.1" gradientTransform="translate(-114.3 -186.1) rotate(-78.9)" xlink:href="#_ÂÁ_Ï_ÌÌ_È_ËÂÌÚ_382"/>
    <linearGradient id="_ÂÁ_Ï_ÌÌ_È_ËÂÌÚ_382-3" data-name="¡ÂÁ˚ÏˇÌÌ˚È „‡‰ËÂÌÚ 382" x1="-164.4" y1="376.2" x2="-164.4" y2="370.8" gradientTransform="translate(-114.3 -186.1) rotate(-78.9)" xlink:href="#_ÂÁ_Ï_ÌÌ_È_ËÂÌÚ_382"/>
    <linearGradient id="linear-gradient" x1="-402.3" y1="1131.6" x2="-382.3" y2="1131.6" gradientTransform="translate(1233.5 -540.4) rotate(36.7)" gradientUnits="userSpaceOnUse">
      <stop offset="0" stop-color="#c5c7cd"/>
      <stop offset="0" stop-color="#babdc1"/>
      <stop offset=".1" stop-color="#afb3b3"/>
      <stop offset=".2" stop-color="#abb0af"/>
      <stop offset=".6" stop-color="#c5c7cd"/>
      <stop offset=".8" stop-color="#c0c3c8"/>
      <stop offset=".9" stop-color="#b4b8b9"/>
      <stop offset="1" stop-color="#abb0af"/>
    </linearGradient>
    <linearGradient id="linear-gradient-2" x1="-384.5" y1="1131.3" x2="-370.4" y2="1131.3" gradientTransform="translate(1233.5 -540.4) rotate(36.7)" gradientUnits="userSpaceOnUse">
      <stop offset="0" stop-color="#9f6a3f"/>
      <stop offset="1" stop-color="#ab7a3d"/>
    </linearGradient>
    <linearGradient id="_ÂÁ_Ï_ÌÌ_È_ËÂÌÚ_382-4" data-name="¡ÂÁ˚ÏˇÌÌ˚È „‡‰ËÂÌÚ 382" x1="-522.8" y1="-278" x2="-522.8" y2="-281.3" xlink:href="#_ÂÁ_Ï_ÌÌ_È_ËÂÌÚ_382"/>
    <clipPath id="clippath">
      <polygon id="SVGID" class="cls-8" points="104.1 66.5 144.3 65.2 144.4 19.8 104.2 21.1 104.1 66.5"/>
    </clipPath>
    <linearGradient id="linear-gradient-3" x1="-89.5" y1="99.7" x2="-89.5" y2="77.6" gradientTransform="translate(239.9 -22.2) rotate(15.2) skewX(-3)" gradientUnits="userSpaceOnUse">
      <stop offset="0" stop-color="#fcc6a4"/>
      <stop offset=".5" stop-color="#fbc3a1"/>
      <stop offset=".8" stop-color="#fabc9a"/>
      <stop offset="1" stop-color="#f9af8e"/>
      <stop offset="1" stop-color="#f9ab8a"/>
    </linearGradient>
    <linearGradient id="linear-gradient-4" x1="124.9" y1="44.2" x2="130.9" y2="44.2" gradientTransform="matrix(1,0,0,1,0,0)" xlink:href="#linear-gradient-3"/>
    <linearGradient id="_ÂÁ_Ï_ÌÌ_È_ËÂÌÚ_382-5" data-name="¡ÂÁ˚ÏˇÌÌ˚È „‡‰ËÂÌÚ 382" x1="-240.2" y1="-380.6" x2="-240.2" y2="-386.1" gradientTransform="translate(-328.3 54.6) rotate(-126.6) scale(1 -1)" xlink:href="#_ÂÁ_Ï_ÌÌ_È_ËÂÌÚ_382"/>
  </defs>
  <g class="cls-51">
    <g id="Layer_1" data-name="Layer 1">
      <g>
        <polygon class="cls-1" points="294.4 180.8 8 179.8 3.2 82 292.6 1 294.4 180.8"/>
        <g>
          <path class="cls-23" d="M287.4,171.9c-93.5.5-186.9-.4-280.4,0,0,0-3.4-111.3-3.3-167.1,94.2.9,191.5,1.2,285.7-1.1-2.3,56.2-1.4,112-2.1,168.2Z"/>
          <path class="cls-34" d="M5.7,169L9.5,13.2l278.1,4c-1-7.4,1.5-6,2-13.5C195.3,6,98,5.7,3.8,4.8c.7,6.6-.8,157.6,2,164.2Z"/>
          <path class="cls-35" d="M288.3,172.4c-94,1.4-190.4,1-284.5,2.2-.8-.8-.3-.3-1-1C3.8,116.9,1.2,58.8,0,2.1.6,1.2.8.9,1.3,0c95.7,2.2,195.5,1.7,291.3,1-2.1,56.2-3.8,115.3-4.3,171.4ZM7.3,168.6c90.6-.4,187.5.8,278.1.4l1.9-161.1c-92.2,2.2-190.5-.9-282.7-2,.6,52.8,2.7,162.6,2.7,162.6Z"/>
          <path class="cls-5" d="M3.9,174.6h.3L5.3,0c-.8,0-3.1,0-3.9,0C.8.9.6,1.2,0,2.1c1.2,56.7,3.8,114.7,2.8,171.4.7.7.4.4,1,1Z"/>
          <path class="cls-24" d="M290.5,174.6c-95.5.3-191.1-.4-286.6,0C4.5,116.2,2.5,58.4,1.3,0c97.4,1.4,193.8,2.6,291.3,1-2.4,58-1.4,115.7-2.2,173.6ZM7.8,171c93.9-.4,185.6.5,279.5,0,.7-55.5,2.1-166.3,2.1-166.3-94.7,2.3-189.1.7-283.7-.4l2.1,166.7Z"/>
        </g>
      </g>
      <g>
        <polygon class="cls-3" points="76.9 57.3 49 60.6 45 25.6 71.5 22.4 76.9 57.3"/>
        <rect class="cls-7" x="45.5" y="23.8" width="28" height="33.5" transform="translate(-4.2 7) rotate(-6.5)"/>
        <polygon class="cls-30" points="61.9 67.2 23.8 66.7 23.8 32 60.3 31.6 61.9 67.2"/>
        <rect class="cls-41" x="22.1" y="31.6" width="38.1" height="33"/>
        <g>
          <path class="cls-2" d="M51.7,34.9c.5,1.7,2.3,2.6,4,2.1,1.7-.5,2.7-2.3,2.2-3.9-.5-1.7-2.3-2.6-4-2.1-1.7.5-2.7,2.3-2.2,3.9Z"/>
          <path class="cls-20" d="M52.5,33.3c.4,1.5,2.2,2.4,3.8,1.9,1.7-.5,2.7-2.1,2.2-3.6-.4-1.5-2.2-2.4-3.8-1.9-1.7.5-2.7,2.1-2.2,3.6Z"/>
          <path class="cls-4" d="M52.5,33c.4,1.5,2.2,2.4,3.8,1.9,1.7-.5,2.7-2.1,2.2-3.6-.4-1.5-2.2-2.4-3.8-1.9-1.7.5-2.7,2.1-2.2,3.6Z"/>
          <path class="cls-22" d="M57.3,30.2l.8,1.4s.3,2.1-2,2.7c-2.3.6-3.1-1.2-3.1-1.2v-1.6c-.1,0,4.3-1.3,4.3-1.3Z"/>
          <path class="cls-18" d="M52.9,31.5c.3,1.1,1.6,1.7,2.8,1.3,1.2-.4,2-1.5,1.6-2.6-.3-1.1-1.6-1.7-2.8-1.3-1.2.4-2,1.5-1.6,2.6Z"/>
        </g>
        <text class="cls-50" transform="translate(27.5 47.9) rotate(-7.3)"><tspan x="0" y="0">Meeting</tspan><tspan x="0" y="9.7">7:00 pm</tspan></text>
      </g>
      <g>
        <polygon class="cls-30" points="280.9 46.7 283.7 89.4 217.8 89.4 214.1 46.7 280.9 46.7"/>
        <rect class="cls-12" x="214.1" y="46.7" width="66.9" height="40.9" transform="translate(495.1 134.3) rotate(180)"/>
        <rect class="cls-25" x="216.2" y="47.9" width="62.8" height="38.5" transform="translate(495.1 134.3) rotate(180)"/>
        <path class="cls-45" d="M269.2,83.6l-2.9-.7c0,0-.1,0-.2,0l-2.2-2.7s0,0,0-.1l-.3-1.5-.7-.4-3,3.9c0,0-.1,0-.2.1l-11.1.8c0,0-.2,0-.2-.1l-3.9-5-2.2-2.9c0,0,0-.1,0-.2,0,0,0-.1.1-.2l2.4-1.5c0,0,.2,0,.2,0l1.8.6c0,0,.2.1.2.2l.5,2.4,2.9,2.2,5.6-1-8-4-4.1-1.9h-11.4s-9.2,2.2-9.2,2.2c0,0-.2,0-.2,0l-2.9-2.2c0,0-.1-.2-.1-.3l.5-2.9c0-.1.2-.2.3-.2l3.8.4,8.9-1.9,8.8-.9,2.9-.7-7.1-4.7-9.6-.4c0,0-.1,0-.2,0l-3.9-4.1c0,0,0-.2,0-.3l1.2-2.5c0,0,0-.1.2-.1,0,0,.2,0,.2,0l4.7,3.3,8.9-1.3c0,0,.1,0,.2,0l12.1,6.8,9.2,6.6-4.3-5.8-6.5-5.5-2.3-1.5c0,0-.1-.1-.1-.2,0,0,0-.2,0-.2l2.3-2c0,0,.2,0,.3,0l4.6,3.1,6.3,5.1,7.7,7.9c0,0,.1.2,0,.3l-3.1,5.3.4.8h2.2c0,0,.1,0,.2,0l3.5,3c0,0,.1.1,0,.2l-.3,2.7c0,0,0,.2-.1.2l-2.6,1.7s0,0-.1,0,0,0,0,0ZM271.9,79.1l-3.3-2.8h-2.3c0,0-.2,0-.2-.1l-.6-1c0,0,0-.2,0-.3l3.1-5.3-7.5-7.7-6.3-5.1-4.4-3-1.9,1.6,2,1.3,6.6,5.6,5.4,7.2c0,.1,0,.3,0,.4,0,0-.2.1-.4,0l-10.6-7.6-12-6.8-8.9,1.3c0,0-.1,0-.2,0l-4.5-3.2-1,2.1,3.7,3.8,9.6.4s0,0,.1,0l7.7,5.1c0,0,.1.2.1.3,0,.1,0,.2-.2.2l-3.5.8-8.8.9-8.9,1.9s0,0,0,0l-3.6-.4-.4,2.5,2.7,2,9.1-2.1h11.5s0,0,.1,0l4.2,1.9,8.8,4.4c.1,0,.2.2.1.3,0,.1-.1.2-.2.2l-6.5,1.1c0,0-.1,0-.2,0l-3.1-2.3c0,0,0,0-.1-.2l-.5-2.4-1.5-.5-2,1.2,2,2.7,3.8,4.9,10.8-.8,3.1-4c0-.1.2-.1.4,0l1,.6c0,0,.1,0,.1.2l.3,1.5,2.1,2.6,2.7.6,2.4-1.5.3-2.4Z"/>
        <g>
          <path class="cls-2" d="M278.4,51.5c-.2,1.7-1.7,3-3.5,2.8-1.8-.2-3.1-1.7-2.9-3.4.2-1.7,1.7-3,3.5-2.8,1.8.2,3.1,1.7,2.9,3.4Z"/>
          <path class="cls-20" d="M278,48.5c.4,1.2-.5,2.7-2.1,3.3-1.6.6-3.3.1-3.8-1.1-.4-1.2.5-2.7,2.1-3.3,1.6-.6,3.3-.1,3.8,1.1Z"/>
          <path class="cls-4" d="M277.9,48.1c.4,1.2-.5,2.7-2.1,3.3-1.6.6-3.3.1-3.8-1.1-.4-1.2.5-2.7,2.1-3.3,1.6-.6,3.3-.1,3.8,1.1Z"/>
          <path class="cls-29" d="M272,47.7l.4,2.1s1,1.9,3.2.9c2.2-.9,1.8-2.7,1.8-2.7l-1-1.9-4.3,1.6Z"/>
          <path class="cls-18" d="M276.3,46.1c.3.9-.4,2-1.6,2.4-1.2.4-2.4,0-2.8-.8-.3-.9.4-2,1.6-2.4s2.4,0,2.8.8Z"/>
        </g>
        <g>
          <path class="cls-2" d="M224.3,50.4c-.2,1.7-1.7,3-3.5,2.8-1.8-.2-3.1-1.7-2.9-3.4.2-1.7,1.7-3,3.5-2.8,1.8.2,3.1,1.7,2.9,3.4Z"/>
          <path class="cls-20" d="M223.9,47.4c.4,1.2-.5,2.7-2.1,3.3-1.6.6-3.3.1-3.8-1.1-.4-1.2.5-2.7,2.1-3.3,1.6-.6,3.3-.1,3.8,1.1Z"/>
          <path class="cls-4" d="M223.8,47c.4,1.2-.5,2.7-2.1,3.3-1.6.6-3.3.1-3.8-1.1-.4-1.2.5-2.7,2.1-3.3,1.6-.6,3.3-.1,3.8,1.1Z"/>
          <path class="cls-28" d="M217.8,46.6l.4,2.1s1,1.9,3.2.9c2.2-.9,1.8-2.7,1.8-2.7l-1-1.9-4.3,1.6Z"/>
          <path class="cls-18" d="M222.2,45c.3.9-.4,2-1.6,2.4-1.2.4-2.4,0-2.8-.8-.3-.9.4-2,1.6-2.4,1.2-.4,2.4,0,2.8.8Z"/>
        </g>
      </g>
      <g>
        <g>
          <polygon class="cls-30" points="264.7 122 266.5 151.7 232.5 149.8 231.8 123.3 264.7 122"/>
          <polygon class="cls-12" points="231.3 121.5 231.1 149.5 265.1 149 265.2 120.6 231.3 121.5"/>
          <polygon class="cls-44" points="232.9 122.8 232.8 147.7 263.8 147.6 263.5 122 232.9 122.8"/>
          <g>
            <path class="cls-15" d="M259.6,146.2c-.5,0-1.1,0-1.6-.2-2.1-1-2.7-2.4-4.3-4.2-1.3-1.3-1.7,0-4.6-3-1.1-1.1,1.6-2.4,1.6-2.4,0,0,7.2,5.2,9.9,7.2,1.3,1-.4,2.4-1,2.5Z"/>
            <path class="cls-6" d="M235.2,124.4l16.7,12.4-3.6,3s-8-5.8-10.1-8c-3.7-3.9-3-7.5-3-7.5Z"/>
            <path class="cls-11" d="M238.9,131.5c2,2,9,7.2,10,7.9l3-2.5-16-12c0,1.3.5,3.9,3.1,6.6Z"/>
            <path class="cls-10" d="M245.9,132.4c-.2,1.4-.4,2.9-.5,4.4.3.2.6.5.9.7.2-1.5.4-2.9.5-4.4l-.9-.7Z"/>
            <path class="cls-10" d="M245.1,131.8l-1.5-1.1c0,1.5,0,3-.2,4.6.4.3.9.7,1.3,1,.1-1.5.3-3,.4-4.5Z"/>
            <path class="cls-39" d="M259.6,145.7c-.5,0-1.1,0-1.6-.2-2.1-1-2.7-2.4-4.4-4.2-1.3-1.3-1.7,0-4.6-3-1.1-1.1,1.6-2.4,1.6-2.4,0,0,7.2,5.2,9.9,7.2,1.3,1-.4,2.4-1,2.5Z"/>
            <path class="cls-42" d="M258,145.5c.5.2,1.1.2,1.6.2.5,0,1.5-.9,1.5-1.7-1,1.8-4.2.6-5.2-.7-1.2-1.5-2.3-2.7-4-3.4-1.4-.6-2.3-1.6-2.8-2.6-.2.4-.3.7,0,1.1,3,3,3.4,1.8,4.6,3,1.7,1.7,2.3,3.1,4.4,4.2Z"/>
            <path class="cls-33" d="M251.4,138c-.1.2-.4.2-.6,0-.2-.1-.2-.4,0-.6.1-.2.4-.2.6,0,.2.1.2.4,0,.6Z"/>
            <path class="cls-33" d="M254.7,140.3c-.1.2-.4.2-.6,0-.2-.1-.2-.4,0-.6.1-.2.4-.2.6,0,.2.1.2.4,0,.6Z"/>
            <path class="cls-33" d="M258.1,142.8c-.1.2-.4.2-.6,0-.2-.1-.2-.4,0-.6.1-.2.4-.2.6,0,.2.1.2.4,0,.6Z"/>
            <g>
              <path class="cls-31" d="M241.1,132.4c.3-.3-.7-1.1-1-.7-.2.3.7,1,1,.7Z"/>
              <path class="cls-31" d="M241.8,131.4c-.2.5.9.9,1.2.6.3-.3-1.1-1-1.2-.6Z"/>
              <path class="cls-31" d="M235.2,124.4s-.6,2.8,1.9,6.1c.2-.2.4-.4.6-.3.7,0,.9,1.9,1.5,1.5.7-.4-1.6-2-1.2-2.3.3-.3,1.4,1.5,1.8,1.1.3-.3-2.2-2.2-1.8-2.6.4-.4.6,1.3,1.1,1,.5-.3,2.4,2.3,2.7,1.9.2-.5-.1-.8-1.4-1.4-.9-.5-1.2-1.3-.9-1.6l-4.3-3.2Z"/>
            </g>
          </g>
        </g>
        <g>
          <path class="cls-2" d="M257.7,124c.3,1,1.3,1.5,2.4,1.2,1-.3,1.6-1.3,1.3-2.3-.3-1-1.3-1.5-2.4-1.2-1,.3-1.6,1.3-1.3,2.3Z"/>
          <path class="cls-20" d="M258.4,123.3c.3.9,1.3,1.4,2.3,1.1,1-.3,1.6-1.2,1.3-2.1-.3-.9-1.3-1.4-2.3-1.1-1,.3-1.6,1.2-1.3,2.1Z"/>
          <path class="cls-4" d="M258.4,123.2c.3.9,1.3,1.4,2.3,1.1,1-.3,1.6-1.2,1.3-2.1-.3-.9-1.3-1.4-2.3-1.1-1,.3-1.6,1.2-1.3,2.1Z"/>
          <path class="cls-26" d="M261.2,121.6l.4.8s.2,1.2-1.2,1.6c-1.3.3-1.8-.7-1.8-.7v-1c0,0,2.5-.8,2.5-.8Z"/>
          <path class="cls-18" d="M258.6,122.3c.2.6.9,1,1.7.8.7-.2,1.2-.9,1-1.6-.2-.6-.9-1-1.7-.8-.7.2-1.2.9-1,1.6Z"/>
        </g>
      </g>
      <g>
        <polygon class="cls-36" points="142.5 19.2 144.3 73.7 98.6 71.4 102.5 20.6 142.5 19.2"/>
        <polygon class="cls-13" points="146.1 17.1 147.2 69.6 101.5 69.7 101.8 19 146.1 17.1"/>
        <g class="cls-49">
          <polygon class="cls-21" points="101.8 69.2 146.6 67.7 146.7 17.1 101.9 18.5 101.8 69.2"/>
          <g>
            <polygon class="cls-14" points="118.1 43.4 118.6 52.1 124.7 53.3 130.7 52.4 131.2 45.5 118.1 43.4"/>
            <path class="cls-32" d="M119.2,50.7c-.6-.5-1.5-2.4-1.6-.8,0,1.7-4.5,2.5-6.1,3.4-1.6.9-7.6,4.5-8.5,7.1-.9,2.6.6,5.8.6,5.8,0,0,13.7,2.1,24.7.3,11-1.8,16.6,2.6,17,.6.4-1.9-.9-10.6-5.3-11.1-3.9-.4-9.1-5.7-9.1-5.7,0,0,0,2-4.3,2.2-4.3.2-6.6-1.1-7.3-1.8Z"/>
            <path class="cls-9" d="M132.8,51.8s-2.7,2.5-3.1,7.1c-.3,4.6-.3,7.2-.3,7.2l15.9-.6s-1-6.5-2-8c-1-1.5-5.9-2.7-5.9-2.7l-4.6-2.9Z"/>
            <path class="cls-9" d="M116.6,51.1s3.5.6,6.3,6.7c2.8,6.1,2.1,9.9,2.1,9.9l-22.4.4,1-9.5s6.2-6,13.1-7.4Z"/>
            <path class="cls-19" d="M133.1,36c.6-.7,2.5-.5,2.9,1,.3,1.1-.2,3.5-1.5,5.3-.5.8-1.4-.1-1.7-.5-.9-1.5-1.6-3.4.3-5.8Z"/>
            <path class="cls-40" d="M128.8,50.1c6.7-.8,4.9-4.3,5.3-8.6.3-3.2,1.2-11.5,1.2-11.5l-17.5.5s-1.5,11.4.8,15.5c2.3,4.1,7,4.6,10.1,4.2Z"/>
            <path class="cls-37" d="M128.8,50.1c-.9-.2-1.6-.4-2-.6-3.8-1.6-4.6-4.7-5-8.2-.2-2.1.6-7.5,2-8.7,10,1.9,11.6-2.6,11.6-2.6l-17.5.5s-1.5,11.4.8,15.5c2.3,4.1,7,4.6,10.1,4.2Z"/>
            <path class="cls-19" d="M129.8,45.2c-.2-.9-2.2-.4-2.1.1,0,.3.5,0,1.1,0,.6,0,1.1.2,1.1-.1Z"/>
            <path class="cls-14" d="M117.8,35.8c-.9-.5-3.5.7-2.9,2.5.6,1.9,1.2,3.8,2,4.4,1,.7,1.9,0,2.2-.4.9-1.4.8-5.5-1.2-6.5Z"/>
            <g>
              <polygon class="cls-14" points="127.3 41.3 128.8 41.8 130.3 40.7 129.5 37.4 128 35.8 127.3 41.3"/>
              <path class="cls-48" d="M127.3,41.3c.5.1,1,.2,1.5.3h-.1c.5-.4,1-.8,1.5-1.2v.2c-.2-.5-.4-1.1-.5-1.6-.1-.6-.3-1.1-.4-1.7h0c-.5-.5-.9-1-1.4-1.6.6.4,1.1.9,1.6,1.4.2.6.4,1.2.5,1.7.2.5.3,1.1.4,1.6v.2s0,0,0,0c-.5.4-1.1.7-1.6,1h0c-.5-.2-1-.4-1.5-.6Z"/>
            </g>
            <polygon class="cls-48" points="127.3 41.2 128.2 41.6 128.2 40.9 127.5 40.8 127.3 41.2"/>
            <path class="cls-16" d="M121.5,36s.3-.3.8-.5c.1,0,.3-.1.4-.2.2,0,.3-.1.5-.2.3,0,.7-.1,1.1-.1.4,0,.7,0,1.1.1.3,0,.6.2.9.3.5.3.7.4.7.4l-.2.9h-5s-.2-.8-.2-.8Z"/>
            <path class="cls-16" d="M129.5,35.6s0,0,.2-.1c.1,0,.3-.2.5-.3.2,0,.5-.2.7-.3.1,0,.3,0,.4-.1h.2c0,0,.3-.1.3-.1.3,0,.6,0,.9,0,.3,0,.6,0,.8,0,.4.1.7.3.7.3l-.2,1.3-4.4.3-.2-1Z"/>
            <path class="cls-48" d="M115.6,37.6c.2-.3.4-.6.7-.9.2-.1.4-.2.6-.1.1,0,.2,0,.3.1,0,0,.2.1.2.2.1.1.3.3.3.5,0,.2.1.4.2.6,0,.4,0,.8,0,1.2,0,0,0,0,0,.1-.3.3-.5.5-.3.8.2.3.5.6.8.9-.4,0-.9-.3-1.2-.6-.1-.2-.2-.5-.2-.8,0-.3.3-.5.5-.6h0c.1-.2.2-.5.2-.8,0-.3-.1-.7-.3-.9,0,0-.1-.1-.2-.2,0,0-.1,0-.2-.1-.1,0-.3,0-.5,0-.3.2-.6.4-.8.7Z"/>
            <path class="cls-43" d="M126.2,44s.4,0,.8-.2c.2,0,.4-.1.7-.2.3,0,.6,0,.9-.1.3,0,.6,0,.9,0,.3,0,.6.1.8.2.4.2.7.3.7.3,0,0-.3,0-.7-.1-.2,0-.4,0-.7,0-.3,0-.6,0-.9,0-.3,0-.6,0-.9,0-.3,0-.6,0-.8,0-.2,0-.4,0-.5,0-.1,0-.2,0-.2,0Z"/>
            <g>
              <path class="cls-9" d="M125.1,38.3c0,.5-.3.8-.7.8-.5,0-.7-.5-.7-.9,0-.5.4-.8.8-.8.4,0,.7.5.6.9Z"/>
              <path class="cls-9" d="M123.4,37.4c0,0-.1,0-.1,0,0,0,0-.2,0-.2,0,0,1.4-1,2.1,0,0,0,0,.2,0,.2,0,0-.2,0-.2,0-.4-.6-1.6.1-1.6.1,0,0,0,0-.1,0Z"/>
            </g>
            <polygon class="cls-17" points="125.2 37.6 124.7 38.3 125.4 38.6 125.2 37.6"/>
            <g>
              <path class="cls-9" d="M132.3,38.2c0,.5-.3.8-.7.8-.6,0-.7-.5-.7-.9,0-.5.4-.8.8-.8.4,0,.7.5.6.9Z"/>
              <path class="cls-9" d="M130.6,37.3c0,0,0,0-.1,0,0,0,0-.2,0-.2,0,0,1.3-.9,2.1,0,0,0,0,.2,0,.2,0,0-.2,0-.2,0-.6-.6-1.6.1-1.6.1,0,0,0,0-.1,0Z"/>
            </g>
            <polygon class="cls-17" points="132.4 37.4 131.8 38.2 132.6 38.4 132.4 37.4"/>
          </g>
          <path class="cls-46" d="M119.8,35.6s-.4,5.9,1.1,6.5c1.4.6,5.4-.1,7.2,0,1.8,0,4.8-.3,5.2-.2.3,0,1.5-5.7,1.5-5.7,0,0-.8,5.9-.6,8.3.2,2.5.4,4.9-2.2,5.8-2.6.9-8.8,2-12-1.2s-3-6.4-3-6.4c0,0,2.2-.6,2.2-2.3s-.6-4-.6-4l1.3-.7Z"/>
          <path class="cls-38" d="M124.9,44c.2-.8,5.3-1.1,5.8-.4s-1,1.3-2.6,1.4-3.4-.2-3.2-1Z"/>
          <path class="cls-43" d="M125.6,44.3s.4-.1.8-.3c.2,0,.4-.2.7-.2.3,0,.6-.1.9-.2.3,0,.6,0,.9-.1.3,0,.6,0,.8.1.4.1.7.3.7.3,0,0-.3,0-.7,0-.2,0-.4,0-.7,0-.3,0-.6.1-.8.1-.3,0-.6,0-.9.1-.3,0-.6,0-.8,0-.2,0-.4,0-.5,0-.1,0-.2,0-.2,0Z"/>
          <path class="cls-46" d="M115.5,36.1s-1.3-4.6-.5-6.7c.7-2,6.8-4.3,10.1-4.4,3.3,0,9.4,2,10.2,2.4.7.3-.4,9.1-.4,9.1,0,0,.3-5.2-3-5.4-3.3-.2-10.9-.1-11.3.7-.4.9-.8,5-.8,5l-1,.3s-.6-2.4-3.2-1.1Z"/>
          <path class="cls-47" d="M124.7,49.5c-3.6-1.1-5.8-3.9-6.8-7.4-.5.4-1.1.5-1.1.5,0,0-.1,3.1,3,6.4,3.2,3.2,9.4,2.1,12,1.2.9-.3,1.5-.8,1.8-1.4-3,.8-6.1,1.2-9,.8Z"/>
          <path class="cls-47" d="M114.9,29.5c-.7,2,.5,6.7.5,6.7.8-.4,1.4-.4,1.9-.3.3-3.6,1.5-7.2,3.5-9.9-2.7.9-5.5,2.3-5.9,3.6Z"/>
        </g>
        <g>
          <path class="cls-2" d="M117.8,21.6c.2,1.7,1.7,3,3.5,2.8,1.8-.2,3.1-1.7,2.9-3.4-.2-1.7-1.7-3-3.5-2.8-1.8.2-3.1,1.7-2.9,3.4Z"/>
          <path class="cls-20" d="M119.7,20.5c.1,1.3,1.6,2.2,3.3,2,1.7-.2,3-1.3,2.9-2.6-.1-1.3-1.6-2.2-3.3-2-1.7.2-3,1.3-2.9,2.6Z"/>
          <path class="cls-4" d="M119.6,20c.1,1.3,1.6,2.2,3.3,2,1.7-.2,3-1.3,2.9-2.6-.1-1.3-1.6-2.2-3.3-2-1.7.2-3,1.3-2.9,2.6Z"/>
          <path class="cls-27" d="M124.8,17.1l.5,2s0,2.1-2.5,2.2c-2.4.1-2.8-1.7-2.8-1.7v-2.1c.1,0,4.7-.4,4.7-.4Z"/>
          <path class="cls-18" d="M120.2,17.5c0,.9,1.2,1.6,2.5,1.5,1.3-.1,2.2-1,2.2-1.9,0-.9-1.2-1.6-2.5-1.5-1.3.1-2.2,1-2.2,1.9Z"/>
        </g>
      </g>
    </g>
  </g>
</svg>