<?xml version="1.0" encoding="UTF-8"?>
<svg xmlns="http://www.w3.org/2000/svg" xmlns:xlink="http://www.w3.org/1999/xlink" viewBox="0 0 294.37 180.82">
  <defs>
    <linearGradient id="b" data-name="¡ÂÁ˚ÏˇÌÌ˚È „‡‰ËÂÌÚ 398" x1="146.64" y1="172.04" x2="146.64" y2="3.73" gradientUnits="userSpaceOnUse">
      <stop offset="0" stop-color="#edb473"/>
      <stop offset="1" stop-color="#e0b595"/>
    </linearGradient>
    <linearGradient id="c" data-name="¡ÂÁ˚ÏˇÌÌ˚È „‡‰ËÂÌÚ 365" x1="154.69" y1="172.64" x2="154.69" y2="-.9" gradientTransform="translate(-5.24 .9) skewX(-2.36)" gradientUnits="userSpaceOnUse">
      <stop offset="0" stop-color="#c77c50"/>
      <stop offset="1" stop-color="#bf8761"/>
    </linearGradient>
    <linearGradient id="d" data-name="¡ÂÁ˚ÏˇÌÌ˚È „‡‰ËÂÌÚ 382" x1="-269.24" y1="-231.08" x2="-269.24" y2="-236.73" gradientTransform="translate(-293.35 49.57) rotate(-145.43) scale(.82 -.91) skewX(16.07)" gradientUnits="userSpaceOnUse">
      <stop offset="0" stop-color="#c72a34"/>
      <stop offset="1" stop-color="#f04c33"/>
    </linearGradient>
  </defs>
  <g style="isolation: isolate;">
    <g id="a" data-name="Layer 1">
      <g>
        <polygon points="294.37 180.82 8.03 179.82 3.17 82.01 292.65 .96 294.37 180.82" style="fill: #5d4354; mix-blend-mode: multiply; opacity: .22; stroke-width: 0px;"/>
        <g>
          <path d="M287.4,171.89c-93.45.48-186.92-.35-280.37,0,0,0-3.39-111.25-3.27-167.09,94.22.85,191.51,1.22,285.75-1.07-2.28,56.17-1.39,112.02-2.11,168.16Z" style="fill: url(#b); stroke-width: 0px;"/>
          <path d="M5.72,169.01L9.46,13.21l278.06,3.99c-.96-7.45,1.48-6.04,1.99-13.47C195.28,6.02,98.02,5.65,3.77,4.8c.7,6.59-.76,157.6,1.95,164.21Z" style="fill: #c9af88; mix-blend-mode: multiply; opacity: .5; stroke-width: 0px;"/>
          <path d="M288.32,172.39c-94.02,1.36-190.43.96-284.46,2.21-.77-.76-.26-.26-1.03-1.02C3.76,116.86,1.24,58.8,0,2.13.57,1.21.77.91,1.34,0c95.71,2.23,195.51,1.68,291.31.96-2.07,56.18-3.82,115.28-4.33,171.43ZM7.27,168.63c90.64-.43,187.49.81,278.12.44l1.88-161.11c-92.15,2.24-190.52-.9-282.67-1.96.58,52.84,2.67,162.64,2.67,162.64Z" style="fill: #b0603f; stroke-width: 0px;"/>
          <path d="M3.86,174.6h.3L5.29.05c-.81-.02-3.14-.04-3.95-.05C.77.91.57,1.21,0,2.13c1.24,56.67,3.76,114.73,2.83,171.45.73.73.41.41,1.03,1.02Z" style="fill: #da8d79; stroke-width: 0px;"/>
          <path d="M290.49,174.61c-95.54.29-191.08-.36-286.62,0C4.5,116.18,2.49,58.35,1.34,0c97.45,1.35,193.8,2.63,291.31.96-2.36,58.01-1.41,115.67-2.16,173.65ZM7.84,170.99c93.87-.36,185.63.47,279.5-.01.72-55.52,2.12-166.29,2.12-166.29-94.66,2.29-189.07.71-283.73-.4l2.12,166.7Z" style="fill: url(#c); stroke-width: 0px;"/>
        </g>
      </g>
      <g>
        <polygon points="76.91 57.3 48.98 60.62 44.99 25.59 71.52 22.37 76.91 57.3" style="fill: #cfc596; mix-blend-mode: multiply; opacity: .5; stroke-width: 0px;"/>
        <rect x="45.47" y="23.85" width="28.03" height="33.46" transform="translate(-4.21 6.99) rotate(-6.5)" style="fill: #b385b5; stroke-width: 0px;"/>
        <polygon points="61.86 67.16 23.75 66.69 23.75 32 60.26 31.6 61.86 67.16" style="fill: #baa596; mix-blend-mode: multiply; opacity: .5; stroke-width: 0px;"/>
        <rect x="22.15" y="31.6" width="38.11" height="33" style="fill: #fee858; stroke-width: 0px;"/>
        <g>
          <path d="M51.66,34.93c.49,1.67,2.27,2.62,3.99,2.12,1.72-.5,2.72-2.26,2.23-3.93-.48-1.67-2.27-2.62-3.99-2.12-1.72.5-2.72,2.26-2.24,3.93Z" style="fill: #b28d8d; mix-blend-mode: multiply; opacity: .5; stroke-width: 0px;"/>
          <path d="M52.47,33.25c.44,1.52,2.15,2.36,3.82,1.87,1.67-.49,2.66-2.11,2.22-3.63-.44-1.52-2.15-2.36-3.82-1.87-1.67.48-2.66,2.11-2.22,3.63Z" style="fill: #c72a34; stroke-width: 0px;"/>
          <path d="M52.47,33.04c.44,1.52,2.15,2.36,3.82,1.87,1.67-.49,2.66-2.11,2.22-3.63-.44-1.52-2.15-2.36-3.82-1.87-1.67.48-2.66,2.11-2.22,3.63Z" style="fill: #de3e35; stroke-width: 0px;"/>
          <path d="M57.34,30.23l.75,1.4s.28,2.09-2.01,2.67c-2.29.58-3.06-1.16-3.06-1.16l-.13-1.62,4.45-1.29Z" style="fill: url(#d); stroke-width: 0px;"/>
          <path d="M52.89,31.52c.32,1.1,1.57,1.7,2.8,1.34,1.23-.36,1.96-1.54,1.64-2.63-.32-1.1-1.57-1.7-2.8-1.34-1.23.36-1.96,1.54-1.65,2.63Z" style="fill: #f04c33; stroke-width: 0px;"/>
        </g>
        <text transform="translate(27.5 47.88) rotate(-7.34)" style="fill: #724866; font-family: MarkerFelt-Thin, &apos;Marker Felt&apos;; font-size: 8.06px; font-weight: 200;"><tspan x="0" y="0">M</tspan><tspan x="7.5" y="0" style="letter-spacing: .05em;">e</tspan><tspan x="10.98" y="0" style="letter-spacing: .08em;">e</tspan><tspan x="14.72" y="0" style="letter-spacing: .07em;">t</tspan><tspan x="18.17" y="0" style="letter-spacing: .05em;">i</tspan><tspan x="20.17" y="0" style="letter-spacing: .03em;">n</tspan><tspan x="24.36" y="0">g</tspan><tspan x="0" y="9.67" style="letter-spacing: -.16em;">7</tspan><tspan x="3.34" y="9.67" style="letter-spacing: -.02em;">:</tspan><tspan x="5.02" y="9.67" style="letter-spacing: 0em;">00 pm</tspan></text>
      </g>
    </g>
  </g>
</svg>