<?xml version="1.0" encoding="UTF-8"?>
<svg xmlns="http://www.w3.org/2000/svg" xmlns:xlink="http://www.w3.org/1999/xlink" version="1.1" viewBox="0 0 294.4 180.8">
  <defs>
    <style>
      .cls-1 {
        opacity: .2;
      }

      .cls-1, .cls-2, .cls-3, .cls-4, .cls-5, .cls-6, .cls-7, .cls-8, .cls-9, .cls-10, .cls-11, .cls-12, .cls-13, .cls-14, .cls-15, .cls-16, .cls-17, .cls-18, .cls-19, .cls-20, .cls-21, .cls-22, .cls-23, .cls-24, .cls-25, .cls-26, .cls-27, .cls-28, .cls-29, .cls-30, .cls-31, .cls-32, .cls-33, .cls-34, .cls-35, .cls-36, .cls-37, .cls-38, .cls-39, .cls-40, .cls-41, .cls-42, .cls-43, .cls-44, .cls-45, .cls-46, .cls-47, .cls-48, .cls-49, .cls-50, .cls-51, .cls-52, .cls-53, .cls-54, .cls-55, .cls-56, .cls-57, .cls-58, .cls-59, .cls-60, .cls-61, .cls-62, .cls-63, .cls-64, .cls-65, .cls-66, .cls-67, .cls-68, .cls-69, .cls-70, .cls-71, .cls-72, .cls-73, .cls-74, .cls-75, .cls-76, .cls-77, .cls-78, .cls-79, .cls-80 {
        stroke-width: 0px;
      }

      .cls-1, .cls-2, .cls-3, .cls-48, .cls-53, .cls-54, .cls-56, .cls-58, .cls-73 {
        mix-blend-mode: multiply;
      }

      .cls-1, .cls-75 {
        fill: #5d4354;
      }

      .cls-81, .cls-31 {
        fill: #9c9aa6;
      }

      .cls-2 {
        fill: #b28d8d;
      }

      .cls-2, .cls-3, .cls-48, .cls-54, .cls-56 {
        opacity: .5;
      }

      .cls-3 {
        fill: #cfc596;
      }

      .cls-4 {
        fill: #de3e35;
      }

      .cls-5 {
        fill: #da8d79;
      }

      .cls-6 {
        fill: url(#_ÂÁ_Ï_ÌÌ_È_ËÂÌÚ_5);
      }

      .cls-7 {
        fill: url(#_ÂÁ_Ï_ÌÌ_È_ËÂÌÚ_3);
      }

      .cls-8 {
        fill: #9d9da3;
      }

      .cls-82 {
        clip-path: url(#clippath);
      }

      .cls-9 {
        fill: #b385b5;
      }

      .cls-10 {
        fill: none;
      }

      .cls-11 {
        fill: #c3c2bf;
      }

      .cls-12 {
        fill: #55475a;
      }

      .cls-13 {
        fill: #473343;
      }

      .cls-14 {
        mix-blend-mode: color-dodge;
        opacity: .3;
      }

      .cls-14, .cls-52 {
        fill: #c1c3c7;
      }

      .cls-15 {
        fill: url(#linear-gradient);
      }

      .cls-16 {
        fill: #f4f3e5;
      }

      .cls-17 {
        fill: #f4f3e7;
      }

      .cls-18, .cls-53 {
        fill: #f9ab8a;
      }

      .cls-19 {
        fill: #41292c;
      }

      .cls-20, .cls-73 {
        fill: #92453f;
      }

      .cls-21 {
        fill: #e3dfe5;
      }

      .cls-22 {
        fill: #843b37;
      }

      .cls-23 {
        fill: #555556;
      }

      .cls-24 {
        fill: #fbc29f;
      }

      .cls-25 {
        fill: #f37877;
      }

      .cls-83 {
        fill: #724866;
        font-family: MarkerFelt-Thin, 'Marker Felt';
        font-size: 8.1px;
        font-weight: 200;
      }

      .cls-26 {
        fill: #f04c33;
      }

      .cls-27 {
        fill: #874a48;
      }

      .cls-28 {
        fill: #703935;
      }

      .cls-84 {
        clip-path: url(#clippath-1);
      }

      .cls-85 {
        clip-path: url(#clippath-4);
      }

      .cls-86 {
        clip-path: url(#clippath-3);
      }

      .cls-87 {
        clip-path: url(#clippath-2);
      }

      .cls-29 {
        fill: #f8a284;
      }

      .cls-30 {
        fill: #c72a34;
      }

      .cls-32 {
        fill: #fab494;
      }

      .cls-33 {
        fill: url(#_ÂÁ_Ï_ÌÌ_È_ËÂÌÚ_382);
      }

      .cls-34 {
        fill: url(#_ÂÁ_Ï_ÌÌ_È_ËÂÌÚ_398);
      }

      .cls-35 {
        fill: url(#_ÂÁ_Ï_ÌÌ_È_ËÂÌÚ_365);
      }

      .cls-36 {
        fill: url(#_ÂÁ_Ï_ÌÌ_È_ËÂÌÚ_385);
      }

      .cls-37 {
        fill: url(#_ÂÁ_Ï_ÌÌ_È_ËÂÌÚ_3-3);
      }

      .cls-38 {
        fill: url(#_ÂÁ_Ï_ÌÌ_È_ËÂÌÚ_3-2);
      }

      .cls-39 {
        fill: url(#_ÂÁ_Ï_ÌÌ_È_ËÂÌÚ_382-9);
      }

      .cls-40 {
        fill: url(#_ÂÁ_Ï_ÌÌ_È_ËÂÌÚ_382-8);
      }

      .cls-41 {
        fill: url(#_ÂÁ_Ï_ÌÌ_È_ËÂÌÚ_382-4);
      }

      .cls-42 {
        fill: url(#_ÂÁ_Ï_ÌÌ_È_ËÂÌÚ_382-5);
      }

      .cls-43 {
        fill: url(#_ÂÁ_Ï_ÌÌ_È_ËÂÌÚ_382-7);
      }

      .cls-44 {
        fill: url(#_ÂÁ_Ï_ÌÌ_È_ËÂÌÚ_382-6);
      }

      .cls-45 {
        fill: url(#_ÂÁ_Ï_ÌÌ_È_ËÂÌÚ_382-3);
      }

      .cls-46 {
        fill: url(#_ÂÁ_Ï_ÌÌ_È_ËÂÌÚ_382-2);
      }

      .cls-47 {
        fill: #5a3533;
      }

      .cls-48 {
        fill: #baa596;
      }

      .cls-49 {
        fill: #f4f4e7;
      }

      .cls-50 {
        fill: #d14a45;
      }

      .cls-51 {
        fill: #5d4655;
      }

      .cls-53, .cls-73 {
        opacity: .2;
      }

      .cls-54 {
        fill: #c9af88;
      }

      .cls-55 {
        fill: #b0603f;
      }

      .cls-56 {
        fill: #cfc69c;
      }

      .cls-57 {
        fill: #6bae5b;
      }

      .cls-58 {
        fill: #fdcc98;
        opacity: .2;
      }

      .cls-59 {
        fill: #53362c;
      }

      .cls-60 {
        fill: url(#linear-gradient-4);
      }

      .cls-61 {
        fill: url(#linear-gradient-2);
      }

      .cls-62 {
        fill: url(#linear-gradient-3);
      }

      .cls-63 {
        fill: url(#linear-gradient-8);
      }

      .cls-64 {
        fill: url(#linear-gradient-7);
      }

      .cls-65 {
        fill: url(#linear-gradient-5);
      }

      .cls-66 {
        fill: url(#linear-gradient-6);
      }

      .cls-67 {
        fill: #b5c2b6;
      }

      .cls-88 {
        isolation: isolate;
      }

      .cls-68 {
        fill: #fbbd9a;
      }

      .cls-69 {
        fill: url(#_ÂÁ_Ï_ÌÌ_È_ËÂÌÚ_382-11);
      }

      .cls-70 {
        fill: url(#_ÂÁ_Ï_ÌÌ_È_ËÂÌÚ_382-10);
      }

      .cls-71 {
        fill: #b25459;
      }

      .cls-72 {
        fill: #fee858;
      }

      .cls-74 {
        fill: #df725f;
      }

      .cls-76 {
        fill: #fff;
      }

      .cls-77 {
        fill: #a53f3b;
      }

      .cls-78 {
        fill: url(#_ÂÁ_Ï_ÌÌ_È_ËÂÌÚ_89);
      }

      .cls-79 {
        fill: #873138;
      }

      .cls-80 {
        fill: #ca705b;
      }
    </style>
    <linearGradient id="_ÂÁ_Ï_ÌÌ_È_ËÂÌÚ_398" data-name="¡ÂÁ˚ÏˇÌÌ˚È „‡‰ËÂÌÚ 398" x1="146.6" y1="172" x2="146.6" y2="3.7" gradientUnits="userSpaceOnUse">
      <stop offset="0" stop-color="#edb473"/>
      <stop offset="1" stop-color="#e0b595"/>
    </linearGradient>
    <linearGradient id="_ÂÁ_Ï_ÌÌ_È_ËÂÌÚ_365" data-name="¡ÂÁ˚ÏˇÌÌ˚È „‡‰ËÂÌÚ 365" x1="154.7" y1="172.6" x2="154.7" y2="-.9" gradientTransform="translate(-5.2 .9) skewX(-2.4)" gradientUnits="userSpaceOnUse">
      <stop offset="0" stop-color="#c77c50"/>
      <stop offset="1" stop-color="#bf8761"/>
    </linearGradient>
    <linearGradient id="_ÂÁ_Ï_ÌÌ_È_ËÂÌÚ_382" data-name="¡ÂÁ˚ÏˇÌÌ˚È „‡‰ËÂÌÚ 382" x1="-269.2" y1="-231.1" x2="-269.2" y2="-236.7" gradientTransform="translate(-293.4 49.6) rotate(-145.4) scale(.8 -.9) skewX(16.1)" gradientUnits="userSpaceOnUse">
      <stop offset="0" stop-color="#c72a34"/>
      <stop offset="1" stop-color="#f04c33"/>
    </linearGradient>
    <linearGradient id="_ÂÁ_Ï_ÌÌ_È_ËÂÌÚ_385" data-name="¡ÂÁ˚ÏˇÌÌ˚È „‡‰ËÂÌÚ 385" x1="-320" y1="84" x2="-280.4" y2="44.4" gradientTransform="translate(550.8 134.3) scale(1 -1)" gradientUnits="userSpaceOnUse">
      <stop offset="0" stop-color="#846d7b"/>
      <stop offset="1" stop-color="#937c87"/>
    </linearGradient>
    <linearGradient id="_ÂÁ_Ï_ÌÌ_È_ËÂÌÚ_382-2" data-name="¡ÂÁ˚ÏˇÌÌ˚È „‡‰ËÂÌÚ 382" x1="-155.1" y1="429.5" x2="-155.1" y2="424.1" gradientTransform="translate(-114.3 -186.1) rotate(-78.9)" xlink:href="#_ÂÁ_Ï_ÌÌ_È_ËÂÌÚ_382"/>
    <linearGradient id="_ÂÁ_Ï_ÌÌ_È_ËÂÌÚ_382-3" data-name="¡ÂÁ˚ÏˇÌÌ˚È „‡‰ËÂÌÚ 382" x1="-164.4" y1="376.2" x2="-164.4" y2="370.8" gradientTransform="translate(-114.3 -186.1) rotate(-78.9)" xlink:href="#_ÂÁ_Ï_ÌÌ_È_ËÂÌÚ_382"/>
    <linearGradient id="linear-gradient" x1="-402.3" y1="1131.6" x2="-382.3" y2="1131.6" gradientTransform="translate(1233.5 -540.4) rotate(36.7)" gradientUnits="userSpaceOnUse">
      <stop offset="0" stop-color="#c5c7cd"/>
      <stop offset="0" stop-color="#babdc1"/>
      <stop offset=".1" stop-color="#afb3b3"/>
      <stop offset=".2" stop-color="#abb0af"/>
      <stop offset=".6" stop-color="#c5c7cd"/>
      <stop offset=".8" stop-color="#c0c3c8"/>
      <stop offset=".9" stop-color="#b4b8b9"/>
      <stop offset="1" stop-color="#abb0af"/>
    </linearGradient>
    <linearGradient id="linear-gradient-2" x1="-384.5" y1="1131.3" x2="-370.4" y2="1131.3" gradientTransform="translate(1233.5 -540.4) rotate(36.7)" gradientUnits="userSpaceOnUse">
      <stop offset="0" stop-color="#9f6a3f"/>
      <stop offset="1" stop-color="#ab7a3d"/>
    </linearGradient>
    <linearGradient id="_ÂÁ_Ï_ÌÌ_È_ËÂÌÚ_382-4" data-name="¡ÂÁ˚ÏˇÌÌ˚È „‡‰ËÂÌÚ 382" x1="-522.8" y1="-278" x2="-522.8" y2="-281.3" xlink:href="#_ÂÁ_Ï_ÌÌ_È_ËÂÌÚ_382"/>
    <clipPath id="clippath">
      <polygon id="SVGID" class="cls-10" points="104.1 66.5 144.3 65.2 144.4 19.8 104.2 21.1 104.1 66.5"/>
    </clipPath>
    <linearGradient id="linear-gradient-3" x1="-89.5" y1="99.7" x2="-89.5" y2="77.6" gradientTransform="translate(239.9 -22.2) rotate(15.2) skewX(-3)" gradientUnits="userSpaceOnUse">
      <stop offset="0" stop-color="#fcc6a4"/>
      <stop offset=".5" stop-color="#fbc3a1"/>
      <stop offset=".8" stop-color="#fabc9a"/>
      <stop offset="1" stop-color="#f9af8e"/>
      <stop offset="1" stop-color="#f9ab8a"/>
    </linearGradient>
    <linearGradient id="linear-gradient-4" x1="124.9" y1="44.2" x2="130.9" y2="44.2" gradientTransform="matrix(1,0,0,1,0,0)" xlink:href="#linear-gradient-3"/>
    <linearGradient id="_ÂÁ_Ï_ÌÌ_È_ËÂÌÚ_382-5" data-name="¡ÂÁ˚ÏˇÌÌ˚È „‡‰ËÂÌÚ 382" x1="-240.2" y1="-380.6" x2="-240.2" y2="-386.1" gradientTransform="translate(-328.3 54.6) rotate(-126.6) scale(1 -1)" xlink:href="#_ÂÁ_Ï_ÌÌ_È_ËÂÌÚ_382"/>
    <linearGradient id="_ÂÁ_Ï_ÌÌ_È_ËÂÌÚ_89" data-name="¡ÂÁ˚ÏˇÌÌ˚È „‡‰ËÂÌÚ 89" x1="12.7" y1="124.5" x2="50.6" y2="124.5" gradientTransform="translate(117.2 4) rotate(-7.5)" gradientUnits="userSpaceOnUse">
      <stop offset="0" stop-color="#fff"/>
      <stop offset="1" stop-color="#e0dbe2"/>
    </linearGradient>
    <linearGradient id="_ÂÁ_Ï_ÌÌ_È_ËÂÌÚ_382-6" data-name="¡ÂÁ˚ÏˇÌÌ˚È „‡‰ËÂÌÚ 382" x1="146.6" y1="-369.5" x2="146.6" y2="-374.4" gradientTransform="translate(436.7 293.4) rotate(-62.8) scale(.8 .9) skewX(16.1)" xlink:href="#_ÂÁ_Ï_ÌÌ_È_ËÂÌÚ_382"/>
    <clipPath id="clippath-1">
      <polygon id="SVGID-2" data-name="SVGID" class="cls-10" points="156 66.3 196.3 65 196.4 19.5 156.1 20.8 156 66.3"/>
    </clipPath>
    <linearGradient id="_ÂÁ_Ï_ÌÌ_È_ËÂÌÚ_5" data-name="¡ÂÁ˚ÏˇÌÌ˚È „‡‰ËÂÌÚ 5" x1="-132.5" y1="-52" x2="-132.5" y2="-63" gradientTransform="translate(43.9 113.5) rotate(178.2) scale(1 -1) skewX(2)" gradientUnits="userSpaceOnUse">
      <stop offset=".2" stop-color="#fbbd9a"/>
      <stop offset=".4" stop-color="#f9ab8a"/>
    </linearGradient>
    <linearGradient id="linear-gradient-5" x1="1920.2" y1="-679" x2="1920.2" y2="-700.8" gradientTransform="translate(-1780.7 688.1) rotate(1.3) skewX(-2)" xlink:href="#linear-gradient-3"/>
    <linearGradient id="_ÂÁ_Ï_ÌÌ_È_ËÂÌÚ_3" data-name="¡ÂÁ˚ÏˇÌÌ˚È „‡‰ËÂÌÚ 3" x1="1986.2" y1="632.5" x2="1986.2" y2="623.4" gradientTransform="translate(-1780.8 790.2) rotate(-38) scale(1 1) skewX(-.6)" gradientUnits="userSpaceOnUse">
      <stop offset="0" stop-color="#a85b4b"/>
      <stop offset="1" stop-color="#703935"/>
    </linearGradient>
    <linearGradient id="_ÂÁ_Ï_ÌÌ_È_ËÂÌÚ_3-2" data-name="¡ÂÁ˚ÏˇÌÌ˚È „‡‰ËÂÌÚ 3" x1="-1698.3" y1="628.8" x2="-1703.9" y2="621.7" gradientTransform="translate(-1563 623.2) rotate(141.8) scale(1 -1) skewX(.6)" xlink:href="#_ÂÁ_Ï_ÌÌ_È_ËÂÌÚ_3"/>
    <linearGradient id="_ÂÁ_Ï_ÌÌ_È_ËÂÌÚ_3-3" data-name="¡ÂÁ˚ÏˇÌÌ˚È „‡‰ËÂÌÚ 3" x1="-134.4" y1="-80.8" x2="-130.1" y2="-72.1" gradientTransform="translate(43.9 113.5) rotate(178.2) scale(1 -1) skewX(2)" xlink:href="#_ÂÁ_Ï_ÌÌ_È_ËÂÌÚ_3"/>
    <linearGradient id="_ÂÁ_Ï_ÌÌ_È_ËÂÌÚ_382-7" data-name="¡ÂÁ˚ÏˇÌÌ˚È „‡‰ËÂÌÚ 382" x1="-503.9" y1="21.9" x2="-503.9" y2="16.5" gradientTransform="translate(-328.8) rotate(-180) scale(1 -1)" xlink:href="#_ÂÁ_Ï_ÌÌ_È_ËÂÌÚ_382"/>
    <clipPath id="clippath-2">
      <rect id="SVGID-3" data-name="SVGID" class="cls-10" x="206" y="19.7" width="37.9" height="45.4" transform="translate(449.8 84.8) rotate(180)"/>
    </clipPath>
    <linearGradient id="linear-gradient-6" x1="-187.7" y1="54.4" x2="-187.3" y2="29.9" gradientTransform="translate(39.5) rotate(-180) scale(1 -1)" xlink:href="#linear-gradient-3"/>
    <linearGradient id="_ÂÁ_Ï_ÌÌ_È_ËÂÌÚ_382-8" data-name="¡ÂÁ˚ÏˇÌÌ˚È „‡‰ËÂÌÚ 382" x1="-550.5" y1="21.8" x2="-550.5" y2="16.4" gradientTransform="translate(-328.8) rotate(-180) scale(1 -1)" xlink:href="#_ÂÁ_Ï_ÌÌ_È_ËÂÌÚ_382"/>
    <clipPath id="clippath-3">
      <polygon id="SVGID-5" data-name="SVGID" class="cls-31" points="104.5 78 143.9 78 146 124.6 105.4 125.3 104.5 78"/>
    </clipPath>
    <linearGradient id="linear-gradient-7" x1="56.2" y1="127" x2="56.2" y2="104.9" gradientTransform="translate(79.4 -18.3) rotate(1.8) skewX(-3)" xlink:href="#linear-gradient-3"/>
    <linearGradient id="_ÂÁ_Ï_ÌÌ_È_ËÂÌÚ_382-9" data-name="¡ÂÁ˚ÏˇÌÌ˚È „‡‰ËÂÌÚ 382" x1="-528.5" y1="54.8" x2="-528.5" y2="49.3" gradientTransform="translate(-347.8 -176.3) rotate(-157.4) scale(1 -1)" xlink:href="#_ÂÁ_Ï_ÌÌ_È_ËÂÌÚ_382"/>
    <clipPath id="clippath-4">
      <rect id="SVGID-6" data-name="SVGID" class="cls-10" x="157.1" y="75.7" width="37.9" height="45.4" transform="translate(352 196.8) rotate(180)"/>
    </clipPath>
    <linearGradient id="linear-gradient-8" x1="442.5" y1="588.7" x2="442.5" y2="564.5" gradientTransform="translate(-157.2 -551.4) rotate(10.3)" xlink:href="#linear-gradient-3"/>
    <linearGradient id="_ÂÁ_Ï_ÌÌ_È_ËÂÌÚ_382-10" data-name="¡ÂÁ˚ÏˇÌÌ˚È „‡‰ËÂÌÚ 382" x1="-314.3" y1="-388.3" x2="-314.3" y2="-393.8" gradientTransform="translate(-328.3 54.6) rotate(-126.6) scale(1 -1)" xlink:href="#_ÂÁ_Ï_ÌÌ_È_ËÂÌÚ_382"/>
    <linearGradient id="_ÂÁ_Ï_ÌÌ_È_ËÂÌÚ_382-11" data-name="¡ÂÁ˚ÏˇÌÌ˚È „‡‰ËÂÌÚ 382" x1="-255.4" y1="70.7" x2="-255.4" y2="65.2" gradientTransform="translate(44.1 -186.1) rotate(-78.9)" xlink:href="#_ÂÁ_Ï_ÌÌ_È_ËÂÌÚ_382"/>
  </defs>
  <g class="cls-88">
    <g id="Layer_1" data-name="Layer 1">
      <g>
        <polygon class="cls-1" points="294.4 180.8 8 179.8 3.2 82 292.6 1 294.4 180.8"/>
        <g>
          <path class="cls-34" d="M287.4,171.9c-93.5.5-186.9-.4-280.4,0,0,0-3.4-111.3-3.3-167.1,94.2.9,191.5,1.2,285.7-1.1-2.3,56.2-1.4,112-2.1,168.2Z"/>
          <path class="cls-54" d="M5.7,169L9.5,13.2l278.1,4c-1-7.4,1.5-6,2-13.5C195.3,6,98,5.7,3.8,4.8c.7,6.6-.8,157.6,2,164.2Z"/>
          <path class="cls-55" d="M288.3,172.4c-94,1.4-190.4,1-284.5,2.2-.8-.8-.3-.3-1-1C3.8,116.9,1.2,58.8,0,2.1.6,1.2.8.9,1.3,0c95.7,2.2,195.5,1.7,291.3,1-2.1,56.2-3.8,115.3-4.3,171.4ZM7.3,168.6c90.6-.4,187.5.8,278.1.4l1.9-161.1c-92.2,2.2-190.5-.9-282.7-2,.6,52.8,2.7,162.6,2.7,162.6Z"/>
          <path class="cls-5" d="M3.9,174.6h.3L5.3,0c-.8,0-3.1,0-3.9,0C.8.9.6,1.2,0,2.1c1.2,56.7,3.8,114.7,2.8,171.4.7.7.4.4,1,1Z"/>
          <path class="cls-35" d="M290.5,174.6c-95.5.3-191.1-.4-286.6,0C4.5,116.2,2.5,58.4,1.3,0c97.4,1.4,193.8,2.6,291.3,1-2.4,58-1.4,115.7-2.2,173.6ZM7.8,171c93.9-.4,185.6.5,279.5,0,.7-55.5,2.1-166.3,2.1-166.3-94.7,2.3-189.1.7-283.7-.4l2.1,166.7Z"/>
        </g>
      </g>
      <g>
        <polygon class="cls-3" points="76.9 57.3 49 60.6 45 25.6 71.5 22.4 76.9 57.3"/>
        <rect class="cls-9" x="45.5" y="23.8" width="28" height="33.5" transform="translate(-4.2 7) rotate(-6.5)"/>
        <polygon class="cls-48" points="61.9 67.2 23.8 66.7 23.8 32 60.3 31.6 61.9 67.2"/>
        <rect class="cls-72" x="22.1" y="31.6" width="38.1" height="33"/>
        <g>
          <path class="cls-2" d="M51.7,34.9c.5,1.7,2.3,2.6,4,2.1,1.7-.5,2.7-2.3,2.2-3.9-.5-1.7-2.3-2.6-4-2.1-1.7.5-2.7,2.3-2.2,3.9Z"/>
          <path class="cls-30" d="M52.5,33.3c.4,1.5,2.2,2.4,3.8,1.9,1.7-.5,2.7-2.1,2.2-3.6-.4-1.5-2.2-2.4-3.8-1.9-1.7.5-2.7,2.1-2.2,3.6Z"/>
          <path class="cls-4" d="M52.5,33c.4,1.5,2.2,2.4,3.8,1.9,1.7-.5,2.7-2.1,2.2-3.6-.4-1.5-2.2-2.4-3.8-1.9-1.7.5-2.7,2.1-2.2,3.6Z"/>
          <path class="cls-33" d="M57.3,30.2l.8,1.4s.3,2.1-2,2.7c-2.3.6-3.1-1.2-3.1-1.2v-1.6c-.1,0,4.3-1.3,4.3-1.3Z"/>
          <path class="cls-26" d="M52.9,31.5c.3,1.1,1.6,1.7,2.8,1.3,1.2-.4,2-1.5,1.6-2.6-.3-1.1-1.6-1.7-2.8-1.3-1.2.4-2,1.5-1.6,2.6Z"/>
        </g>
        <text class="cls-83" transform="translate(27.5 47.9) rotate(-7.3)"><tspan x="0" y="0">Meeting</tspan><tspan x="0" y="9.7">7:00 pm</tspan></text>
      </g>
      <g>
        <polygon class="cls-48" points="280.9 46.7 283.7 89.4 217.8 89.4 214.1 46.7 280.9 46.7"/>
        <rect class="cls-16" x="214.1" y="46.7" width="66.9" height="40.9" transform="translate(495.1 134.3) rotate(180)"/>
        <rect class="cls-36" x="216.2" y="47.9" width="62.8" height="38.5" transform="translate(495.1 134.3) rotate(180)"/>
        <path class="cls-76" d="M269.2,83.6l-2.9-.7c0,0-.1,0-.2,0l-2.2-2.7s0,0,0-.1l-.3-1.5-.7-.4-3,3.9c0,0-.1,0-.2.1l-11.1.8c0,0-.2,0-.2-.1l-3.9-5-2.2-2.9c0,0,0-.1,0-.2,0,0,0-.1.1-.2l2.4-1.5c0,0,.2,0,.2,0l1.8.6c0,0,.2.1.2.2l.5,2.4,2.9,2.2,5.6-1-8-4-4.1-1.9h-11.4s-9.2,2.2-9.2,2.2c0,0-.2,0-.2,0l-2.9-2.2c0,0-.1-.2-.1-.3l.5-2.9c0-.1.2-.2.3-.2l3.8.4,8.9-1.9,8.8-.9,2.9-.7-7.1-4.7-9.6-.4c0,0-.1,0-.2,0l-3.9-4.1c0,0,0-.2,0-.3l1.2-2.5c0,0,0-.1.2-.1,0,0,.2,0,.2,0l4.7,3.3,8.9-1.3c0,0,.1,0,.2,0l12.1,6.8,9.2,6.6-4.3-5.8-6.5-5.5-2.3-1.5c0,0-.1-.1-.1-.2,0,0,0-.2,0-.2l2.3-2c0,0,.2,0,.3,0l4.6,3.1,6.3,5.1,7.7,7.9c0,0,.1.2,0,.3l-3.1,5.3.4.8h2.2c0,0,.1,0,.2,0l3.5,3c0,0,.1.1,0,.2l-.3,2.7c0,0,0,.2-.1.2l-2.6,1.7s0,0-.1,0,0,0,0,0ZM271.9,79.1l-3.3-2.8h-2.3c0,0-.2,0-.2-.1l-.6-1c0,0,0-.2,0-.3l3.1-5.3-7.5-7.7-6.3-5.1-4.4-3-1.9,1.6,2,1.3,6.6,5.6,5.4,7.2c0,.1,0,.3,0,.4,0,0-.2.1-.4,0l-10.6-7.6-12-6.8-8.9,1.3c0,0-.1,0-.2,0l-4.5-3.2-1,2.1,3.7,3.8,9.6.4s0,0,.1,0l7.7,5.1c0,0,.1.2.1.3,0,.1,0,.2-.2.2l-3.5.8-8.8.9-8.9,1.9s0,0,0,0l-3.6-.4-.4,2.5,2.7,2,9.1-2.1h11.5s0,0,.1,0l4.2,1.9,8.8,4.4c.1,0,.2.2.1.3,0,.1-.1.2-.2.2l-6.5,1.1c0,0-.1,0-.2,0l-3.1-2.3c0,0,0,0-.1-.2l-.5-2.4-1.5-.5-2,1.2,2,2.7,3.8,4.9,10.8-.8,3.1-4c0-.1.2-.1.4,0l1,.6c0,0,.1,0,.1.2l.3,1.5,2.1,2.6,2.7.6,2.4-1.5.3-2.4Z"/>
        <g>
          <path class="cls-2" d="M278.4,51.5c-.2,1.7-1.7,3-3.5,2.8-1.8-.2-3.1-1.7-2.9-3.4.2-1.7,1.7-3,3.5-2.8,1.8.2,3.1,1.7,2.9,3.4Z"/>
          <path class="cls-30" d="M278,48.5c.4,1.2-.5,2.7-2.1,3.3-1.6.6-3.3.1-3.8-1.1-.4-1.2.5-2.7,2.1-3.3,1.6-.6,3.3-.1,3.8,1.1Z"/>
          <path class="cls-4" d="M277.9,48.1c.4,1.2-.5,2.7-2.1,3.3-1.6.6-3.3.1-3.8-1.1-.4-1.2.5-2.7,2.1-3.3,1.6-.6,3.3-.1,3.8,1.1Z"/>
          <path class="cls-46" d="M272,47.7l.4,2.1s1,1.9,3.2.9c2.2-.9,1.8-2.7,1.8-2.7l-1-1.9-4.3,1.6Z"/>
          <path class="cls-26" d="M276.3,46.1c.3.9-.4,2-1.6,2.4-1.2.4-2.4,0-2.8-.8-.3-.9.4-2,1.6-2.4s2.4,0,2.8.8Z"/>
        </g>
        <g>
          <path class="cls-2" d="M224.3,50.4c-.2,1.7-1.7,3-3.5,2.8-1.8-.2-3.1-1.7-2.9-3.4.2-1.7,1.7-3,3.5-2.8,1.8.2,3.1,1.7,2.9,3.4Z"/>
          <path class="cls-30" d="M223.9,47.4c.4,1.2-.5,2.7-2.1,3.3-1.6.6-3.3.1-3.8-1.1-.4-1.2.5-2.7,2.1-3.3,1.6-.6,3.3-.1,3.8,1.1Z"/>
          <path class="cls-4" d="M223.8,47c.4,1.2-.5,2.7-2.1,3.3-1.6.6-3.3.1-3.8-1.1-.4-1.2.5-2.7,2.1-3.3,1.6-.6,3.3-.1,3.8,1.1Z"/>
          <path class="cls-45" d="M217.8,46.6l.4,2.1s1,1.9,3.2.9c2.2-.9,1.8-2.7,1.8-2.7l-1-1.9-4.3,1.6Z"/>
          <path class="cls-26" d="M222.2,45c.3.9-.4,2-1.6,2.4-1.2.4-2.4,0-2.8-.8-.3-.9.4-2,1.6-2.4,1.2-.4,2.4,0,2.8.8Z"/>
        </g>
      </g>
      <g>
        <g>
          <polygon class="cls-48" points="264.7 122 266.5 151.7 232.5 149.8 231.8 123.3 264.7 122"/>
          <polygon class="cls-16" points="231.3 121.5 231.1 149.5 265.1 149 265.2 120.6 231.3 121.5"/>
          <polygon class="cls-75" points="232.9 122.8 232.8 147.7 263.8 147.6 263.5 122 232.9 122.8"/>
          <g>
            <path class="cls-20" d="M259.6,146.2c-.5,0-1.1,0-1.6-.2-2.1-1-2.7-2.4-4.3-4.2-1.3-1.3-1.7,0-4.6-3-1.1-1.1,1.6-2.4,1.6-2.4,0,0,7.2,5.2,9.9,7.2,1.3,1-.4,2.4-1,2.5Z"/>
            <path class="cls-8" d="M235.2,124.4l16.7,12.4-3.6,3s-8-5.8-10.1-8c-3.7-3.9-3-7.5-3-7.5Z"/>
            <path class="cls-15" d="M238.9,131.5c2,2,9,7.2,10,7.9l3-2.5-16-12c0,1.3.5,3.9,3.1,6.6Z"/>
            <path class="cls-14" d="M245.9,132.4c-.2,1.4-.4,2.9-.5,4.4.3.2.6.5.9.7.2-1.5.4-2.9.5-4.4l-.9-.7Z"/>
            <path class="cls-14" d="M245.1,131.8l-1.5-1.1c0,1.5,0,3-.2,4.6.4.3.9.7,1.3,1,.1-1.5.3-3,.4-4.5Z"/>
            <path class="cls-61" d="M259.6,145.7c-.5,0-1.1,0-1.6-.2-2.1-1-2.7-2.4-4.4-4.2-1.3-1.3-1.7,0-4.6-3-1.1-1.1,1.6-2.4,1.6-2.4,0,0,7.2,5.2,9.9,7.2,1.3,1-.4,2.4-1,2.5Z"/>
            <path class="cls-73" d="M258,145.5c.5.2,1.1.2,1.6.2.5,0,1.5-.9,1.5-1.7-1,1.8-4.2.6-5.2-.7-1.2-1.5-2.3-2.7-4-3.4-1.4-.6-2.3-1.6-2.8-2.6-.2.4-.3.7,0,1.1,3,3,3.4,1.8,4.6,3,1.7,1.7,2.3,3.1,4.4,4.2Z"/>
            <path class="cls-52" d="M251.4,138c-.1.2-.4.2-.6,0-.2-.1-.2-.4,0-.6.1-.2.4-.2.6,0,.2.1.2.4,0,.6Z"/>
            <path class="cls-52" d="M254.7,140.3c-.1.2-.4.2-.6,0-.2-.1-.2-.4,0-.6.1-.2.4-.2.6,0,.2.1.2.4,0,.6Z"/>
            <path class="cls-52" d="M258.1,142.8c-.1.2-.4.2-.6,0-.2-.1-.2-.4,0-.6.1-.2.4-.2.6,0,.2.1.2.4,0,.6Z"/>
            <g>
              <path class="cls-50" d="M241.1,132.4c.3-.3-.7-1.1-1-.7-.2.3.7,1,1,.7Z"/>
              <path class="cls-50" d="M241.8,131.4c-.2.5.9.9,1.2.6.3-.3-1.1-1-1.2-.6Z"/>
              <path class="cls-50" d="M235.2,124.4s-.6,2.8,1.9,6.1c.2-.2.4-.4.6-.3.7,0,.9,1.9,1.5,1.5.7-.4-1.6-2-1.2-2.3.3-.3,1.4,1.5,1.8,1.1.3-.3-2.2-2.2-1.8-2.6.4-.4.6,1.3,1.1,1,.5-.3,2.4,2.3,2.7,1.9.2-.5-.1-.8-1.4-1.4-.9-.5-1.2-1.3-.9-1.6l-4.3-3.2Z"/>
            </g>
          </g>
        </g>
        <g>
          <path class="cls-2" d="M257.7,124c.3,1,1.3,1.5,2.4,1.2,1-.3,1.6-1.3,1.3-2.3-.3-1-1.3-1.5-2.4-1.2-1,.3-1.6,1.3-1.3,2.3Z"/>
          <path class="cls-30" d="M258.4,123.3c.3.9,1.3,1.4,2.3,1.1,1-.3,1.6-1.2,1.3-2.1-.3-.9-1.3-1.4-2.3-1.1-1,.3-1.6,1.2-1.3,2.1Z"/>
          <path class="cls-4" d="M258.4,123.2c.3.9,1.3,1.4,2.3,1.1,1-.3,1.6-1.2,1.3-2.1-.3-.9-1.3-1.4-2.3-1.1-1,.3-1.6,1.2-1.3,2.1Z"/>
          <path class="cls-41" d="M261.2,121.6l.4.8s.2,1.2-1.2,1.6c-1.3.3-1.8-.7-1.8-.7v-1c0,0,2.5-.8,2.5-.8Z"/>
          <path class="cls-26" d="M258.6,122.3c.2.6.9,1,1.7.8.7-.2,1.2-.9,1-1.6-.2-.6-.9-1-1.7-.8-.7.2-1.2.9-1,1.6Z"/>
        </g>
      </g>
      <g>
        <polygon class="cls-56" points="142.5 19.2 144.3 73.7 98.6 71.4 102.5 20.6 142.5 19.2"/>
        <polygon class="cls-17" points="146.1 17.1 147.2 69.6 101.5 69.7 101.8 19 146.1 17.1"/>
        <g class="cls-82">
          <polygon class="cls-31" points="101.8 69.2 146.6 67.7 146.7 17.1 101.9 18.5 101.8 69.2"/>
          <g>
            <polygon class="cls-18" points="118.1 43.4 118.6 52.1 124.7 53.3 130.7 52.4 131.2 45.5 118.1 43.4"/>
            <path class="cls-51" d="M119.2,50.7c-.6-.5-1.5-2.4-1.6-.8,0,1.7-4.5,2.5-6.1,3.4-1.6.9-7.6,4.5-8.5,7.1-.9,2.6.6,5.8.6,5.8,0,0,13.7,2.1,24.7.3,11-1.8,16.6,2.6,17,.6.4-1.9-.9-10.6-5.3-11.1-3.9-.4-9.1-5.7-9.1-5.7,0,0,0,2-4.3,2.2-4.3.2-6.6-1.1-7.3-1.8Z"/>
            <path class="cls-13" d="M132.8,51.8s-2.7,2.5-3.1,7.1c-.3,4.6-.3,7.2-.3,7.2l15.9-.6s-1-6.5-2-8c-1-1.5-5.9-2.7-5.9-2.7l-4.6-2.9Z"/>
            <path class="cls-13" d="M116.6,51.1s3.5.6,6.3,6.7c2.8,6.1,2.1,9.9,2.1,9.9l-22.4.4,1-9.5s6.2-6,13.1-7.4Z"/>
            <path class="cls-29" d="M133.1,36c.6-.7,2.5-.5,2.9,1,.3,1.1-.2,3.5-1.5,5.3-.5.8-1.4-.1-1.7-.5-.9-1.5-1.6-3.4.3-5.8Z"/>
            <path class="cls-62" d="M128.8,50.1c6.7-.8,4.9-4.3,5.3-8.6.3-3.2,1.2-11.5,1.2-11.5l-17.5.5s-1.5,11.4.8,15.5c2.3,4.1,7,4.6,10.1,4.2Z"/>
            <path class="cls-58" d="M128.8,50.1c-.9-.2-1.6-.4-2-.6-3.8-1.6-4.6-4.7-5-8.2-.2-2.1.6-7.5,2-8.7,10,1.9,11.6-2.6,11.6-2.6l-17.5.5s-1.5,11.4.8,15.5c2.3,4.1,7,4.6,10.1,4.2Z"/>
            <path class="cls-29" d="M129.8,45.2c-.2-.9-2.2-.4-2.1.1,0,.3.5,0,1.1,0,.6,0,1.1.2,1.1-.1Z"/>
            <path class="cls-18" d="M117.8,35.8c-.9-.5-3.5.7-2.9,2.5.6,1.9,1.2,3.8,2,4.4,1,.7,1.9,0,2.2-.4.9-1.4.8-5.5-1.2-6.5Z"/>
            <g>
              <polygon class="cls-18" points="127.3 41.3 128.8 41.8 130.3 40.7 129.5 37.4 128 35.8 127.3 41.3"/>
              <path class="cls-80" d="M127.3,41.3c.5.1,1,.2,1.5.3h-.1c.5-.4,1-.8,1.5-1.2v.2c-.2-.5-.4-1.1-.5-1.6-.1-.6-.3-1.1-.4-1.7h0c-.5-.5-.9-1-1.4-1.6.6.4,1.1.9,1.6,1.4.2.6.4,1.2.5,1.7.2.5.3,1.1.4,1.6v.2s0,0,0,0c-.5.4-1.1.7-1.6,1h0c-.5-.2-1-.4-1.5-.6Z"/>
            </g>
            <polygon class="cls-80" points="127.3 41.2 128.2 41.6 128.2 40.9 127.5 40.8 127.3 41.2"/>
            <path class="cls-22" d="M121.5,36s.3-.3.8-.5c.1,0,.3-.1.4-.2.2,0,.3-.1.5-.2.3,0,.7-.1,1.1-.1.4,0,.7,0,1.1.1.3,0,.6.2.9.3.5.3.7.4.7.4l-.2.9h-5s-.2-.8-.2-.8Z"/>
            <path class="cls-22" d="M129.5,35.6s0,0,.2-.1c.1,0,.3-.2.5-.3.2,0,.5-.2.7-.3.1,0,.3,0,.4-.1h.2c0,0,.3-.1.3-.1.3,0,.6,0,.9,0,.3,0,.6,0,.8,0,.4.1.7.3.7.3l-.2,1.3-4.4.3-.2-1Z"/>
            <path class="cls-80" d="M115.6,37.6c.2-.3.4-.6.7-.9.2-.1.4-.2.6-.1.1,0,.2,0,.3.1,0,0,.2.1.2.2.1.1.3.3.3.5,0,.2.1.4.2.6,0,.4,0,.8,0,1.2,0,0,0,0,0,.1-.3.3-.5.5-.3.8.2.3.5.6.8.9-.4,0-.9-.3-1.2-.6-.1-.2-.2-.5-.2-.8,0-.3.3-.5.5-.6h0c.1-.2.2-.5.2-.8,0-.3-.1-.7-.3-.9,0,0-.1-.1-.2-.2,0,0-.1,0-.2-.1-.1,0-.3,0-.5,0-.3.2-.6.4-.8.7Z"/>
            <path class="cls-74" d="M126.2,44s.4,0,.8-.2c.2,0,.4-.1.7-.2.3,0,.6,0,.9-.1.3,0,.6,0,.9,0,.3,0,.6.1.8.2.4.2.7.3.7.3,0,0-.3,0-.7-.1-.2,0-.4,0-.7,0-.3,0-.6,0-.9,0-.3,0-.6,0-.9,0-.3,0-.6,0-.8,0-.2,0-.4,0-.5,0-.1,0-.2,0-.2,0Z"/>
            <g>
              <path class="cls-13" d="M125.1,38.3c0,.5-.3.8-.7.8-.5,0-.7-.5-.7-.9,0-.5.4-.8.8-.8.4,0,.7.5.6.9Z"/>
              <path class="cls-13" d="M123.4,37.4c0,0-.1,0-.1,0,0,0,0-.2,0-.2,0,0,1.4-1,2.1,0,0,0,0,.2,0,.2,0,0-.2,0-.2,0-.4-.6-1.6.1-1.6.1,0,0,0,0-.1,0Z"/>
            </g>
            <polygon class="cls-24" points="125.2 37.6 124.7 38.3 125.4 38.6 125.2 37.6"/>
            <g>
              <path class="cls-13" d="M132.3,38.2c0,.5-.3.8-.7.8-.6,0-.7-.5-.7-.9,0-.5.4-.8.8-.8.4,0,.7.5.6.9Z"/>
              <path class="cls-13" d="M130.6,37.3c0,0,0,0-.1,0,0,0,0-.2,0-.2,0,0,1.3-.9,2.1,0,0,0,0,.2,0,.2,0,0-.2,0-.2,0-.6-.6-1.6.1-1.6.1,0,0,0,0-.1,0Z"/>
            </g>
            <polygon class="cls-24" points="132.4 37.4 131.8 38.2 132.6 38.4 132.4 37.4"/>
          </g>
          <path class="cls-77" d="M119.8,35.6s-.4,5.9,1.1,6.5c1.4.6,5.4-.1,7.2,0,1.8,0,4.8-.3,5.2-.2.3,0,1.5-5.7,1.5-5.7,0,0-.8,5.9-.6,8.3.2,2.5.4,4.9-2.2,5.8-2.6.9-8.8,2-12-1.2s-3-6.4-3-6.4c0,0,2.2-.6,2.2-2.3s-.6-4-.6-4l1.3-.7Z"/>
          <path class="cls-60" d="M124.9,44c.2-.8,5.3-1.1,5.8-.4s-1,1.3-2.6,1.4-3.4-.2-3.2-1Z"/>
          <path class="cls-74" d="M125.6,44.3s.4-.1.8-.3c.2,0,.4-.2.7-.2.3,0,.6-.1.9-.2.3,0,.6,0,.9-.1.3,0,.6,0,.8.1.4.1.7.3.7.3,0,0-.3,0-.7,0-.2,0-.4,0-.7,0-.3,0-.6.1-.8.1-.3,0-.6,0-.9.1-.3,0-.6,0-.8,0-.2,0-.4,0-.5,0-.1,0-.2,0-.2,0Z"/>
          <path class="cls-77" d="M115.5,36.1s-1.3-4.6-.5-6.7c.7-2,6.8-4.3,10.1-4.4,3.3,0,9.4,2,10.2,2.4.7.3-.4,9.1-.4,9.1,0,0,.3-5.2-3-5.4-3.3-.2-10.9-.1-11.3.7-.4.9-.8,5-.8,5l-1,.3s-.6-2.4-3.2-1.1Z"/>
          <path class="cls-79" d="M124.7,49.5c-3.6-1.1-5.8-3.9-6.8-7.4-.5.4-1.1.5-1.1.5,0,0-.1,3.1,3,6.4,3.2,3.2,9.4,2.1,12,1.2.9-.3,1.5-.8,1.8-1.4-3,.8-6.1,1.2-9,.8Z"/>
          <path class="cls-79" d="M114.9,29.5c-.7,2,.5,6.7.5,6.7.8-.4,1.4-.4,1.9-.3.3-3.6,1.5-7.2,3.5-9.9-2.7.9-5.5,2.3-5.9,3.6Z"/>
        </g>
        <g>
          <path class="cls-2" d="M117.8,21.6c.2,1.7,1.7,3,3.5,2.8,1.8-.2,3.1-1.7,2.9-3.4-.2-1.7-1.7-3-3.5-2.8-1.8.2-3.1,1.7-2.9,3.4Z"/>
          <path class="cls-30" d="M119.7,20.5c.1,1.3,1.6,2.2,3.3,2,1.7-.2,3-1.3,2.9-2.6-.1-1.3-1.6-2.2-3.3-2-1.7.2-3,1.3-2.9,2.6Z"/>
          <path class="cls-4" d="M119.6,20c.1,1.3,1.6,2.2,3.3,2,1.7-.2,3-1.3,2.9-2.6-.1-1.3-1.6-2.2-3.3-2-1.7.2-3,1.3-2.9,2.6Z"/>
          <path class="cls-42" d="M124.8,17.1l.5,2s0,2.1-2.5,2.2c-2.4.1-2.8-1.7-2.8-1.7v-2.1c.1,0,4.7-.4,4.7-.4Z"/>
          <path class="cls-26" d="M120.2,17.5c0,.9,1.2,1.6,2.5,1.5,1.3-.1,2.2-1,2.2-1.9,0-.9-1.2-1.6-2.5-1.5-1.3.1-2.2,1-2.2,1.9Z"/>
        </g>
      </g>
      <g>
        <g>
          <polygon class="cls-48" points="148 125.9 151.7 145.6 188.1 141.5 180 123.3 177.8 111 148 125.9"/>
          <g>
            <polygon class="cls-78" points="178.1 104.8 179 123.1 186.2 140.5 151.6 144 146.1 126.4 144.2 106 178.1 104.8"/>
            <polygon class="cls-21" points="186.2 140.5 179 123.1 146 125.9 146.1 126.4 151.6 144 186.2 140.5"/>
            <g>
              <rect class="cls-11" x="154.3" y="118.6" width="3.9" height="1.2" transform="translate(-7.9 11.2) rotate(-4)"/>
              <rect class="cls-11" x="170.3" y="115.1" width="3.9" height="1.2" transform="translate(-7.7 12.3) rotate(-4)"/>
              <polygon class="cls-11" points="163.7 125.7 156.8 126.2 157.1 127.4 164 126.9 163.7 125.7"/>
              <rect class="cls-11" x="155.2" y="110.8" width="7.5" height="1.2" transform="translate(-7.4 11.4) rotate(-4)"/>
              <rect class="cls-11" x="159.1" y="113" width="9.2" height="1.2" transform="translate(-7.5 11.7) rotate(-4)"/>
              <rect class="cls-11" x="154" y="113.6" width="2.8" height="1.2" transform="translate(-7.6 11.1) rotate(-4)"/>
              <rect class="cls-11" x="171.6" y="117.7" width="2.8" height="1.2" transform="translate(-7.8 12.4) rotate(-4)"/>
              <polygon class="cls-11" points="162.8 131.2 157.5 131.6 157.8 132.8 163.1 132.4 162.8 131.2"/>
              <rect class="cls-11" x="163" y="115.4" width="5.6" height="1.2" transform="translate(-7.7 11.9) rotate(-4)"/>
              <polygon class="cls-11" points="165.6 132.2 173.2 131.6 172.9 130.4 165.2 131 165.6 132.2"/>
              <polygon class="cls-11" points="172.8 138.1 180.5 137.5 180.2 136.3 172.5 137 172.8 138.1"/>
              <polygon class="cls-11" points="163.1 129.7 172.1 128.9 171.8 127.8 162.8 128.5 163.1 129.7"/>
              <polygon class="cls-11" points="168.3 134.7 167.9 133.5 162 134 162.3 135.2 168.3 134.7"/>
              <polygon class="cls-11" points="155 131.8 152.6 132 152.9 133.2 155.4 133 155 131.8"/>
              <rect class="cls-11" x="149.3" y="119" width="2.7" height="1.2" transform="translate(-8 10.8) rotate(-4)"/>
              <polygon class="cls-11" points="154.4 126.4 150.4 126.7 150.7 127.9 154.7 127.6 154.4 126.4"/>
              <polygon class="cls-11" points="160.5 128.7 151.6 129.4 151.9 130.6 160.9 129.8 160.5 128.7"/>
              <polygon class="cls-11" points="159.5 134.2 153.8 134.7 154.1 135.8 159.9 135.4 159.5 134.2"/>
              <rect class="cls-11" x="149" y="116.2" width="11.7" height="1.2" transform="translate(-7.8 11.1) rotate(-4)"/>
              <rect class="cls-11" x="170" y="120.6" width="3.9" height="1.2" transform="translate(-8 12.3) rotate(-4)"/>
              <rect class="cls-11" x="162.5" y="121" width="5.6" height="1.2" transform="translate(-8.1 11.8) rotate(-4)"/>
              <rect class="cls-11" x="149.3" y="121.7" width="11.7" height="1.2" transform="translate(-8.2 11.1) rotate(-4)"/>
              <polygon class="cls-11" points="166.1 125.5 166.5 126.7 171.1 126.3 170.8 125.1 166.1 125.5"/>
              <rect class="cls-11" x="160.6" y="118" width="8.4" height="1.2" transform="translate(-7.9 11.8) rotate(-4)"/>
              <rect class="cls-11" x="166.6" y="110.2" width="2.9" height="1.2" transform="translate(-7.3 12) rotate(-4)"/>
              <rect class="cls-11" x="170" y="112.5" width="2.9" height="1.2" transform="translate(-7.5 12.2) rotate(-4)"/>
              <rect class="cls-11" x="148.7" y="113.9" width="3" height="1.2" transform="translate(-7.6 10.8) rotate(-4)"/>
            </g>
          </g>
        </g>
        <g>
          <path class="cls-2" d="M154.8,112.2c-.4,1.5-2,2.3-3.5,1.8-1.5-.4-2.4-2-1.9-3.4.4-1.5,2-2.3,3.5-1.8,1.5.4,2.4,2,1.9,3.4Z"/>
          <path class="cls-30" d="M153.9,109.9c.3,1.3-.7,2.7-2.2,3-1.5.3-2.9-.5-3.2-1.9-.3-1.3.7-2.7,2.2-3,1.5-.3,2.9.5,3.2,1.9Z"/>
          <path class="cls-4" d="M153.9,109.7c.3,1.3-.7,2.7-2.2,3-1.5.3-2.9-.5-3.2-1.9-.3-1.3.7-2.7,2.2-3,1.5-.3,2.9.5,3.2,1.9Z"/>
          <path class="cls-44" d="M149,109.6v1.4s.6,1.7,2.6,1.2c2-.5,1.9-2.1,1.9-2.1l-.6-1.3-3.9.8Z"/>
          <path class="cls-26" d="M152.9,108.7c.2,1-.5,1.9-1.6,2.2-1.1.2-2.1-.4-2.3-1.3-.2-1,.5-1.9,1.6-2.2,1.1-.2,2.1.4,2.3,1.3Z"/>
        </g>
      </g>
      <g>
        <polygon class="cls-56" points="194.5 19 196.2 71.5 150.6 71.2 154.4 20.4 194.5 19"/>
        <polygon class="cls-17" points="198.1 16.8 199.2 69.3 153.4 69.5 153.8 18.7 198.1 16.8"/>
        <g class="cls-84">
          <polygon class="cls-31" points="153.7 68.9 198.6 67.5 198.7 16.9 153.9 18.3 153.7 68.9"/>
          <g>
            <path class="cls-47" d="M181.6,50.5s5.9,8.1,3.4,9.3c-2.5,1.2-8.6.3-8.6.3l1.1-8.9,4.1-.7Z"/>
            <polygon class="cls-6" points="172.1 46.3 172.7 55.5 176.6 57.2 180.9 55.6 180.9 48.1 172.1 46.3"/>
            <path class="cls-53" d="M179.2,53.2c.6,0,1.1-.2,1.6-.4v-2.8c.1,0-8.6-1.8-8.6-1.8l.4,2.7c2.2,2,4.5,2.5,6.7,2.3Z"/>
            <path class="cls-65" d="M180.2,52c3.6-.8,4.3-6.4,4.5-9.7.2-3.6-1.9-12-1.9-12l-17.1,4.8s2.5,10.2,5.8,13.6c3.3,3.5,7.3,3.5,8.7,3.2Z"/>
            <g>
              <path class="cls-58" d="M171.5,48.8c3.3,3.5,7.3,3.5,8.7,3.2.3,0,.6-.2.8-.3-.6,0-1.1,0-1.5,0-4.2-.6-5.8-3.4-7.1-6.7-.8-2-.7-6.1.3-7.6,1.1-.5,4.5-2.3,5.3-2.9.5.4,5.5,1.4,5.2,2.1-.3.7-1,4-.2,5,.3.3,1,.5,1.7.6,0-.4,0-.8,0-1.3-.3-.2-.6-.4-.6-.7,0-.3.2-.6.4-.9-.3-2.5-.9-5.5-1.3-7.3-.3-1.1-.4-1.8-.4-1.8l-17.1,4.8s2.5,10.2,5.8,13.6Z"/>
              <path class="cls-58" d="M184.4,45.1c0,0,0-.1,0-.2-.2.1-.4.2-.4.2,0,0,.2,0,.4,0Z"/>
            </g>
            <path class="cls-47" d="M172.6,49.8c1.1,6.1-.4,11.3-1.8,11-1-.2-8.5-.9-2.2-8.3-3.7-.5-5.8-4.5-5.5-10.3.3-4.5,1.2-6.3,2.7-6.5s3.7-.2,3.7-.2l-.4,3.9,1.3,3.4s-1.8,4.1,2.1,7Z"/>
            <g>
              <path class="cls-18" d="M168,39.6c-.8-.1-2.4,1.3-1.1,3,1,1.3,1.4,1.5,2.1,2,.8.6,1.6,0,1.7-.3.3-1.3-.8-4.4-2.7-4.7Z"/>
              <path class="cls-80" d="M166.9,41.5c.1-.2.3-.5.5-.7.2-.2.5-.2.8-.1.3,0,.6.2.7.5.1.3.2.6.2.8,0,0,0,0,0,.1-.2.3-.2.5,0,.7.2.2.5.3.9.4-.4,0-.7,0-1.1-.2-.2-.1-.3-.3-.3-.6,0-.2,0-.4.2-.6h0c0-.1,0-.4,0-.6,0-.2-.3-.4-.5-.5-.2,0-.5,0-.7,0-.2.1-.4.3-.5.6,0,0,0,0,0,0Z"/>
            </g>
            <path class="cls-28" d="M178.2,32.4s0,1.5,3.1,2.2c3.1.6,2.8,1.6,2.5,2.3-.3.7-.9,2.9-.1,3.9.6.7,3.3.5,2.9,1.7-.3,1.2-1.9,1.8-1.9,1.8,0,0,2.7.2,3.1-2,.3-2.1-3-1.7-3-2.8,0-1.2,3-2.3,1.9-5.5s-3.8-2.6-3.8-2.6l-4.7,1.1Z"/>
            <path class="cls-7" d="M185.8,33.4c-.7-.2-1.9.3-2.2.8-.2.3,1.4,1.1,1.3,1.9-.1.8-1.5,3.1-.6,4.2.6.7,2.8.4,3.3,2.1.2-.7,0-1.1-.4-1.5-.9-.6-2.4-.7-2.3-1.4,0-.9,1.7-1.7,2.1-3.4.1-1.4-.6-2.4-1.1-2.7Z"/>
            <g>
              <path class="cls-29" d="M178.2,48.2c.3.8,2.6.2,2.6-.3,0-.2-.7,0-1.3.1-.7,0-1.4,0-1.3.2Z"/>
              <path class="cls-58" d="M181.1,39.5l-.5-1.2s-.2-.3,1.7-.7c.4,0,1.8.6,1.8.6l-.9,1.1h-1c0-.1-1.1.2-1.1.2Z"/>
              <path class="cls-58" d="M174.9,39.5l-.9-1.7s1-.3,2.1-.2c1.6.3,1.8.1,2.6.8-.2.6-1.5,1.2-1.5,1.2,0,0-.8-.6-1.1-.5-.5,0-1.3.4-1.3.4Z"/>
              <path class="cls-32" d="M179.4,40.9c0,0,0-.1,0-.2v-1.3c-.1,0-.9,4.4-.9,4.4,0,.2,0,.4.2.5l.4.3c.2.2.5.1.6,0l1.2-1.1c.2-.2.2-.6,0-.8l-.5-.4c-.3-.3-.8-1-1.1-1.4Z"/>
              <polygon class="cls-80" points="178.4 44.1 178.8 44.4 179.4 43.9 178.8 43.7 178.4 44.1"/>
              <path class="cls-27" d="M174,37.9c.4-.3.8-.4,1.2-.5.4,0,.9,0,1.3,0,.9,0,1.8.4,2.3,1.2-.4-.2-.8-.2-1.2-.3-.4,0-.8-.1-1.2-.2-.4,0-.8,0-1.2-.1-.4,0-.8,0-1.2,0Z"/>
              <path class="cls-27" d="M180.5,38.5c.3-.7,1.1-1.1,1.8-1.1.4,0,.7,0,1.1.2.3.1.7.4.8.7-.3-.1-.7-.1-1-.2-.3,0-.6,0-.9,0-.6,0-1.2,0-1.8.4Z"/>
              <g>
                <path class="cls-13" d="M176.9,40.4c0,.5-.2.9-.7,1-.6,0-.9-.4-.9-.9,0-.5.3-1,.7-1,.4,0,.8.4.8.9Z"/>
                <path class="cls-13" d="M177.4,39.8c0,0-.1,0-.1,0-.7-.9-2.1-.2-2.1-.2h-.1c0,0-.7-.5-.7-.5,0,0,0-.2,0-.3,0,0,.2,0,.3,0l.5.4c.4-.2,1.7-.6,2.5.4,0,0,0,.2,0,.3,0,0,0,0-.1,0Z"/>
                <polygon class="cls-24" points="176.9 39.7 176.5 40.5 177.2 40.7 176.9 39.7"/>
              </g>
              <g>
                <path class="cls-13" d="M182.9,40.5c0,.5-.2.9-.7.9-.6,0-.8-.3-.8-.9,0-.5.3-.9.7-1,.4,0,.8.4.8.9Z"/>
                <polygon class="cls-24" points="183 39.7 182.5 40.5 183.3 40.6 183 39.7"/>
                <path class="cls-13" d="M181.1,39.7c0,0-.1,0-.2,0,0,0,0-.2,0-.2,0,0,1.1-.7,2-.2l.5-.4c0,0,.2,0,.3,0,0,0,0,.2,0,.3l-.7.6h-.1c-.8-.5-1.8,0-1.8,0,0,0,0,0,0,0Z"/>
              </g>
              <path class="cls-25" d="M176.9,46.7s1.4-.9,1.8-.8c1.1.4,1.3.1,2,0,.5,0,1.1.7,1.1.7,0,0-.3-.2-1.2,0-.2,0-.7.4-1,.4-.3,0-.6-.2-.9-.2-1,0-1.8-.2-1.8-.2Z"/>
              <path class="cls-71" d="M179.6,47.2c-.2,0-.4,0-.5-.1-.1,0-.2-.1-.3-.1-1,0-1.9-.2-1.9-.2,0,0-.1,0-.1-.1,0,0,0-.1.1-.1,0,0,.8.1,1.8.2.1,0,.3,0,.4.1.2,0,.3.1.4.1.1,0,.3-.1.5-.2.2-.1.4-.2.5-.2.6,0,1.2-.1,1.2-.1,0,0,.1,0,.1.1s0,.1-.1.1c0,0-.6.1-1.2.1,0,0-.2,0-.4.2-.2.1-.4.2-.6.2,0,0,0,0,0,0Z"/>
              <path class="cls-80" d="M179.3,44.8c.4-.4.8-.8,1.2-1.2.2-.2.4-.3.3-.5,0,0,0-.2-.1-.2l-.3-.3c-.4-.4-.8-.9-1.1-1.4,0-.1-.1-.3-.2-.5v-.4c0-.3,0-.6,0-.9,0,.3.1.6.2.8v.4c.1.1.1.2.3.3.3.4.7.9,1.1,1.2l.3.3c.1.1.2.3.3.5,0,.2,0,.4-.2.5-.1.2-.2.2-.4.3-.5.3-.9.7-1.4,1Z"/>
            </g>
            <path class="cls-68" d="M188.4,59.1c-4.3-4-9.6-3.7-11.6-3.8-5.6-.4-12.7,2.4-15.3,8.5-2.6,6.1,10.4,5,10.4,5,0,0,28.2,1.5,16.4-9.7Z"/>
            <path class="cls-49" d="M182.5,55.4s.3,2.2-2.4,4.8c-3.9-1.4-9.2-4.8-9.2-4.8l-2,1.5,12.5,7.2s3.4-6.4,3.5-7.3-2.3-1.3-2.3-1.3Z"/>
            <path class="cls-67" d="M158.9,64.8c1.7-3.8,7-7.2,10.7-8.7,0,0,5,2.2,10.8,5.8,4.3-3,2.7-6.4,2.6-6.5,1.5.6,6.3,2.8,7.7,4.1,14,12.8-19.4,11.1-19.4,11.1,0,0-15.4,1.3-12.4-5.7Z"/>
            <path class="cls-28" d="M186,32.5c-1.4-2.1,0-7.9-9.8-5.8-6.5-1.2-9,.2-10.5,2.3-1.6,2.3-2.4,8.1-1.7,9.6,2.9-2,14-6,14-6h8.1Z"/>
            <path class="cls-47" d="M170.1,26.4c-1.2.8-3.6,2.7-2.9,5.4.5,2.2.9,3.7,1,4.7-1.8.8-3.4,1.6-4.2,2.2-.7-1.5.1-7.3,1.7-9.6.9-1.3,2.2-2.3,4.4-2.6Z"/>
            <path class="cls-28" d="M176.2,31.6s4.9-.7,3.1.8c-1.8,1.6-1.8,2.1-5,4-1.8,1.1-4.1,1.9-2.6,3.2,1.4,1.3,1.8,1.7,1.2,3.3s-2.4,2-1.5,3.6c.8,1.5,2.5,1.5,2.5,1.5,0,0-3.1,1.4-4.3-1.2-1.1-2.6,1.4-2.9,1.3-4.3-.1-1.4-2.6-2.1-3.4-4.1-.8-1.9.3-5.7.3-5.7l8.4-1.2h0Z"/>
            <path class="cls-38" d="M172.1,42.9c.3-.8-.5-2.2-1.3-2.7-.8-.6-1.4-2-1.1-2.9.4-.9,1.4-1.3,2.2-1.6.8-.2,2.5.5,1.6,1.2-1.6.9-3,1.6-1.8,2.7,1.4,1.3,1.8,1.7,1.2,3.3-.3.9-1.1,1.5-1.5,2.1,0,0,0,0,0,0,0,0,.4-1.1.8-2.2Z"/>
            <path class="cls-37" d="M177,27.9s2.8,3.3.4,5.5c-2.4,2.2-4.7,3.2-4.7,3.2,0,0,2.5-2.9,3.3-4.4.9-1.6,1-4.3,1-4.3Z"/>
          </g>
        </g>
        <g>
          <path class="cls-2" d="M173.3,23.5c1.5.9,3.4.4,4.4-1.1.9-1.5.5-3.5-1-4.4-1.5-.9-3.4-.4-4.4,1.1-.9,1.5-.5,3.5,1,4.4Z"/>
          <path class="cls-30" d="M174.6,22.6c1.1.7,2.7,0,3.6-1.5.9-1.5.8-3.2-.3-3.9-1.1-.7-2.7,0-3.6,1.5-.9,1.5-.8,3.2.3,3.9Z"/>
          <path class="cls-4" d="M174.1,22.4c1.1.7,2.7,0,3.6-1.5.9-1.5.8-3.2-.3-3.9-1.1-.7-2.7,0-3.6,1.5-.9,1.5-.8,3.2.3,3.9Z"/>
          <path class="cls-43" d="M174.9,16.5l1.9.8s1.6,1.3.3,3.3c-1.3,2-3,1.2-3,1.2l-1.6-1.4,2.4-4Z"/>
          <path class="cls-26" d="M172.5,20.4c.8.5,2,0,2.7-1.1.7-1.1.6-2.4-.3-2.9-.8-.5-2,0-2.7,1.1-.7,1.1-.6,2.4.3,2.9Z"/>
        </g>
      </g>
      <g>
        <polygon class="cls-56" points="243.9 18.6 245.6 71.1 200 70.8 203.8 20 243.9 18.6"/>
        <g>
          <rect class="cls-17" x="203.2" y="16.4" width="43.4" height="52" transform="translate(449.8 84.8) rotate(180)"/>
          <g class="cls-87">
            <rect class="cls-31" x="201.9" y="18" width="46" height="50.5" transform="translate(449.8 86.5) rotate(180)"/>
            <g>
              <path class="cls-28" d="M224.2,53.3c5.8,1.2,11.4,4.4,12.2,9,1.4,7.6.6,13.8,1.9,26.6-9.4.8-35.9-.9-35.9-.9,0,0,2.7-24.9,3.6-28.7.9-3.6,5.7-8.6,18.2-6Z"/>
              <path class="cls-59" d="M224.7,57.3s.8-.4,1.6-2.2c.8-1.8,1.4-2,2.2-.7.6-.8,2.6-.3,2.2.8,1.4.2,1.6,1.1-.1,1.7-1.7.6-5.8.3-5.8.3Z"/>
              <path class="cls-18" d="M220.2,44.1l-1.4,8.5s4.2,3.8,5.2,4.4c1,.7,2-1,2-1l3.5-7.6-9.3-4.3Z"/>
              <path class="cls-53" d="M226.5,51.4c.6,0,1.3,0,1.9,0l1.2-3-9.3-4.3-.4,3.1c1.8,2.8,4.3,3.9,6.7,4.3Z"/>
              <path class="cls-79" d="M227.7,25.6s-3.2-2.3-7.4-.5c-4.2,1.8-5.7,6.1-4.7,10.6,1,4.5,2,7.1,2,7.1l8.4.7,1.7-17.9Z"/>
              <path class="cls-66" d="M236,33.2s-1.9,6.2-2.2,9.7c-.4,3.5-1,9-2.4,10.1-1.5,1.3-4.9,1.6-6.5-.8-1.1-1.6-5.5-7.5-6.3-9.2-.7-1.7-1.5-11.4,1.3-15.2,2.7-3.8,15.6.8,16.1,5.4Z"/>
              <path class="cls-58" d="M236,33.2s-.6,2-1.2,4.3c-1.7-.4-4.7-1.2-5.4-3.3-3.2,1.6-8.5,3.7-8.5,3.7,0,0,3.3,12.2,5.2,13.9,1.5,1.4,2.1,1.8,3.7,2-1.6.4-3.7,0-4.9-1.6-1.1-1.6-5.5-7.5-6.3-9.2-.7-1.7-1.5-11.4,1.3-15.2,2.7-3.8,15.6.8,16.1,5.4Z"/>
              <path class="cls-29" d="M227.7,48.6c.5-1,2.5.1,2.3.7-.1.3-.6-.2-1.2-.3-.6-.2-1.3,0-1.1-.4Z"/>
              <polygon class="cls-18" points="228.3 45 230.3 46.2 231.6 45.3 231 42.4 229.7 38.6 228.3 45"/>
              <path class="cls-80" d="M228.3,45c.7.4,1.4.7,2.1,1.1h-.2c.4-.3.8-.7,1.2-1v.2c-.2-.4-.3-.9-.4-1.3,0-.4-.2-.9-.2-1.3-.4-1.3-.8-2.7-1.1-4.1.5,1.3,1,2.6,1.4,4,.1.4.2.9.3,1.3.1.4.2.9.3,1.3h0c0,.1-.1.2-.1.2-.4.3-.8.6-1.3.9h0c0,0,0,0,0,0-.7-.4-1.3-.9-1.9-1.3Z"/>
              <polygon class="cls-80" points="228.3 45 229.7 45.8 229.3 44.5 228.4 44.5 228.3 45"/>
              <path class="cls-18" d="M218.6,36.4c-.8-.6-2.7,1-2.4,2.7.3,1.9,1.2,4.8,2.5,5.6,1,.6.8-.7,1.2-1.1,1-1.1.5-5.9-1.2-7.2Z"/>
              <path class="cls-80" d="M217,39c.2-.3.5-.5.8-.7.2,0,.4,0,.6,0,0,0,.2,0,.3.2,0,0,.1.1.2.2.1.1.2.3.2.5,0,.2,0,.4,0,.6,0,.4,0,.8-.2,1.1,0,0,0,0,0,0-.3.2-.5.4-.4.7.1.3.4.7.6,1-.4-.1-.8-.4-1-.8-.1-.2-.2-.5,0-.8.1-.3.3-.4.5-.5h0c.1-.2.2-.5.3-.8,0-.3,0-.6-.2-.9,0,0,0-.1-.1-.2,0,0-.1,0-.2-.1-.1,0-.3,0-.4,0-.3,0-.6.3-.9.5Z"/>
              <path class="cls-77" d="M229.6,32.7s.2,1.6,3.8,3.2c3.6,1.6,5,.7,5,.7l-1.8-1.3s3,.1,2.7-1.3c-1.5-.4-3.2-1.7-3.2-1.7,0,0,2.2.6,2.4-.6-1.8-.6-3.2-2.1-4.6-3.4s-3.9-4.1-9.8-3.1-6.4,8.2-6.4,8.2l-.3,4.4s2.1.7,3.9-.4c.9-.6,3.2-2.8,3.2-2.8l-1.1,2.8s4.6-2,6.3-4.7Z"/>
              <g>
                <path class="cls-79" d="M236.3,32.5c-.9-.4-1.6-.9-1.6-.9,0,0,1.1,0,2.4.4.6.1,1,0,1.3,0-.2.8-1.6.7-2.1.6Z"/>
                <path class="cls-79" d="M235.1,34.3c1.5.6,4.2-.2,4.2-.2.3,1.2-2.1,1.3-2.6,1.3-.8-.4-1.4-.9-1.6-1.1Z"/>
                <path class="cls-79" d="M226.6,31.4l-1.9,5.4c-.8.4-1.3.7-1.3.7l1.1-2.8s-2.3,2.2-3.2,2.8c-1.8,1.1-3.9.4-3.9.4l.3-4.4s0-1.1.5-2.4c.2,2.1.8,5.7,2.6,5.2,2.5-.7,5.8-4.9,5.8-4.9Z"/>
                <path class="cls-79" d="M229.7,31.6s2.5,2.8,5.4,4.1c1,.5,1.9.8,2.8,1.1-.7.1-2.1.2-4.4-.9-3.6-1.6-3.8-3.2-3.8-3.2-.1.2-.3.4-.5.6.4-1,.5-1.8.5-1.8Z"/>
              </g>
              <path class="cls-74" d="M230.9,47.9c-.7-.1-1.4-.4-2.1-.5-.7-.2-1.3-.4-2-.6.4-.1.7-.1,1.1-.1.4,0,.7,0,1.1.2.3.1.7.2,1,.4.3.2.6.4.9.6Z"/>
              <g>
                <polygon class="cls-58" points="230.9 39.2 230 38 234.7 37.4 233 39 232.3 38.8 230.9 39.2"/>
                <path class="cls-58" d="M224.6,39.4l-1.7-1.7s1.2,0,2.2,0c1.6,0,3.1.3,3.1.3l-1.5,1.1s-.5-.2-.7-.2c-.5,0-1.4.4-1.4.4Z"/>
                <path class="cls-27" d="M222.9,37.7c.9-.6,1.8-.8,2.7-.7.5,0,.9,0,1.4.3.5.2.9.4,1.3.9,0,0,0,0,0,0-.4-.2-.9-.2-1.3-.3-.4,0-.9,0-1.3,0-.9,0-1.8,0-2.7,0,0,0,0,0,0,0,0,0,0,0,0,0Z"/>
                <path class="cls-27" d="M230,38c.2-.5.6-.8,1-1,.4-.2.8-.3,1.3-.3.8,0,1.7,0,2.5.6,0,0,0,0,0,0-.8,0-1.7,0-2.5.1-.4,0-.8,0-1.2.1-.4,0-.8.2-1.1.4,0,0,0,0,0,0,0,0,0,0,0,0Z"/>
                <g>
                  <path class="cls-13" d="M226.6,40.4c0,.5-.3.7-.7.7-.6,0-.8-.2-.8-.7,0-.5.4-1,.8-1,.4,0,.8.4.8,1Z"/>
                  <path class="cls-13" d="M224.7,39.6c0,0-.1,0-.2,0,0,0,0-.2,0-.2.2,0,1.5-.8,2.2-.3,0,0,0,.2,0,.3,0,0-.2,0-.3,0-.4-.3-1.4.1-1.8.3,0,0,0,0,0,0Z"/>
                </g>
                <polygon class="cls-24" points="226.7 39.7 226.2 40.4 227 40.7 226.7 39.7"/>
                <g>
                  <path class="cls-13" d="M232.9,40.1c0,.5-.3.7-.7.7-.6,0-.9-.2-.9-.7,0-.5.4-1,.8-1,.4,0,.8.4.8,1Z"/>
                  <path class="cls-13" d="M231,39.4c0,0-.1,0-.2,0,0,0,0-.2,0-.2,0,0,1.3-.7,2.1-.3,0,0,.1.1.1.2,0,0-.1.1-.2.1-.7-.3-1.8.3-1.8.3,0,0,0,0,0,0Z"/>
                </g>
                <polygon class="cls-24" points="233 39.3 232.4 40.2 233.2 40.3 233 39.3"/>
              </g>
              <path class="cls-28" d="M233,65.6c-.9-7.8,1.9-8.9,6.4-2.4,1.7,2.4,3.2,5.1,4.1,8.1,1.9,6.1,3.1,13,3.6,16.2.1,1-11.4.2-11.5-.5l-2.6-21.5Z"/>
              <path class="cls-28" d="M213,61.4c1.2-5.6-5.8-7.8-9.1-3.2-1.5,2.1-3.1,4.6-4.8,7.6-3.2,5.8-4.4,12.2-5.4,15.2-.3.8,14.4,4,14.5,3.3l4.8-22.8Z"/>
              <path class="cls-59" d="M224.7,57.3s-7.3-1.6-9.5-2.5c-2.1-.9-2.7-2-2.4-2.3.3-.3,1.3-.3,1.3-.3,0,0-.2-.7.6-.7.8,0,1.1,0,1.1,0,0,0,.9-.9,1.9-.9.9,0,1.8,1.3,2.6,2.4,1,1.3,4.3,4.3,4.3,4.3Z"/>
              <path class="cls-59" d="M227,56.8s2.6,14.5,1.9,15.7c-.7,1.2-1.1,0-1.1,0l-1.5-15.7h.8Z"/>
              <path class="cls-59" d="M223.2,56.3s-.5,14.8-1.4,15.8c-1,1-1.1-.2-1.1-.2l1.8-15.7.8.2Z"/>
              <path class="cls-19" d="M206.1,85.5s1.5-8,2.5-11c.9-3,1.7-7.8,2.3-8.1.5-.3-.5,7.6,0,8.6.5,1,3.3-2.2,3.4-.5,0,1.7-8.1,11-8.1,11Z"/>
              <path class="cls-19" d="M238,88.5s-.7-8.1-.7-11.1c0-3.1-.5-7.9-.2-8.3.3-.4,2.1,7.7,1.8,10.9,0,1.1,2.2-.9.8,3.5-.5,1.7-1.8,5-1.8,5Z"/>
            </g>
          </g>
        </g>
        <g>
          <path class="cls-2" d="M219.5,23.5c1.5.9,3.4.4,4.4-1.1.9-1.5.5-3.5-1-4.4-1.5-.9-3.4-.4-4.4,1.1-.9,1.5-.5,3.5,1,4.4Z"/>
          <path class="cls-30" d="M221.1,22.5c1.1.7,2.7,0,3.6-1.5.9-1.5.8-3.2-.3-3.9-1.1-.7-2.7,0-3.6,1.5-.9,1.5-.8,3.2.3,3.9Z"/>
          <path class="cls-4" d="M220.7,22.3c1.1.7,2.7,0,3.6-1.5.9-1.5.8-3.2-.3-3.9-1.1-.7-2.7,0-3.6,1.5-.9,1.5-.8,3.2.3,3.9Z"/>
          <path class="cls-40" d="M221.5,16.4l1.9.8s1.6,1.3.3,3.3c-1.3,2-3,1.2-3,1.2l-1.6-1.4,2.4-4Z"/>
          <path class="cls-26" d="M219.1,20.3c.8.5,2,0,2.7-1.1.7-1.1.6-2.4-.3-2.9-.8-.5-2,0-2.7,1.1-.7,1.1-.6,2.4.3,2.9Z"/>
        </g>
      </g>
      <g>
        <g>
          <polygon class="cls-56" points="100.9 75.7 99.9 130.6 141.4 130.9 146.4 76.8 100.9 75.7"/>
          <polygon class="cls-17" points="100.9 74.9 102.4 128.3 148.8 126.9 145.9 75.4 100.9 74.9"/>
          <g>
            <polygon id="SVGID-4" data-name="SVGID" class="cls-81" points="104.5 78 143.9 78 146 124.6 105.4 125.3 104.5 78"/>
            <g class="cls-86">
              <g>
                <g>
                  <path class="cls-29" d="M132.1,95c.4-.9,2.3-1.1,3.1.3.5,1,.6,3.5-.2,5.5-.4.9-1.4.2-1.8-.1-1.2-1.2-2.4-2.9-1.1-5.7Z"/>
                  <polygon class="cls-18" points="120.4 107.7 122.2 114 127.9 116.9 133.3 114.1 133.7 108.5 120.4 107.7"/>
                  <path class="cls-53" d="M131.2,111.9c.8-.1,1.6-.3,2.3-.6l.2-2.8-13.2-.9.7,2.7c3.4,1.8,6.9,2,10,1.6Z"/>
                  <path class="cls-64" d="M131.3,109.7c6.3-2.3,3.8-5.3,3.2-9.6-.4-3.2-1.5-11.5-1.5-11.5l-16.9,4.6s1.2,11.4,4.4,14.8c3.2,3.4,7.9,2.8,10.8,1.7Z"/>
                  <path class="cls-58" d="M131.3,109.7c-.9,0-1.6,0-2.1-.2-4.1-.6-5.6-3.5-6.8-6.8-.7-2-1.1-7.5-.1-8.9,10.1-.5,10.6-5.2,10.6-5.2l-16.9,4.6s1.2,11.4,4.4,14.8c3.2,3.4,7.9,2.8,10.8,1.7Z"/>
                  <path class="cls-29" d="M131,104.8c-.4-.8-2.2.1-2.1.6,0,.3.5-.1,1-.3.6-.2,1.1,0,1-.4Z"/>
                  <path class="cls-28" d="M119,96.9s1.2,3.1,0,5.3c-.2.5-.2,0-.2,0l-4-2.1-2.3-6.3,6.4,3Z"/>
                  <path class="cls-28" d="M119,96.9c-.3-1-1.9-4.1-.2-4.5,1.6-.4,5.3-.2,7.3-.3,2,0,7.6-1.2,6.8-4.1-.3-1-.9-5.3-6.6-4.7s-11,4.2-12.9,6.6c-2.6,3.3,1.5,9.6,1.5,9.6l4.1-2.6Z"/>
                  <path class="cls-18" d="M117.2,98.4c-1-.2-3.2,1.5-2.3,3.1,1,1.7,2,3.4,3,3.8,1.2.5,1.8-.4,2-.9.6-1.6-.4-5.5-2.7-6Z"/>
                  <g>
                    <polygon class="cls-18" points="128.1 101.4 129.6 101.7 131 100.4 129.8 97.3 128.1 95.9 128.1 101.4"/>
                    <path class="cls-80" d="M128.1,101.4c.5,0,1,.1,1.5.2h-.1c.4-.4.9-.9,1.4-1.3v.2c-.3-.5-.5-1.1-.7-1.6-.2-.5-.4-1.1-.6-1.6h0c-.5-.4-1.1-.9-1.6-1.4.6.4,1.2.8,1.8,1.2.3.6.5,1.1.7,1.6.2.5.4,1.1.6,1.6h0c0,.1-.1.2-.1.2-.5.4-1,.8-1.5,1.2h0c-.5,0-1-.2-1.5-.4Z"/>
                  </g>
                  <polygon class="cls-80" points="128.1 101.3 129 101.5 129 100.9 128.2 100.9 128.1 101.3"/>
                  <path class="cls-27" d="M121.9,96.6s.2-.3.6-.7c.1,0,.2-.2.4-.3.1,0,.3-.2.4-.3.3-.1.7-.3,1-.4.4,0,.7-.1,1.1-.1.3,0,.7,0,.9.1.5.1.8.3.8.3v.4c-.1,0-.5,0-.9,0-.2,0-.5,0-.8,0-.3,0-.6,0-.9.1-.3,0-.6.2-.9.3-.1,0-.3.1-.4.2-.1,0-.2.1-.3.2-.2.1-.4.2-.5.3-.1,0-.2.1-.2.1l-.3-.3Z"/>
                  <path class="cls-27" d="M128.7,94.7s0,0,.1-.1c0,0,.2-.2.4-.4.2-.1.4-.3.7-.4.1,0,.3-.2.4-.2h.2c0-.1.2-.2.2-.2.3,0,.5-.2.8-.3.3,0,.6,0,.8,0,.5,0,.8,0,.8,0v.4s-.3,0-.7.1c-.2,0-.4.1-.6.2-.1,0-.3,0-.4.1l-.4.2c0,0-.2,0-.2,0h-.2c-.1.2-.2.2-.4.3-.2.1-.5.2-.7.3-.4.2-.7.3-.7.3l-.2-.3Z"/>
                  <path class="cls-80" d="M115.5,100.6c0-.4.2-.7.5-1,.1-.1.3-.3.6-.3.1,0,.2,0,.3,0,.1,0,.2,0,.3.1.2,0,.3.2.4.4.1.2.2.3.3.5.2.4.2.8.2,1.2,0,0,0,0,0,.1-.2.3-.3.6,0,.9.2.3.6.5,1,.6-.4,0-.9,0-1.3-.3-.2-.1-.3-.4-.3-.7,0-.3.2-.5.3-.7h0c0-.2,0-.5,0-.8,0-.3-.3-.6-.5-.8,0,0-.1,0-.2-.1,0,0-.1,0-.2,0-.2,0-.3,0-.4.2-.3.2-.5.6-.6.9Z"/>
                  <path class="cls-74" d="M127.3,104.4s.4-.2.7-.4c.2-.1.4-.2.7-.3.3,0,.5-.2.8-.3.3,0,.6-.2.9-.2.3,0,.6,0,.8,0,.5,0,.7.2.7.2,0,0-.3,0-.7,0-.2,0-.4,0-.7.1-.2,0-.5.2-.8.3-.3,0-.6.2-.8.3-.3,0-.5.1-.8.2-.2,0-.4,0-.5.1-.1,0-.2,0-.2,0Z"/>
                </g>
                <polygon class="cls-13" points="119 99.8 118.7 99.3 121.5 98 121.6 98.4 119 99.8"/>
                <path class="cls-13" d="M135,94.4c.2.8-.3,2.7-2.2,3.2-1.9.5-3.8-.8-3.9-1.7-.2-.8,1.4-1.2,3.3-1.7,1.9-.5,2.7-.7,2.9.1Z"/>
                <path class="cls-13" d="M127.9,96.3c.2.8-1,2.9-2.9,3.3-1.9.5-3.7-.8-3.9-1.7-.2-.8,1.3-1,3.1-1.5,1.9-.5,3.4-1,3.6-.2Z"/>
                <g>
                  <path class="cls-23" d="M133.3,94l-1,3.7c.2,0,.4,0,.5,0,0,0,.1,0,.2,0l.9-3.6c-.2,0-.4,0-.7.1Z"/>
                  <path class="cls-23" d="M132.1,94.3c-.3,0-.5.1-.8.2l-.8,2.9c.4.2.8.3,1.3.3l.8-3.5c-.2,0-.4,0-.6.1Z"/>
                </g>
                <g>
                  <path class="cls-23" d="M124.7,99.7l.8-3.6c-.4.1-.8.2-1.3.3,0,0,0,0,0,0l-.9,3.1c.4.1.9.1,1.4,0Z"/>
                  <path class="cls-23" d="M126.8,95.9c-.2,0-.4,0-.7.1l-1,3.6c.3,0,.5-.2.8-.3l.9-3.4Z"/>
                </g>
                <path class="cls-13" d="M127.5,96.8l-.4-.2c.3-.8.7-1.2,1.2-1.3.7,0,1.3.7,1.3.7l-.4.3c-.1-.2-.5-.6-.9-.6-.3,0-.6.4-.8,1Z"/>
                <path class="cls-51" d="M121,109.9c-.6-.5-.5,1.3-.6,3,0,1.7-1.1,2-2.7,2.9-1.6.9-10.7,2.5-11.6,5.1-.9,2.6.3,9.1.3,9.1,0,0,13.7,2.1,24.7.3,11-1.8,14.6-3,15-5,.4-1.9,0-9-3.9-9.9-3.8-.8-7.4-2.1-7.4-2.1,0,0-.5-3-1-3.3-.5-.3-.9,2.3-5.2,2.6-4.3.2-6.9-1.9-7.5-2.6Z"/>
                <path class="cls-13" d="M124.6,111.9c-1.9-.6-3.1-1.6-3.5-2-.6-.5-.5,1.3-.6,3,0,1.2-.6,1.7-1.4,2.2,2.5-.2,5-.9,5.6-3.1Z"/>
                <path class="cls-13" d="M110,119.1c-.7-.4-1.5-.4-2.3-.2-.8.6-1.4,1.2-1.6,1.9-.9,2.6-2.5,8.7-2.5,8.7,0,0,6.2.9,13.5,1-.7-4.7-2.8-9-7.2-11.4Z"/>
              </g>
            </g>
          </g>
        </g>
        <g>
          <path class="cls-2" d="M116.4,79.3c1,1.4,3,1.7,4.5.6,1.5-1.1,1.8-3,.8-4.5-1-1.4-3-1.7-4.5-.6-1.5,1.1-1.8,3-.8,4.5Z"/>
          <path class="cls-30" d="M118.1,78.2c.8,1,2.5,1.1,3.9,0,1.4-1,1.9-2.7,1.2-3.7-.8-1-2.5-1.1-3.9,0-1.4,1-1.9,2.7-1.2,3.7Z"/>
          <path class="cls-4" d="M117.8,77.9c.8,1,2.5,1.1,3.9,0,1.4-1,1.9-2.7,1.2-3.7-.8-1-2.5-1.1-3.9,0-1.4,1-1.9,2.7-1.2,3.7Z"/>
          <path class="cls-39" d="M120.8,72.7l1.5,1.5s1,1.9-1,3.2c-2,1.3-3.3,0-3.3,0l-1-1.9,3.7-2.7Z"/>
          <path class="cls-26" d="M117.1,75.4c.6.8,1.8.8,2.9,0,1-.7,1.4-2,.9-2.7-.6-.8-1.8-.8-2.9,0-1,.8-1.4,2-.9,2.7Z"/>
        </g>
      </g>
      <g>
        <polygon class="cls-56" points="193.9 74.3 194.9 126.7 151.8 126.5 154.8 73.7 193.9 74.3"/>
        <g>
          <rect class="cls-17" x="154.3" y="72.4" width="43.4" height="52" transform="translate(352 196.8) rotate(180)"/>
          <g class="cls-85">
            <rect class="cls-31" x="153" y="74" width="46" height="50.5" transform="translate(352 198.5) rotate(180)"/>
            <g>
              <path class="cls-28" d="M195.4,122c0,5.7-10.2,4.7-20,4.7s-19.6,1.1-19.6-4.7,9.7-16.1,19.6-16.1,20,10.3,20,16.1Z"/>
              <path class="cls-59" d="M171.5,104.2s-4.2.7-4.2,3.9,2.6,8.9,2.7,9.1c2.2,3.7,6.6,2.7,6.6,2.7l.5,7.8s.7-7.2,1-7.6c.2-.4,4.7-1.2,5.3-3.5.6-2.3.6-7.7,0-8.9-.6-1.2-7.1-5-11.9-3.5Z"/>
              <path class="cls-29" d="M182.8,92.9c.5-.8,2.3-.7,2.9.7.4,1-.4,2.6-.7,4.6-.1.9-1.5.7-1.7.4-1.1-1.4-2-3.2-.5-5.7Z"/>
              <polygon class="cls-18" points="170.8 102.6 171.5 108.9 177.4 113.5 179.6 110 180.5 104.6 170.8 102.6"/>
              <path class="cls-53" d="M178.3,107.7c.6,0,1.2-.2,1.7-.4l.4-2.7-9.7-2.1.3,2.6c2.3,2,4.9,2.6,7.2,2.5Z"/>
              <path class="cls-63" d="M180.3,107.7c4-.4,4.4-5,4.2-9-.1-2.9.4-6.8-.2-9.4-2.5-10.7-17.5-6.6-17.9.8-.2,3.7,1.9,9.5,4.6,13,2.7,3.5,6.3,4.8,9.3,4.5Z"/>
              <path class="cls-18" d="M176.1,103.2s.2-4.9,3.4-5.3,4,4.8,4,4.8c0,0-1.5-4.8-4-4.3s-3.4,4.8-3.4,4.8Z"/>
              <path class="cls-18" d="M174.5,94l-2.5-.2,1.8.4s-1.8.8-1.7.7c.2,0,1.6-.3,1.6-.3l-1.1,1.1,2.3-1.2-.4-.6Z"/>
              <path class="cls-18" d="M182.8,93.4l1.4-.7-.9.8s1.1.2,1,.2c-.1,0-.8.2-.8.2l.7.6-1.5-.5v-.6Z"/>
              <path class="cls-58" d="M178.6,106.6c-3.8-1.1-5-3.9-5.8-7-.5-1.8-1.8-13.7-.9-15.7-2.9,1.2-5.3,3.6-5.4,6.4-.2,3.7,1.9,9.5,4.6,13,2.7,3.5,6.3,4.8,9.3,4.5.8,0,1.4-.3,1.9-.7-1.7,0-2.9-.2-3.6-.5Z"/>
              <path class="cls-29" d="M180.5,102.5c-.3-.9-2.1-.2-2,.3,0,.3.5,0,1-.1.5,0,1.1,0,1-.2Z"/>
              <path class="cls-28" d="M183.5,87.1s.5,1.4.5,2.4.6,5.7.6,5.7c0,0,1-2,1-3.4,0-3-2.2-4.7-2.2-4.7Z"/>
              <path class="cls-28" d="M171.8,97.8c-.3.4-2.3.2-2.3.2l-3.6-2.6s-1.2-5.4-.2-6.7c1.8-2.3,6.5.2,6.2,9.1Z"/>
              <path class="cls-18" d="M168.2,94c-.9-.4-3.2,1-2.5,2.6.8,1.8,2.1,2.3,2.4,3.4.3,1.2,1.9.6,2.1.1.7-1.4,0-5.4-2-6.2Z"/>
              <g>
                <polygon class="cls-18" points="178.3 98.5 179.6 99.4 181.2 98 179.9 96.1 178.9 93.2 178.3 98.5"/>
                <path class="cls-80" d="M178.3,98.5c.5.2.9.5,1.4.7h-.2c.5-.5,1-1,1.5-1.4v.3c-.5-.6-.9-1.2-1.3-1.9-.3-1-.6-2-.9-3,.4,1,.8,1.9,1.2,2.9.5.5.9,1.2,1.3,1.8v.2c.1,0,0,.1,0,.1-.5.5-1.1.9-1.6,1.3h0c0,0,0,0,0,0-.4-.3-.8-.6-1.2-1Z"/>
              </g>
              <polygon class="cls-80" points="178.3 98.5 179.1 98.9 179.2 98.3 178.5 98.2 178.3 98.5"/>
              <path class="cls-27" d="M172.9,92.8c.2-.4.6-.8,1-1.1.4-.3,1-.4,1.5-.3.5.1.9.3,1.4.5l.5.3c.2,0,.3.1.5.1.1,0,.2,0,.2.2,0,0,0,.2-.1.2-.2.1-.6.1-.8,0-.3,0-.5-.2-.7-.3-.4-.2-.8-.3-1.2-.4-.4,0-.7,0-1,.2-.4.2-.7.4-1,.7-.1,0-.2,0-.3,0,0,0,0-.2,0-.2Z"/>
              <path class="cls-27" d="M179.2,92.6c.2-.4.5-.8.9-1.1.4-.3.9-.5,1.3-.5.5,0,1.1,0,1.5.3.4.3.7.6,1,1,0,.1,0,.2,0,.3,0,0-.2,0-.2,0-.3-.3-.7-.5-1-.7-.3-.2-.7-.2-1-.2-.4,0-.7.2-1.1.4-.3.2-.7.4-1,.7-.1,0-.2,0-.3,0,0,0,0-.2,0-.2Z"/>
              <path class="cls-80" d="M166.4,96c.1-.3.3-.7.6-.9.1-.1.4-.2.6-.2.2,0,.4.1.5.2.3.2.5.6.6,1,.1.4.2.8,0,1.1,0,0,0,0,0,.1-.3.3-.4.5-.2.8.2.3.6.5.9.8-.2,0-.4,0-.6-.1-.2,0-.4-.2-.6-.4-.2-.2-.3-.4-.3-.7,0-.3.2-.5.4-.7h0c0-.2,0-.5,0-.8,0-.3-.2-.6-.4-.8-.2-.2-.6-.3-.8-.1-.3.2-.5.5-.6.8,0,0,0,0,0,0Z"/>
              <g>
                <path class="cls-13" d="M176.5,94.1c0,.5-.2.8-.6.9-.5,0-.8-.4-.8-.8,0-.5.3-.9.7-.9.4,0,.7.4.7.9Z"/>
                <path class="cls-13" d="M174.7,93.5c0,0-.1,0-.1,0,0,0,0-.2,0-.2,0,0,1.3-1.1,2-.3,0,0,0,.2,0,.2,0,0-.2,0-.2,0-.5-.6-1.6.3-1.6.3,0,0,0,0,0,0Z"/>
              </g>
              <polygon class="cls-24" points="176.6 93.4 176.1 94.1 176.8 94.4 176.6 93.4"/>
              <g>
                <path class="cls-13" d="M182.2,93.7c0,.5-.2.8-.6.9-.5,0-.8-.4-.8-.8,0-.5.3-.9.7-.9.4,0,.7.4.7.9Z"/>
                <path class="cls-13" d="M180.5,93.1s-.1,0-.1,0c0,0,0-.2,0-.2,0,0,1.2-1,2-.3,0,0,0,.2,0,.2,0,0-.2,0-.2,0-.6-.5-1.6.3-1.6.3,0,0,0,0,0,0Z"/>
              </g>
              <polygon class="cls-24" points="182.3 93 181.8 93.8 182.5 93.9 182.3 93"/>
              <path class="cls-74" d="M177.5,101.6c.6-.4,1.2-.7,2-.9.2,0,.4,0,.5-.1,0,0,.2,0,.3,0,.1,0,.2,0,.3,0,.4.3.5.7.5,1-.2-.3-.4-.6-.6-.7,0,0-.1,0-.2,0h-.3c-.2,0-.3.1-.5.2-.7.2-1.3.4-2.1.5Z"/>
              <path class="cls-28" d="M175.6,87.7c-1-.4-7-1-6.7-2.3.2-1.4,2.9-4.2,6.7-3.8,3.9.3,5.8,1.7,5.6,2.5-.2.8-.3,3-.3,3h-2.2s-.7,1.1-.7,1.1l-2.5-.4Z"/>
            </g>
          </g>
        </g>
        <g>
          <path class="cls-2" d="M168.3,75.6c.2,1.7,1.7,3,3.5,2.8,1.8-.2,3.1-1.7,2.9-3.4-.2-1.7-1.7-3-3.5-2.8-1.8.2-3.1,1.7-2.9,3.4Z"/>
          <path class="cls-30" d="M170,75.4c.1,1.3,1.6,2.2,3.3,2,1.7-.2,3-1.3,2.9-2.6-.1-1.3-1.6-2.2-3.3-2-1.7.2-3,1.3-2.9,2.6Z"/>
          <path class="cls-4" d="M169.9,74.9c.1,1.3,1.6,2.2,3.3,2,1.7-.2,3-1.3,2.9-2.6-.1-1.3-1.6-2.2-3.3-2-1.7.2-3,1.3-2.9,2.6Z"/>
          <path class="cls-70" d="M175.1,72l.5,2s0,2.1-2.5,2.2c-2.4.1-2.8-1.7-2.8-1.7v-2.1c.1,0,4.7-.4,4.7-.4Z"/>
          <path class="cls-26" d="M170.5,72.4c0,.9,1.2,1.6,2.5,1.5,1.3-.1,2.2-1,2.2-1.9,0-.9-1.2-1.6-2.5-1.5-1.3.1-2.2,1-2.2,1.9Z"/>
        </g>
      </g>
      <polygon class="cls-48" points="34.4 96.2 92.9 96.2 91.9 79.4 34.4 79.4 34.4 96.2"/>
      <rect class="cls-57" x="33.7" y="77.6" width="58.4" height="16.8" transform="translate(125.9 172) rotate(180)"/>
      <rect class="cls-12" x="67.5" y="82" width="20.5" height="2" transform="translate(155.4 166) rotate(180)"/>
      <rect class="cls-12" x="67.5" y="85.8" width="20.5" height="2" transform="translate(155.4 173.6) rotate(180)"/>
      <rect class="cls-12" x="67.5" y="89.6" width="20.5" height="2" transform="translate(155.4 181.2) rotate(180)"/>
      <rect class="cls-12" x="39.5" y="81.8" width="20.5" height="2" transform="translate(99.4 165.6) rotate(180)"/>
      <rect class="cls-12" x="39.5" y="85.6" width="20.5" height="2" transform="translate(99.4 173.2) rotate(180)"/>
      <rect class="cls-12" x="39.5" y="89.4" width="20.5" height="2" transform="translate(99.4 180.8) rotate(180)"/>
      <g>
        <path class="cls-2" d="M66,80.6c-.2,1.7-1.7,3-3.5,2.8-1.8-.2-3.1-1.7-2.9-3.4.2-1.7,1.7-3,3.5-2.8,1.8.2,3.1,1.7,2.9,3.4Z"/>
        <path class="cls-30" d="M65,77.7c.4,1.2-.5,2.7-2.1,3.3-1.6.6-3.3.1-3.8-1.1-.4-1.2.5-2.7,2.1-3.3,1.6-.6,3.3-.1,3.8,1.1Z"/>
        <path class="cls-4" d="M64.9,77.3c.4,1.2-.5,2.7-2.1,3.3-1.6.6-3.3.1-3.8-1.1-.4-1.2.5-2.7,2.1-3.3,1.6-.6,3.3-.1,3.8,1.1Z"/>
        <path class="cls-69" d="M58.9,76.9l.4,2.1s1,1.9,3.2.9c2.2-.9,1.8-2.7,1.8-2.7l-1-1.9-4.3,1.6Z"/>
        <path class="cls-26" d="M63.2,75.3c.3.9-.4,2-1.6,2.4-1.2.4-2.4,0-2.8-.8-.3-.9.4-2,1.6-2.4,1.2-.4,2.4,0,2.8.8Z"/>
      </g>
    </g>
  </g>
</svg>