<?xml version="1.0" encoding="UTF-8"?>
<svg xmlns="http://www.w3.org/2000/svg" xmlns:xlink="http://www.w3.org/1999/xlink" viewBox="0 0 294.37 180.82">
  <defs>
    <linearGradient id="b" data-name="¡ÂÁ˚ÏˇÌÌ˚È „‡‰ËÂÌÚ 398" x1="146.64" y1="172.04" x2="146.64" y2="3.73" gradientUnits="userSpaceOnUse">
      <stop offset="0" stop-color="#edb473"/>
      <stop offset="1" stop-color="#e0b595"/>
    </linearGradient>
    <linearGradient id="c" data-name="¡ÂÁ˚ÏˇÌÌ˚È „‡‰ËÂÌÚ 365" x1="154.69" y1="172.64" x2="154.69" y2="-.9" gradientTransform="translate(-5.24 .9) skewX(-2.36)" gradientUnits="userSpaceOnUse">
      <stop offset="0" stop-color="#c77c50"/>
      <stop offset="1" stop-color="#bf8761"/>
    </linearGradient>
    <linearGradient id="d" data-name="¡ÂÁ˚ÏˇÌÌ˚È „‡‰ËÂÌÚ 382" x1="-269.24" y1="-231.08" x2="-269.24" y2="-236.73" gradientTransform="translate(-293.35 49.57) rotate(-145.43) scale(.82 -.91) skewX(16.07)" gradientUnits="userSpaceOnUse">
      <stop offset="0" stop-color="#c72a34"/>
      <stop offset="1" stop-color="#f04c33"/>
    </linearGradient>
    <linearGradient id="e" data-name="¡ÂÁ˚ÏˇÌÌ˚È „‡‰ËÂÌÚ 385" x1="-320.04" y1="84.01" x2="-280.45" y2="44.42" gradientTransform="translate(550.76 134.32) scale(1 -1)" gradientUnits="userSpaceOnUse">
      <stop offset="0" stop-color="#846d7b"/>
      <stop offset="1" stop-color="#937c87"/>
    </linearGradient>
    <linearGradient id="f" data-name="¡ÂÁ˚ÏˇÌÌ˚È „‡‰ËÂÌÚ 382" x1="-155.06" y1="429.55" x2="-155.06" y2="424.08" gradientTransform="translate(-114.27 -186.08) rotate(-78.88)" xlink:href="#d"/>
    <linearGradient id="g" data-name="¡ÂÁ˚ÏˇÌÌ˚È „‡‰ËÂÌÚ 382" x1="-164.43" y1="376.23" x2="-164.43" y2="370.76" gradientTransform="translate(-114.27 -186.08) rotate(-78.88)" xlink:href="#d"/>
    <linearGradient id="h" x1="-402.34" y1="1131.56" x2="-382.33" y2="1131.56" gradientTransform="translate(1233.53 -540.4) rotate(36.7)" gradientUnits="userSpaceOnUse">
      <stop offset="0" stop-color="#c5c7cd"/>
      <stop offset=".05" stop-color="#babdc1"/>
      <stop offset=".12" stop-color="#afb3b3"/>
      <stop offset=".19" stop-color="#abb0af"/>
      <stop offset=".62" stop-color="#c5c7cd"/>
      <stop offset=".76" stop-color="#c0c3c8"/>
      <stop offset=".92" stop-color="#b4b8b9"/>
      <stop offset="1" stop-color="#abb0af"/>
    </linearGradient>
    <linearGradient id="i" x1="-384.47" y1="1131.27" x2="-370.45" y2="1131.27" gradientTransform="translate(1233.53 -540.4) rotate(36.7)" gradientUnits="userSpaceOnUse">
      <stop offset="0" stop-color="#9f6a3f"/>
      <stop offset="1" stop-color="#ab7a3d"/>
    </linearGradient>
    <linearGradient id="j" data-name="¡ÂÁ˚ÏˇÌÌ˚È „‡‰ËÂÌÚ 382" x1="-522.79" y1="-278.01" x2="-522.79" y2="-281.34" xlink:href="#d"/>
    <clipPath id="k">
      <polygon id="l" data-name="SVGID" points="104.07 66.49 144.31 65.2 144.44 19.76 104.2 21.05 104.07 66.49" style="fill: none; stroke-width: 0px;"/>
    </clipPath>
    <linearGradient id="m" x1="-89.53" y1="99.73" x2="-89.53" y2="77.58" gradientTransform="translate(239.88 -22.21) rotate(15.22) skewX(-3)" gradientUnits="userSpaceOnUse">
      <stop offset="0" stop-color="#fcc6a4"/>
      <stop offset=".53" stop-color="#fbc3a1"/>
      <stop offset=".77" stop-color="#fabc9a"/>
      <stop offset=".95" stop-color="#f9af8e"/>
      <stop offset="1" stop-color="#f9ab8a"/>
    </linearGradient>
    <linearGradient id="n" x1="124.94" y1="44.17" x2="130.85" y2="44.17" gradientTransform="matrix(1,0,0,1,0,0)" xlink:href="#m"/>
    <linearGradient id="o" data-name="¡ÂÁ˚ÏˇÌÌ˚È „‡‰ËÂÌÚ 382" x1="-240.22" y1="-380.65" x2="-240.22" y2="-386.11" gradientTransform="translate(-328.28 54.59) rotate(-126.6) scale(1 -1)" xlink:href="#d"/>
    <linearGradient id="p" data-name="¡ÂÁ˚ÏˇÌÌ˚È „‡‰ËÂÌÚ 89" x1="12.67" y1="124.51" x2="50.6" y2="124.51" gradientTransform="translate(117.16 3.96) rotate(-7.5)" gradientUnits="userSpaceOnUse">
      <stop offset="0" stop-color="#fff"/>
      <stop offset="1" stop-color="#e0dbe2"/>
    </linearGradient>
    <linearGradient id="q" data-name="¡ÂÁ˚ÏˇÌÌ˚È „‡‰ËÂÌÚ 382" x1="146.56" y1="-369.47" x2="146.56" y2="-374.37" gradientTransform="translate(436.65 293.4) rotate(-62.83) scale(.82 .91) skewX(16.07)" xlink:href="#d"/>
    <clipPath id="r">
      <polygon id="s" data-name="SVGID" points="156.02 66.26 196.26 64.97 196.39 19.52 156.15 20.82 156.02 66.26" style="fill: none; stroke-width: 0px;"/>
    </clipPath>
    <linearGradient id="t" data-name="¡ÂÁ˚ÏˇÌÌ˚È „‡‰ËÂÌÚ 5" x1="-132.52" y1="-51.95" x2="-132.52" y2="-63.03" gradientTransform="translate(43.86 113.49) rotate(178.15) scale(1 -1) skewX(2)" gradientUnits="userSpaceOnUse">
      <stop offset=".19" stop-color="#fbbd9a"/>
      <stop offset=".43" stop-color="#f9ab8a"/>
    </linearGradient>
    <linearGradient id="u" x1="1920.22" y1="-678.98" x2="1920.22" y2="-700.81" gradientTransform="translate(-1780.68 688.07) rotate(1.3) skewX(-2)" xlink:href="#m"/>
    <linearGradient id="v" data-name="¡ÂÁ˚ÏˇÌÌ˚È „‡‰ËÂÌÚ 3" x1="1986.17" y1="632.47" x2="1986.17" y2="623.39" gradientTransform="translate(-1780.76 790.2) rotate(-37.99) scale(1.02 .98) skewX(-.58)" gradientUnits="userSpaceOnUse">
      <stop offset="0" stop-color="#a85b4b"/>
      <stop offset="1" stop-color="#703935"/>
    </linearGradient>
    <linearGradient id="w" data-name="¡ÂÁ˚ÏˇÌÌ˚È „‡‰ËÂÌÚ 3" x1="-1698.33" y1="628.77" x2="-1703.9" y2="621.68" gradientTransform="translate(-1563.01 623.2) rotate(141.79) scale(1.02 -.98) skewX(.56)" xlink:href="#v"/>
    <linearGradient id="x" data-name="¡ÂÁ˚ÏˇÌÌ˚È „‡‰ËÂÌÚ 3" x1="-134.41" y1="-80.79" x2="-130.1" y2="-72.13" gradientTransform="translate(43.86 113.49) rotate(178.15) scale(1 -1) skewX(2)" xlink:href="#v"/>
    <linearGradient id="y" data-name="¡ÂÁ˚ÏˇÌÌ˚È „‡‰ËÂÌÚ 382" x1="-503.92" y1="21.92" x2="-503.92" y2="16.45" gradientTransform="translate(-328.82) rotate(-180) scale(1 -1)" xlink:href="#d"/>
    <clipPath id="z">
      <rect id="aa" data-name="SVGID" x="205.95" y="19.71" width="37.9" height="45.4" transform="translate(449.81 84.82) rotate(180)" style="fill: none; stroke-width: 0px;"/>
    </clipPath>
    <linearGradient id="ab" x1="-187.73" y1="54.4" x2="-187.31" y2="29.89" gradientTransform="translate(39.54) rotate(-180) scale(1 -1)" xlink:href="#m"/>
    <linearGradient id="ac" data-name="¡ÂÁ˚ÏˇÌÌ˚È „‡‰ËÂÌÚ 382" x1="-550.48" y1="21.84" x2="-550.48" y2="16.38" gradientTransform="translate(-328.82) rotate(-180) scale(1 -1)" xlink:href="#d"/>
    <clipPath id="ae">
      <polygon id="af" data-name="SVGID" points="104.5 78 143.9 78 146.04 124.62 105.39 125.35 104.5 78" style="fill: #9c9aa6; stroke-width: 0px;"/>
    </clipPath>
    <linearGradient id="ag" x1="56.2" y1="127.03" x2="56.2" y2="104.88" gradientTransform="translate(79.41 -18.28) rotate(1.83) skewX(-2.99)" xlink:href="#m"/>
    <linearGradient id="ah" data-name="¡ÂÁ˚ÏˇÌÌ˚È „‡‰ËÂÌÚ 382" x1="-528.51" y1="54.8" x2="-528.51" y2="49.33" gradientTransform="translate(-347.79 -176.27) rotate(-157.35) scale(1 -1)" xlink:href="#d"/>
  </defs>
  <g style="isolation: isolate;">
    <g id="a" data-name="Layer 1">
      <g>
        <polygon points="294.37 180.82 8.03 179.82 3.17 82.01 292.65 .96 294.37 180.82" style="fill: #5d4354; mix-blend-mode: multiply; opacity: .22; stroke-width: 0px;"/>
        <g>
          <path d="M287.4,171.89c-93.45.48-186.92-.35-280.37,0,0,0-3.39-111.25-3.27-167.09,94.22.85,191.51,1.22,285.75-1.07-2.28,56.17-1.39,112.02-2.11,168.16Z" style="fill: url(#b); stroke-width: 0px;"/>
          <path d="M5.72,169.01L9.46,13.21l278.06,3.99c-.96-7.45,1.48-6.04,1.99-13.47C195.28,6.02,98.02,5.65,3.77,4.8c.7,6.59-.76,157.6,1.95,164.21Z" style="fill: #c9af88; mix-blend-mode: multiply; opacity: .5; stroke-width: 0px;"/>
          <path d="M288.32,172.39c-94.02,1.36-190.43.96-284.46,2.21-.77-.76-.26-.26-1.03-1.02C3.76,116.86,1.24,58.8,0,2.13.57,1.21.77.91,1.34,0c95.71,2.23,195.51,1.68,291.31.96-2.07,56.18-3.82,115.28-4.33,171.43ZM7.27,168.63c90.64-.43,187.49.81,278.12.44l1.88-161.11c-92.15,2.24-190.52-.9-282.67-1.96.58,52.84,2.67,162.64,2.67,162.64Z" style="fill: #b0603f; stroke-width: 0px;"/>
          <path d="M3.86,174.6h.3L5.29.05c-.81-.02-3.14-.04-3.95-.05C.77.91.57,1.21,0,2.13c1.24,56.67,3.76,114.73,2.83,171.45.73.73.41.41,1.03,1.02Z" style="fill: #da8d79; stroke-width: 0px;"/>
          <path d="M290.49,174.61c-95.54.29-191.08-.36-286.62,0C4.5,116.18,2.49,58.35,1.34,0c97.45,1.35,193.8,2.63,291.31.96-2.36,58.01-1.41,115.67-2.16,173.65ZM7.84,170.99c93.87-.36,185.63.47,279.5-.01.72-55.52,2.12-166.29,2.12-166.29-94.66,2.29-189.07.71-283.73-.4l2.12,166.7Z" style="fill: url(#c); stroke-width: 0px;"/>
        </g>
      </g>
      <g>
        <polygon points="76.91 57.3 48.98 60.62 44.99 25.59 71.52 22.37 76.91 57.3" style="fill: #cfc596; mix-blend-mode: multiply; opacity: .5; stroke-width: 0px;"/>
        <rect x="45.47" y="23.85" width="28.03" height="33.46" transform="translate(-4.21 6.99) rotate(-6.5)" style="fill: #b385b5; stroke-width: 0px;"/>
        <polygon points="61.86 67.16 23.75 66.69 23.75 32 60.26 31.6 61.86 67.16" style="fill: #baa596; mix-blend-mode: multiply; opacity: .5; stroke-width: 0px;"/>
        <rect x="22.15" y="31.6" width="38.11" height="33" style="fill: #fee858; stroke-width: 0px;"/>
        <g>
          <path d="M51.66,34.93c.49,1.67,2.27,2.62,3.99,2.12,1.72-.5,2.72-2.26,2.23-3.93-.48-1.67-2.27-2.62-3.99-2.12-1.72.5-2.72,2.26-2.24,3.93Z" style="fill: #b28d8d; mix-blend-mode: multiply; opacity: .5; stroke-width: 0px;"/>
          <path d="M52.47,33.25c.44,1.52,2.15,2.36,3.82,1.87,1.67-.49,2.66-2.11,2.22-3.63-.44-1.52-2.15-2.36-3.82-1.87-1.67.48-2.66,2.11-2.22,3.63Z" style="fill: #c72a34; stroke-width: 0px;"/>
          <path d="M52.47,33.04c.44,1.52,2.15,2.36,3.82,1.87,1.67-.49,2.66-2.11,2.22-3.63-.44-1.52-2.15-2.36-3.82-1.87-1.67.48-2.66,2.11-2.22,3.63Z" style="fill: #de3e35; stroke-width: 0px;"/>
          <path d="M57.34,30.23l.75,1.4s.28,2.09-2.01,2.67c-2.29.58-3.06-1.16-3.06-1.16l-.13-1.62,4.45-1.29Z" style="fill: url(#d); stroke-width: 0px;"/>
          <path d="M52.89,31.52c.32,1.1,1.57,1.7,2.8,1.34,1.23-.36,1.96-1.54,1.64-2.63-.32-1.1-1.57-1.7-2.8-1.34-1.23.36-1.96,1.54-1.65,2.63Z" style="fill: #f04c33; stroke-width: 0px;"/>
        </g>
        <text transform="translate(27.5 47.88) rotate(-7.34)" style="fill: #724866; font-family: MarkerFelt-Thin, &apos;Marker Felt&apos;; font-size: 8.06px; font-weight: 200;"><tspan x="0" y="0">M</tspan><tspan x="7.5" y="0" style="letter-spacing: .05em;">e</tspan><tspan x="10.98" y="0" style="letter-spacing: .08em;">e</tspan><tspan x="14.72" y="0" style="letter-spacing: .07em;">t</tspan><tspan x="18.17" y="0" style="letter-spacing: .05em;">i</tspan><tspan x="20.17" y="0" style="letter-spacing: .03em;">n</tspan><tspan x="24.36" y="0">g</tspan><tspan x="0" y="9.67" style="letter-spacing: -.16em;">7</tspan><tspan x="3.34" y="9.67" style="letter-spacing: -.02em;">:</tspan><tspan x="5.02" y="9.67" style="letter-spacing: 0em;">00 pm</tspan></text>
      </g>
      <g>
        <polygon points="280.91 46.69 283.7 89.38 217.83 89.38 214.12 46.69 280.91 46.69" style="fill: #baa596; mix-blend-mode: multiply; opacity: .5; stroke-width: 0px;"/>
        <rect x="214.12" y="46.69" width="66.88" height="40.94" transform="translate(495.13 134.32) rotate(180)" style="fill: #f4f3e5; stroke-width: 0px;"/>
        <rect x="216.15" y="47.93" width="62.82" height="38.45" transform="translate(495.13 134.32) rotate(180)" style="fill: url(#e); stroke-width: 0px;"/>
        <path d="M269.18,83.6l-2.93-.67c-.06-.01-.11-.05-.15-.09l-2.19-2.71s-.05-.07-.05-.11l-.31-1.46-.65-.42-3.04,3.9c-.05.06-.12.1-.19.1l-11.07.83c-.09,0-.18-.03-.23-.1l-3.94-5.02-2.16-2.92c-.05-.06-.06-.14-.05-.21.01-.07.06-.14.13-.18l2.41-1.46c.07-.04.15-.05.23-.02l1.78.63c.09.03.16.11.17.2l.49,2.44,2.93,2.22,5.61-.98-8.02-4.01-4.13-1.88h-11.37s-9.2,2.15-9.2,2.15c-.08.02-.16,0-.22-.05l-2.92-2.16c-.08-.06-.12-.16-.11-.26l.51-2.92c.02-.14.16-.24.3-.22l3.76.44,8.93-1.9,8.78-.93,2.88-.66-7.08-4.72-9.63-.38c-.07,0-.14-.03-.18-.08l-3.87-4.06c-.08-.08-.1-.2-.05-.3l1.21-2.54c.03-.07.1-.12.17-.15.08-.02.16,0,.22.04l4.67,3.3,8.9-1.25c.06,0,.12,0,.17.03l12.11,6.83,9.16,6.63-4.31-5.78-6.51-5.5-2.28-1.52c-.07-.05-.11-.12-.12-.21,0-.08.03-.17.1-.22l2.35-1.97c.09-.08.23-.08.33-.02l4.59,3.12,6.31,5.1,7.68,7.87c.08.09.1.22.04.32l-3.09,5.32.45.78h2.22c.06,0,.13.02.17.06l3.47,2.95c.07.06.1.15.09.24l-.33,2.67c-.01.08-.05.15-.12.19l-2.59,1.67s-.09.04-.15.04c-.02,0-.04,0-.06,0ZM271.88,79.12l-3.29-2.79h-2.28c-.1,0-.19-.05-.23-.14l-.6-1.05c-.05-.08-.05-.19,0-.27l3.07-5.28-7.51-7.7-6.26-5.06-4.4-2.99-1.92,1.61,2.01,1.34,6.58,5.57,5.41,7.24c.08.11.07.26-.02.35-.09.1-.24.11-.35.03l-10.56-7.64-12-6.77-8.92,1.26c-.07.01-.14,0-.19-.05l-4.5-3.18-.99,2.08,3.67,3.85,9.6.38s.1.02.14.05l7.67,5.11c.09.06.14.17.12.27-.02.11-.1.19-.2.21l-3.52.81-8.78.93-8.95,1.9s-.06,0-.09,0l-3.55-.41-.44,2.5,2.68,1.98,9.14-2.14h11.49s.08,0,.11.02l4.2,1.91,8.76,4.38c.1.05.16.17.15.28-.02.12-.11.21-.22.23l-6.54,1.14c-.07.01-.15,0-.21-.05l-3.11-2.35c-.05-.04-.09-.1-.1-.16l-.48-2.39-1.51-.54-2.05,1.24,1.98,2.68,3.85,4.9,10.81-.81,3.11-4c.09-.11.24-.14.36-.06l.95.62c.06.04.1.1.12.17l.32,1.51,2.09,2.59,2.73.62,2.39-1.54.3-2.4Z" style="fill: #fff; stroke-width: 0px;"/>
        <g>
          <path d="M278.44,51.51c-.16,1.74-1.73,3.01-3.52,2.84-1.78-.16-3.1-1.7-2.94-3.43.16-1.73,1.73-3.01,3.51-2.84,1.79.16,3.11,1.7,2.95,3.43Z" style="fill: #b28d8d; mix-blend-mode: multiply; opacity: .5; stroke-width: 0px;"/>
          <path d="M278.03,48.53c.44,1.2-.52,2.67-2.15,3.27-1.63.6-3.31.11-3.76-1.09-.45-1.2.52-2.67,2.15-3.27,1.63-.6,3.31-.12,3.76,1.09Z" style="fill: #c72a34; stroke-width: 0px;"/>
          <path d="M277.93,48.07c.44,1.2-.52,2.67-2.15,3.27-1.63.6-3.31.11-3.76-1.09-.45-1.2.52-2.67,2.15-3.27,1.63-.6,3.31-.12,3.76,1.09Z" style="fill: #de3e35; stroke-width: 0px;"/>
          <path d="M271.96,47.69l.41,2.07s.99,1.86,3.17.94c2.18-.92,1.81-2.73,1.81-2.73l-1.05-1.88-4.34,1.61Z" style="fill: url(#f); stroke-width: 0px;"/>
          <path d="M276.31,46.09c.33.88-.38,1.96-1.58,2.41-1.2.44-2.44.08-2.76-.8-.33-.89.38-1.96,1.58-2.41s2.44-.09,2.76.8Z" style="fill: #f04c33; stroke-width: 0px;"/>
        </g>
        <g>
          <path d="M224.32,50.41c-.16,1.74-1.73,3.01-3.52,2.84-1.78-.16-3.1-1.7-2.94-3.43.16-1.73,1.73-3.01,3.51-2.84,1.79.16,3.11,1.7,2.95,3.43Z" style="fill: #b28d8d; mix-blend-mode: multiply; opacity: .5; stroke-width: 0px;"/>
          <path d="M223.9,47.43c.44,1.2-.52,2.67-2.15,3.27-1.63.6-3.31.11-3.76-1.09-.45-1.2.52-2.67,2.15-3.27,1.63-.6,3.31-.12,3.76,1.09Z" style="fill: #c72a34; stroke-width: 0px;"/>
          <path d="M223.8,46.97c.44,1.2-.52,2.67-2.15,3.27-1.63.6-3.31.11-3.76-1.09-.45-1.2.52-2.67,2.15-3.27,1.63-.6,3.31-.12,3.76,1.09Z" style="fill: #de3e35; stroke-width: 0px;"/>
          <path d="M217.84,46.59l.41,2.07s.99,1.86,3.17.94c2.18-.92,1.81-2.73,1.81-2.73l-1.05-1.88-4.34,1.61Z" style="fill: url(#g); stroke-width: 0px;"/>
          <path d="M222.18,44.99c.33.88-.38,1.96-1.58,2.41-1.2.44-2.44.08-2.76-.8-.33-.89.38-1.96,1.58-2.41,1.2-.44,2.44-.09,2.76.8Z" style="fill: #f04c33; stroke-width: 0px;"/>
        </g>
      </g>
      <g>
        <g>
          <polygon points="264.71 122.03 266.51 151.66 232.45 149.84 231.84 123.35 264.71 122.03" style="fill: #baa596; mix-blend-mode: multiply; opacity: .5; stroke-width: 0px;"/>
          <polygon points="231.28 121.46 231.07 149.49 265.05 148.96 265.23 120.59 231.28 121.46" style="fill: #f4f3e5; stroke-width: 0px;"/>
          <polygon points="232.92 122.79 232.77 147.69 263.8 147.58 263.49 122.03 232.92 122.79" style="fill: #5d4354; stroke-width: 0px;"/>
          <g>
            <path d="M259.56,146.15c-.53.08-1.1.09-1.6-.15-2.09-1.01-2.66-2.45-4.35-4.15-1.26-1.26-1.66-.07-4.62-3.04-1.1-1.11,1.62-2.38,1.62-2.38,0,0,7.19,5.16,9.93,7.2,1.34,1-.37,2.44-.98,2.53Z" style="fill: #92453f; stroke-width: 0px;"/>
            <path d="M235.2,124.42l16.7,12.45-3.62,3.02s-7.96-5.77-10.06-7.97c-3.75-3.92-3.02-7.5-3.02-7.5Z" style="fill: #9d9da3; stroke-width: 0px;"/>
            <path d="M238.94,131.49c1.95,2.05,8.99,7.18,9.95,7.89l3.01-2.51-16.04-11.96c.03,1.31.48,3.87,3.08,6.59Z" style="fill: url(#h); stroke-width: 0px;"/>
            <path d="M245.89,132.38c-.23,1.44-.38,2.91-.52,4.39.31.23.61.46.9.68.19-1.47.38-2.94.51-4.4l-.89-.67Z" style="fill: #c1c3c7; mix-blend-mode: color-dodge; opacity: .3; stroke-width: 0px;"/>
            <path d="M245.15,131.83l-1.48-1.1c.04,1.53-.08,3.04-.24,4.55.44.34.89.69,1.33,1.02.15-1.49.27-2.98.39-4.47Z" style="fill: #c1c3c7; mix-blend-mode: color-dodge; opacity: .3; stroke-width: 0px;"/>
            <path d="M259.62,145.67c-.53.08-1.09.09-1.6-.15-2.09-1.01-2.66-2.45-4.35-4.15-1.26-1.26-1.66-.07-4.62-3.04-1.1-1.11,1.62-2.38,1.62-2.38,0,0,7.19,5.16,9.93,7.2,1.34,1-.37,2.44-.98,2.53Z" style="fill: url(#i); stroke-width: 0px;"/>
            <path d="M258.02,145.52c.51.25,1.07.23,1.6.15.45-.06,1.51-.87,1.48-1.69-.96,1.79-4.18.58-5.24-.75-1.19-1.48-2.28-2.69-4.03-3.41-1.43-.58-2.34-1.6-2.83-2.61-.24.35-.3.74.07,1.11,2.95,2.98,3.36,1.78,4.62,3.04,1.69,1.7,2.26,3.14,4.35,4.15Z" style="fill: #92453f; mix-blend-mode: multiply; opacity: .2; stroke-width: 0px;"/>
            <path d="M251.39,137.97c-.14.19-.42.23-.61.09-.19-.14-.23-.42-.09-.61.14-.19.42-.23.61-.09.19.14.23.42.09.61Z" style="fill: #c1c3c7; stroke-width: 0px;"/>
            <path d="M254.67,140.28c-.14.19-.42.23-.61.09-.19-.14-.23-.42-.09-.61.14-.19.42-.23.61-.09.19.14.23.42.09.61Z" style="fill: #c1c3c7; stroke-width: 0px;"/>
            <path d="M258.11,142.85c-.14.19-.42.23-.61.09-.19-.14-.23-.42-.09-.61.14-.19.42-.23.61-.09.19.14.23.42.09.61Z" style="fill: #c1c3c7; stroke-width: 0px;"/>
            <g>
              <path d="M241.13,132.35c.33-.29-.72-1.12-.98-.73-.19.28.66,1.02.98.73Z" style="fill: #d14a45; stroke-width: 0px;"/>
              <path d="M241.85,131.4c-.18.54.94.93,1.21.6.27-.33-1.08-1-1.21-.6Z" style="fill: #d14a45; stroke-width: 0px;"/>
              <path d="M235.2,124.42s-.56,2.77,1.86,6.11c.17-.2.38-.36.64-.35.67.03.85,1.85,1.51,1.48.65-.37-1.55-1.96-1.23-2.3.32-.35,1.44,1.46,1.77,1.13.33-.33-2.18-2.22-1.75-2.64.42-.42.63,1.27,1.13.98.5-.29,2.45,2.33,2.69,1.87.24-.46-.12-.81-1.38-1.44-.92-.46-1.25-1.32-.92-1.62l-4.32-3.22Z" style="fill: #d14a45; stroke-width: 0px;"/>
            </g>
          </g>
        </g>
        <g>
          <path d="M257.68,123.97c.29.99,1.34,1.54,2.36,1.25,1.01-.29,1.6-1.33,1.32-2.32-.29-.99-1.34-1.54-2.35-1.25-1.01.3-1.61,1.33-1.32,2.32Z" style="fill: #b28d8d; mix-blend-mode: multiply; opacity: .5; stroke-width: 0px;"/>
          <path d="M258.37,123.35c.26.9,1.27,1.39,2.25,1.1.98-.29,1.57-1.25,1.31-2.14-.26-.9-1.27-1.39-2.25-1.1-.98.29-1.57,1.24-1.31,2.14Z" style="fill: #c72a34; stroke-width: 0px;"/>
          <path d="M258.37,123.22c.26.9,1.27,1.39,2.25,1.1.98-.29,1.57-1.25,1.31-2.14-.26-.9-1.27-1.39-2.25-1.1-.98.29-1.57,1.24-1.31,2.14Z" style="fill: #de3e35; stroke-width: 0px;"/>
          <path d="M261.24,121.56l.44.83s.16,1.23-1.19,1.58c-1.35.34-1.8-.68-1.8-.68l-.08-.96,2.62-.76Z" style="fill: url(#j); stroke-width: 0px;"/>
          <path d="M258.62,122.33c.19.65.93,1,1.65.79.72-.21,1.16-.91.97-1.55-.19-.65-.93-1-1.65-.79-.72.21-1.16.91-.97,1.55Z" style="fill: #f04c33; stroke-width: 0px;"/>
        </g>
      </g>
      <g>
        <polygon points="142.55 19.25 144.28 73.68 98.62 71.44 102.48 20.59 142.55 19.25" style="fill: #cfc69c; mix-blend-mode: multiply; opacity: .5; stroke-width: 0px;"/>
        <polygon points="146.15 17.07 147.22 69.57 101.49 69.7 101.81 18.97 146.15 17.07" style="fill: #f4f3e7; stroke-width: 0px;"/>
        <g style="clip-path: url(#k);">
          <polygon points="101.77 69.16 146.6 67.72 146.74 17.09 101.91 18.53 101.77 69.16" style="fill: #9c9aa6; stroke-width: 0px;"/>
          <g>
            <polygon points="118.12 43.42 118.64 52.13 124.75 53.27 130.73 52.43 131.21 45.46 118.12 43.42" style="fill: #f9ab8a; stroke-width: 0px;"/>
            <path d="M119.24,50.71c-.57-.54-1.5-2.43-1.6-.77-.1,1.66-4.54,2.51-6.15,3.4-1.61.89-7.6,4.48-8.5,7.07-.9,2.59.61,5.8.61,5.8,0,0,13.68,2.09,24.71.29,11.03-1.81,16.59,2.56,16.98.62.39-1.95-.85-10.61-5.31-11.08-3.91-.42-9.1-5.73-9.1-5.73,0,0-.07,1.98-4.32,2.19-4.25.21-6.63-1.14-7.31-1.79Z" style="fill: #5d4655; stroke-width: 0px;"/>
            <path d="M132.82,51.75s-2.72,2.54-3.05,7.12c-.33,4.58-.29,7.16-.29,7.16l15.86-.62s-1.04-6.49-2-7.99c-.96-1.5-5.87-2.75-5.87-2.75l-4.65-2.91Z" style="fill: #473343; stroke-width: 0px;"/>
            <path d="M116.57,51.09s3.48.61,6.28,6.66c2.81,6.05,2.06,9.92,2.06,9.92l-22.41.36,1-9.54s6.17-5.99,13.07-7.41Z" style="fill: #473343; stroke-width: 0px;"/>
            <path d="M133.07,36c.58-.74,2.53-.51,2.93,1.02.28,1.07-.21,3.52-1.52,5.32-.55.76-1.44-.13-1.68-.51-.92-1.48-1.61-3.42.27-5.84Z" style="fill: #f8a284; stroke-width: 0px;"/>
            <path d="M128.85,50.07c6.7-.76,4.89-4.31,5.31-8.65.3-3.18,1.18-11.54,1.18-11.54l-17.45.54s-1.47,11.4.84,15.46c2.3,4.06,6.99,4.56,10.13,4.2Z" style="fill: url(#m); stroke-width: 0px;"/>
            <path d="M128.85,50.07c-.88-.18-1.55-.45-2.02-.64-3.82-1.57-4.6-4.74-5-8.22-.23-2.06.62-7.53,1.95-8.7,9.96,1.87,11.55-2.63,11.55-2.63l-17.45.54s-1.47,11.4.84,15.46c2.3,4.06,6.99,4.56,10.13,4.2Z" style="fill: #fdcc98; mix-blend-mode: multiply; opacity: .25; stroke-width: 0px;"/>
            <path d="M129.76,45.23c-.2-.91-2.18-.41-2.15.14.02.26.55,0,1.07-.03.57-.02,1.14.19,1.07-.11Z" style="fill: #f8a284; stroke-width: 0px;"/>
            <path d="M117.81,35.81c-.93-.46-3.46.74-2.93,2.45.58,1.86,1.16,3.82,1.99,4.4,1.03.71,1.87.07,2.16-.37.92-1.38.84-5.45-1.22-6.48Z" style="fill: #f9ab8a; stroke-width: 0px;"/>
            <g>
              <polygon points="127.3 41.31 128.76 41.79 130.32 40.67 129.47 37.39 127.96 35.85 127.3 41.31" style="fill: #f9ab8a; stroke-width: 0px;"/>
              <path d="M127.3,41.31c.51.1,1.01.22,1.5.35l-.12.02c.49-.42,1-.81,1.51-1.18l-.09.24c-.16-.54-.29-1.09-.42-1.64-.13-.55-.27-1.1-.38-1.66l.04.07c-.48-.54-.95-1.08-1.39-1.66.57.45,1.11.93,1.64,1.42.22.61.36,1.16.51,1.7.16.54.3,1.09.43,1.64l.03.15-.13.09c-.52.37-1.06.72-1.61,1.04l-.07.04c-.53-.21-1-.41-1.46-.62Z" style="fill: #ca705b; stroke-width: 0px;"/>
            </g>
            <polygon points="127.33 41.19 128.18 41.56 128.24 40.88 127.48 40.81 127.33 41.19" style="fill: #ca705b; stroke-width: 0px;"/>
            <path d="M121.54,35.99s.28-.26.78-.51c.12-.07.27-.11.42-.17.15-.05.31-.13.48-.15.34-.05.71-.14,1.08-.12.37,0,.74.04,1.06.14.33.08.63.17.86.31.46.26.75.45.75.45l-.23.87-4.97.02-.23-.85Z" style="fill: #843b37; stroke-width: 0px;"/>
            <path d="M129.46,35.65s.07-.04.18-.11c.11-.06.27-.18.49-.25.22-.08.46-.19.74-.28.14-.05.28-.09.43-.14l.22-.07.26-.04c.3-.02.57-.08.88-.07.31.02.6.06.83.1.45.12.73.25.73.25l-.23,1.32-4.35.27-.18-1Z" style="fill: #843b37; stroke-width: 0px;"/>
            <path d="M115.64,37.63c.18-.33.4-.65.75-.86.17-.11.4-.17.61-.13.1.02.21.05.29.11.09.05.18.12.24.18.14.13.25.31.34.48.08.18.14.36.18.55.07.38.06.79-.06,1.18-.01.05-.04.09-.08.11-.31.25-.47.49-.29.81.17.31.49.6.82.85-.44-.07-.86-.25-1.16-.63-.15-.19-.25-.48-.17-.77.07-.3.29-.47.47-.64l-.09.12c.1-.31.18-.64.16-.97-.02-.32-.14-.66-.33-.9-.07-.08-.11-.12-.18-.16-.06-.05-.13-.08-.21-.1-.15-.05-.31-.03-.47.05-.31.15-.58.44-.82.72Z" style="fill: #ca705b; stroke-width: 0px;"/>
            <path d="M126.17,44.03s.38-.07.79-.21c.19-.06.41-.12.71-.16.28-.03.58-.09.89-.11.31-.02.6-.02.9-.02.27,0,.57.11.77.17.43.16.67.34.67.34,0,0-.29-.04-.74-.1-.23-.03-.44-.04-.73-.04-.26.02-.57.05-.86.07-.29,0-.59.04-.87.05-.26.01-.57.02-.82.02-.25,0-.42-.03-.53-.01-.11,0-.17,0-.17,0Z" style="fill: #df725f; stroke-width: 0px;"/>
            <g>
              <path d="M125.12,38.26c-.05.48-.34.81-.73.79-.55-.02-.73-.46-.68-.94.05-.48.41-.84.79-.8.39.04.67.46.62.94Z" style="fill: #473343; stroke-width: 0px;"/>
              <path d="M123.41,37.44c-.05,0-.1-.03-.13-.07-.05-.08-.03-.18.05-.23.06-.04,1.43-.95,2.06-.07.05.07.04.18-.04.23-.07.05-.18.04-.23-.04-.45-.62-1.59.14-1.6.15-.03.02-.07.03-.1.03Z" style="fill: #473343; stroke-width: 0px;"/>
            </g>
            <polygon points="125.23 37.64 124.7 38.27 125.38 38.6 125.23 37.64" style="fill: #fbc29f; stroke-width: 0px;"/>
            <g>
              <path d="M132.28,38.17c-.05.48-.34.81-.73.79-.55-.02-.73-.46-.68-.94.05-.48.41-.84.79-.8.39.04.67.46.62.94Z" style="fill: #473343; stroke-width: 0px;"/>
              <path d="M130.63,37.35c-.05,0-.1-.03-.13-.07-.05-.08-.04-.18.04-.23.05-.04,1.28-.89,2.05-.09.06.07.06.17,0,.24-.07.06-.17.06-.24,0-.57-.6-1.61.12-1.62.13-.03.02-.07.03-.1.03Z" style="fill: #473343; stroke-width: 0px;"/>
            </g>
            <polygon points="132.42 37.44 131.83 38.17 132.57 38.4 132.42 37.44" style="fill: #fbc29f; stroke-width: 0px;"/>
          </g>
          <path d="M119.79,35.65s-.37,5.93,1.06,6.49c1.44.56,5.39-.12,7.2-.06,1.81.06,4.85-.31,5.16-.25.31.06,1.47-5.73,1.47-5.73,0,0-.79,5.85-.6,8.32.19,2.47.35,4.93-2.21,5.8-2.56.87-8.83,2.04-11.99-1.21s-3.03-6.35-3.03-6.35c0,0,2.24-.64,2.24-2.33s-.59-3.98-.59-3.98l1.28-.7Z" style="fill: #a53f3b; stroke-width: 0px;"/>
          <path d="M124.94,44.04c.16-.76,5.31-1.06,5.81-.41s-.97,1.28-2.59,1.4-3.37-.25-3.22-1Z" style="fill: url(#n); stroke-width: 0px;"/>
          <path d="M125.64,44.33s.37-.11.77-.29c.18-.08.4-.16.69-.23.28-.06.57-.14.87-.19.31-.04.59-.07.9-.11.27-.02.58.05.78.1.44.12.69.28.69.28,0,0-.3-.01-.74-.03-.23,0-.44,0-.73.03-.25.04-.56.11-.85.15-.29.03-.59.09-.86.13-.26.04-.56.07-.82.1-.25.02-.42.01-.53.04-.11.01-.17.02-.17.02Z" style="fill: #df725f; stroke-width: 0px;"/>
          <path d="M115.49,36.15s-1.29-4.62-.54-6.66c.75-2.04,6.83-4.33,10.11-4.37,3.29-.04,9.41,2.04,10.16,2.35.75.31-.37,9.11-.37,9.11,0,0,.31-5.18-3-5.37-3.31-.19-10.86-.12-11.3.75-.44.87-.79,4.99-.79,4.99l-1.03.33s-.58-2.43-3.24-1.14Z" style="fill: #a53f3b; stroke-width: 0px;"/>
          <path d="M124.73,49.55c-3.59-1.11-5.78-3.94-6.77-7.4-.55.35-1.08.51-1.08.51,0,0-.13,3.1,3.03,6.35,3.15,3.25,9.43,2.08,11.99,1.21.9-.31,1.46-.81,1.8-1.44-3.02.78-6.15,1.24-8.96.77Z" style="fill: #873138; stroke-width: 0px;"/>
          <path d="M114.95,29.49c-.75,2.04.54,6.66.54,6.66.81-.39,1.42-.44,1.88-.32.27-3.61,1.5-7.23,3.51-9.93-2.74.85-5.45,2.27-5.94,3.59Z" style="fill: #873138; stroke-width: 0px;"/>
        </g>
        <g>
          <path d="M117.83,21.64c.16,1.74,1.73,3.01,3.52,2.84,1.78-.16,3.1-1.7,2.94-3.43-.16-1.73-1.73-3.01-3.51-2.84-1.79.16-3.11,1.7-2.95,3.43Z" style="fill: #b28d8d; mix-blend-mode: multiply; opacity: .5; stroke-width: 0px;"/>
          <path d="M119.69,20.45c.12,1.28,1.61,2.19,3.35,2.03,1.73-.16,3.04-1.32,2.92-2.6-.12-1.28-1.61-2.19-3.35-2.03-1.73.16-3.04,1.32-2.92,2.6Z" style="fill: #c72a34; stroke-width: 0px;"/>
          <path d="M119.59,20c.12,1.28,1.61,2.19,3.35,2.03,1.73-.16,3.04-1.32,2.92-2.6-.12-1.28-1.61-2.19-3.35-2.03-1.73.16-3.04,1.32-2.92,2.6Z" style="fill: #de3e35; stroke-width: 0px;"/>
          <path d="M124.81,17.09l.52,2.04s-.1,2.11-2.46,2.21c-2.36.11-2.81-1.69-2.81-1.69l.14-2.15,4.61-.42Z" style="fill: url(#o); stroke-width: 0px;"/>
          <path d="M120.2,17.51c.08.94,1.19,1.61,2.46,1.49,1.27-.11,2.23-.97,2.15-1.91-.09-.94-1.19-1.61-2.46-1.49-1.27.12-2.24.97-2.15,1.91Z" style="fill: #f04c33; stroke-width: 0px;"/>
        </g>
      </g>
      <g>
        <g>
          <polygon points="148.05 125.88 151.67 145.57 188.12 141.48 179.98 123.28 177.77 110.97 148.05 125.88" style="fill: #baa596; mix-blend-mode: multiply; opacity: .5; stroke-width: 0px;"/>
          <g>
            <polygon points="178.13 104.79 179.02 123.14 186.17 140.46 151.55 144.05 146.06 126.4 144.19 105.98 178.13 104.79" style="fill: url(#p); stroke-width: 0px;"/>
            <polygon points="186.17 140.46 179.02 123.14 146.01 125.87 146.06 126.4 151.55 144.05 186.17 140.46" style="fill: #e3dfe5; stroke-width: 0px;"/>
            <g>
              <rect x="154.34" y="118.64" width="3.93" height="1.18" transform="translate(-7.94 11.2) rotate(-4)" style="fill: #c3c2bf; stroke-width: 0px;"/>
              <rect x="170.34" y="115.11" width="3.93" height="1.18" transform="translate(-7.65 12.31) rotate(-4)" style="fill: #c3c2bf; stroke-width: 0px;"/>
              <polygon points="163.7 125.67 156.8 126.23 157.14 127.41 164.03 126.85 163.7 125.67" style="fill: #c3c2bf; stroke-width: 0px;"/>
              <rect x="155.23" y="110.75" width="7.48" height="1.18" transform="translate(-7.39 11.38) rotate(-4.01)" style="fill: #c3c2bf; stroke-width: 0px;"/>
              <rect x="159.11" y="112.99" width="9.21" height="1.18" transform="translate(-7.53 11.71) rotate(-4)" style="fill: #c3c2bf; stroke-width: 0px;"/>
              <rect x="153.98" y="113.57" width="2.79" height="1.18" transform="translate(-7.59 11.12) rotate(-4)" style="fill: #c3c2bf; stroke-width: 0px;"/>
              <rect x="171.6" y="117.65" width="2.79" height="1.18" transform="translate(-7.84 12.38) rotate(-4.01)" style="fill: #c3c2bf; stroke-width: 0px;"/>
              <polygon points="162.77 131.21 157.46 131.64 157.79 132.82 163.11 132.39 162.77 131.21" style="fill: #c3c2bf; stroke-width: 0px;"/>
              <rect x="163.03" y="115.41" width="5.63" height="1.18" transform="translate(-7.69 11.85) rotate(-4)" style="fill: #c3c2bf; stroke-width: 0px;"/>
              <polygon points="165.55 132.2 173.25 131.58 172.94 130.4 165.22 131.02 165.55 132.2" style="fill: #c3c2bf; stroke-width: 0px;"/>
              <polygon points="172.81 138.14 180.5 137.52 180.2 136.33 172.47 136.96 172.81 138.14" style="fill: #c3c2bf; stroke-width: 0px;"/>
              <polygon points="163.13 129.66 172.06 128.94 171.75 127.76 162.79 128.48 163.13 129.66" style="fill: #c3c2bf; stroke-width: 0px;"/>
              <polygon points="168.28 134.71 167.94 133.53 161.96 134.01 162.3 135.19 168.28 134.71" style="fill: #c3c2bf; stroke-width: 0px;"/>
              <polygon points="155.01 131.84 152.61 132.03 152.92 133.21 155.35 133.02 155.01 131.84" style="fill: #c3c2bf; stroke-width: 0px;"/>
              <rect x="149.33" y="119.04" width="2.66" height="1.18" transform="translate(-7.99 10.81) rotate(-4)" style="fill: #c3c2bf; stroke-width: 0px;"/>
              <polygon points="154.36 126.42 150.44 126.74 150.74 127.92 154.69 127.6 154.36 126.42" style="fill: #c3c2bf; stroke-width: 0px;"/>
              <polygon points="160.55 128.65 151.62 129.37 151.93 130.55 160.89 129.83 160.55 128.65" style="fill: #c3c2bf; stroke-width: 0px;"/>
              <polygon points="159.52 134.2 153.8 134.66 154.1 135.85 159.85 135.38 159.52 134.2" style="fill: #c3c2bf; stroke-width: 0px;"/>
              <rect x="148.99" y="116.18" width="11.7" height="1.18" transform="translate(-7.77 11.1) rotate(-4)" style="fill: #c3c2bf; stroke-width: 0px;"/>
              <rect x="169.99" y="120.56" width="3.93" height="1.18" transform="translate(-8.03 12.29) rotate(-4)" style="fill: #c3c2bf; stroke-width: 0px;"/>
              <rect x="162.49" y="121.03" width="5.63" height="1.18" transform="translate(-8.08 11.83) rotate(-4)" style="fill: #c3c2bf; stroke-width: 0px;"/>
              <rect x="149.32" y="121.69" width="11.7" height="1.18" transform="translate(-8.16 11.13) rotate(-4)" style="fill: #c3c2bf; stroke-width: 0px;"/>
              <polygon points="166.14 125.48 166.48 126.66 171.07 126.29 170.76 125.1 166.14 125.48" style="fill: #c3c2bf; stroke-width: 0px;"/>
              <rect x="160.61" y="118.05" width="8.38" height="1.18" transform="translate(-7.88 11.79) rotate(-4)" style="fill: #c3c2bf; stroke-width: 0px;"/>
              <rect x="166.57" y="110.24" width="2.92" height="1.18" transform="translate(-7.33 12) rotate(-4)" style="fill: #c3c2bf; stroke-width: 0px;"/>
              <rect x="169.99" y="112.5" width="2.92" height="1.18" transform="translate(-7.48 12.25) rotate(-4)" style="fill: #c3c2bf; stroke-width: 0px;"/>
              <rect x="148.66" y="113.94" width="2.97" height="1.18" transform="translate(-7.63 10.76) rotate(-4)" style="fill: #c3c2bf; stroke-width: 0px;"/>
            </g>
          </g>
        </g>
        <g>
          <path d="M154.76,112.15c-.42,1.45-1.97,2.27-3.47,1.84-1.49-.43-2.36-1.96-1.94-3.41.42-1.45,1.97-2.27,3.46-1.84,1.49.43,2.36,1.96,1.94,3.41Z" style="fill: #b28d8d; mix-blend-mode: multiply; opacity: .5; stroke-width: 0px;"/>
          <path d="M153.94,109.89c.29,1.34-.68,2.69-2.15,3-1.47.31-2.9-.52-3.19-1.86-.29-1.34.68-2.69,2.15-3,1.47-.32,2.9.52,3.19,1.86Z" style="fill: #c72a34; stroke-width: 0px;"/>
          <path d="M153.86,109.73c.29,1.34-.68,2.69-2.15,3-1.47.31-2.9-.52-3.19-1.86-.29-1.34.68-2.69,2.15-3,1.47-.32,2.9.52,3.19,1.86Z" style="fill: #de3e35; stroke-width: 0px;"/>
          <path d="M148.98,109.58v1.38s.65,1.71,2.63,1.22c1.99-.5,1.86-2.14,1.86-2.14l-.57-1.29-3.93.84Z" style="fill: url(#q); stroke-width: 0px;"/>
          <path d="M152.91,108.74c.21.97-.5,1.94-1.59,2.18-1.08.23-2.13-.37-2.34-1.34-.21-.97.5-1.94,1.59-2.17,1.09-.23,2.13.37,2.34,1.34Z" style="fill: #f04c33; stroke-width: 0px;"/>
        </g>
      </g>
      <g>
        <polygon points="194.49 19.01 196.17 71.51 150.57 71.2 154.43 20.36 194.49 19.01" style="fill: #cfc69c; mix-blend-mode: multiply; opacity: .5; stroke-width: 0px;"/>
        <polygon points="198.1 16.84 199.17 69.34 153.44 69.47 153.76 18.74 198.1 16.84" style="fill: #f4f3e7; stroke-width: 0px;"/>
        <g style="clip-path: url(#r);">
          <polygon points="153.72 68.93 198.55 67.49 198.69 16.86 153.86 18.3 153.72 68.93" style="fill: #9c9aa6; stroke-width: 0px;"/>
          <g>
            <path d="M181.62,50.5s5.93,8.11,3.41,9.33c-2.52,1.23-8.58.28-8.58.28l1.12-8.92,4.05-.69Z" style="fill: #5a3533; stroke-width: 0px;"/>
            <polygon points="172.06 46.3 172.72 55.46 176.56 57.24 180.88 55.59 180.91 48.11 172.06 46.3" style="fill: url(#t); stroke-width: 0px;"/>
            <path d="M179.25,53.17c.57-.05,1.08-.2,1.56-.42l.15-2.76-8.73-1.79.37,2.67c2.2,2.02,4.53,2.48,6.66,2.3Z" style="fill: #f9ab8a; mix-blend-mode: multiply; opacity: .2; stroke-width: 0px;"/>
            <path d="M180.2,52.04c3.6-.84,4.31-6.39,4.49-9.69.2-3.62-1.88-11.98-1.88-11.98l-17.11,4.83s2.46,10.17,5.8,13.63c3.35,3.46,7.31,3.53,8.7,3.2Z" style="fill: url(#u); stroke-width: 0px;"/>
            <g>
              <path d="M171.5,48.84c3.35,3.46,7.31,3.53,8.7,3.2.29-.07.55-.18.81-.3-.57.03-1.1.02-1.49-.03-4.18-.62-5.77-3.38-7.07-6.74-.77-1.99-.7-6.11.31-7.61,1.11-.5,4.49-2.32,5.29-2.86.5.41,5.48,1.4,5.21,2.14-.27.74-1.02,4-.25,5.01.26.34,1.01.47,1.68.63.02-.38,0-.82-.02-1.28-.34-.16-.59-.36-.58-.68,0-.29.19-.57.44-.88-.29-2.51-.9-5.46-1.31-7.3-.25-1.08-.41-1.77-.41-1.77l-17.11,4.83s2.46,10.17,5.8,13.63Z" style="fill: #fdcc98; mix-blend-mode: multiply; opacity: .25; stroke-width: 0px;"/>
              <path d="M184.42,45.14c0-.06.02-.13.03-.19-.23.12-.41.19-.41.19,0,0,.15,0,.38,0Z" style="fill: #fdcc98; mix-blend-mode: multiply; opacity: .25; stroke-width: 0px;"/>
            </g>
            <path d="M172.57,49.81c1.13,6.09-.44,11.28-1.8,11.02-1.05-.2-8.5-.86-2.18-8.33-3.66-.53-5.82-4.54-5.49-10.27.26-4.53,1.16-6.35,2.74-6.49s3.67-.19,3.67-.19l-.38,3.9,1.29,3.4s-1.81,4.07,2.15,6.95Z" style="fill: #5a3533; stroke-width: 0px;"/>
            <g>
              <path d="M168.04,39.59c-.84-.11-2.45,1.25-1.11,3,.97,1.26,1.44,1.53,2.1,1.99.84.58,1.62.09,1.73-.33.33-1.3-.84-4.41-2.71-4.66Z" style="fill: #f9ab8a; stroke-width: 0px;"/>
              <path d="M166.87,41.55c.1-.25.25-.48.48-.65.22-.17.55-.23.83-.15.27.06.56.25.7.52.15.27.2.56.21.84,0,.04,0,.08-.03.11-.17.27-.23.5,0,.69.21.2.55.34.87.44-.36.06-.73.03-1.07-.19-.17-.11-.32-.32-.33-.56-.02-.24.09-.43.18-.6l-.03.11c0-.25,0-.49-.08-.71-.08-.21-.25-.37-.48-.46-.22-.09-.47-.08-.69.05-.21.13-.39.33-.51.56-.04,0-.04,0-.04-.02Z" style="fill: #ca705b; stroke-width: 0px;"/>
            </g>
            <path d="M178.23,32.35s-.01,1.53,3.07,2.16c3.12.64,2.81,1.59,2.54,2.33-.27.74-.88,2.92-.11,3.93.56.73,3.28.47,2.95,1.67-.34,1.22-1.92,1.82-1.92,1.82,0,0,2.74.18,3.06-1.99.31-2.08-3.02-1.66-3.01-2.83.02-1.17,3.04-2.28,1.95-5.52s-3.81-2.65-3.81-2.65l-4.73,1.09Z" style="fill: #703935; stroke-width: 0px;"/>
            <path d="M185.82,33.37c-.68-.18-1.9.29-2.23.79-.19.29,1.41,1.15,1.27,1.92-.14.77-1.49,3.07-.6,4.16.61.74,2.82.35,3.27,2.12.23-.65,0-1.12-.37-1.49-.9-.57-2.36-.65-2.35-1.43.01-.87,1.66-1.7,2.08-3.38.14-1.41-.62-2.43-1.08-2.68Z" style="fill: url(#v); stroke-width: 0px;"/>
            <g>
              <path d="M178.16,48.16c.33.85,2.65.17,2.56-.34-.04-.25-.66.06-1.28.13-.68.08-1.38-.06-1.27.21Z" style="fill: #f8a284; stroke-width: 0px;"/>
              <path d="M181.11,39.45l-.52-1.18s-.16-.32,1.74-.67c.43-.08,1.77.58,1.77.58l-.93,1.08-.97-.11-1.1.31Z" style="fill: #fdcc98; mix-blend-mode: multiply; opacity: .25; stroke-width: 0px;"/>
              <path d="M174.91,39.51l-.86-1.7s1.03-.34,2.1-.17c1.62.25,1.77.13,2.62.82-.24.56-1.52,1.21-1.52,1.21,0,0-.85-.55-1.06-.54-.49.01-1.29.38-1.29.38Z" style="fill: #fdcc98; mix-blend-mode: multiply; opacity: .25; stroke-width: 0px;"/>
              <path d="M179.35,40.9c-.04-.06-.06-.13-.06-.2l-.14-1.29-.72,4.38c-.03.18.04.36.18.48l.37.3c.19.15.46.15.64-.01l1.25-1.06c.23-.2.24-.55.01-.76l-.46-.42c-.34-.33-.82-.97-1.08-1.42Z" style="fill: #fab494; stroke-width: 0px;"/>
              <polygon points="178.38 44.08 178.82 44.42 179.4 43.9 178.82 43.66 178.38 44.08" style="fill: #ca705b; stroke-width: 0px;"/>
              <path d="M173.99,37.85c.35-.27.79-.4,1.22-.47.44-.07.88-.07,1.31-.03.85.08,1.79.41,2.31,1.15-.41-.16-.81-.24-1.2-.33-.39-.08-.78-.14-1.19-.19-.4-.05-.81-.09-1.21-.12-.41-.02-.82-.06-1.25-.02Z" style="fill: #874a48; stroke-width: 0px;"/>
              <path d="M180.48,38.48c.27-.69,1.08-1.08,1.82-1.07.37,0,.72.07,1.07.22.33.14.65.37.84.68-.34-.11-.66-.14-.97-.19-.31-.03-.63-.06-.93-.07-.6-.01-1.18.1-1.81.42Z" style="fill: #874a48; stroke-width: 0px;"/>
              <g>
                <path d="M176.91,40.41c.02.53-.25.93-.67.98-.6.08-.86-.36-.88-.88-.02-.53.32-.98.75-1,.43-.03.79.38.81.9Z" style="fill: #473343; stroke-width: 0px;"/>
                <path d="M177.39,39.84c-.05,0-.11-.02-.14-.07-.71-.89-2.1-.24-2.11-.23l-.1.05-.71-.57c-.08-.06-.09-.18-.03-.26.06-.08.18-.09.26-.03l.53.43c.38-.16,1.68-.59,2.45.38.06.08.05.19-.03.26-.03.03-.07.04-.11.04Z" style="fill: #473343; stroke-width: 0px;"/>
                <polygon points="176.94 39.72 176.45 40.5 177.24 40.73 176.94 39.72" style="fill: #fbc29f; stroke-width: 0px;"/>
              </g>
              <g>
                <path d="M182.94,40.45c.02.51-.24.89-.65.95-.58.08-.83-.34-.85-.85-.02-.51.31-.94.72-.97.41-.03.76.36.78.87Z" style="fill: #473343; stroke-width: 0px;"/>
                <polygon points="182.99 39.68 182.47 40.53 183.27 40.65 182.99 39.68" style="fill: #fbc29f; stroke-width: 0px;"/>
                <path d="M181.1,39.71c-.06,0-.12-.03-.15-.08-.05-.08-.03-.2.06-.25.04-.03,1.08-.67,2.03-.21l.48-.44c.07-.07.19-.06.26.01.07.07.06.19-.01.26l-.67.61-.11-.07c-.8-.47-1.77.14-1.78.14-.03.02-.06.03-.1.03Z" style="fill: #473343; stroke-width: 0px;"/>
              </g>
              <path d="M176.94,46.69s1.36-.88,1.75-.76c1.13.36,1.28.12,2.03,0,.47-.07,1.14.74,1.14.74,0,0-.3-.18-1.24.03-.23.05-.67.37-.95.4-.29.03-.63-.24-.88-.25-1.05-.05-1.85-.17-1.85-.17Z" style="fill: #f37877; stroke-width: 0px;"/>
              <path d="M179.62,47.24c-.17,0-.35-.08-.51-.14-.12-.05-.24-.1-.33-.11-1.04-.05-1.85-.17-1.86-.17-.07-.01-.12-.08-.11-.15.01-.07.08-.12.15-.11,0,0,.81.12,1.83.17.13,0,.27.07.42.13.16.07.32.14.44.12.12-.01.3-.11.46-.2.18-.1.36-.2.5-.21.56-.03,1.17-.13,1.18-.13.07,0,.14.04.15.11s-.04.14-.11.15c-.03,0-.63.1-1.2.13-.09,0-.25.09-.39.17-.19.1-.38.21-.55.23-.02,0-.04,0-.07,0Z" style="fill: #b25459; stroke-width: 0px;"/>
              <path d="M179.32,44.83c.37-.44.77-.84,1.18-1.24.23-.22.36-.33.32-.53-.02-.09-.06-.16-.14-.23l-.32-.28c-.43-.43-.76-.89-1.05-1.39-.07-.11-.13-.29-.16-.47v-.43c0-.29-.02-.57,0-.86.08.28.14.55.2.83l.08.42c.04.1.07.19.17.31.33.44.67.9,1.07,1.25l.3.29c.13.11.24.31.26.5.02.19-.03.39-.15.54-.14.17-.24.21-.36.3-.45.34-.91.67-1.41.97Z" style="fill: #ca705b; stroke-width: 0px;"/>
            </g>
            <path d="M188.45,59.06c-4.26-4.05-9.61-3.69-11.59-3.82-5.56-.38-12.69,2.45-15.25,8.53-2.56,6.09,10.44,5,10.44,5,0,0,28.21,1.51,16.4-9.71Z" style="fill: #fbbd9a; stroke-width: 0px;"/>
            <path d="M182.48,55.43s.31,2.24-2.36,4.82c-3.85-1.35-9.21-4.79-9.21-4.79l-2.04,1.47,12.46,7.18s3.42-6.41,3.46-7.34-2.31-1.33-2.31-1.33Z" style="fill: #f4f4e7; stroke-width: 0px;"/>
            <path d="M158.91,64.82c1.67-3.82,6.96-7.16,10.69-8.74.07.05,5,2.25,10.79,5.81,4.27-2.97,2.71-6.37,2.6-6.53,1.51.63,6.26,2.75,7.68,4.06,13.98,12.77-19.41,11.09-19.41,11.09,0,0-15.39,1.26-12.36-5.68Z" style="fill: #b5c2b6; stroke-width: 0px;"/>
            <path d="M186.05,32.53c-1.37-2.11.02-7.9-9.81-5.83-6.49-1.16-9.01.16-10.52,2.35-1.6,2.31-2.37,8.11-1.7,9.59,2.86-2,13.95-5.97,13.95-5.97l8.08-.14Z" style="fill: #703935; stroke-width: 0px;"/>
            <path d="M170.14,26.4c-1.24.8-3.58,2.72-2.92,5.41.53,2.16.85,3.74,1.03,4.67-1.8.79-3.38,1.56-4.23,2.15-.67-1.48.1-7.28,1.7-9.59.9-1.3,2.17-2.3,4.42-2.64Z" style="fill: #5a3533; stroke-width: 0px;"/>
            <path d="M176.24,31.62s4.85-.71,3.07.84c-1.78,1.56-1.8,2.11-5.02,4.03-1.77,1.05-4.05,1.89-2.65,3.16,1.41,1.27,1.83,1.69,1.23,3.28s-2.38,2.03-1.55,3.61c.79,1.49,2.49,1.47,2.49,1.47,0,0-3.15,1.36-4.26-1.2-1.11-2.56,1.44-2.94,1.31-4.3-.13-1.36-2.57-2.12-3.39-4.06-.82-1.95.34-5.68.34-5.68l8.41-1.15h0Z" style="fill: #703935; stroke-width: 0px;"/>
            <path d="M172.12,42.89c.28-.83-.55-2.17-1.31-2.73-.76-.56-1.45-1.99-1.07-2.85.39-.9,1.36-1.34,2.15-1.56.83-.23,2.46.49,1.6,1.2-1.56.86-3.05,1.64-1.84,2.72,1.42,1.26,1.84,1.68,1.25,3.28-.34.92-1.08,1.46-1.48,2.06-.06.05-.09.08-.09.08,0,0,.43-1.12.79-2.19Z" style="fill: url(#w); stroke-width: 0px;"/>
            <path d="M176.99,27.91s2.79,3.27.4,5.46c-2.39,2.19-4.7,3.17-4.7,3.17,0,0,2.51-2.9,3.35-4.35.94-1.63.95-4.28.95-4.28Z" style="fill: url(#x); stroke-width: 0px;"/>
          </g>
        </g>
        <g>
          <path d="M173.31,23.53c1.49.91,3.45.4,4.38-1.13.93-1.53.49-3.5-1-4.41-1.48-.91-3.44-.4-4.38,1.12-.93,1.53-.49,3.51,1,4.41Z" style="fill: #b28d8d; mix-blend-mode: multiply; opacity: .5; stroke-width: 0px;"/>
          <path d="M174.57,22.57c1.1.67,2.72,0,3.62-1.48.9-1.48.75-3.23-.34-3.9-1.1-.67-2.72,0-3.62,1.48-.91,1.48-.75,3.23.34,3.9Z" style="fill: #c72a34; stroke-width: 0px;"/>
          <path d="M174.14,22.38c1.1.67,2.72,0,3.62-1.48.9-1.48.75-3.23-.34-3.9-1.1-.67-2.72,0-3.62,1.48-.91,1.48-.75,3.23.34,3.9Z" style="fill: #de3e35; stroke-width: 0px;"/>
          <path d="M174.92,16.45l1.95.8s1.64,1.34.31,3.29c-1.32,1.96-3.03,1.25-3.03,1.25l-1.64-1.39,2.41-3.95Z" style="fill: url(#y); stroke-width: 0px;"/>
          <path d="M172.51,20.4c.8.49,2,0,2.67-1.09.67-1.09.55-2.37-.25-2.87-.81-.49-2,0-2.66,1.09-.67,1.09-.55,2.37.25,2.87Z" style="fill: #f04c33; stroke-width: 0px;"/>
        </g>
      </g>
      <g>
        <polygon points="243.9 18.64 245.57 71.13 199.97 70.83 203.83 19.98 243.9 18.64" style="fill: #cfc69c; mix-blend-mode: multiply; opacity: .5; stroke-width: 0px;"/>
        <g>
          <rect x="203.22" y="16.43" width="43.37" height="51.96" transform="translate(449.81 84.82) rotate(180)" style="fill: #f4f3e7; stroke-width: 0px;"/>
          <g style="clip-path: url(#z);">
            <rect x="201.9" y="18.01" width="46" height="50.45" transform="translate(449.81 86.47) rotate(180)" style="fill: #9c9aa6; stroke-width: 0px;"/>
            <g>
              <path d="M224.17,53.26c5.85,1.2,11.37,4.37,12.2,9.01,1.37,7.64.58,13.82,1.93,26.6-9.44.76-35.95-.95-35.95-.95,0,0,2.69-24.95,3.61-28.69.87-3.56,5.71-8.55,18.21-5.98Z" style="fill: #703935; stroke-width: 0px;"/>
              <path d="M224.65,57.33s.76-.39,1.55-2.16c.79-1.77,1.44-1.97,2.23-.68.61-.77,2.58-.28,2.15.79,1.35.21,1.56,1.07-.11,1.71-1.67.64-5.83.34-5.83.34Z" style="fill: #53362c; stroke-width: 0px;"/>
              <path d="M220.23,44.09l-1.41,8.53s4.24,3.8,5.21,4.4c1.03.65,2-1,2-1l3.49-7.61-9.29-4.32Z" style="fill: #f9ab8a; stroke-width: 0px;"/>
              <path d="M226.47,51.44c.65.1,1.27.06,1.87-.06l1.18-2.97-9.29-4.32-.45,3.06c1.8,2.81,4.25,3.93,6.69,4.29Z" style="fill: #f9ab8a; mix-blend-mode: multiply; opacity: .2; stroke-width: 0px;"/>
              <path d="M227.72,25.6s-3.2-2.33-7.35-.53c-4.15,1.79-5.72,6.08-4.7,10.61,1.02,4.53,2.02,7.15,2.02,7.15l8.37.71,1.66-17.94Z" style="fill: #873138; stroke-width: 0px;"/>
              <path d="M235.98,33.18s-1.88,6.16-2.25,9.7c-.36,3.54-1.04,9-2.38,10.14-1.47,1.25-4.86,1.57-6.51-.79-1.15-1.64-5.54-7.45-6.26-9.17-.73-1.72-1.45-11.43,1.27-15.25,2.72-3.81,15.59.83,16.13,5.37Z" style="fill: url(#ab); stroke-width: 0px;"/>
              <path d="M235.98,33.18s-.6,1.96-1.19,4.31c-1.71-.35-4.74-1.25-5.44-3.27-3.17,1.57-8.55,3.69-8.55,3.69,0,0,3.27,12.17,5.17,13.94,1.48,1.37,2.14,1.76,3.73,1.98-1.62.41-3.68.1-4.87-1.59-1.15-1.64-5.54-7.45-6.26-9.17-.73-1.72-1.45-11.43,1.27-15.25,2.72-3.81,15.59.83,16.13,5.37Z" style="fill: #fdcc98; mix-blend-mode: multiply; opacity: .25; stroke-width: 0px;"/>
              <path d="M227.69,48.63c.51-.96,2.52.12,2.31.72-.1.29-.6-.15-1.17-.31-.62-.17-1.31-.09-1.14-.41Z" style="fill: #f8a284; stroke-width: 0px;"/>
              <polygon points="228.32 44.99 230.33 46.22 231.56 45.26 230.98 42.41 229.72 38.6 228.32 44.99" style="fill: #f9ab8a; stroke-width: 0px;"/>
              <path d="M228.32,44.99c.7.36,1.4.72,2.08,1.11h-.16c.38-.34.77-.69,1.18-1.01l-.08.21c-.1-.44-.22-.87-.3-1.31-.08-.44-.18-.88-.24-1.33-.38-1.34-.76-2.7-1.09-4.07.51,1.32.98,2.65,1.43,3.98.14.45.22.89.34,1.32.12.43.19.88.28,1.32l.03.13-.1.08c-.41.32-.84.61-1.27.9l-.09.06-.07-.05c-.66-.43-1.3-.89-1.94-1.35Z" style="fill: #ca705b; stroke-width: 0px;"/>
              <polygon points="228.32 44.99 229.68 45.77 229.3 44.53 228.43 44.54 228.32 44.99" style="fill: #ca705b; stroke-width: 0px;"/>
              <path d="M218.56,36.36c-.79-.6-2.66.99-2.4,2.71.28,1.86,1.23,4.77,2.49,5.56,1.02.65.82-.7,1.15-1.07,1.04-1.15.52-5.87-1.24-7.2Z" style="fill: #f9ab8a; stroke-width: 0px;"/>
              <path d="M216.99,39.02c.21-.28.46-.54.8-.69.17-.07.39-.09.57-.01.09.04.19.09.25.15.08.06.15.15.19.21.11.15.19.34.25.51.05.18.08.37.09.55.02.38-.05.76-.21,1.11-.02.04-.05.07-.09.09-.32.19-.5.39-.37.72.11.33.37.66.64.95-.4-.15-.75-.39-.98-.81-.11-.2-.16-.5-.05-.76.11-.27.33-.4.52-.53l-.1.1c.14-.28.25-.57.27-.89.02-.31-.04-.65-.18-.91-.05-.09-.08-.14-.14-.19-.05-.06-.11-.1-.18-.13-.13-.07-.28-.08-.44-.03-.31.09-.59.32-.86.54Z" style="fill: #ca705b; stroke-width: 0px;"/>
              <path d="M229.63,32.72s.24,1.6,3.81,3.2c3.57,1.6,4.97.71,4.97.71l-1.84-1.26s3.03.11,2.72-1.26c-1.53-.39-3.23-1.69-3.23-1.69,0,0,2.25.58,2.42-.65-1.77-.61-3.23-2.08-4.6-3.37s-3.95-4.08-9.84-3.13-6.35,8.17-6.35,8.17l-.25,4.39s2.1.69,3.87-.42c.89-.56,3.15-2.79,3.15-2.79l-1.13,2.79s4.56-2.04,6.3-4.69Z" style="fill: #a53f3b; stroke-width: 0px;"/>
              <g>
                <path d="M236.32,32.47c-.87-.44-1.56-.91-1.56-.91,0,0,1.06.1,2.38.39.63.14,1.04.05,1.31-.07-.22.85-1.56.7-2.13.6Z" style="fill: #873138; stroke-width: 0px;"/>
                <path d="M235.08,34.28c1.52.62,4.21-.18,4.21-.18.28,1.24-2.14,1.27-2.63,1.27-.81-.44-1.44-.86-1.58-1.08Z" style="fill: #873138; stroke-width: 0px;"/>
                <path d="M226.57,31.36l-1.92,5.37c-.78.42-1.32.67-1.32.67l1.13-2.79s-2.26,2.23-3.15,2.79c-1.77,1.11-3.87.42-3.87.42l.25-4.39s.07-1.07.49-2.44c.22,2.13.84,5.75,2.6,5.24,2.47-.72,5.78-4.87,5.78-4.87Z" style="fill: #873138; stroke-width: 0px;"/>
                <path d="M229.68,31.55s2.52,2.81,5.4,4.13c.99.45,1.94.84,2.78,1.13-.7.14-2.09.16-4.42-.89-3.57-1.6-3.81-3.2-3.81-3.2-.14.21-.29.41-.46.6.37-1,.52-1.77.52-1.77Z" style="fill: #873138; stroke-width: 0px;"/>
              </g>
              <path d="M230.89,47.94c-.73-.14-1.39-.35-2.07-.55-.67-.21-1.32-.39-2.04-.58.36-.12.73-.14,1.1-.13.37.01.73.09,1.09.19.35.11.69.24,1.01.42.32.18.63.37.9.64Z" style="fill: #df725f; stroke-width: 0px;"/>
              <g>
                <polygon points="230.86 39.2 229.98 38.03 234.73 37.36 232.98 39 232.29 38.82 230.86 39.2" style="fill: #fdcc98; mix-blend-mode: multiply; opacity: .25; stroke-width: 0px;"/>
                <path d="M224.6,39.45l-1.69-1.72s1.21.07,2.24.07c1.64,0,3.06.29,3.06.29l-1.47,1.1s-.48-.18-.69-.19c-.49-.02-1.44.45-1.44.45Z" style="fill: #fdcc98; mix-blend-mode: multiply; opacity: .25; stroke-width: 0px;"/>
                <path d="M222.91,37.68c.88-.62,1.81-.76,2.73-.74.46.03.93.1,1.39.27.45.15.93.42,1.26.87.03.04.02.06,0,.07-.45-.16-.9-.22-1.34-.26-.45-.04-.89-.07-1.34-.08-.9-.05-1.79-.06-2.69-.04-.02,0-.04-.02-.04-.04.02-.03.04-.05.04-.05Z" style="fill: #874a48; stroke-width: 0px;"/>
                <path d="M229.96,38c.19-.5.64-.81,1.04-.99.41-.2.84-.28,1.26-.33.84-.05,1.69.06,2.5.65.04.03.04.05.03.07-.84.02-1.65.07-2.46.15-.4.03-.81.07-1.2.14-.39.08-.8.16-1.12.39-.02.01-.04,0-.06-.01,0-.04,0-.06,0-.06Z" style="fill: #874a48; stroke-width: 0px;"/>
                <g>
                  <path d="M226.64,40.36c0,.53-.3.66-.72.69-.6.04-.83-.17-.83-.7,0-.53.35-.95.78-.95.43,0,.77.43.77.96Z" style="fill: #473343; stroke-width: 0px;"/>
                  <path d="M224.68,39.64c-.06,0-.12-.03-.16-.09-.05-.09-.02-.2.07-.25.15-.09,1.5-.83,2.18-.29.08.06.1.18.03.26-.06.08-.18.09-.26.03-.42-.32-1.43.12-1.78.32-.03.02-.06.02-.09.02Z" style="fill: #473343; stroke-width: 0px;"/>
                </g>
                <polygon points="226.69 39.67 226.18 40.41 226.95 40.69 226.69 39.67" style="fill: #fbc29f; stroke-width: 0px;"/>
                <g>
                  <path d="M232.87,40.12c0,.53-.25.69-.68.71-.6.04-.87-.2-.87-.72,0-.53.35-.95.78-.95.43,0,.77.43.77.96Z" style="fill: #473343; stroke-width: 0px;"/>
                  <path d="M230.98,39.4c-.07,0-.13-.04-.16-.1-.05-.09-.01-.2.08-.25.05-.03,1.29-.66,2.13-.32.09.04.14.14.1.24-.04.09-.15.14-.24.1-.69-.28-1.82.3-1.83.3-.03.01-.06.02-.08.02Z" style="fill: #473343; stroke-width: 0px;"/>
                </g>
                <polygon points="232.95 39.32 232.38 40.17 233.21 40.34 232.95 39.32" style="fill: #fbc29f; stroke-width: 0px;"/>
              </g>
              <path d="M232.98,65.59c-.95-7.8,1.9-8.87,6.36-2.41,1.65,2.39,3.17,5.14,4.11,8.11,1.94,6.08,3.13,12.98,3.63,16.25.15.97-11.41.23-11.49-.46l-2.61-21.49Z" style="fill: #703935; stroke-width: 0px;"/>
              <path d="M213,61.4c1.17-5.57-5.79-7.84-9.12-3.22-1.53,2.13-3.14,4.58-4.77,7.58-3.15,5.81-4.4,12.22-5.44,15.19-.28.8,14.37,4.04,14.53,3.28l4.8-22.83Z" style="fill: #703935; stroke-width: 0px;"/>
              <path d="M224.65,57.33s-7.35-1.57-9.49-2.48c-2.14-.91-2.71-2.05-2.37-2.3.33-.25,1.32-.3,1.32-.3,0,0-.17-.65.61-.75.78-.09,1.11,0,1.11,0,0,0,.91-.88,1.85-.86.95.01,1.76,1.26,2.65,2.43.98,1.29,4.32,4.27,4.32,4.27Z" style="fill: #53362c; stroke-width: 0px;"/>
              <path d="M226.95,56.77s2.62,14.53,1.88,15.72c-.74,1.19-1.11,0-1.11,0l-1.54-15.72h.77Z" style="fill: #53362c; stroke-width: 0px;"/>
              <path d="M223.23,56.29s-.45,14.76-1.42,15.77c-.97,1.01-1.09-.23-1.09-.23l1.76-15.7.75.16Z" style="fill: #53362c; stroke-width: 0px;"/>
              <path d="M206.09,85.52s1.54-8.05,2.46-11c.93-3,1.75-7.81,2.28-8.12.54-.31-.49,7.6,0,8.59.49.99,3.32-2.2,3.37-.47.05,1.73-8.11,11-8.11,11Z" style="fill: #41292c; stroke-width: 0px;"/>
              <path d="M238.01,88.54s-.69-8.1-.68-11.14c0-3.08-.48-7.91-.15-8.31.33-.4,2.06,7.75,1.8,10.91-.09,1.06,2.19-.91.83,3.5-.51,1.65-1.79,5.04-1.79,5.04Z" style="fill: #41292c; stroke-width: 0px;"/>
            </g>
          </g>
        </g>
        <g>
          <path d="M219.46,23.45c1.49.91,3.45.4,4.38-1.13.93-1.53.49-3.5-1-4.41-1.48-.91-3.45-.4-4.38,1.12-.93,1.53-.49,3.51,1,4.41Z" style="fill: #b28d8d; mix-blend-mode: multiply; opacity: .5; stroke-width: 0px;"/>
          <path d="M221.13,22.49c1.1.67,2.72,0,3.62-1.48.9-1.48.75-3.23-.34-3.9-1.1-.67-2.72,0-3.62,1.48-.91,1.48-.75,3.23.34,3.9Z" style="fill: #c72a34; stroke-width: 0px;"/>
          <path d="M220.7,22.3c1.1.67,2.72,0,3.62-1.48.9-1.48.75-3.23-.34-3.9-1.1-.67-2.72,0-3.62,1.48-.91,1.48-.75,3.23.34,3.9Z" style="fill: #de3e35; stroke-width: 0px;"/>
          <path d="M221.48,16.38l1.95.8s1.64,1.34.31,3.29c-1.32,1.96-3.03,1.25-3.03,1.25l-1.64-1.39,2.41-3.95Z" style="fill: url(#ac); stroke-width: 0px;"/>
          <path d="M219.07,20.33c.8.49,2,0,2.67-1.09.67-1.09.55-2.37-.25-2.87-.81-.49-2,0-2.66,1.09-.67,1.09-.55,2.37.25,2.87Z" style="fill: #f04c33; stroke-width: 0px;"/>
        </g>
      </g>
      <g>
        <g>
          <polygon points="100.89 75.69 99.9 130.55 141.38 130.93 146.35 76.84 100.89 75.69" style="fill: #cfc69c; mix-blend-mode: multiply; opacity: .5; stroke-width: 0px;"/>
          <polygon points="100.86 74.92 102.43 128.26 148.83 126.89 145.95 75.4 100.86 74.92" style="fill: #f4f3e7; stroke-width: 0px;"/>
          <g>
            <polygon id="ad" data-name="SVGID" points="104.5 78 143.9 78 146.04 124.62 105.39 125.35 104.5 78" style="fill: #9c9aa6;"/>
            <g style="clip-path: url(#ae);">
              <g>
                <g>
                  <path d="M132.11,95.02c.39-.85,2.34-1.08,3.08.31.52.98.61,3.47-.24,5.53-.36.87-1.43.21-1.75-.1-1.24-1.22-2.36-2.95-1.09-5.74Z" style="fill: #f8a284; stroke-width: 0px;"/>
                  <polygon points="120.43 107.68 122.2 114.04 127.92 116.89 133.26 114.13 133.65 108.53 120.43 107.68" style="fill: #f9ab8a; stroke-width: 0px;"/>
                  <path d="M131.18,111.93c.84-.11,1.59-.32,2.27-.6l.19-2.79-13.22-.86.74,2.66c3.4,1.79,6.88,2.01,10.02,1.59Z" style="fill: #f9ab8a; mix-blend-mode: multiply; opacity: .2; stroke-width: 0px;"/>
                  <path d="M131.26,109.68c6.34-2.3,3.76-5.33,3.16-9.64-.44-3.16-1.52-11.5-1.52-11.5l-16.86,4.57s1.21,11.43,4.39,14.84c3.18,3.41,7.86,2.81,10.82,1.74Z" style="fill: url(#ag); stroke-width: 0px;"/>
                  <path d="M131.26,109.68c-.9.03-1.61-.08-2.11-.16-4.08-.64-5.58-3.54-6.76-6.83-.7-1.95-1.14-7.47-.12-8.92,10.12-.49,10.63-5.24,10.63-5.24l-16.86,4.57s1.21,11.43,4.39,14.84c3.18,3.41,7.86,2.81,10.82,1.74Z" style="fill: #fdcc98; mix-blend-mode: multiply; opacity: .25; stroke-width: 0px;"/>
                  <path d="M131.02,104.76c-.41-.84-2.22.11-2.05.63.08.25.53-.13,1.04-.27.55-.15,1.15-.08,1.02-.36Z" style="fill: #f8a284; stroke-width: 0px;"/>
                  <path d="M119.01,96.87s1.24,3.05.05,5.32c-.23.48-.2.06-.2.06l-3.96-2.1-2.28-6.26,6.39,2.98Z" style="fill: #703935; stroke-width: 0px;"/>
                  <path d="M119.01,96.87c-.28-.98-1.87-4.07-.23-4.52,1.64-.45,5.31-.24,7.34-.27,2.02-.04,7.6-1.24,6.83-4.08-.27-.99-.87-5.26-6.65-4.73s-11.03,4.22-12.91,6.64c-2.55,3.28,1.47,9.56,1.47,9.56l4.15-2.6Z" style="fill: #703935; stroke-width: 0px;"/>
                  <path d="M117.22,98.37c-1.01-.23-3.2,1.52-2.28,3.07.99,1.67,2.02,3.44,2.96,3.82,1.17.46,1.83-.37,2.02-.86.58-1.56-.44-5.5-2.69-6.02Z" style="fill: #f9ab8a; stroke-width: 0px;"/>
                  <g>
                    <polygon points="128.08 101.4 129.57 101.71 131 100.43 129.81 97.26 128.14 95.89 128.08 101.4" style="fill: #f9ab8a; stroke-width: 0px;"/>
                    <path d="M128.08,101.4c.51.05,1.02.11,1.53.18l-.12.03c.44-.47.9-.91,1.37-1.34l-.06.25c-.21-.52-.41-1.05-.6-1.59-.19-.54-.39-1.06-.55-1.61l.05.07c-.53-.48-1.06-.98-1.56-1.5.61.39,1.2.8,1.78,1.23.28.58.48,1.11.69,1.63.21.52.42,1.05.6,1.59l.05.15-.12.1c-.48.42-.97.83-1.49,1.21l-.06.05c-.55-.15-1.04-.3-1.52-.46Z" style="fill: #ca705b; stroke-width: 0px;"/>
                  </g>
                  <polygon points="128.09 101.27 128.97 101.55 128.96 100.86 128.2 100.88 128.09 101.27" style="fill: #ca705b; stroke-width: 0px;"/>
                  <path d="M121.89,96.57s.21-.32.64-.68c.1-.1.23-.17.37-.26.14-.08.27-.2.43-.26.32-.13.66-.3,1.02-.37.36-.08.73-.13,1.07-.11.34,0,.66.02.91.11.51.14.83.26.83.26l-.13.42s-.34,0-.81-.03c-.24-.05-.52,0-.81.02-.29,0-.6.05-.9.14-.31.03-.6.17-.88.26-.14.04-.26.12-.39.18-.12.06-.25.1-.35.17-.21.13-.39.22-.5.3-.12.07-.19.14-.19.14l-.31-.29Z" style="fill: #874a48; stroke-width: 0px;"/>
                  <path d="M128.75,94.71s.05-.05.15-.14c.1-.09.22-.24.41-.36.19-.13.41-.29.66-.44.12-.08.25-.15.38-.23l.2-.12.24-.1c.29-.09.54-.21.84-.27.3-.05.59-.08.83-.1.46.01.77.08.77.08l-.05.43s-.27.05-.68.14c-.2.04-.41.13-.65.18-.11.01-.25.09-.39.14l-.41.17c-.05.02-.18.06-.17.06l-.19.1c-.12.07-.25.13-.36.19-.24.12-.47.21-.67.31-.41.16-.68.32-.68.32l-.25-.34Z" style="fill: #874a48; stroke-width: 0px;"/>
                  <path d="M115.53,100.64c.1-.36.24-.72.53-1.01.14-.14.35-.26.56-.26.1,0,.22,0,.31.04.1.03.21.08.27.12.17.09.32.25.44.39.12.15.22.32.3.49.16.35.24.76.22,1.16,0,.05-.02.09-.05.13-.24.32-.34.59-.09.86.23.27.62.47,1,.64-.45.03-.89-.05-1.28-.35-.19-.15-.35-.41-.34-.71,0-.3.17-.53.3-.73l-.06.14c.03-.33.02-.66-.07-.98-.1-.31-.29-.61-.53-.8-.08-.06-.14-.09-.21-.12-.07-.04-.15-.04-.22-.05-.15-.01-.31.05-.44.16-.27.22-.46.56-.64.89Z" style="fill: #ca705b; stroke-width: 0px;"/>
                  <path d="M127.26,104.43s.35-.16.72-.39c.17-.1.37-.21.65-.32.27-.1.54-.22.84-.31.3-.09.58-.15.87-.23.26-.06.58-.03.79,0,.45.06.73.18.73.18,0,0-.3.03-.74.07-.23.02-.44.07-.72.13-.24.08-.54.18-.82.26-.29.07-.57.17-.84.25-.25.07-.55.15-.8.21-.24.05-.41.07-.52.11-.11.03-.17.04-.17.04Z" style="fill: #df725f; stroke-width: 0px;"/>
                </g>
                <polygon points="119.04 99.8 118.67 99.31 121.45 97.97 121.63 98.38 119.04 99.8" style="fill: #473343; stroke-width: 0px;"/>
                <path d="M134.99,94.45c.17.84-.32,2.71-2.18,3.17-1.86.46-3.78-.82-3.94-1.66-.17-.84,1.4-1.19,3.26-1.66,1.86-.46,2.69-.69,2.86.14Z" style="fill: #473343; stroke-width: 0px;"/>
                <path d="M127.87,96.32c.17.84-.99,2.87-2.85,3.34-1.86.46-3.72-.83-3.89-1.66-.17-.84,1.27-1.04,3.13-1.5,1.86-.46,3.44-1.01,3.61-.17Z" style="fill: #473343; stroke-width: 0px;"/>
                <g>
                  <path d="M133.29,94.03l-1.02,3.68c.18-.01.36-.04.55-.08.07-.02.13-.04.2-.06l.94-3.65c-.19.02-.41.06-.67.11Z" style="fill: #555556; stroke-width: 0px;"/>
                  <path d="M132.13,94.31c-.27.07-.54.13-.79.2l-.79,2.92c.4.16.85.27,1.31.28l.84-3.55c-.18.04-.36.09-.56.14Z" style="fill: #555556; stroke-width: 0px;"/>
                </g>
                <g>
                  <path d="M124.7,99.72l.84-3.55c-.4.1-.83.22-1.28.33-.03,0-.05.01-.08.02l-.85,3.13c.43.11.89.14,1.36.07Z" style="fill: #555556; stroke-width: 0px;"/>
                  <path d="M126.81,95.91c-.2.02-.43.06-.67.12l-1,3.6c.28-.08.55-.2.79-.34l.87-3.37Z" style="fill: #555556; stroke-width: 0px;"/>
                </g>
                <path d="M127.55,96.78l-.43-.16c.33-.78.73-1.21,1.21-1.27.73-.1,1.28.71,1.3.74l-.39.27c-.12-.17-.51-.61-.87-.56-.29.04-.57.38-.82.97Z" style="fill: #473343; stroke-width: 0px;"/>
                <path d="M121.04,109.89c-.57-.54-.53,1.32-.63,2.98-.1,1.66-1.11,1.97-2.71,2.86-1.61.89-10.72,2.5-11.62,5.09-.9,2.59.27,9.09.27,9.09,0,0,13.68,2.09,24.71.29,11.03-1.81,14.56-3.03,14.95-4.98.39-1.95-.01-9.03-3.86-9.88-3.84-.85-7.38-2.14-7.38-2.14,0,0-.49-2.98-1.03-3.31-.53-.33-.92,2.33-5.17,2.55-4.25.21-6.85-1.9-7.54-2.55Z" style="fill: #5d4655; stroke-width: 0px;"/>
                <path d="M124.55,111.92c-1.88-.62-3.08-1.61-3.51-2.02-.57-.54-.53,1.32-.63,2.98-.07,1.16-.58,1.66-1.43,2.16,2.51-.16,5.04-.87,5.57-3.12Z" style="fill: #473343; stroke-width: 0px;"/>
                <path d="M109.95,119.12c-.71-.37-1.49-.38-2.26-.18-.78.58-1.38,1.22-1.61,1.89-.9,2.59-2.52,8.65-2.52,8.65,0,0,6.16.94,13.54,1.02-.73-4.68-2.78-9-7.15-11.38Z" style="fill: #473343; stroke-width: 0px;"/>
              </g>
            </g>
          </g>
        </g>
        <g>
          <path d="M116.41,79.26c1.02,1.41,3.03,1.7,4.48.65,1.45-1.05,1.8-3.05.78-4.45-1.02-1.41-3.02-1.7-4.47-.65-1.45,1.05-1.8,3.05-.78,4.45Z" style="fill: #b28d8d; mix-blend-mode: multiply; opacity: .5; stroke-width: 0px;"/>
          <path d="M118.14,78.22c.75,1.04,2.51,1.05,3.91.03,1.41-1.02,1.94-2.69,1.18-3.73-.75-1.04-2.5-1.05-3.91-.03-1.41,1.02-1.94,2.69-1.18,3.73Z" style="fill: #c72a34; stroke-width: 0px;"/>
          <path d="M117.81,77.88c.75,1.04,2.51,1.05,3.91.03,1.41-1.02,1.94-2.69,1.18-3.73-.75-1.04-2.5-1.05-3.91-.03-1.41,1.02-1.94,2.69-1.18,3.73Z" style="fill: #de3e35; stroke-width: 0px;"/>
          <path d="M120.81,72.71l1.49,1.49s1,1.86-.98,3.16c-1.97,1.3-3.28-.01-3.28-.01l-.98-1.92,3.75-2.72Z" style="fill: url(#ah); stroke-width: 0px;"/>
          <path d="M117.07,75.43c.55.76,1.84.78,2.88.03,1.04-.75,1.42-1.98.87-2.74-.55-.76-1.84-.78-2.88-.02-1.04.75-1.43,1.98-.87,2.74Z" style="fill: #f04c33; stroke-width: 0px;"/>
        </g>
      </g>
    </g>
  </g>
</svg>