<?xml version="1.0" encoding="UTF-8"?>
<svg xmlns="http://www.w3.org/2000/svg" xmlns:xlink="http://www.w3.org/1999/xlink" version="1.1" viewBox="0 0 69.6 45.4">
  <defs>
    <style>
      .cls-1 {
        fill: #b28d8d;
      }

      .cls-1, .cls-2, .cls-3, .cls-4, .cls-5, .cls-6, .cls-7, .cls-8, .cls-9, .cls-10 {
        stroke-width: 0px;
      }

      .cls-1, .cls-9 {
        mix-blend-mode: multiply;
        opacity: .5;
      }

      .cls-2 {
        fill: #de3e35;
      }

      .cls-3 {
        fill: #f4f3e5;
      }

      .cls-4 {
        fill: #f04c33;
      }

      .cls-5 {
        fill: #c72a34;
      }

      .cls-6 {
        fill: url(#_ÂÁ_Ï_ÌÌ_È_ËÂÌÚ_382);
      }

      .cls-7 {
        fill: url(#_ÂÁ_Ï_ÌÌ_È_ËÂÌÚ_385);
      }

      .cls-8 {
        fill: url(#_ÂÁ_Ï_ÌÌ_È_ËÂÌÚ_382-2);
      }

      .cls-9 {
        fill: #baa596;
      }

      .cls-11 {
        isolation: isolate;
      }

      .cls-10 {
        fill: #fff;
      }
    </style>
    <linearGradient id="_ÂÁ_Ï_ÌÌ_È_ËÂÌÚ_385" data-name="¡ÂÁ˚ÏˇÌÌ˚È „‡‰ËÂÌÚ 385" x1="-319.4" y1="40" x2="-279.8" y2=".4" gradientTransform="translate(336 46.3) scale(1 -1)" gradientUnits="userSpaceOnUse">
      <stop offset="0" stop-color="#846d7b"/>
      <stop offset="1" stop-color="#937c87"/>
    </linearGradient>
    <linearGradient id="_ÂÁ_Ï_ÌÌ_È_ËÂÌÚ_382" data-name="¡ÂÁ˚ÏˇÌÌ˚È „‡‰ËÂÌÚ 382" x1="-302.8" y1="263.5" x2="-302.8" y2="258.1" gradientTransform="translate(-137 -343) rotate(-78.9)" gradientUnits="userSpaceOnUse">
      <stop offset="0" stop-color="#c72a34"/>
      <stop offset="1" stop-color="#f04c33"/>
    </linearGradient>
    <linearGradient id="_ÂÁ_Ï_ÌÌ_È_ËÂÌÚ_382-2" data-name="¡ÂÁ˚ÏˇÌÌ˚È „‡‰ËÂÌÚ 382" x1="-312.2" y1="210.2" x2="-312.2" y2="204.7" xlink:href="#_ÂÁ_Ï_ÌÌ_È_ËÂÌÚ_382"/>
  </defs>
  <g class="cls-11">
    <g id="Layer_1" data-name="Layer 1">
      <g>
        <polygon class="cls-9" points="66.8 2.7 69.6 45.4 3.7 45.4 0 2.7 66.8 2.7"/>
        <rect class="cls-3" y="2.7" width="66.9" height="40.9" transform="translate(66.9 46.3) rotate(180)"/>
        <rect class="cls-7" x="2" y="3.9" width="62.8" height="38.5" transform="translate(66.9 46.3) rotate(180)"/>
        <path class="cls-10" d="M55.1,39.6l-2.9-.7c0,0-.1,0-.2,0l-2.2-2.7s0,0,0-.1l-.3-1.5-.7-.4-3,3.9c0,0-.1,0-.2.1l-11.1.8c0,0-.2,0-.2-.1l-3.9-5-2.2-2.9c0,0,0-.1,0-.2,0,0,0-.1.1-.2l2.4-1.5c0,0,.2,0,.2,0l1.8.6c0,0,.2.1.2.2l.5,2.4,2.9,2.2,5.6-1-8-4-4.1-1.9h-11.4s-9.2,2.2-9.2,2.2c0,0-.2,0-.2,0l-2.9-2.2c0,0-.1-.2-.1-.3l.5-2.9c0-.1.2-.2.3-.2l3.8.4,8.9-1.9,8.8-.9,2.9-.7-7.1-4.7-9.6-.4c0,0-.1,0-.2,0l-3.9-4.1c0,0,0-.2,0-.3l1.2-2.5c0,0,0-.1.2-.1,0,0,.2,0,.2,0l4.7,3.3,8.9-1.3c0,0,.1,0,.2,0l12.1,6.8,9.2,6.6-4.3-5.8-6.5-5.5-2.3-1.5c0,0-.1-.1-.1-.2,0,0,0-.2,0-.2l2.3-2c0,0,.2,0,.3,0l4.6,3.1,6.3,5.1,7.7,7.9c0,0,.1.2,0,.3l-3.1,5.3.4.8h2.2c0,0,.1,0,.2,0l3.5,3c0,0,.1.1,0,.2l-.3,2.7c0,0,0,.2-.1.2l-2.6,1.7s0,0-.1,0,0,0,0,0ZM57.8,35.1l-3.3-2.8h-2.3c0,0-.2,0-.2-.1l-.6-1c0,0,0-.2,0-.3l3.1-5.3-7.5-7.7-6.3-5.1-4.4-3-1.9,1.6,2,1.3,6.6,5.6,5.4,7.2c0,.1,0,.3,0,.4,0,0-.2.1-.4,0l-10.6-7.6-12-6.8-8.9,1.3c0,0-.1,0-.2,0l-4.5-3.2-1,2.1,3.7,3.8,9.6.4s0,0,.1,0l7.7,5.1c0,0,.1.2.1.3,0,.1,0,.2-.2.2l-3.5.8-8.8.9-8.9,1.9s0,0,0,0l-3.6-.4-.4,2.5,2.7,2,9.1-2.1h11.5s0,0,.1,0l4.2,1.9,8.8,4.4c.1,0,.2.2.1.3,0,.1-.1.2-.2.2l-6.5,1.1c0,0-.1,0-.2,0l-3.1-2.3c0,0,0,0-.1-.2l-.5-2.4-1.5-.5-2,1.2,2,2.7,3.8,4.9,10.8-.8,3.1-4c0-.1.2-.1.4,0l1,.6c0,0,.1.1.1.2l.3,1.5,2.1,2.6,2.7.6,2.4-1.5.3-2.4Z"/>
        <g>
          <path class="cls-1" d="M64.3,7.5c-.2,1.7-1.7,3-3.5,2.8-1.8-.2-3.1-1.7-2.9-3.4.2-1.7,1.7-3,3.5-2.8,1.8.2,3.1,1.7,2.9,3.4Z"/>
          <path class="cls-5" d="M63.9,4.5c.4,1.2-.5,2.7-2.1,3.3-1.6.6-3.3.1-3.8-1.1-.4-1.2.5-2.7,2.1-3.3,1.6-.6,3.3-.1,3.8,1.1Z"/>
          <path class="cls-2" d="M63.8,4.1c.4,1.2-.5,2.7-2.1,3.3-1.6.6-3.3.1-3.8-1.1-.4-1.2.5-2.7,2.1-3.3,1.6-.6,3.3-.1,3.8,1.1Z"/>
          <path class="cls-6" d="M57.8,3.7l.4,2.1s1,1.9,3.2.9c2.2-.9,1.8-2.7,1.8-2.7l-1-1.9-4.3,1.6Z"/>
          <path class="cls-4" d="M62.2,2.1c.3.9-.4,2-1.6,2.4-1.2.4-2.4,0-2.8-.8-.3-.9.4-2,1.6-2.4s2.4,0,2.8.8Z"/>
        </g>
        <g>
          <path class="cls-1" d="M10.2,6.4c-.2,1.7-1.7,3-3.5,2.8-1.8-.2-3.1-1.7-2.9-3.4.2-1.7,1.7-3,3.5-2.8,1.8.2,3.1,1.7,2.9,3.4Z"/>
          <path class="cls-5" d="M9.8,3.4c.4,1.2-.5,2.7-2.1,3.3-1.6.6-3.3.1-3.8-1.1-.4-1.2.5-2.7,2.1-3.3,1.6-.6,3.3-.1,3.8,1.1Z"/>
          <path class="cls-2" d="M9.7,3c.4,1.2-.5,2.7-2.1,3.3-1.6.6-3.3.1-3.8-1.1-.4-1.2.5-2.7,2.1-3.3,1.6-.6,3.3-.1,3.8,1.1Z"/>
          <path class="cls-8" d="M3.7,2.6l.4,2.1s1,1.9,3.2.9c2.2-.9,1.8-2.7,1.8-2.7l-1-1.9-4.3,1.6Z"/>
          <path class="cls-4" d="M8.1,1c.3.9-.4,2-1.6,2.4-1.2.4-2.4,0-2.8-.8-.3-.9.4-2,1.6-2.4,1.2-.4,2.4,0,2.8.8Z"/>
        </g>
      </g>
    </g>
  </g>
</svg>