<?xml version="1.0" encoding="UTF-8"?>
<svg xmlns="http://www.w3.org/2000/svg" xmlns:xlink="http://www.w3.org/1999/xlink" viewBox="0 0 54.77 44.79">
  <defs>
    <linearGradient id="b" data-name="¡ÂÁ˚ÏˇÌÌ˚È „‡‰ËÂÌÚ 382" x1="-499.06" y1="-314.91" x2="-499.06" y2="-320.56" gradientTransform="translate(-531.05 -28.91) rotate(-145.43) scale(.82 -.91) skewX(16.07)" gradientUnits="userSpaceOnUse">
      <stop offset="0" stop-color="#c72a34"/>
      <stop offset="1" stop-color="#f04c33"/>
    </linearGradient>
  </defs>
  <g style="isolation: isolate;">
    <g id="a" data-name="Layer 1">
      <g>
        <polygon points="54.77 34.93 26.83 38.25 22.84 3.22 49.37 0 54.77 34.93" style="fill: #cfc596; mix-blend-mode: multiply; opacity: .5; stroke-width: 0px;"/>
        <rect x="23.32" y="1.48" width="28.03" height="33.46" transform="translate(-1.82 4.34) rotate(-6.5)" style="fill: #b385b5; stroke-width: 0px;"/>
        <polygon points="39.71 44.79 1.6 44.32 1.6 9.63 38.11 9.22 39.71 44.79" style="fill: #baa596; mix-blend-mode: multiply; opacity: .5; stroke-width: 0px;"/>
        <rect y="9.22" width="38.11" height="33" style="fill: #fee858; stroke-width: 0px;"/>
        <g>
          <path d="M29.51,12.56c.49,1.67,2.27,2.62,4,2.12,1.72-.5,2.72-2.26,2.23-3.93-.48-1.67-2.27-2.62-3.99-2.12-1.72.5-2.72,2.26-2.24,3.93Z" style="fill: #b28d8d; mix-blend-mode: multiply; opacity: .5; stroke-width: 0px;"/>
          <path d="M30.32,10.88c.44,1.52,2.15,2.36,3.82,1.87,1.67-.49,2.66-2.11,2.22-3.63-.44-1.52-2.15-2.36-3.82-1.87-1.67.48-2.66,2.11-2.22,3.63Z" style="fill: #c72a34; stroke-width: 0px;"/>
          <path d="M30.32,10.67c.44,1.52,2.15,2.36,3.82,1.87,1.67-.49,2.66-2.11,2.22-3.63-.44-1.52-2.15-2.36-3.82-1.87-1.67.48-2.66,2.11-2.22,3.63Z" style="fill: #de3e35; stroke-width: 0px;"/>
          <path d="M35.19,7.86l.75,1.4s.28,2.09-2.01,2.67c-2.29.58-3.06-1.16-3.06-1.16l-.13-1.62,4.45-1.29Z" style="fill: url(#b); stroke-width: 0px;"/>
          <path d="M30.74,9.15c.32,1.1,1.57,1.7,2.8,1.34,1.23-.36,1.96-1.54,1.64-2.63-.32-1.1-1.57-1.7-2.8-1.34-1.23.36-1.96,1.54-1.65,2.63Z" style="fill: #f04c33; stroke-width: 0px;"/>
        </g>
        <g>
          <path d="M12.61,24.56c-.1.19-.27.3-.5.33-.21.03-.44-.01-.69-.12-.22-.09-.36-.2-.4-.31-.02-.04-.03-.08-.03-.12-.01-.08.01-.19.07-.3.06-.12.08-.21.06-.29l-.59-2.65-.98,3.28s-.01.1,0,.16c0,.04.02.11.05.2.03.09.04.16.05.21.02.12-.02.22-.11.3-.13.12-.28.18-.47.21-.19.02-.36,0-.53-.08s-.28-.2-.33-.35c-.02-.05-.03-.09-.03-.13s0-.08,0-.14c0-.05,0-.09,0-.12,0-.03-.01-.06-.03-.09l-1.55-2.92.48,2.88c.01.07.05.18.1.31.05.13.08.23.09.29.03.2-.1.37-.38.52-.04.02-.08.03-.13.03-.17.02-.34-.01-.53-.1-.22-.1-.37-.24-.45-.43-.01-.03-.02-.06-.03-.08,0-.05.02-.12.07-.19.06-.07.08-.14.07-.19l-.68-4.54c0-.08-.05-.17-.12-.27s-.11-.19-.11-.25c-.01-.09.02-.19.11-.31.08-.12.24-.19.48-.22.35-.05.64,0,.87.15.13.08.2.17.21.28,0,.02,0,.04,0,.07,0,.03,0,.06,0,.07,0,.05.02.09.04.12l2.08,3.63,1.25-4.31s.02-.11,0-.17c0-.02,0-.05-.02-.1,0-.04,0-.07-.01-.1-.02-.12.03-.23.13-.33.08-.08.2-.13.35-.15.23-.03.46,0,.69.12.23.11.36.25.38.43,0,.09-.03.16-.09.23-.07.07-.1.12-.08.17l.94,4.67c.01.05.07.14.16.26s.15.22.16.3c0,.05,0,.11-.04.17Z" style="fill: #724866; stroke-width: 0px;"/>
          <path d="M15.79,23.31c-.02.21-.13.44-.35.7-.03.06-.17.16-.41.29-.28.15-.53.23-.74.24-.4.02-.75-.16-1.03-.57-.26-.37-.43-.85-.5-1.43-.08-.63-.03-1.2.14-1.7.19-.55.51-.89.93-1.01.08-.02.17-.04.25-.05.63-.08,1.03.26,1.2,1.03.08.35-.01.76-.27,1.22-.28.51-.68.89-1.19,1.14.09.21.15.34.19.4.09.12.2.18.33.16.12-.02.25-.08.37-.19.11-.1.18-.18.21-.26.02-.01.03-.08.04-.19,0-.11.05-.2.14-.26.03-.02.07-.03.11-.04.13-.02.26.03.4.14.14.11.2.23.19.37ZM14.18,20.66c-.21.03-.37.2-.46.52-.12.43-.14.84-.06,1.23.24-.11.45-.33.62-.65.18-.32.25-.6.22-.82-.03-.21-.13-.3-.32-.28Z" style="fill: #724866; stroke-width: 0px;"/>
          <path d="M19.25,22.86c-.02.21-.13.44-.35.7-.03.06-.17.16-.41.29-.28.15-.53.23-.74.24-.4.02-.75-.16-1.03-.57-.26-.37-.43-.85-.5-1.43-.08-.63-.03-1.2.14-1.7.19-.56.51-.89.93-1.01.08-.02.17-.04.25-.05.63-.08,1.03.26,1.2,1.03.08.35-.01.76-.27,1.22-.28.51-.68.89-1.19,1.14.09.21.15.34.19.4.09.12.2.18.33.16.12-.02.25-.08.37-.19.11-.1.18-.18.21-.26.02-.01.03-.08.04-.19,0-.11.05-.2.14-.26.03-.02.07-.03.11-.04.13-.02.26.03.4.14.14.11.2.23.19.37ZM17.64,20.21c-.21.03-.37.2-.46.52-.12.43-.14.84-.06,1.23.24-.11.45-.33.62-.65.18-.32.25-.59.22-.82-.03-.21-.13-.3-.32-.28Z" style="fill: #724866; stroke-width: 0px;"/>
          <path d="M22.23,19.64s-.11,0-.21-.03c-.1-.02-.17-.03-.21-.03-.04,0-.07.02-.11.04l-.28.19.35,2.73c.01.1.08.22.21.37.13.15.19.27.18.37-.01.12-.08.22-.2.31-.12.09-.26.14-.41.16-.28.04-.49-.06-.63-.3-.04-.07-.09-.31-.15-.71-.04-.27-.09-.68-.15-1.25-.07-.64-.12-1.05-.14-1.22-.03.02-.08.06-.15.13-.07.07-.14.11-.21.12-.06,0-.14,0-.23-.02-.39-.08-.59-.19-.61-.32,0-.03,0-.07.01-.11.03-.09.09-.15.19-.17.15-.04.24-.07.27-.09.12-.06.33-.21.63-.43l-.09-.7c0-.05-.03-.12-.07-.21-.04-.08-.06-.15-.07-.19,0-.05,0-.09.02-.14.11-.23.28-.36.52-.39.27-.03.48.05.62.25.05.08.08.15.09.2,0,.06-.02.13-.07.21-.06.08-.08.15-.07.2l.05.39c.09-.05.19-.14.29-.26.08-.09.15-.13.22-.14.03,0,.06,0,.09,0,.35.05.54.23.58.54.01.1,0,.2-.05.3-.05.1-.12.15-.22.17Z" style="fill: #724866; stroke-width: 0px;"/>
          <path d="M23.99,17.01s.03.04.03.08c0,.05,0,.13-.02.25-.02.15-.03.25-.03.3s.02.17.06.35c.01.11,0,.19-.07.23-.06.04-.14.07-.25.09-.14.02-.29,0-.45-.03-.19-.05-.29-.14-.31-.26,0-.04,0-.09.03-.16.02-.07.03-.13.03-.17,0-.04,0-.15-.04-.32-.03-.13-.01-.23.04-.28.08-.08.22-.13.44-.16.24-.03.41,0,.52.08ZM24.35,18.95c0,.07-.02.2-.08.36-.06.17-.09.3-.07.4l.3,2.35c.01.11.06.25.15.44.08.19.13.32.14.39.01.11-.02.19-.1.26-.12.1-.26.16-.42.18-.2.03-.36-.02-.46-.15-.13-.16-.26-.66-.36-1.5-.03-.2-.06-.52-.11-.95-.05-.43-.08-.74-.11-.94,0-.07-.03-.17-.06-.29-.03-.12-.05-.2-.06-.25-.02-.18.02-.34.13-.48.05-.06.14-.1.29-.12.14-.02.29-.01.44.01.15.03.25.07.3.12.05.05.07.11.08.17Z" style="fill: #724866; stroke-width: 0px;"/>
          <path d="M29.13,21.92c0,.12-.06.23-.19.33-.13.1-.29.16-.46.19-.26.03-.45-.03-.57-.18-.17-1.65-.32-2.47-.46-2.47-.14,0-.37.77-.69,2.33.02.16.04.32.06.48.02.19-.01.33-.1.43-.09.09-.19.15-.3.16-.19.02-.41-.05-.66-.23-.07-.04-.16-.45-.26-1.2.06.46-.04-.4-.33-2.58,0-.05-.02-.11-.04-.19-.02-.08-.03-.14-.04-.18-.01-.1,0-.19.05-.27.05-.1.15-.16.29-.18.14-.02.3,0,.47.07.17.07.27.14.32.21.03.05.05.1.05.16s0,.13-.04.23c-.03.1-.04.18-.03.25l.14,1.1c.24-.76.44-1.26.58-1.51.25-.43.57-.66.96-.69.23-.01.42.18.57.58.11.3.21.75.3,1.36.06.48.12.96.19,1.44.02.04.06.1.14.19.04.05.07.11.07.19Z" style="fill: #724866; stroke-width: 0px;"/>
          <path d="M31.99,17.76c.07.46.19,1.21.36,2.25.12.74.2,1.27.24,1.59.09.7.1,1.19.02,1.46s-.29.44-.62.51c-.42.09-.81.03-1.17-.19-.17-.03-.27-.05-.32-.07-.1-.04-.17-.12-.21-.25-.08-.25.1-.4.54-.45.11-.01.22-.01.32,0,.08,0,.17.06.27.16.1.1.2.14.28.14.16,0,.21-.24.15-.68-.03-.19-.08-.5-.16-.93-.15.35-.26.58-.33.69-.15.2-.35.32-.58.35-.33.04-.63-.15-.89-.58-.24-.4-.4-.9-.48-1.5-.08-.62-.05-1.15.09-1.61.16-.51.44-.79.83-.85.21-.03.38-.01.49.07.11.08.22.16.33.24-.09-.18-.1-.33,0-.44.05-.06.14-.11.25-.12.11-.01.23,0,.35.04.12.05.2.11.24.19ZM31.29,19.92c-.02-.31-.09-.6-.23-.86-.15-.3-.3-.43-.47-.41-.14.02-.24.19-.31.51-.06.29-.08.59-.05.9.03.33.09.62.18.87.11.3.24.44.37.42.12-.01.23-.18.35-.5.12-.32.17-.63.15-.92Z" style="fill: #724866; stroke-width: 0px;"/>
          <path d="M10.06,28.98c-.01.11-.09.22-.22.34-.15.12-.24.23-.28.33l-1.23,4.11c-.03.11-.03.38,0,.79.03.3-.05.49-.23.59-.08.04-.17.07-.27.08-.24.03-.47-.02-.7-.16s-.35-.31-.36-.51c0-.15.05-.28.17-.41.14-.15.23-.27.25-.36l1.31-4.35-.92.46s-.12.09-.31.22c-.11.08-.22.11-.33.11-.13,0-.27-.08-.41-.24-.14-.16-.22-.32-.24-.49-.02-.13,0-.24.07-.34.07-.1.19-.16.38-.17.26-.02.41-.04.46-.06.31-.09.75-.27,1.3-.53.48-.23.74-.34.78-.34.21.03.38.11.51.24.13.13.21.29.24.47,0,.07,0,.14,0,.21Z" style="fill: #724866; stroke-width: 0px;"/>
          <path d="M10.9,30.45c.02.06.02.14.01.23-.03.14-.04.22-.04.23,0,.09.01.18.02.27,0,.09-.02.17-.06.24-.04.06-.14.1-.29.12s-.28,0-.4-.04c-.14-.05-.22-.13-.24-.25,0-.05,0-.11.02-.18.02-.07.03-.13.04-.17,0-.04,0-.14-.04-.3-.02-.12,0-.22.06-.28.05-.07.15-.11.28-.12.14-.02.27,0,.4.04.13.05.21.12.25.22ZM11.07,33.6c.02.06.02.14.01.23-.03.14-.04.22-.04.23,0,.09.01.18.01.27s-.02.17-.06.23c-.04.06-.14.1-.29.12-.15.02-.28,0-.4-.04-.14-.05-.22-.13-.24-.24,0-.05,0-.11.02-.18.02-.07.03-.13.03-.17,0-.04,0-.14-.03-.3-.02-.12,0-.22.06-.28s.15-.11.28-.12c.14-.02.27,0,.4.04.13.05.21.12.25.21Z" style="fill: #724866; stroke-width: 0px;"/>
          <path d="M15.17,30.77c.12.91.09,1.7-.09,2.37-.23.82-.66,1.26-1.29,1.31-.64.05-1.15-.28-1.54-1-.3-.56-.51-1.3-.63-2.23-.09-.72-.05-1.43.14-2.11.24-.89.67-1.37,1.31-1.45.56-.07,1.05.25,1.45.96.33.58.55,1.29.66,2.14ZM14.02,30.92c-.09-.69-.18-1.16-.27-1.43-.16-.5-.37-.73-.64-.7-.15.02-.26.29-.33.82-.06.48-.06.97,0,1.46.05.54.17,1.05.34,1.54.19.54.37.81.55.78.15-.02.27-.32.35-.9.08-.56.08-1.09.01-1.59Z" style="fill: #724866; stroke-width: 0px;"/>
          <path d="M19.73,30.19c.12.91.09,1.7-.09,2.37-.23.82-.66,1.26-1.29,1.31-.64.05-1.15-.28-1.54-1-.3-.56-.51-1.3-.63-2.23-.09-.72-.05-1.43.14-2.11.24-.89.67-1.37,1.31-1.45.56-.07,1.05.25,1.45.96.33.58.55,1.29.66,2.14ZM18.58,30.34c-.09-.69-.18-1.16-.27-1.43-.16-.5-.37-.73-.64-.7-.15.02-.27.29-.33.82-.06.48-.06.96,0,1.46.05.54.17,1.05.34,1.54.19.54.37.81.55.78.15-.02.27-.32.35-.9.08-.56.08-1.09.02-1.59Z" style="fill: #724866; stroke-width: 0px;"/>
          <path d="M25.68,30.39c.07.57.02,1.09-.16,1.59-.2.54-.5.83-.89.88-.22.03-.46-.12-.74-.43l.13,1.02c.01.09.06.19.15.31.09.12.13.22.14.29,0,.05,0,.11-.02.17-.08.25-.28.4-.61.44-.27.03-.44-.04-.53-.22-.03-.06-.05-.12-.06-.18,0-.06,0-.14.02-.24.02-.1.03-.19.02-.26l-.59-4.55c0-.06-.04-.13-.09-.2-.05-.08-.08-.14-.09-.19,0-.04,0-.09.01-.14.04-.16.23-.26.56-.3.21-.03.35,0,.43.08.03.03.05.07.05.11,0,.04,0,.1-.02.18-.02.08-.02.15-.02.19.2-.38.46-.6.79-.64.44-.06.8.15,1.06.63.2.37.35.86.43,1.47ZM24.68,30.52c-.06-.51-.12-.83-.16-.96-.1-.34-.25-.5-.47-.47-.12.02-.21.2-.27.54-.06.35-.06.68-.02,1.01.03.25.12.53.27.84.15.34.28.5.39.49.13-.02.21-.19.26-.53.04-.29.04-.6,0-.92Z" style="fill: #724866; stroke-width: 0px;"/>
          <path d="M31.76,31.86c-.04.21-.19.32-.43.36-.31.04-.55-.04-.73-.23-.09-.11-.19-.5-.28-1.19-.01-.1-.03-.24-.05-.42-.02-.19-.03-.32-.04-.39-.05-.37-.09-.56-.13-.57-.08-.02-.26.76-.53,2.34,0,0,0,.13.02.39,0,.16-.03.27-.12.33-.06.05-.14.08-.22.09-.15.02-.31-.01-.47-.09-.16-.08-.26-.19-.32-.32-.08-.19-.15-.58-.22-1.16-.1-.85-.15-1.26-.14-1.22-.03-.22-.06-.33-.09-.34-.1.22-.18.43-.24.62-.16.48-.24.86-.23,1.17-.02.07,0,.19.04.38.04.16.03.27-.03.34-.06.07-.15.11-.27.12-.13.02-.26,0-.4-.06-.14-.05-.25-.12-.32-.21-.1-.12-.2-.5-.29-1.15-.08-.63-.16-1.26-.24-1.89-.01-.05-.04-.12-.09-.21-.05-.09-.08-.16-.08-.21,0-.05,0-.09.02-.14.06-.12.22-.19.51-.23.35-.04.56.01.66.17.02.04.03.07.04.11,0,.05,0,.12-.05.22s-.05.17-.05.23l.12.91c.12-.36.27-.81.47-1.36.02-.07.04-.15.07-.22.02-.07.06-.14.11-.2.05-.06.15-.1.29-.12.21-.03.43,0,.66.06.23.07.35.17.38.3.02.14.02.25-.02.32-.04.08-.05.14-.04.19l.21,1.73c.06-.2.16-.67.29-1.42.11-.57.2-.89.28-.96.11-.1.27-.17.5-.2.43-.05.66.04.71.28.08.65.22,1.74.42,3.26,0,.06.07.12.19.19.12.07.18.15.19.24,0,.04,0,.1-.01.16Z" style="fill: #724866; stroke-width: 0px;"/>
        </g>
      </g>
    </g>
  </g>
</svg>